<svg width="57" height="65" viewBox="0 0 57 65" fill="none" xmlns="http://www.w3.org/2000/svg">
<path d="M46.6765 28.4286C46.3723 28.4286 46.0805 28.3082 45.8654 28.0938C45.6503 27.8795 45.5294 27.5888 45.5294 27.2857V17H21.4412C20.5285 17 19.6532 17.3612 19.0079 18.0042C18.3626 18.6472 18 19.5193 18 20.4286V61.5714C18 62.4807 18.3626 63.3528 19.0079 63.9958C19.6532 64.6388 20.5285 65 21.4412 65H53.5588C54.4715 65 55.3468 64.6388 55.9921 63.9958C56.6374 63.3528 57 62.4807 57 61.5714V28.4286H46.6765ZM24.8824 26.1429H38.6471C38.9513 26.1429 39.243 26.2633 39.4582 26.4776C39.6733 26.6919 39.7941 26.9826 39.7941 27.2857C39.7941 27.5888 39.6733 27.8795 39.4582 28.0938C39.243 28.3082 38.9513 28.4286 38.6471 28.4286H24.8824C24.5781 28.4286 24.2864 28.3082 24.0713 28.0938C23.8561 27.8795 23.7353 27.5888 23.7353 27.2857C23.7353 26.9826 23.8561 26.6919 24.0713 26.4776C24.2864 26.2633 24.5781 26.1429 24.8824 26.1429ZM50.1176 55.8571H24.8824C24.5781 55.8571 24.2864 55.7367 24.0713 55.5224C23.8561 55.3081 23.7353 55.0174 23.7353 54.7143C23.7353 54.4112 23.8561 54.1205 24.0713 53.9062C24.2864 53.6918 24.5781 53.5714 24.8824 53.5714H50.1176C50.4219 53.5714 50.7136 53.6918 50.9287 53.9062C51.1439 54.1205 51.2647 54.4112 51.2647 54.7143C51.2647 55.0174 51.1439 55.3081 50.9287 55.5224C50.7136 55.7367 50.4219 55.8571 50.1176 55.8571ZM50.1176 46.7143H24.8824C24.5781 46.7143 24.2864 46.5939 24.0713 46.3796C23.8561 46.1652 23.7353 45.8745 23.7353 45.5714C23.7353 45.2683 23.8561 44.9776 24.0713 44.7633C24.2864 44.549 24.5781 44.4286 24.8824 44.4286H50.1176C50.4219 44.4286 50.7136 44.549 50.9287 44.7633C51.1439 44.9776 51.2647 45.2683 51.2647 45.5714C51.2647 45.8745 51.1439 46.1652 50.9287 46.3796C50.7136 46.5939 50.4219 46.7143 50.1176 46.7143ZM50.1176 37.5714H24.8824C24.5781 37.5714 24.2864 37.451 24.0713 37.2367C23.8561 37.0224 23.7353 36.7317 23.7353 36.4286C23.7353 36.1255 23.8561 35.8348 24.0713 35.6204C24.2864 35.4061 24.5781 35.2857 24.8824 35.2857H50.1176C50.4219 35.2857 50.7136 35.4061 50.9287 35.6204C51.1439 35.8348 51.2647 36.1255 51.2647 36.4286C51.2647 36.7317 51.1439 37.0224 50.9287 37.2367C50.7136 37.451 50.4219 37.5714 50.1176 37.5714Z" fill="#076A50" fill-opacity="0.5"/>
<path d="M47 17V27H57L47 17Z" fill="#076A50" fill-opacity="0.5"/>
<path d="M24.893 4.85718C12.5062 4.85718 2.42871 14.9347 2.42871 27.3215C2.42871 39.7082 12.5062 49.7857 24.893 49.7857C37.2798 49.7857 47.3573 39.7082 47.3573 27.3215C47.3573 14.9347 37.2798 4.85718 24.893 4.85718ZM24.893 48.0047C14.158 48.0047 4.20972 38.0564 4.20972 27.3215C4.20972 16.5865 14.158 6.63819 24.893 6.63819C35.6279 6.63819 45.5763 16.5865 45.5763 27.3215C45.5763 38.0564 35.6279 48.0047 24.893 48.0047Z" fill="white"/>
<path d="M32.4162 27.0381H25.2115V15.3405C25.2115 14.5139 25.114 13.9642 24.2858 13.9642C23.4576 13.9642 23.4307 14.5139 23.4307 15.3405V27.3214C23.4307 28.148 24.1 28.8189 24.9282 28.8189H32.4164C33.2446 28.8189 33.9139 28.7551 33.9139 27.9285C33.9139 27.1019 33.2444 27.0381 32.4162 27.0381Z" fill="white"/>
</svg>
