<svg width="34" height="34" viewBox="0 0 34 34" fill="none" xmlns="http://www.w3.org/2000/svg">
<path d="M33.6984 15.3493C31.9277 14.4618 29.9773 14 28 14C26.0227 14 24.0723 14.4618 22.3016 15.3493C22.2106 15.3952 22.134 15.4659 22.0807 15.5534C22.0274 15.6409 21.9995 15.7417 22 15.8444V33.4496C22 33.5434 22.0237 33.6356 22.0689 33.7176C22.1142 33.7995 22.1795 33.8684 22.2585 33.9177C22.3376 33.9671 22.4279 33.9952 22.5208 33.9994C22.6137 34.0037 22.7061 33.9839 22.7893 33.942C24.4083 33.13 26.1919 32.7074 28 32.7074C29.8081 32.7074 31.5917 33.13 33.2107 33.942C33.2939 33.9839 33.3863 34.0037 33.4792 33.9994C33.5721 33.9952 33.6624 33.9671 33.7415 33.9177C33.8205 33.8684 33.8858 33.7995 33.9311 33.7176C33.9763 33.6356 34 33.5434 34 33.4496V15.8444C34.0005 15.7417 33.9726 15.6409 33.9193 15.5534C33.866 15.4659 33.7894 15.3952 33.6984 15.3493ZM31.7893 28.8381C31.7435 28.9765 31.6451 29.0909 31.5157 29.1561C31.3863 29.2213 31.2365 29.232 31.0993 29.1858C29.086 28.5142 26.9118 28.5142 24.8985 29.1858C24.8305 29.2087 24.7587 29.2177 24.6871 29.2126C24.6156 29.2074 24.5458 29.1881 24.4817 29.1557C24.4175 29.1233 24.3604 29.0785 24.3134 29.0238C24.2665 28.9691 24.2306 28.9057 24.208 28.837C24.1854 28.7684 24.1764 28.6959 24.1815 28.6238C24.1866 28.5516 24.2058 28.4812 24.2379 28.4165C24.27 28.3519 24.3144 28.2942 24.3686 28.2468C24.4229 28.1995 24.4858 28.1634 24.5538 28.1405C26.7908 27.3934 29.207 27.3934 31.444 28.1405C31.5125 28.1632 31.5759 28.1994 31.6305 28.2469C31.6851 28.2945 31.7297 28.3525 31.762 28.4175C31.7942 28.4826 31.8133 28.5535 31.8181 28.6261C31.823 28.6986 31.8136 28.7715 31.7904 28.8403L31.7893 28.8381ZM31.7893 24.4368C31.7435 24.5752 31.6451 24.6896 31.5157 24.7548C31.3863 24.82 31.2365 24.8307 31.0993 24.7845C29.086 24.1129 26.9118 24.1129 24.8985 24.7845C24.8305 24.8074 24.7587 24.8165 24.6871 24.8113C24.6156 24.8061 24.5458 24.7868 24.4817 24.7544C24.4175 24.722 24.3604 24.6772 24.3134 24.6225C24.2665 24.5678 24.2306 24.5044 24.208 24.4357C24.1854 24.3671 24.1764 24.2946 24.1815 24.2225C24.1866 24.1503 24.2058 24.0799 24.2379 24.0152C24.27 23.9506 24.3144 23.8929 24.3686 23.8455C24.4229 23.7982 24.4858 23.7621 24.5538 23.7392C26.7908 22.9921 29.207 22.9921 31.444 23.7392C31.5125 23.7619 31.5759 23.7981 31.6305 23.8456C31.6851 23.8932 31.7297 23.9512 31.762 24.0162C31.7942 24.0813 31.8133 24.1522 31.8181 24.2248C31.823 24.2973 31.8136 24.3702 31.7904 24.439L31.7893 24.4368ZM31.7893 20.0355C31.7435 20.1739 31.6451 20.2883 31.5157 20.3535C31.3863 20.4187 31.2365 20.4294 31.0993 20.3832C29.086 19.7116 26.9118 19.7116 24.8985 20.3832C24.8305 20.4061 24.7587 20.4152 24.6871 20.41C24.6156 20.4048 24.5458 20.3855 24.4817 20.3531C24.4175 20.3207 24.3604 20.2759 24.3134 20.2212C24.2665 20.1665 24.2306 20.1031 24.208 20.0344C24.1854 19.9658 24.1764 19.8933 24.1815 19.8212C24.1866 19.7491 24.2058 19.6786 24.2379 19.614C24.27 19.5493 24.3144 19.4916 24.3686 19.4443C24.4229 19.3969 24.4858 19.3608 24.5538 19.3379C26.7908 18.5908 29.207 18.5908 31.444 19.3379C31.5125 19.3606 31.5759 19.3968 31.6305 19.4443C31.6851 19.4919 31.7297 19.5499 31.762 19.6149C31.7942 19.68 31.8133 19.7509 31.8181 19.8235C31.823 19.896 31.8136 19.9689 31.7904 20.0377L31.7893 20.0355Z" fill="#00A87C" fill-opacity="0.5"/>
<path d="M20.6732 15.3493C18.755 14.4618 16.642 14 14.5 14C12.358 14 10.245 14.4618 8.32678 15.3493C8.2281 15.3952 8.1452 15.4659 8.08745 15.5534C8.0297 15.6409 7.99941 15.7417 8.00001 15.8444V33.4496C7.99996 33.5434 8.02567 33.6356 8.07469 33.7176C8.12371 33.7995 8.19441 33.8684 8.28008 33.9177C8.36575 33.9671 8.46355 33.9952 8.56418 33.9994C8.66481 34.0037 8.76494 33.9839 8.85505 33.942C10.609 33.13 12.5412 32.7074 14.5 32.7074C16.4588 32.7074 18.391 33.13 20.1449 33.942C20.2351 33.9839 20.3352 34.0037 20.4358 33.9994C20.5364 33.9952 20.6342 33.9671 20.7199 33.9177C20.8056 33.8684 20.8763 33.7995 20.9253 33.7176C20.9743 33.6356 21 33.5434 21 33.4496V15.8444C21.0006 15.7417 20.9703 15.6409 20.9126 15.5534C20.8548 15.4659 20.7719 15.3952 20.6732 15.3493ZM18.605 28.8381C18.5554 28.9765 18.4488 29.0909 18.3086 29.1561C18.1684 29.2213 18.0062 29.232 17.8575 29.1858C15.6765 28.5142 13.3211 28.5142 11.1401 29.1858C11.0664 29.2087 10.9885 29.2177 10.9111 29.2126C10.8336 29.2074 10.7579 29.1881 10.6885 29.1557C10.619 29.1233 10.5571 29.0785 10.5062 29.0238C10.4553 28.9691 10.4165 28.9057 10.392 28.837C10.3675 28.7684 10.3577 28.6959 10.3633 28.6238C10.3688 28.5516 10.3896 28.4812 10.4244 28.4165C10.4592 28.3519 10.5073 28.2942 10.566 28.2468C10.6248 28.1995 10.6929 28.1634 10.7666 28.1405C13.1901 27.3934 15.8076 27.3934 18.231 28.1405C18.3052 28.1632 18.3739 28.1994 18.433 28.2469C18.4921 28.2945 18.5406 28.3525 18.5754 28.4175C18.6103 28.4826 18.631 28.5535 18.6363 28.6261C18.6416 28.6986 18.6314 28.7715 18.6062 28.8403L18.605 28.8381ZM18.605 24.4368C18.5554 24.5752 18.4488 24.6896 18.3086 24.7548C18.1684 24.82 18.0062 24.8307 17.8575 24.7845C15.6765 24.1129 13.3211 24.1129 11.1401 24.7845C11.0664 24.8074 10.9885 24.8165 10.9111 24.8113C10.8336 24.8061 10.7579 24.7868 10.6885 24.7544C10.619 24.722 10.5571 24.6772 10.5062 24.6225C10.4553 24.5678 10.4165 24.5044 10.392 24.4357C10.3675 24.3671 10.3577 24.2946 10.3633 24.2225C10.3688 24.1503 10.3896 24.0799 10.4244 24.0152C10.4592 23.9506 10.5073 23.8929 10.566 23.8455C10.6248 23.7982 10.6929 23.7621 10.7666 23.7392C13.1901 22.9921 15.8076 22.9921 18.231 23.7392C18.3052 23.7619 18.3739 23.7981 18.433 23.8456C18.4921 23.8932 18.5406 23.9512 18.5754 24.0162C18.6103 24.0813 18.631 24.1522 18.6363 24.2248C18.6416 24.2973 18.6314 24.3702 18.6062 24.439L18.605 24.4368ZM18.605 20.0355C18.5554 20.1739 18.4488 20.2883 18.3086 20.3535C18.1684 20.4187 18.0062 20.4294 17.8575 20.3832C15.6765 19.7116 13.3211 19.7116 11.1401 20.3832C11.0664 20.4061 10.9885 20.4152 10.9111 20.41C10.8336 20.4048 10.7579 20.3855 10.6885 20.3531C10.619 20.3207 10.5571 20.2759 10.5062 20.2212C10.4553 20.1665 10.4165 20.1031 10.392 20.0344C10.3675 19.9658 10.3577 19.8933 10.3633 19.8212C10.3688 19.7491 10.3896 19.6786 10.4244 19.614C10.4592 19.5493 10.5073 19.4916 10.566 19.4443C10.6248 19.3969 10.6929 19.3608 10.7666 19.3379C13.1901 18.5908 15.8076 18.5908 18.231 19.3379C18.3052 19.3606 18.3739 19.3968 18.433 19.4443C18.4921 19.4919 18.5406 19.5499 18.5754 19.6149C18.6103 19.68 18.631 19.7509 18.6363 19.8235C18.6416 19.896 18.6314 19.9689 18.6062 20.0377L18.605 20.0355Z" fill="#00A87C" fill-opacity="0.5"/>
<path d="M27.9677 22.4839H26.3226V9.87097H27.4193C27.5172 9.87097 27.6133 9.84476 27.6977 9.79508C27.782 9.74539 27.8515 9.67404 27.899 9.58842C27.9464 9.5028 27.9701 9.40604 27.9675 9.30818C27.965 9.21033 27.9363 9.11494 27.8844 9.03193L25.4649 5.16032C25.3177 4.92309 25.1122 4.7275 24.868 4.59215C24.6238 4.4568 24.349 4.38621 24.0698 4.3871H14.8064V3.29032H18.6452C18.7906 3.29032 18.9301 3.23255 19.0329 3.1297C19.1358 3.02686 19.1935 2.88738 19.1935 2.74193V0.548387C19.1935 0.402946 19.1358 0.263461 19.0329 0.160619C18.9301 0.0577763 18.7906 0 18.6452 0H14.2581C14.1126 0 13.9731 0.0577763 13.8703 0.160619C13.7674 0.263461 13.7097 0.402946 13.7097 0.548387V4.3871H4.44632C4.16712 4.38621 3.89235 4.4568 3.64815 4.59215C3.40395 4.7275 3.19845 4.92309 3.05122 5.16032L0.631742 9.03193C0.57986 9.11494 0.551144 9.21033 0.548575 9.30818C0.546005 9.40604 0.569676 9.5028 0.61713 9.58842C0.664584 9.67404 0.734091 9.74539 0.818435 9.79508C0.902778 9.84476 0.998884 9.87097 1.09677 9.87097H2.19355V22.4839H0.548387C0.402946 22.4839 0.263461 22.5416 0.160619 22.6445C0.0577763 22.7473 0 22.8868 0 23.0323C0 23.1777 0.0577763 23.3172 0.160619 23.42C0.263461 23.5229 0.402946 23.5806 0.548387 23.5806H27.9677C28.1132 23.5806 28.2527 23.5229 28.3555 23.42C28.4583 23.3172 28.5161 23.1777 28.5161 23.0323C28.5161 22.8868 28.4583 22.7473 28.3555 22.6445C28.2527 22.5416 28.1132 22.4839 27.9677 22.4839ZM24.5343 5.74161L26.4323 8.77419H20.4685L15.9444 5.48387H24.0698C24.1628 5.48355 24.2543 5.50707 24.3356 5.55219C24.417 5.59731 24.4853 5.66253 24.5343 5.74161ZM14.8064 1.09677H18.0968V2.19355H14.8064V1.09677ZM3.98184 5.74161C4.03077 5.66253 4.09916 5.59731 4.18048 5.55219C4.2618 5.50707 4.35332 5.48355 4.44632 5.48387H12.5718L8.04758 8.77419H2.08387L3.98184 5.74161ZM3.29032 9.87097H7.67742V22.4839H3.29032V9.87097ZM8.77419 9.60171L14.2581 5.61329L19.7419 9.60171V22.4839H17.5484V18.6452C17.5484 18.2088 17.3751 17.7904 17.0665 17.4819C16.758 17.1733 16.3395 17 15.9032 17H12.6129C12.1766 17 11.7581 17.1733 11.4496 17.4819C11.1411 17.7904 10.9677 18.2088 10.9677 18.6452V22.4839H8.77419V9.60171ZM12.0645 18.6452C12.0645 18.4997 12.1223 18.3602 12.2251 18.2574C12.328 18.1545 12.4675 18.0968 12.6129 18.0968H13.7097V22.4839H12.0645V18.6452ZM14.8064 22.4839V18.0968H15.9032C16.0487 18.0968 16.1881 18.1545 16.291 18.2574C16.3938 18.3602 16.4516 18.4997 16.4516 18.6452V22.4839H14.8064ZM20.8387 22.4839V9.87097H25.2258V22.4839H20.8387Z" fill="#061058"/>
<path d="M14.258 12.0643C14.6918 12.0643 15.1159 11.9357 15.4767 11.6947C15.8374 11.4536 16.1186 11.111 16.2846 10.7102C16.4506 10.3094 16.494 9.86836 16.4094 9.44286C16.3248 9.01735 16.1158 8.6265 15.8091 8.31972C15.5023 8.01295 15.1114 7.80403 14.6859 7.7194C14.2604 7.63476 13.8194 7.6782 13.4186 7.84422C13.0177 8.01025 12.6752 8.2914 12.4341 8.65213C12.1931 9.01285 12.0645 9.43695 12.0645 9.8708C12.0645 10.4526 12.2956 11.0105 12.7069 11.4219C13.1183 11.8332 13.6762 12.0643 14.258 12.0643ZM14.258 8.77402C14.4749 8.77402 14.687 8.83835 14.8673 8.95886C15.0477 9.07938 15.1883 9.25067 15.2713 9.45108C15.3543 9.65149 15.376 9.87201 15.3337 10.0848C15.2914 10.2975 15.1869 10.4929 15.0335 10.6463C14.8802 10.7997 14.6847 10.9042 14.472 10.9465C14.2592 10.9888 14.0387 10.9671 13.8383 10.8841C13.6379 10.8011 13.4666 10.6605 13.3461 10.4801C13.2256 10.2998 13.1612 10.0877 13.1612 9.8708C13.1612 9.57991 13.2768 9.30094 13.4825 9.09526C13.6881 8.88957 13.9671 8.77402 14.258 8.77402Z" fill="#061058"/>
<path d="M10.9678 14.8062H12.0646C12.21 14.8062 12.3495 14.7485 12.4524 14.6456C12.5552 14.5428 12.613 14.4033 12.613 14.2579C12.613 14.1124 12.5552 13.9729 12.4524 13.8701C12.3495 13.7672 12.21 13.7095 12.0646 13.7095H10.9678C10.8224 13.7095 10.6829 13.7672 10.5801 13.8701C10.4772 13.9729 10.4194 14.1124 10.4194 14.2579C10.4194 14.4033 10.4772 14.5428 10.5801 14.6456C10.6829 14.7485 10.8224 14.8062 10.9678 14.8062Z" fill="#061058"/>
<path d="M6.03237 11.5159H4.93559C4.79015 11.5159 4.65067 11.5736 4.54783 11.6765C4.44498 11.7793 4.38721 11.9188 4.38721 12.0643C4.38721 12.2097 4.44498 12.3492 4.54783 12.452C4.65067 12.5549 4.79015 12.6126 4.93559 12.6126H6.03237C6.17781 12.6126 6.31729 12.5549 6.42014 12.452C6.52298 12.3492 6.58075 12.2097 6.58075 12.0643C6.58075 11.9188 6.52298 11.7793 6.42014 11.6765C6.31729 11.5736 6.17781 11.5159 6.03237 11.5159Z" fill="#061058"/>
<path d="M6.03237 15.3546H4.93559C4.79015 15.3546 4.65067 15.4124 4.54783 15.5152C4.44498 15.6181 4.38721 15.7576 4.38721 15.903C4.38721 16.0484 4.44498 16.1879 4.54783 16.2908C4.65067 16.3936 4.79015 16.4514 4.93559 16.4514H6.03237C6.17781 16.4514 6.31729 16.3936 6.42014 16.2908C6.52298 16.1879 6.58075 16.0484 6.58075 15.903C6.58075 15.7576 6.52298 15.6181 6.42014 15.5152C6.31729 15.4124 6.17781 15.3546 6.03237 15.3546Z" fill="#061058"/>
<path d="M6.03237 19.1934H4.93559C4.79015 19.1934 4.65067 19.2511 4.54783 19.354C4.44498 19.4568 4.38721 19.5963 4.38721 19.7417C4.38721 19.8872 4.44498 20.0267 4.54783 20.1295C4.65067 20.2324 4.79015 20.2901 4.93559 20.2901H6.03237C6.17781 20.2901 6.31729 20.2324 6.42014 20.1295C6.52298 20.0267 6.58075 19.8872 6.58075 19.7417C6.58075 19.5963 6.52298 19.4568 6.42014 19.354C6.31729 19.2511 6.17781 19.1934 6.03237 19.1934Z" fill="#061058"/>
<path d="M23.5807 11.5159H22.4839C22.3385 11.5159 22.199 11.5736 22.0962 11.6765C21.9933 11.7793 21.9355 11.9188 21.9355 12.0643C21.9355 12.2097 21.9933 12.3492 22.0962 12.452C22.199 12.5549 22.3385 12.6126 22.4839 12.6126H23.5807C23.7261 12.6126 23.8656 12.5549 23.9685 12.452C24.0713 12.3492 24.1291 12.2097 24.1291 12.0643C24.1291 11.9188 24.0713 11.7793 23.9685 11.6765C23.8656 11.5736 23.7261 11.5159 23.5807 11.5159Z" fill="#061058"/>
<path d="M23.5807 15.3546H22.4839C22.3385 15.3546 22.199 15.4124 22.0962 15.5152C21.9933 15.6181 21.9355 15.7576 21.9355 15.903C21.9355 16.0484 21.9933 16.1879 22.0962 16.2908C22.199 16.3936 22.3385 16.4514 22.4839 16.4514H23.5807C23.7261 16.4514 23.8656 16.3936 23.9685 16.2908C24.0713 16.1879 24.1291 16.0484 24.1291 15.903C24.1291 15.7576 24.0713 15.6181 23.9685 15.5152C23.8656 15.4124 23.7261 15.3546 23.5807 15.3546Z" fill="#061058"/>
<path d="M23.5807 19.1934H22.4839C22.3385 19.1934 22.199 19.2511 22.0962 19.354C21.9933 19.4568 21.9355 19.5963 21.9355 19.7417C21.9355 19.8872 21.9933 20.0267 22.0962 20.1295C22.199 20.2324 22.3385 20.2901 22.4839 20.2901H23.5807C23.7261 20.2901 23.8656 20.2324 23.9685 20.1295C24.0713 20.0267 24.1291 19.8872 24.1291 19.7417C24.1291 19.5963 24.0713 19.4568 23.9685 19.354C23.8656 19.2511 23.7261 19.1934 23.5807 19.1934Z" fill="#061058"/>
<path d="M15.9033 14.2579C15.9033 14.4033 15.9611 14.5428 16.0639 14.6456C16.1668 14.7485 16.3063 14.8062 16.4517 14.8062H17.5485C17.6939 14.8062 17.8334 14.7485 17.9362 14.6456C18.0391 14.5428 18.0969 14.4033 18.0969 14.2579C18.0969 14.1124 18.0391 13.9729 17.9362 13.8701C17.8334 13.7672 17.6939 13.7095 17.5485 13.7095H16.4517C16.3063 13.7095 16.1668 13.7672 16.0639 13.8701C15.9611 13.9729 15.9033 14.1124 15.9033 14.2579Z" fill="#061058"/>
</svg>
