<svg width="70" height="53" viewBox="0 0 70 53" fill="none" xmlns="http://www.w3.org/2000/svg">
<path d="M62.8753 48.2737C58.3985 48.2737 58.2133 50.2541 54.2961 50.2541C50.4263 50.2541 50.1589 48.2737 45.7129 48.2737C41.2411 48.2737 41.051 50.2541 37.1277 50.2541H29.1753C29.8061 50.0442 30.4359 49.8323 31.0567 49.6016C31.2754 48.4793 31.2134 47.3203 30.876 46.2278C30.5387 45.1353 29.9365 44.1431 29.1231 43.3395C28.3097 42.5358 27.3102 41.9457 26.2137 41.6217C25.1172 41.2976 23.9575 41.2495 22.838 41.4818C21.7216 44.6008 20.8771 47.8105 20.3139 51.075C20.2893 51.217 20.2959 51.3627 20.3334 51.5018C20.3708 51.6409 20.4382 51.7702 20.5308 51.8806C20.6234 51.9911 20.739 52.0799 20.8694 52.1411C20.9999 52.2022 21.1422 52.2341 21.2863 52.2346H37.1297C41.6104 52.2346 41.7837 50.2541 45.7149 50.2541C49.5846 50.2541 49.851 52.2346 54.298 52.2346C58.7679 52.2346 58.9659 50.2541 62.8773 50.2541C63.1399 50.2541 63.3917 50.1498 63.5774 49.9641C63.7631 49.7784 63.8675 49.5266 63.8675 49.2639C63.8675 49.0013 63.7631 48.7494 63.5774 48.5637C63.3917 48.378 63.1399 48.2737 62.8773 48.2737H62.8753Z" fill="#00A87C" fill-opacity="0.5"/>
<path d="M68.794 22.7479L65.0629 18.9633L66.1432 17.8612C66.7928 17.1954 67.1564 16.3021 67.1564 15.3718C67.1564 14.4416 66.7928 13.5483 66.1432 12.8824L59.0791 5.70736C58.4176 5.06359 57.531 4.70337 56.608 4.70337C55.6849 4.70337 54.7984 5.06359 54.1369 5.70736L50.7949 9.10082C51.1174 9.24766 51.4109 9.45124 51.6614 9.70188L62.2566 20.4606C62.4833 20.69 62.6709 20.9549 62.8122 21.2448L63.6727 20.3704L67.383 24.1333C67.6694 24.4272 67.8297 24.8215 67.8297 25.2319C67.8297 25.6423 67.6694 26.0365 67.383 26.3305L53.2546 40.6837C53.1551 40.7743 53.075 40.8843 53.0194 41.007C52.9638 41.1296 52.9338 41.2623 52.9312 41.3969C52.9287 41.5315 52.9536 41.6653 53.0044 41.7899C53.0553 41.9146 53.131 42.0276 53.2271 42.122C53.3231 42.2164 53.4373 42.2902 53.5628 42.3389C53.6884 42.3877 53.8225 42.4103 53.9571 42.4054C54.0916 42.4006 54.2238 42.3683 54.3454 42.3106C54.4671 42.253 54.5757 42.1711 54.6647 42.07L68.795 27.7218C69.443 27.0561 69.8055 26.1637 69.8053 25.2347C69.8051 24.3057 69.4423 23.4134 68.794 22.7479Z" fill="#00A87C" fill-opacity="0.5"/>
<path d="M33.1444 48.7787C36.2852 47.4687 39.2972 45.8692 42.1415 44.0009C50.107 38.7116 56.6015 31.4891 61.0179 23.0084C61.115 22.8226 61.1506 22.6108 61.1197 22.4035C61.0887 22.1962 60.9927 22.0041 60.8456 21.8548L50.2503 11.0922C50.0999 10.9395 49.904 10.8399 49.692 10.8081C49.4801 10.7763 49.2636 10.8141 49.075 10.9159C37.5092 17.1201 28.4989 27.2007 23.6265 39.3875C24.8891 39.2958 26.1567 39.4747 27.3445 39.9125C28.5323 40.3502 29.613 41.0366 30.5141 41.9257C31.4152 42.8148 32.116 43.8862 32.5697 45.068C33.0233 46.2499 33.2192 47.515 33.1444 48.7787Z" fill="#00A87C" fill-opacity="0.5"/>
<path d="M46.5401 -0.00012207H2.97064C2.18278 -0.00012207 1.42718 0.312855 0.870081 0.869959C0.312977 1.42706 0 2.18266 0 2.97052V30.6965C0 31.4844 0.312977 32.24 0.870081 32.7971C1.42718 33.3542 2.18278 33.6672 2.97064 33.6672H19.626L17.9754 42.5791H16.8336C16.571 42.5791 16.3192 42.6834 16.1334 42.8691C15.9477 43.0548 15.8434 43.3067 15.8434 43.5693C15.8434 43.8319 15.9477 44.0838 16.1334 44.2695C16.3192 44.4552 16.571 44.5595 16.8336 44.5595H32.6771C32.9397 44.5595 33.1915 44.4552 33.3772 44.2695C33.563 44.0838 33.6673 43.8319 33.6673 43.5693C33.6673 43.3067 33.563 43.0548 33.3772 42.8691C33.1915 42.6834 32.9397 42.5791 32.6771 42.5791H31.5353L29.8847 33.6672H46.5401C47.3279 33.6672 48.0835 33.3542 48.6406 32.7971C49.1977 32.24 49.5107 31.4844 49.5107 30.6965V2.97052C49.5107 2.18266 49.1977 1.42706 48.6406 0.869959C48.0835 0.312855 47.3279 -0.00012207 46.5401 -0.00012207ZM29.5272 42.5791H19.9835L21.6332 33.6672H27.8775L29.5272 42.5791ZM47.5303 30.6965C47.5303 30.9591 47.4259 31.211 47.2402 31.3967C47.0545 31.5824 46.8027 31.6867 46.5401 31.6867H2.97064C2.70802 31.6867 2.45616 31.5824 2.27045 31.3967C2.08475 31.211 1.98043 30.9591 1.98043 30.6965V2.97052C1.98043 2.7079 2.08475 2.45603 2.27045 2.27033C2.45616 2.08463 2.70802 1.98031 2.97064 1.98031H46.5401C46.8027 1.98031 47.0545 2.08463 47.2402 2.27033C47.4259 2.45603 47.5303 2.7079 47.5303 2.97052V30.6965Z" fill="#151A6A"/>
<path d="M42.5793 3.96069H6.93158C6.14372 3.96069 5.38812 4.27367 4.83102 4.83077C4.27392 5.38788 3.96094 6.14347 3.96094 6.93134V22.7748C3.96094 23.5626 4.27392 24.3182 4.83102 24.8753C5.38812 25.4324 6.14372 25.7454 6.93158 25.7454H42.5793C43.3671 25.7454 44.1227 25.4324 44.6798 24.8753C45.2369 24.3182 45.5499 23.5626 45.5499 22.7748V6.93134C45.5499 6.14347 45.2369 5.38788 44.6798 4.83077C44.1227 4.27367 43.3671 3.96069 42.5793 3.96069ZM43.5695 22.7748C43.5695 23.0374 43.4652 23.2892 43.2795 23.4749C43.0938 23.6606 42.8419 23.765 42.5793 23.765H6.93158C6.66896 23.765 6.41709 23.6606 6.23139 23.4749C6.04569 23.2892 5.94137 23.0374 5.94137 22.7748V6.93134C5.94137 6.66871 6.04569 6.41685 6.23139 6.23115C6.41709 6.04545 6.66896 5.94112 6.93158 5.94112H42.5793C42.8419 5.94112 43.0938 6.04545 43.2795 6.23115C43.4652 6.41685 43.5695 6.66871 43.5695 6.93134V22.7748Z" fill="#151A6A"/>
<path d="M26.7357 27.7259H22.7749C22.5123 27.7259 22.2604 27.8302 22.0747 28.0159C21.889 28.2016 21.7847 28.4535 21.7847 28.7161C21.7847 28.9787 21.889 29.2306 22.0747 29.4163C22.2604 29.602 22.5123 29.7063 22.7749 29.7063H26.7357C26.9984 29.7063 27.2502 29.602 27.4359 29.4163C27.6216 29.2306 27.726 28.9787 27.726 28.7161C27.726 28.4535 27.6216 28.2016 27.4359 28.0159C27.2502 27.8302 26.9984 27.7259 26.7357 27.7259Z" fill="#151A6A"/>
</svg>
