<svg width="71" height="74" viewBox="0 0 71 74" fill="none" xmlns="http://www.w3.org/2000/svg">
<g opacity="0.5">
<path d="M68.4947 25.2706C69.3315 25.2706 70.0846 25.9401 70.0846 26.7768C70.0846 27.6136 69.4152 28.3667 68.5784 28.3667C67.7416 28.3667 66.9885 27.6973 66.9885 26.8605C66.9885 26.0237 67.658 25.2706 68.4947 25.2706ZM68.7458 34.0568C69.5826 34.0568 70.3356 34.7262 70.3356 35.563C70.3356 36.3998 69.6662 37.1529 68.8294 37.1529C67.9927 37.1529 67.2396 36.4835 67.2396 35.6467C67.2396 34.8099 67.909 34.0568 68.7458 34.0568ZM69.0805 42.843C69.9173 42.843 70.6703 43.5124 70.6703 44.3492C70.6703 45.1859 70.0009 45.939 69.1642 45.939C68.3274 45.939 67.5743 45.2696 67.5743 44.4328C67.5743 43.5961 68.2437 42.843 69.0805 42.843ZM2.22201 48.031C1.38523 48.031 0.632128 47.3616 0.632128 46.5248C0.632128 45.688 1.30155 44.9349 2.13833 44.9349C2.97511 44.9349 3.72821 45.6043 3.72821 46.4411C3.72821 47.2779 3.05878 48.031 2.22201 48.031ZM1.88729 39.2448C1.05052 39.2448 0.297422 38.5754 0.297422 37.7386C0.297422 36.9018 0.96684 36.1487 1.80362 36.1487C2.64039 36.1487 3.39349 36.8182 3.39349 37.6549C3.39349 38.4917 2.72407 39.2448 1.88729 39.2448ZM1.63626 30.4586C0.799487 30.4586 0.0463867 29.7892 0.0463867 28.9525C0.0463867 28.1157 0.715811 27.3626 1.55259 27.3626C2.38936 27.3626 3.14246 28.032 3.14246 28.8688C3.14246 29.7056 2.47304 30.4586 1.63626 30.4586ZM12.0123 56.4824C11.1755 56.4824 10.4224 55.813 10.4224 54.9762C10.4224 54.1395 11.0918 53.3863 11.9286 53.3863C12.7654 53.3863 13.5185 54.0558 13.5185 54.8925C13.5185 55.813 12.9328 56.4824 12.0123 56.4824ZM11.7613 47.6963C10.9245 47.6963 10.1714 47.0268 10.1714 46.1901C10.1714 45.3533 10.8408 44.6002 11.6776 44.6002C12.5144 44.6002 13.2675 45.2696 13.2675 46.1064C13.2675 47.0268 12.598 47.6963 11.7613 47.6963ZM11.5102 38.9101C10.6735 38.9101 9.92036 38.2407 9.92036 37.4039C9.92036 36.5671 10.5898 35.814 11.4266 35.814C12.2633 35.814 13.0164 36.4835 13.0164 37.3202C13.0164 38.2407 12.347 38.9101 11.5102 38.9101ZM11.1755 30.1239C10.3387 30.1239 9.58564 29.4545 9.58564 28.6177C9.58564 27.781 10.2551 27.0279 11.0918 27.0279C11.9286 27.0279 12.6817 27.6973 12.6817 28.5341C12.6817 29.4545 12.0123 30.1239 11.1755 30.1239ZM10.9245 21.3378C10.0877 21.3378 9.33461 20.6684 9.33461 19.8316C9.33461 18.9948 10.004 18.2417 10.8408 18.2417C11.6776 18.2417 12.4307 18.9111 12.4307 19.7479C12.4307 20.6684 11.7613 21.3378 10.9245 21.3378ZM21.8863 65.0176C21.0495 65.0176 20.2964 64.3481 20.2964 63.5113C20.2964 62.6746 20.9658 61.9215 21.8026 61.9215C22.6394 61.9215 23.3925 62.5909 23.3925 63.4277C23.3925 64.2644 22.723 64.9339 21.8863 65.0176ZM21.6352 56.2314C20.7985 56.2314 20.0454 55.562 20.0454 54.7252C20.0454 53.8884 20.7148 53.1353 21.5515 53.1353C22.3883 53.1353 23.1414 53.8047 23.1414 54.6415C23.1414 55.4783 22.472 56.1477 21.6352 56.2314ZM21.3005 47.4452C20.4637 47.4452 19.7106 46.7758 19.7106 45.939C19.7106 45.1022 20.3801 44.3492 21.2168 44.3492C22.0536 44.3492 22.8067 45.0186 22.8067 45.8553C22.8067 46.6921 22.1373 47.3616 21.3005 47.4452ZM21.0495 38.6591C20.2127 38.6591 19.4596 37.9896 19.4596 37.1529C19.4596 36.3161 20.129 35.563 20.9658 35.563C21.8026 35.563 22.5557 36.2324 22.5557 37.0692C22.5557 37.906 21.8863 38.5754 21.0495 38.6591ZM20.7985 29.8729C19.9617 29.8729 19.2086 29.2035 19.2086 28.3667C19.2086 27.5299 19.878 26.7768 20.7148 26.7768C21.5515 26.7768 22.3046 27.4463 22.3046 28.283C22.3046 29.1198 21.6352 29.7892 20.7985 29.8729ZM20.4637 21.0867C19.627 21.0867 18.8739 20.4173 18.8739 19.5805C18.8739 18.7438 19.5433 17.9907 20.3801 17.9907C21.2168 17.9907 21.9699 18.6601 21.9699 19.4969C21.9699 20.3337 21.3005 21.0031 20.4637 21.0867ZM20.2127 12.3006C19.3759 12.3006 18.6228 11.6312 18.6228 10.7944C18.6228 9.95761 19.2923 9.20452 20.129 9.20452C20.9658 9.20452 21.7189 9.87394 21.7189 10.7107C21.7189 11.5475 21.0495 12.2169 20.2127 12.3006ZM31.4255 64.6828C30.5887 64.6828 29.8356 64.0134 29.8356 63.1766C29.8356 62.3399 30.5051 61.5868 31.3418 61.5868C32.1786 61.5868 32.9317 62.2562 32.9317 63.0929C32.9317 63.9297 32.2623 64.6828 31.4255 64.6828ZM31.1745 55.8967C30.3377 55.8967 29.5846 55.2272 29.5846 54.3905C29.5846 53.5537 30.254 52.8006 31.0908 52.8006C31.9276 52.8006 32.6807 53.47 32.6807 54.3068C32.6807 55.1436 32.0113 55.8967 31.1745 55.8967ZM30.9235 47.1105C30.0867 47.1105 29.3336 46.4411 29.3336 45.6043C29.3336 44.7675 30.003 44.0144 30.8398 44.0144C31.6766 44.0144 32.4296 44.6839 32.4296 45.5206C32.4296 46.3574 31.7602 47.1105 30.9235 47.1105ZM30.5887 38.3243C29.752 38.3243 28.9989 37.6549 28.9989 36.8182C28.9989 35.9814 29.6683 35.2283 30.5051 35.2283C31.3418 35.2283 32.0949 35.8977 32.0949 36.7345C32.0949 37.5713 31.4255 38.3243 30.5887 38.3243ZM30.3377 29.5382C29.5009 29.5382 28.7478 28.8688 28.7478 28.032C28.7478 27.1952 29.4173 26.4421 30.254 26.4421C31.0908 26.4421 31.8439 27.1115 31.8439 27.9483C31.8439 28.7851 31.1745 29.5382 30.3377 29.5382ZM30.0867 20.752C29.2499 20.752 28.4968 20.0826 28.4968 19.2458C28.4968 18.4091 29.1662 17.656 30.003 17.656C30.8398 17.656 31.5929 18.3254 31.5929 19.1622C31.5929 19.9989 30.9235 20.752 30.0867 20.752ZM29.752 11.9659C28.9152 11.9659 28.1621 11.2965 28.1621 10.4597C28.1621 9.62291 28.8315 8.86981 29.6683 8.86981C30.5051 8.86981 31.2582 9.53922 31.2582 10.376C31.2582 11.2128 30.5887 11.9659 29.752 11.9659ZM41.0485 64.3481C40.2117 64.3481 39.4586 63.6787 39.4586 62.8419C39.4586 62.0051 40.128 61.2521 40.9648 61.2521C41.8016 61.2521 42.5547 61.9215 42.5547 62.7582C42.5547 63.6787 41.8852 64.3481 41.0485 64.3481ZM40.7137 55.562C39.877 55.562 39.1239 54.8925 39.1239 54.0558C39.1239 53.219 39.7933 52.4659 40.6301 52.4659C41.4668 52.4659 42.2199 53.1353 42.2199 53.9721C42.2199 54.8925 41.5505 55.562 40.7137 55.562ZM40.4627 46.7758C39.6259 46.7758 38.8728 46.1064 38.8728 45.2696C38.8728 44.4328 39.5423 43.6797 40.379 43.6797C41.2158 43.6797 41.9689 44.3492 41.9689 45.1859C41.9689 46.1064 41.2995 46.7758 40.4627 46.7758ZM40.2117 37.9896C39.3749 37.9896 38.6218 37.3202 38.6218 36.4835C38.6218 35.6467 39.2912 34.8936 40.128 34.8936C40.9648 34.8936 41.7179 35.563 41.7179 36.3998C41.7179 37.3202 41.0485 37.9896 40.2117 37.9896ZM39.877 29.2035C39.0402 29.2035 38.2871 28.5341 38.2871 27.6973C38.2871 26.8605 38.9565 26.1074 39.7933 26.1074C40.6301 26.1074 41.3832 26.7768 41.3832 27.6136C41.3832 28.5341 40.7137 29.2035 39.877 29.2035ZM39.6259 20.4173C38.7892 20.4173 38.0361 19.7479 38.0361 18.9111C38.0361 18.0744 38.7055 17.3213 39.5423 17.3213C40.379 17.3213 41.1321 17.9907 41.1321 18.8275C41.1321 19.7479 40.4627 20.4173 39.6259 20.4173ZM39.2912 11.6312C38.4544 11.6312 37.7013 10.9618 37.7013 10.125C37.7013 9.2882 38.3708 8.53509 39.2075 8.53509C40.0443 8.53509 40.7974 9.20452 40.7974 10.0413C40.7974 10.9617 40.2117 11.6312 39.2912 11.6312ZM50.5877 64.0971C49.7509 64.0971 48.9978 63.4277 48.9978 62.5909C48.9978 61.7541 49.6673 61.001 50.504 61.001C51.3408 61.001 52.0939 61.6704 52.0939 62.5072C52.0939 63.344 51.4245 64.0134 50.5877 64.0971ZM50.3367 55.3109C49.4999 55.3109 48.7468 54.6415 48.7468 53.8047C48.7468 52.9679 49.4162 52.2148 50.253 52.2148C51.0898 52.2148 51.8429 52.8843 51.8429 53.7211C51.8429 54.5578 51.1735 55.2273 50.3367 55.3109ZM50.002 46.5248C49.1652 46.5248 48.4121 45.8553 48.4121 45.0186C48.4121 44.1818 49.0815 43.4287 49.9183 43.4287C50.7551 43.4287 51.5082 44.0981 51.5082 44.9349C51.5082 45.7717 50.8387 46.4411 50.002 46.5248ZM49.7509 37.7386C48.9142 37.7386 48.1611 37.0692 48.1611 36.2324C48.1611 35.3956 48.8305 34.6425 49.6673 34.6425C50.504 34.6425 51.2571 35.312 51.2571 36.1487C51.2571 36.9855 50.5877 37.6549 49.7509 37.7386ZM49.4162 28.9525C48.5794 28.9525 47.8264 28.283 47.8264 27.4463C47.8264 26.6095 48.4958 25.8564 49.3325 25.8564C50.1693 25.8564 50.9224 26.5258 50.9224 27.3626C51.0061 28.1994 50.3367 28.8688 49.4162 28.9525ZM49.1652 20.1663C48.3284 20.1663 47.5753 19.4969 47.5753 18.6601C47.5753 17.8233 48.2447 17.0702 49.0815 17.0702C49.9183 17.0702 50.6714 17.7396 50.6714 18.5764C50.6714 19.4132 50.002 20.0826 49.1652 20.1663ZM48.9142 11.3801C48.0774 11.3801 47.3243 10.7107 47.3243 9.87394C47.3243 9.03716 47.9937 8.28406 48.8305 8.28406C49.6673 8.28406 50.4203 8.95348 50.4203 9.79026C50.4203 10.627 49.7509 11.2965 48.9142 11.3801ZM59.8759 54.9762C59.0392 54.9762 58.2861 54.3068 58.2861 53.47C58.2861 52.6332 58.9555 51.8801 59.7922 51.8801C60.629 51.8801 61.3821 52.5496 61.3821 53.3863C61.3821 54.2231 60.7127 54.9762 59.8759 54.9762ZM59.5412 46.1901C58.7044 46.1901 57.9513 45.5206 57.9513 44.6839C57.9513 43.8471 58.6208 43.094 59.4575 43.094C60.2943 43.094 61.0474 43.7634 61.0474 44.6002C61.1311 45.437 60.4617 46.1901 59.5412 46.1901ZM59.2902 37.4039C58.4534 37.4039 57.7003 36.7345 57.7003 35.8977C57.7003 35.0609 58.3697 34.3078 59.2065 34.3078C60.0433 34.3078 60.7964 34.9772 60.7964 35.814C60.7964 36.6508 60.127 37.4039 59.2902 37.4039ZM59.0392 28.6177C58.2024 28.6177 57.4493 27.9483 57.4493 27.1115C57.4493 26.2748 58.1187 25.5217 58.9555 25.5217C59.7922 25.5217 60.5454 26.1911 60.5454 27.0279C60.5454 27.8646 59.8759 28.6177 59.0392 28.6177ZM58.7044 19.8316C57.8677 19.8316 57.1146 19.1622 57.1146 18.3254C57.1146 17.4886 57.784 16.7355 58.6208 16.7355C59.4575 16.7355 60.2106 17.4049 60.2106 18.2417C60.2106 19.0785 59.6249 19.8316 58.7044 19.8316Z" fill="white"/>
<path d="M20.1294 3.43005C20.38 3.34653 20.6305 3.263 20.7976 3.09595C20.6305 3.263 20.38 3.34653 20.1294 3.43005Z" fill="white"/>
<path d="M29.4994 3.17964C30.3362 3.17964 31.0056 2.42654 31.0056 1.58976C31.0056 1.08769 30.6709 0.585628 30.3362 0.334595C29.6667 0.418272 28.9973 0.585635 28.3279 0.669313C28.1605 0.920346 27.9932 1.25505 27.9932 1.67344C27.9095 2.51022 28.6626 3.17964 29.4994 3.17964Z" fill="white"/>
<path d="M37.4517 1.42252C37.4517 2.25929 38.2048 2.92872 39.0415 2.92872C39.8783 2.92872 40.5477 2.17562 40.5477 1.33885C40.5477 0.836782 40.2967 0.502064 39.962 0.167353C39.3762 0.0836751 38.8742 0.0836777 38.2884 0C37.7864 0.251033 37.4517 0.836774 37.4517 1.42252Z" fill="white"/>
<path d="M48.5793 2.59392C48.8303 2.59392 48.9976 2.51023 49.165 2.42656C48.4956 2.17552 47.8262 1.9245 47.1567 1.67346C47.4078 2.25921 47.9935 2.59392 48.5793 2.59392Z" fill="white"/>
<path d="M10.6727 12.5517C11.5095 12.5517 12.1789 11.7986 12.1789 10.9618C12.1789 10.2924 11.6768 9.79034 11.0911 9.53931C10.4217 10.1251 9.75225 10.7945 9.1665 11.4639C9.33386 12.1333 9.9196 12.6354 10.6727 12.5517Z" fill="white"/>
<path d="M20.1767 12.2196C21.0081 12.1929 21.6605 11.4973 21.6339 10.6659C21.6072 9.83442 20.9116 9.18202 20.0802 9.20868C19.2487 9.23534 18.5963 9.93097 18.623 10.7624C18.6496 11.5938 19.3453 12.2462 20.1767 12.2196Z" fill="white"/>
<path d="M29.8011 11.9664C30.6326 11.9398 31.285 11.2442 31.2584 10.4128C31.2317 9.58133 30.5361 8.92891 29.7047 8.95555C28.8732 8.98219 28.2208 9.6778 28.2475 10.5092C28.2741 11.3407 28.9697 11.9931 29.8011 11.9664Z" fill="white"/>
<path d="M39.3393 11.6328C40.1707 11.6061 40.8231 10.9105 40.7965 10.0791C40.7698 9.24763 40.0742 8.59523 39.2428 8.62189C38.4113 8.64855 37.7589 9.34418 37.7856 10.1756C37.8122 11.007 38.5079 11.6594 39.3393 11.6328Z" fill="white"/>
<path d="M48.8778 11.2986C49.7092 11.272 50.3617 10.5763 50.335 9.74491C50.3084 8.91348 49.6128 8.26106 48.7813 8.2877C47.9499 8.31434 47.2975 9.00995 47.3241 9.84139C47.3508 10.6728 48.0464 11.3252 48.8778 11.2986Z" fill="white"/>
<path d="M56.8628 9.53927C56.8628 10.376 57.6159 11.0455 58.4527 11.0455C59.2895 11.0455 59.9589 10.2924 59.9589 9.4556C59.9589 9.20457 59.8752 8.86985 59.7078 8.70249C59.4568 8.53514 59.2058 8.28411 58.9547 8.11675C58.7874 8.03307 58.5363 8.03308 58.369 8.03308C57.5322 8.03308 56.8628 8.70249 56.8628 9.53927Z" fill="white"/>
<path d="M10.8891 21.3407C11.7205 21.314 12.3729 20.6184 12.3463 19.7869C12.3196 18.9555 11.624 18.3031 10.7926 18.3298C9.96112 18.3564 9.30872 19.0521 9.33539 19.8835C9.36205 20.7149 10.0577 21.3673 10.8891 21.3407Z" fill="white"/>
<path d="M20.5117 21.0042C21.3431 20.9776 21.9955 20.282 21.9688 19.4505C21.9422 18.6191 21.2466 17.9667 20.4151 17.9933C19.5837 18.02 18.9313 18.7156 18.9579 19.5471C18.9846 20.3785 19.6802 21.0309 20.5117 21.0042Z" fill="white"/>
<path d="M30.0527 20.7538C30.8841 20.7271 31.5365 20.0315 31.5099 19.2C31.4832 18.3686 30.7876 17.7162 29.9561 17.7429C29.1247 17.7695 28.4723 18.4652 28.499 19.2966C28.5256 20.128 29.2213 20.7804 30.0527 20.7538Z" fill="white"/>
<path d="M39.5913 20.42C40.4227 20.3933 41.0751 19.6977 41.0484 18.8663C41.0218 18.0349 40.3261 17.3825 39.4947 17.4091C38.6633 17.4358 38.0109 18.1314 38.0375 18.9628C38.0642 19.7943 38.7598 20.4467 39.5913 20.42Z" fill="white"/>
<path d="M49.2148 20.0833C50.0462 20.0567 50.6986 19.3611 50.672 18.5296C50.6453 17.6982 49.9497 17.0458 49.1182 17.0724C48.2868 17.0991 47.6344 17.7947 47.6611 18.6262C47.6877 19.4576 48.3834 20.11 49.2148 20.0833Z" fill="white"/>
<path d="M58.7538 19.8329C59.5852 19.8062 60.2376 19.1106 60.211 18.2792C60.1843 17.4478 59.4887 16.7954 58.6573 16.822C57.8259 16.8486 57.1735 17.5442 57.2001 18.3757C57.2267 19.2071 57.9223 19.8595 58.7538 19.8329Z" fill="white"/>
<path d="M68.3267 19.4969C67.992 18.6601 67.4899 17.907 66.9879 17.0702C66.8205 17.3212 66.7368 17.6559 66.7368 17.9907C66.7368 18.9111 67.4899 19.5805 68.3267 19.4969Z" fill="white"/>
<path d="M1.602 30.462C2.43344 30.4353 3.08583 29.7397 3.05917 28.9083C3.0325 28.0768 2.33688 27.4245 1.50545 27.4511C0.674013 27.4778 0.0216144 28.1734 0.048277 29.0048C0.0749395 29.8363 0.770567 30.4887 1.602 30.462Z" fill="white"/>
<path d="M11.2246 30.1253C12.056 30.0987 12.7084 29.403 12.6817 28.5716C12.6551 27.7402 11.9594 27.0878 11.128 27.1144C10.2966 27.1411 9.64417 27.8367 9.67084 28.6682C9.6975 29.4996 10.3931 30.152 11.2246 30.1253Z" fill="white"/>
<path d="M20.7631 29.7915C21.5946 29.7648 22.247 29.0692 22.2203 28.2378C22.1936 27.4063 21.498 26.7539 20.6666 26.7806C19.8351 26.8072 19.1827 27.5029 19.2094 28.3343C19.2361 29.1657 19.9317 29.8181 20.7631 29.7915Z" fill="white"/>
<path d="M30.3046 29.541C31.1361 29.5143 31.7885 28.8187 31.7618 27.9873C31.7351 27.1558 31.0395 26.5034 30.2081 26.5301C29.3766 26.5568 28.7243 27.2524 28.7509 28.0838C28.7776 28.9153 29.4732 29.5677 30.3046 29.541Z" fill="white"/>
<path d="M39.9257 29.2045C40.7572 29.1779 41.4096 28.4823 41.3829 27.6508C41.3562 26.8194 40.6606 26.167 39.8292 26.1937C38.9977 26.2203 38.3453 26.916 38.372 27.7474C38.3987 28.5788 39.0943 29.2312 39.9257 29.2045Z" fill="white"/>
<path d="M49.4643 28.8706C50.2957 28.8439 50.9481 28.1483 50.9215 27.3169C50.8948 26.4854 50.1992 25.833 49.3678 25.8597C48.5363 25.8863 47.8839 26.582 47.9106 27.4134C47.9372 28.2448 48.6329 28.8972 49.4643 28.8706Z" fill="white"/>
<path d="M59.0058 28.6203C59.8372 28.5937 60.4896 27.898 60.463 27.0666C60.4363 26.2352 59.7407 25.5828 58.9092 25.6094C58.0778 25.6361 57.4254 26.3317 57.4521 27.1631C57.4787 27.9946 58.1744 28.647 59.0058 28.6203Z" fill="white"/>
<path d="M68.5438 28.2861C69.3752 28.2595 70.0277 27.5639 70.001 26.7325C69.9744 25.901 69.2788 25.2486 68.4473 25.2753C67.6159 25.3019 66.9635 25.9975 66.9901 26.8289C67.0168 27.6604 67.7124 28.3128 68.5438 28.2861Z" fill="white"/>
<path d="M1.935 39.2466C2.76644 39.2199 3.41884 38.5243 3.39217 37.6928C3.36551 36.8614 2.66988 36.209 1.83845 36.2357C1.00701 36.2623 0.354623 36.958 0.381285 37.7894C0.407948 38.6208 1.10357 39.2732 1.935 39.2466Z" fill="white"/>
<path d="M11.4746 38.9126C12.306 38.8859 12.9584 38.1903 12.9317 37.3589C12.9051 36.5274 12.2094 35.875 11.378 35.9017C10.5466 35.9283 9.89417 36.624 9.92084 37.4554C9.9475 38.2868 10.6431 38.9392 11.4746 38.9126Z" fill="white"/>
<path d="M21.0136 38.5787C21.8451 38.552 22.4975 37.8564 22.4708 37.025C22.4441 36.1935 21.7485 35.5411 20.9171 35.5678C20.0856 35.5945 19.4332 36.2901 19.4599 37.1215C19.4866 37.953 20.1822 38.6054 21.0136 38.5787Z" fill="white"/>
<path d="M30.6376 38.3256C31.4691 38.299 32.1215 37.6034 32.0948 36.7719C32.0682 35.9405 31.3725 35.2881 30.5411 35.3148C29.7097 35.3414 29.0573 36.037 29.0839 36.8685C29.1106 37.6999 29.8062 38.3523 30.6376 38.3256Z" fill="white"/>
<path d="M40.1772 37.9918C41.0086 37.9651 41.661 37.2695 41.6344 36.4381C41.6077 35.6066 40.9121 34.9542 40.0806 34.9809C39.2492 35.0076 38.5968 35.7032 38.6235 36.5346C38.6501 37.3661 39.3458 38.0185 40.1772 37.9918Z" fill="white"/>
<path d="M49.7163 37.6579C50.5477 37.6313 51.2001 36.9357 51.1734 36.1042C51.1468 35.2728 50.4511 34.6204 49.6197 34.647C48.7883 34.6737 48.1359 35.3693 48.1625 36.2008C48.1892 37.0322 48.8848 37.6846 49.7163 37.6579Z" fill="white"/>
<path d="M59.3403 37.4049C60.1717 37.3782 60.8241 36.6826 60.7975 35.8511C60.7708 35.0197 60.0752 34.3673 59.2437 34.394C58.4123 34.4206 57.7599 35.1163 57.7866 35.9477C57.8132 36.7791 58.5088 37.4315 59.3403 37.4049Z" fill="white"/>
<path d="M68.8784 37.071C69.7098 37.0443 70.3622 36.3487 70.3355 35.5173C70.3089 34.6859 69.6132 34.0335 68.7818 34.0601C67.9504 34.0868 67.298 34.7824 67.3246 35.6138C67.3513 36.4453 68.0469 37.0977 68.8784 37.071Z" fill="white"/>
<path d="M2.18737 48.0336C3.01881 48.0069 3.67122 47.3113 3.64458 46.4799C3.61794 45.6485 2.92233 44.996 2.0909 45.0227C1.25946 45.0493 0.607046 45.7449 0.633687 46.5764C0.660327 47.4078 1.35594 48.0602 2.18737 48.0336Z" fill="white"/>
<path d="M11.7251 47.6999C12.5565 47.6733 13.2089 46.9776 13.1822 46.1462C13.1556 45.3148 12.4599 44.6624 11.6285 44.689C10.7971 44.7157 10.1447 45.4113 10.1713 46.2428C10.198 47.0742 10.8936 47.7266 11.7251 47.6999Z" fill="white"/>
<path d="M21.3486 47.3633C22.18 47.3366 22.8324 46.6409 22.8057 45.8095C22.7791 44.9781 22.0835 44.3257 21.252 44.3524C20.4206 44.379 19.7682 45.0746 19.7949 45.9061C19.8215 46.7375 20.5172 47.3899 21.3486 47.3633Z" fill="white"/>
<path d="M30.8901 47.113C31.7215 47.0863 32.3739 46.3907 32.3473 45.5593C32.3206 44.7278 31.625 44.0755 30.7935 44.1021C29.9621 44.1288 29.3097 44.8244 29.3364 45.6558C29.363 46.4873 30.0587 47.1396 30.8901 47.113Z" fill="white"/>
<path d="M40.4277 46.779C41.2591 46.7524 41.9115 46.0567 41.8849 45.2253C41.8582 44.3939 41.1626 43.7415 40.3311 43.7681C39.4997 43.7948 38.8473 44.4904 38.874 45.3219C38.9006 46.1533 39.5962 46.8057 40.4277 46.779Z" fill="white"/>
<path d="M50.0493 46.4426C50.8807 46.4159 51.5331 45.7203 51.5064 44.8889C51.4798 44.0575 50.7841 43.405 49.9527 43.4317C49.1213 43.4584 48.4689 44.154 48.4955 44.9854C48.5222 45.8169 49.2178 46.4693 50.0493 46.4426Z" fill="white"/>
<path d="M59.5913 46.1924C60.4227 46.1657 61.0751 45.47 61.0484 44.6386C61.0218 43.8072 60.3261 43.1548 59.4947 43.1815C58.6633 43.2081 58.0109 43.9037 58.0375 44.7352C58.0642 45.5666 58.7598 46.219 59.5913 46.1924Z" fill="white"/>
<path d="M69.1303 45.8581C69.9618 45.8314 70.6142 45.1358 70.5875 44.3044C70.5608 43.473 69.8652 42.8206 69.0338 42.8472C68.2023 42.8739 67.5499 43.5695 67.5766 44.4009C67.6033 45.2324 68.2989 45.8848 69.1303 45.8581Z" fill="white"/>
<path d="M12.061 56.4845C12.8924 56.4578 13.5448 55.7622 13.5182 54.9308C13.4915 54.0993 12.7959 53.4469 11.9644 53.4736C11.133 53.5002 10.4806 54.1959 10.5073 55.0273C10.5339 55.8587 11.2296 56.5111 12.061 56.4845Z" fill="white"/>
<path d="M21.5986 56.1505C22.43 56.1238 23.0824 55.4282 23.0557 54.5967C23.0291 53.7653 22.3335 53.1129 21.502 53.1396C20.6706 53.1663 20.0182 53.8619 20.0449 54.6933C20.0715 55.5247 20.7671 56.1771 21.5986 56.1505Z" fill="white"/>
<path d="M31.1401 55.9002C31.9715 55.8736 32.6239 55.1779 32.5973 54.3465C32.5706 53.5151 31.875 52.8627 31.0435 52.8893C30.2121 52.916 29.5597 53.6116 29.5864 54.4431C29.613 55.2745 30.3086 55.9269 31.1401 55.9002Z" fill="white"/>
<path d="M40.7626 55.5637C41.5941 55.537 42.2465 54.8414 42.2198 54.01C42.1931 53.1785 41.4975 52.5261 40.6661 52.5528C39.8347 52.5795 39.1823 53.2751 39.2089 54.1065C39.2356 54.938 39.9312 55.5904 40.7626 55.5637Z" fill="white"/>
<path d="M50.3002 55.2298C51.1317 55.2032 51.7841 54.5076 51.7574 53.6761C51.7308 52.8447 51.0351 52.1923 50.2037 52.2189C49.3723 52.2456 48.7199 52.9412 48.7465 53.7727C48.7732 54.6041 49.4688 55.2565 50.3002 55.2298Z" fill="white"/>
<path d="M59.8427 54.9795C60.6741 54.9528 61.3265 54.2572 61.2999 53.4257C61.2732 52.5943 60.5776 51.9419 59.7462 51.9686C58.9147 51.9952 58.2623 52.6908 58.289 53.5223C58.3157 54.3537 59.0113 55.0061 59.8427 54.9795Z" fill="white"/>
<path d="M67.8257 53.2191C67.8257 53.5539 67.993 53.8886 68.1604 54.1396C68.5788 53.3028 68.9972 52.466 69.4156 51.6293H69.3319C68.4951 51.6293 67.8257 52.3824 67.8257 53.2191Z" fill="white"/>
<path d="M13.7687 63.7624C13.7687 62.9257 13.0156 62.2562 12.1789 62.2562C11.4258 62.2562 10.84 62.842 10.7563 63.5114C11.4258 64.0971 12.0952 64.6829 12.7646 65.2686C13.434 65.0176 13.8524 64.4319 13.7687 63.7624Z" fill="white"/>
<path d="M21.8496 64.9378C22.681 64.9112 23.3334 64.2155 23.3067 63.3841C23.2801 62.5527 22.5844 61.9003 21.753 61.9269C20.9216 61.9536 20.2692 62.6492 20.2958 63.4807C20.3225 64.3121 21.0181 64.9645 21.8496 64.9378Z" fill="white"/>
<path d="M31.4746 64.6849C32.306 64.6582 32.9584 63.9626 32.9317 63.1312C32.9051 62.2997 32.2094 61.6473 31.378 61.674C30.5466 61.7007 29.8942 62.3963 29.9208 63.2277C29.9475 64.0592 30.6431 64.7115 31.4746 64.6849Z" fill="white"/>
<path d="M41.0126 64.3507C41.844 64.3241 42.4964 63.6285 42.4698 62.797C42.4431 61.9656 41.7475 61.3132 40.9161 61.3398C40.0847 61.3665 39.4322 62.0621 39.4589 62.8935C39.4855 63.725 40.1811 64.3774 41.0126 64.3507Z" fill="white"/>
<path d="M50.5522 64.0171C51.3836 63.9904 52.036 63.2948 52.0094 62.4633C51.9827 61.6319 51.2871 60.9795 50.4556 61.0062C49.6242 61.0328 48.9718 61.7285 48.9985 62.5599C49.0251 63.3913 49.7208 64.0437 50.5522 64.0171Z" fill="white"/>
<path d="M60.0433 60.75C59.2065 60.75 58.5371 61.5031 58.5371 62.3399C58.5371 63.1766 59.2902 63.846 60.127 63.846C60.4617 63.846 60.7127 63.7624 60.9638 63.595C61.0474 63.5113 61.2148 63.344 61.2985 63.2603C61.5495 63.0093 61.6332 62.6746 61.6332 62.2562C61.6332 61.3357 60.8801 60.6663 60.0433 60.75Z" fill="white"/>
<path d="M23.1376 71.1253C22.887 70.8747 22.4694 70.7076 22.0518 70.7076C22.4694 70.8747 22.8035 71.0417 23.1376 71.1253Z" fill="white"/>
<path d="M33.181 71.8792C33.181 71.0425 32.4279 70.373 31.5912 70.373C30.7544 70.373 30.085 71.1261 30.085 71.9629C30.085 72.3813 30.2523 72.716 30.5033 72.9671C31.1728 73.0507 31.7585 73.1344 32.4279 73.2181C32.93 72.9671 33.2647 72.465 33.181 71.8792Z" fill="white"/>
<path d="M42.8051 71.6282C42.8051 70.7914 42.052 70.1219 41.2152 70.1219C40.3784 70.1219 39.709 70.8751 39.709 71.7118C39.709 72.3813 40.1274 72.8833 40.7131 73.1344C41.2152 73.0507 41.7173 72.967 42.1356 72.8833C42.554 72.5486 42.8051 72.1302 42.8051 71.6282Z" fill="white"/>
<path d="M49.3315 70.8749C50.001 70.6239 50.7541 70.2892 51.4235 69.9545C51.2561 69.8708 51.0051 69.7871 50.7541 69.7871C50.0847 69.7871 49.5826 70.2892 49.3315 70.8749Z" fill="white"/>
</g>
</svg>
