<svg width="121" height="120" viewBox="0 0 121 120" fill="none" xmlns="http://www.w3.org/2000/svg">
<path d="M120.406 59.7645H60.3301V0C93.4939 0 120.406 26.7723 120.406 59.7645Z" fill="#FF9E32"/>
<path d="M30.2922 109.967C46.8816 109.967 60.3299 96.5879 60.3299 80.0844C60.3299 63.5809 46.8816 50.2021 30.2922 50.2021C13.7028 50.2021 0.254395 63.5809 0.254395 80.0844C0.254395 96.5879 13.7028 109.967 30.2922 109.967Z" fill="#00A87C"/>
<path d="M120.406 119.529C87.2417 119.529 60.3301 92.7567 60.3301 59.7645H120.406V119.529Z" fill="#046FB7"/>
<path d="M3.15836 59.7645H0.254395V0H60.3299V2.88892C60.3299 34.3059 34.7388 59.7645 3.15836 59.7645Z" fill="#74DBEE"/>
</svg>
