<svg width="86" height="64" viewBox="0 0 86 64" fill="none" xmlns="http://www.w3.org/2000/svg">
<path d="M42.9971 52.8C45.8168 50.1 47.4281 48.9 50.852 46.7C50.7513 45.8 50.7513 45.4 50.6506 44.6C47.3273 46.7 45.8168 48 43.0978 50.6C42.9971 51.4 42.9971 51.9 42.9971 52.8Z" fill="#3B68CF"/>
<path d="M47.3271 42.8C50.3483 40.4 52.0602 39.5 55.2828 37.9C55.6856 39.2 55.7863 39.8 56.1891 41.1C52.5638 42.8 50.7511 43.9 47.5286 46.3C47.5286 44.8 47.4279 44.2 47.3271 42.8Z" fill="#83CD38"/>
<path d="M53.4702 40.2C56.9949 38.3 58.8075 37.5 62.5336 36.9C63.3392 38.2 63.742 38.8 64.5477 40.2C60.2174 41.1 58.1026 41.9 54.2758 44C53.9737 42.4 53.7723 41.7 53.4702 40.2Z" fill="#4675DF"/>
<path d="M45.313 55.5C48.3341 52.9 50.0461 51.7 53.6714 49.5C53.7721 50.2 53.8728 50.5 53.9736 51.3C50.1468 53.6 48.4348 54.9 45.313 57.6C45.4137 56.7 45.4137 56.3 45.313 55.5Z" fill="#FF6742"/>
<path d="M45.313 53.7C48.3341 51.2 49.9454 49.9 53.47 47.9C53.5707 48.6 53.5707 48.9 53.6714 49.5C50.0461 51.6 48.3341 52.9 45.313 55.5C45.313 54.7 45.313 54.4 45.313 53.7Z" fill="#FF7547"/>
<path d="M42.9971 57.1C44.8097 55.4 45.8168 54.5 47.9316 52.9C47.8309 51.8 47.8309 51.2 47.8309 50.1C45.7161 51.7 44.8097 52.5 42.9971 54.2C42.9971 55.3 42.9971 55.9 42.9971 57.1Z" fill="#E33C58"/>
<path d="M55.0815 46.2C57.297 45 58.6062 44.5 61.0231 43.6C61.3252 44.3 61.4259 44.7 61.728 45.4C59.1097 46.3 57.9013 46.9 55.4844 48.1C55.2829 47.4 55.283 47 55.0815 46.2Z" fill="#FF5780"/>
<path d="M42.9971 55.3C46.2196 52.3 48.0323 50.8 52.0605 48.3C51.9597 47.3 51.859 46.7 51.6576 45.8C47.8309 48.2 46.1189 49.6 42.9971 52.5C42.9971 53.6 42.9971 54.1 42.9971 55.3Z" fill="#EC3A6C"/>
<path d="M60.1166 41.2C58.3039 41.9 56.5919 42.6 54.2757 43.9C54.175 43.2 54.0743 42.7 53.8729 42.2C52.8659 42.8 51.8588 43.3 50.9525 43.9C50.9525 44.2 51.0532 44.5 51.0532 44.9C50.9525 45 50.7511 45 50.6504 45.2C50.6504 45.6 50.7511 45.9 50.7511 46.5C51.0532 46.3 51.3553 46.1 51.6574 45.9C51.7581 46.4 51.7581 46.8999 51.8588 47.2999C54.88 45.2999 57.3976 44.0999 61.6272 42.7999C61.5264 42.6999 61.5264 42.6 61.4257 42.4C61.2243 42.5 61.0229 42.5 60.7208 42.7C60.5194 42 60.4187 41.7 60.1166 41.2Z" fill="#33DAD3"/>
<path d="M50.6506 45.1C49.9456 45.5 49.3414 45.9 48.8379 46.3C48.9386 46.7 48.9386 47.1 48.9386 47.6C49.5428 47.2 50.147 46.8 50.7513 46.4C50.7513 45.9 50.6506 45.6 50.6506 45.1Z" fill="#0C59AB"/>
<path d="M53.8731 41.7C52.866 42.2 52.0604 42.8 50.9526 43.5C50.9526 43.6 50.9526 43.7 51.0533 43.9C51.9597 43.3 52.866 42.8 53.9738 42.2C53.8731 42 53.8731 41.9 53.8731 41.7Z" fill="#1AAF2E"/>
<path d="M60.1167 39.2C57.4984 40 55.6857 40.8 53.873 41.7C53.873 41.8 53.9737 41.9999 53.9737 42.0999C54.0745 42.5999 54.1752 43.0999 54.3766 43.7999C56.6928 42.4999 58.4047 41.7999 60.2174 41.0999C60.1167 40.8999 60.1167 40.7 59.9153 40.4C60.2174 40.3 60.4188 40.3 60.6202 40.2C60.4188 40 60.2174 39.7 60.1167 39.2Z" fill="#0E64B9"/>
<path d="M51.6575 45.8C51.3554 45.9 51.0533 46.2001 50.7512 46.4001C50.0462 46.8001 49.442 47.2 48.9385 47.6C49.0392 48 49.0392 48.6001 49.0392 49.2001C50.0462 48.5001 50.9526 47.9 51.8589 47.3C51.8589 46.8 51.8589 46.3 51.6575 45.8Z" fill="#2F3259"/>
<path d="M62.936 42.5C64.5473 42.1 65.3529 41.9 67.0649 41.7C67.2663 42 67.367 42.2 67.5684 42.5C65.8565 42.7 65.0508 42.9 63.4396 43.4C63.2381 43.1 63.1374 42.8 62.936 42.5Z" fill="#5BE2DE"/>
<path d="M67.2667 39C66.0583 39.1 65.0512 39.2 64.1449 39.4C64.2456 39.6 64.447 39.8 64.5477 40.1C63.1379 40.4 61.9294 40.7 60.9224 41C61.0231 41.4 61.3252 41.8 61.4259 42.3C64.1449 41.5 65.6555 41.1 68.6766 40.9C68.0724 40.2 67.871 39.8 67.2667 39Z" fill="#2BA2CC"/>
<path d="M64.1448 39.4C63.037 39.5 62.03 39.8 60.6201 40.3C60.7208 40.5 60.7208 40.7 60.9222 41C61.9293 40.7 63.1377 40.4 64.5476 40.1C64.4469 39.9 64.2455 39.7 64.1448 39.4Z" fill="#0C4AB2"/>
<path d="M60.9222 41C60.6201 41.1 60.4187 41.1 60.2173 41.2C60.4187 41.6 60.6201 42 60.8215 42.6C61.0229 42.5 61.2243 42.4 61.5264 42.3C61.325 41.8 61.0229 41.4 60.9222 41Z" fill="#098AA9"/>
<path d="M60.62 40.3C60.4186 40.4 60.2172 40.4 59.915 40.5C60.0157 40.8 60.1164 40.9001 60.2172 41.2001C60.4186 41.1001 60.62 41.1 60.9221 41C60.7207 40.8 60.7207 40.6 60.62 40.3Z" fill="#024094"/>
<path d="M71.3955 42.4C73.2082 42.4 74.1145 42.4 75.8265 42.6C76.1286 43 76.2293 43.1 76.5314 43.4C74.7187 43.2 73.8124 43.2 71.9997 43.2C71.7983 42.9 71.6976 42.8 71.3955 42.4Z" fill="#FFC0C4"/>
<path d="M63.0371 31.7C64.1449 31.6 64.6484 31.7 65.7561 31.8C65.9575 32.2 66.1589 32.3 66.4611 32.6C65.3533 32.5 64.8498 32.5 63.742 32.5C63.4399 32.1 63.2385 32 63.0371 31.7Z" fill="#4574DE"/>
<path d="M69.7842 40.2C71.194 40.1 71.899 40.2 73.3088 40.3C73.6109 40.7 73.7116 40.8 74.0138 41.2C72.7046 41 71.9997 41 70.4891 41C70.187 40.7 70.0863 40.5 69.7842 40.2Z" fill="#53B2DE"/>
<path d="M72.4023 39C73.7115 39.1 74.4164 39.3 75.7256 39.7C76.1284 40.1 76.3298 40.2 76.7326 40.6C75.3228 40.2 74.6178 40.1 73.208 39.9C72.9059 39.4 72.7045 39.3 72.4023 39Z" fill="#AEE0F9"/>
<path d="M65.4541 37.7C66.7633 37.6 67.3675 37.6 68.6766 37.6C68.9788 37.9 69.0795 38.1 69.3816 38.4C68.0724 38.4 67.4682 38.4 66.0583 38.5C65.8569 38.2 65.7562 38 65.4541 37.7Z" fill="#7097FC"/>
<path d="M62.7349 33.7C63.7419 33.6 64.3461 33.6 65.3532 33.6C65.5546 34 65.756 34.1 66.0581 34.4C64.9504 34.4 64.4468 34.4 63.3391 34.5C63.037 34.1 62.9363 34 62.7349 33.7Z" fill="#FFF001"/>
<path d="M53.168 37.2C54.175 36.7 54.6785 36.4 55.6856 35.9C55.7863 36.3 55.887 36.5 55.9877 36.8C54.9806 37.3 54.3764 37.5 53.2687 38.1C53.2687 37.8 53.2687 37.6 53.168 37.2Z" fill="#3DB399"/>
<path d="M52.2617 34.4C53.2688 33.8 53.873 33.6 54.88 33.1C54.9807 33.5 54.9807 33.6 55.0814 34C54.0744 34.4 53.4702 34.7 52.4631 35.3C52.4631 34.9 52.3624 34.8 52.2617 34.4Z" fill="#045999"/>
<path d="M49.8447 36.9001C50.8518 36.2001 51.456 35.9 52.5637 35.3C52.6644 35.7 52.6644 35.9 52.6644 36.3C51.5567 36.9 51.0532 37.2001 49.9454 37.9001C49.9454 37.5001 49.9454 37.4001 49.8447 36.9001Z" fill="#006181"/>
<path d="M47.4281 43.6C45.9175 44.6 44.709 45.7 42.9971 47.4C42.9971 48.7 42.9971 49.4 42.9971 50.6C45.2126 48.5 46.6224 47.3 48.8379 45.7C48.8379 45.6 48.8379 45.6 48.8379 45.5C48.4351 45.8 48.133 46.1 47.6295 46.4C47.5288 45.2 47.4281 44.5 47.4281 43.6Z" fill="#FCEE07"/>
<path d="M48.7368 45.6C46.6221 47.2 45.2122 48.3 42.896 50.5C42.896 50.6 42.896 50.9 42.896 51.1C45.1115 49 46.6221 47.8 48.7368 46.3C48.8375 46.1 48.8375 45.9 48.7368 45.6Z" fill="#3A6106"/>
<path d="M50.6503 41.4C49.3411 42.2 48.3341 42.9 47.4277 43.6C47.4277 44.5 47.5284 45.2 47.5284 46.3C47.9313 46 48.3341 45.7 48.7369 45.4C48.7369 45.3 48.7369 45.1 48.7369 45C49.4418 44.4 50.2475 43.9 50.8517 43.4C50.8517 42.8 50.751 42.3 50.6503 41.4Z" fill="#81BF02"/>
<path d="M51.0534 43.9C50.3485 44.3 49.6435 44.9 48.8379 45.5C48.8379 45.6 48.8379 45.6 48.8379 45.7C49.4421 45.4 49.9456 45 50.6506 44.6C50.6506 44.8 50.6506 45 50.7513 45.2C50.852 45.1 51.0534 45 51.1541 44.9C51.0534 44.5 51.0534 44.2 51.0534 43.9Z" fill="#32CB06"/>
<path d="M50.5495 44.5C49.8446 44.9 49.341 45.3 48.7368 45.6C48.8375 45.8 48.8375 46 48.8375 46.3C49.341 45.9 49.9453 45.5 50.6502 45.1C50.5495 44.9 50.5495 44.8 50.5495 44.5Z" fill="#0C5305"/>
<path d="M50.9527 43.5C50.2477 43.9 49.5428 44.5 48.8379 45.1C48.8379 45.2 48.8379 45.3 48.8379 45.5C49.6435 44.9 50.3485 44.4 51.0534 43.9C50.9527 43.7 50.9527 43.7 50.9527 43.5Z" fill="#1AA301"/>
<path d="M42.9971 51.1C44.3062 50 44.9105 49.4 46.3203 48.3C46.3203 47.7 46.2196 47.4 46.2196 46.8C44.9104 47.8 44.3062 48.4 42.9971 49.5C42.9971 50.2 42.9971 50.5 42.9971 51.1Z" fill="#FD8B4D"/>
<path d="M59.4116 36.4C61.5264 35.8 62.6342 35.6 64.6482 35.4C65.0511 36 65.3532 36.4 65.8567 37C63.5405 37.2 62.332 37.4 60.1166 38.1C59.8144 37.4 59.7137 37.1 59.4116 36.4Z" fill="#51D4E6"/>
<path d="M44.6079 42.5C47.2262 40.2 48.6361 39.2 51.3551 37.5C51.5565 38.6 51.6572 39.2 51.7579 40.2C48.7368 42 47.3269 43.1 44.6079 45.4C44.6079 44.3 44.6079 43.7 44.6079 42.5Z" fill="#1EAB67"/>
<path d="M42.9971 49C44.709 47.4 45.7161 46.6 47.5288 45.2C47.5288 44 47.4281 43.4 47.4281 42.2C45.6154 43.6 44.709 44.3 42.9971 46C42.9971 47.1 42.9971 47.7 42.9971 49Z" fill="#2CA67D"/>
<path d="M42.9971 47.3C44.5076 46 45.2126 45.2 46.8238 44C46.7231 43.1 46.7231 42.7 46.7231 41.8C45.2126 43 44.5076 43.6 42.9971 45C42.9971 46 42.9971 46.5 42.9971 47.3Z" fill="#00997A"/>
<path d="M42.9971 45.9001C44.8097 44.1001 45.8168 43.3 47.8309 41.8C47.7302 41 47.7302 40.6 47.7302 39.8C45.8168 41.2 44.9105 42.0001 42.9971 43.7001C42.9971 44.6001 42.9971 45.0001 42.9971 45.9001Z" fill="#4293B0"/>
<path d="M43.3994 42C46.0177 39.6 47.4276 38.5 50.1466 36.8C50.2473 37.5 50.2473 38.0001 50.348 38.7001C47.4276 40.5001 46.0177 41.7001 43.3994 44.2001C43.3994 43.4001 43.3994 42.9 43.3994 42Z" fill="#027298"/>
<path d="M42.9971 44.8C43.2988 44.6 43.3993 44.4 43.701 44.2C43.701 43.1 43.701 42.5 43.701 41.4C43.3993 41.6 43.2988 41.8 42.9971 42C42.9971 43.1 42.9971 43.7 42.9971 44.8Z" fill="#192263"/>
<path d="M63.8428 44.8C65.2526 44.4 65.9576 44.2 67.3674 43.9C67.5688 44.3 67.6695 44.4 67.7702 44.8C66.3604 45.1 65.6554 45.2 64.2456 45.6C64.0442 45.4 63.9435 45.1 63.8428 44.8Z" fill="#FDCB5A"/>
<path d="M55.9878 49.7C57.3977 48.9 58.1026 48.6 59.6132 47.9C59.7139 48.3 59.8146 48.6 59.9153 48.9C58.4047 49.6 57.6998 49.9 56.1892 50.7C56.1892 50.4 56.0885 50.2 55.9878 49.7Z" fill="#FE9D3E"/>
<path d="M57.1963 33.8C58.2033 33.5 58.7069 33.4 59.6132 33.1C59.8146 33.5 59.9153 33.6 60.1167 34.1C59.1097 34.3 58.5054 34.5 57.4984 34.8C57.3977 34.3 57.297 34.1 57.1963 33.8Z" fill="#3DB19A"/>
<path d="M32.5233 25.1C32.8255 25.3 33.2283 25.5001 33.5304 25.7001C28.9987 30.7001 28.9987 30.7001 28.9987 30.7001C28.7973 30.6001 28.5959 30.6 28.3945 30.6C27.891 30.4 27.3874 30.3001 26.7832 30.2001C30.8114 23.8001 30.8114 23.8 30.8114 23.8C30.9121 24.1 31.2142 24.4 31.5163 24.6C31.7177 24.7 32.1205 24.9 32.5233 25.1Z" fill="#535353"/>
<path d="M42.594 14.2C42.6947 14.2 42.9968 14.2 43.0975 14.1C42.3926 15.9 42.3926 15.9 42.3926 15.9C42.3926 16 42.3926 16 42.3926 16C42.2919 16.1 42.2919 16.1 42.2919 16.1C36.8539 22 36.8539 22 36.8539 22C36.3503 21.8 35.8468 21.6 35.2426 21.3C34.8398 21.1 34.5377 20.9 34.1348 20.6C33.732 20.3 33.3292 20.2 32.8257 20.2C38.163 11.5 38.163 11.5 38.163 11.5C38.163 11.6 38.163 11.6 38.163 11.6C38.6665 12.6 39.6736 13.5 40.7813 14C41.1841 14.1 41.7884 14.3 42.2919 14.3C42.4933 14.2 42.4933 14.2 42.594 14.2Z" fill="#535353"/>
<path d="M51.9594 19.6C51.2544 20.2 50.5495 20.7 49.8446 21.2C49.2403 21.5 48.6361 21.8 48.0319 22.1C42.4932 16.1 42.4932 16.1 42.4932 16.1C42.4932 15.9 42.4932 15.9 42.4932 15.9C42.4932 14.2 42.4932 14.2 42.4932 14.2C42.5939 14.2 42.5939 14.2 42.6946 14.2C42.7953 14.2 43.0974 14.2 43.1981 14.1C43.6009 14.1 43.903 14 44.3058 13.9C45.5143 13.5 46.4206 12.6 47.0249 11.5L51.9594 19.6Z" fill="#6D6D6D"/>
<path d="M59.2103 31.2C58.7068 31.3 58.2032 31.4 57.6997 31.6C57.4983 31.7 57.2969 31.7 57.0955 31.7C51.4561 25.7 51.4561 25.7 51.4561 25.7C51.8589 25.5 52.2617 25.3 52.7652 25C53.3694 24.6 53.9737 24.2 54.5779 23.7L59.2103 31.2Z" fill="#6D6D6D"/>
<path d="M51.9597 19.6C51.2547 20.2 50.5498 20.7 49.8449 21.2C44.3062 13.9 44.3062 13.9 44.3062 13.9C45.5146 13.5 46.4209 12.6 47.0252 11.5L51.9597 19.6Z" fill="#535353"/>
<path d="M59.2102 31.2C58.7067 31.3 58.2032 31.4 57.6996 31.6C52.7651 25 52.7651 25 52.7651 25C53.3694 24.6 53.9736 24.2 54.5778 23.7L59.2102 31.2Z" fill="#535353"/>
<path d="M31.4157 24.4C31.7178 24.6 32.1206 24.8 32.4228 25.1C28.2939 30.5 28.2939 30.5 28.2939 30.5C27.7904 30.3 27.2868 30.2 26.6826 30.1C30.7108 23.7 30.7108 23.7 30.7108 23.7C30.9122 23.9 31.1136 24.2 31.4157 24.4Z" fill="#494949"/>
<path d="M40.8819 13.9C35.3432 21.3 35.3432 21.3 35.3432 21.3C34.9404 21.1 34.6382 20.9 34.2354 20.6C33.8326 20.3 33.4298 20.2 32.9263 20.2C38.2636 11.6 38.2636 11.6 38.2636 11.6C38.7671 12.6 39.7742 13.4 40.8819 13.9Z" fill="#494949"/>
<path d="M73.913 45.5C73.5102 45.5 73.0067 45.5 72.5032 45.6C83.2785 58.6 83.2785 58.6 83.2785 58.6C73.7116 53.1 63.6412 52 53.5708 55.6C50.2475 56.7 46.9243 58.3 43.5003 60.5C43.5003 59.5 43.5003 59.5 43.5003 59.5C43.3996 59.6 43.0975 59.9 42.9968 60C42.8961 41.4 42.8961 41.4 42.8961 41.4C44.1046 40.2 45.313 39.2 46.5215 38.2C45.313 38.8 44.1046 39.5 42.8961 40.3L42.7954 40.2C37.9616 35.7 33.1278 32.7 28.4954 31.2C24.7694 30.1 21.5468 30.2 18.1229 31.1C17.9215 31.2 17.9215 31.2 17.9215 31.2C1.30528 47.5 1.30528 47.5 1.30528 47.5C1.30528 47.5 5.33345 46.7 11.0736 47C0.801758 60.1 0.801758 60.1 0.801758 60.1C0.902462 60.1 0.902462 60.1 0.902462 60C2.21162 59.4 11.275 55.1 21.2447 55.1C28.3947 55.1 35.444 58.3 42.3926 63.1C42.7954 63.4 42.7954 63.4 42.7954 63.4C42.8961 63.4 42.8961 63.4 42.8961 63.4C42.9968 63.4 42.9968 63.4 42.9968 63.4C43.0975 63.3 43.0975 63.3 43.0975 63.3C43.5003 63.1 43.5003 63.1 43.5003 63.1C45.313 61.9 47.025 60.8 48.737 59.8C50.9525 58.6 53.168 57.6 55.3834 56.8C56.2898 56.5 57.1961 56.2 58.0018 56C58.9081 55.8 59.8144 55.6 60.7208 55.4C62.0299 55.2 63.4398 55.1 64.7489 55.1C74.0137 55.2 82.5736 58.9 84.7891 59.9C85.1919 60 85.3933 60.1 85.3933 60.1L73.913 45.5ZM2.41303 58.8C10.8722 48.3 10.8722 48.3 10.8722 48.3C11.8792 47 11.8792 47 11.8792 47C14.9003 47.2 18.3243 47.7 21.8489 48.8C25.6757 50.1 29.6032 52.2 33.3292 55C34.1349 55.7 34.9405 56.3 35.7461 56.9C24.568 51.9 13.0877 52.7 2.41303 58.8ZM42.3926 60.3C29.3011 47.7 15.5046 43.3 2.91655 46.6C18.6264 32 18.6264 32 18.6264 32C26.3806 30 34.7391 33.3 42.8961 41L42.3926 60.3Z" fill="#5D5D5D"/>
<path d="M46.4206 9.39998C46.4206 11.5 44.7086 13.2 42.5938 13.2C40.4791 13.2 38.7671 11.5 38.7671 9.39998C38.7671 7.29998 40.4791 5.59998 42.5938 5.59998C44.7086 5.59998 46.4206 7.29998 46.4206 9.39998Z" fill="#535353"/>
<path d="M53.2688 22.5C53.2688 23.3 52.5639 24.1 51.6575 24.1C50.8519 24.1 50.147 23.4 50.147 22.5C50.147 21.6 50.8519 20.9 51.6575 20.9C52.6646 21 53.2688 21.7 53.2688 22.5Z" fill="#535353"/>
<path d="M51.7581 24.7001C51.3553 24.7001 50.9525 24.6 50.6503 24.3C49.1398 25.1 47.6292 25.6 45.9172 26C41.8891 26.7 37.8609 26.2 34.437 24.4C34.1349 24.6 33.732 24.8 33.2285 24.8C37.0553 26.9 41.4863 27.8 46.1187 26.9C48.2334 26.5 50.2475 25.7001 51.9595 24.7001C51.8588 24.7001 51.8588 24.7001 51.7581 24.7001Z" fill="#535353"/>
<path d="M35.3434 22.7C35.3434 22.8 35.3434 22.9 35.3434 23.1C38.4652 24.7 42.0906 25.2 45.6152 24.4C47.1258 24.2 48.4349 23.7 49.7441 23C49.7441 22.9 49.6434 22.7 49.6434 22.6C49.6434 22.4 49.7441 22.2 49.7441 22C48.4349 22.7 47.0251 23.3 45.5145 23.6C41.8892 24.3 38.2638 23.7 35.2427 22C35.2427 22.2 35.3434 22.4 35.3434 22.7Z" fill="#535353"/>
<path d="M34.739 22.7C34.739 23.5 34.0341 24.2 33.1277 24.2C32.2214 24.2 31.6172 23.5 31.6172 22.7C31.6172 21.8 32.3221 21.1 33.1277 21.1C33.9334 21.1 34.739 21.8 34.739 22.7Z" fill="#535353"/>
<path d="M33.4298 55C26.884 51.4 19.9354 48.5 10.8721 48.3C11.8791 47 11.8791 47 11.8791 47C14.9002 47.2 18.3242 47.7 21.8488 48.8C25.6756 50 29.6031 52.1 33.4298 55Z" fill="#D1D3D4"/>
<path d="M42.9966 63.4C31.5163 59.4 19.5325 56.8 1.00293 60.1C1.00293 60 1.00293 60 1.00293 60C2.31208 59.4 11.3755 55.1 21.3452 55.1C28.4952 55.1 35.5445 58.3 42.4931 63.1C42.8959 63.4 42.8959 63.4 42.9966 63.4Z" fill="#D1D3D4"/>
<path d="M84.8899 60.1C66.461 56.6 54.4772 59.3 43.0977 63.3C43.5005 63.1 43.5005 63.1 43.5005 63.1C45.3132 61.9 47.0251 60.8 48.7371 59.8C50.9526 58.6 53.1681 57.6 55.3836 56.8C56.2899 56.5 57.1962 56.2 58.0019 56C58.9082 55.8 59.8146 55.6 60.7209 55.4C62.0301 55.2 63.4399 55.1 64.7491 55.1C74.0139 55.2 82.5737 58.9 84.7892 59.9L84.8899 60.1Z" fill="#D1D3D4"/>
<path d="M43.2991 0.7C43.2991 4.8 43.2991 4.8 43.2991 4.8C43.0977 4.7 42.8963 4.7 42.5942 4.7C42.4935 4.7 42.4935 4.7 42.4935 4.7C42.3928 4.7 42.3928 4.7 42.3928 4.7C42.1914 4.7 41.99 4.7 41.7886 4.8C41.7886 0.7 41.7886 0.7 41.7886 0.7C41.7886 0.3 42.0907 0 42.4935 0C42.997 0 43.2991 0.3 43.2991 0.7Z" fill="#535353"/>
</svg>
