<svg width="145" height="90" viewBox="0 0 145 90" fill="none" xmlns="http://www.w3.org/2000/svg">
<path d="M11.1274 75.4584H6.63496V88.8236H4.56154V75.4584H0V73.3701H11.1274V75.4584Z" fill="white"/>
<path d="M26.7473 81.0965C26.7473 85.4819 23.6371 89.032 19.2829 89.032C14.9287 89.032 11.8186 85.4819 11.8186 81.0965C11.8186 76.711 14.9287 73.2305 19.2829 73.2305C23.6371 73.2305 26.7473 76.711 26.7473 81.0965ZM24.5356 81.0965C24.5356 77.8944 22.3931 75.3188 19.2138 75.3188C16.0346 75.3188 13.892 77.8944 13.892 81.0965C13.892 84.2985 16.0346 86.8741 19.2138 86.8741C22.4622 86.8741 24.5356 84.2985 24.5356 81.0965Z" fill="white"/>
<path d="M39.6715 73.3701V88.8932H37.5981V82.6283C36.4923 83.3244 34.6262 83.6725 33.5203 83.5332C30.9631 83.394 28.7515 81.9322 28.7515 77.8948V73.3701H30.894V77.7556C30.894 80.2615 31.7925 81.5145 33.5895 81.6538C35.11 81.793 36.6996 81.2361 37.6672 80.6096V73.3701H39.6715Z" fill="white"/>
<path d="M46.5829 81.7227L44.6477 83.9502V88.8229H42.5051V73.2998H44.6477V80.6785L51.0062 73.2998H53.7708L48.0343 79.9824L54.2545 88.7533H51.6282L46.5829 81.7227Z" fill="white"/>
<path d="M64.4835 84.5767H59.0234L57.5029 88.8229H55.2222L60.7513 73.2998H62.8247L68.3539 88.8229H66.0731L64.4835 84.5767ZM63.7232 82.4884L61.7189 76.5019L59.7146 82.4884H63.7232Z" fill="white"/>
<path d="M87.0838 78.3118C87.0838 81.0962 85.1486 83.3237 82.0385 83.3237H78.3754V88.8229H76.302V73.2998H82.0385C85.2177 73.3694 87.0838 75.5969 87.0838 78.3118ZM84.9413 78.3118C84.9413 76.7803 83.9737 75.4577 82.1076 75.4577H78.4445V81.2354H82.1076C83.9046 81.2354 84.9413 79.8432 84.9413 78.3118Z" fill="white"/>
<path d="M103.671 81.0965C103.671 85.4819 100.561 89.032 96.207 89.032C91.8528 89.032 88.7427 85.4819 88.7427 81.0965C88.7427 76.711 91.8528 73.2305 96.207 73.2305C100.561 73.2305 103.671 76.711 103.671 81.0965ZM101.529 81.0965C101.529 77.8944 99.3863 75.3188 96.207 75.3188C93.0278 75.3188 90.8852 77.8944 90.8852 81.0965C90.8852 84.2985 93.0278 86.8741 96.207 86.8741C99.3863 86.8741 101.529 84.2985 101.529 81.0965Z" fill="white"/>
<path d="M117.287 84.4378L119.222 85.4123C117.978 87.5702 115.628 89.032 112.863 89.032C108.509 89.032 105.399 85.4819 105.399 81.0965C105.399 76.711 108.509 73.2305 112.863 73.2305C115.628 73.2305 117.909 74.6923 119.222 76.8502L117.287 77.8248C116.388 76.2933 114.799 75.3188 112.863 75.3188C109.684 75.3188 107.542 77.8944 107.542 81.0965C107.542 84.2985 109.684 86.8741 112.863 86.8741C114.868 86.8741 116.388 85.8996 117.287 84.4378Z" fill="white"/>
<path d="M131.593 75.4584H127.032V88.8236H124.959V75.4584H120.397V73.3701H131.524V75.4584H131.593Z" fill="white"/>
<path d="M140.233 84.5767H134.773L133.252 88.8229H130.971L136.501 73.2998H138.574L144.103 88.8229H141.684L140.233 84.5767ZM139.472 82.4884L137.468 76.5019L135.464 82.4884H139.472Z" fill="white"/>
<path d="M79.2048 12.6689H69.4597V31.3245H79.2048C82.315 31.3245 84.8031 30.4892 86.6 28.8186C88.397 27.1479 89.2264 24.8508 89.2264 21.9967C89.2264 19.0731 88.3279 16.776 86.6 15.1749C84.8031 13.5043 82.3841 12.6689 79.2048 12.6689Z" fill="white"/>
<path d="M42.436 0V59.5169H101.598V0H42.436ZM54.4619 49.9803C52.4576 49.9803 50.7989 48.3097 50.7989 46.1517C50.7989 44.133 52.4576 42.4624 54.4619 42.4624C56.6044 42.4624 58.2632 44.133 58.2632 46.1517C58.2632 48.3097 56.6044 49.9803 54.4619 49.9803ZM89.5719 31.2551C87.1529 33.6218 83.9737 34.8052 80.1033 34.8052H69.5288V48.3097C69.5288 49.3538 68.6994 50.2587 67.5936 50.2587C66.5569 50.2587 65.6584 49.4234 65.6584 48.3097V9.25819H80.1033C83.9737 9.25819 87.1529 10.4416 89.5719 12.8083C91.9909 15.1751 93.1658 18.2379 93.1658 22.0665C93.1658 25.8951 91.9909 28.8883 89.5719 31.2551Z" fill="white"/>
</svg>
