<svg width="65" height="62" viewBox="0 0 65 62" fill="none" xmlns="http://www.w3.org/2000/svg">
<path d="M11.8287 56.0091C11.8287 59.2953 9.36364 61.7599 6.07694 61.7599C3.06414 61.7599 0.599121 59.2953 0.599121 56.0091C0.599121 52.9968 3.06414 50.5322 6.07694 50.5322C9.36364 50.5322 11.8287 52.9968 11.8287 56.0091Z" fill="white"/>
<path d="M44.6955 0.692383C50.4472 0.692383 55.3773 2.33546 58.9378 5.89546C62.4984 9.45546 64.4157 14.1108 64.4157 19.5878C64.4157 25.0647 62.4984 29.9939 58.9378 33.2801C55.3773 36.8401 50.4472 38.4832 44.6955 38.4832H28.8098V58.7478C28.8098 60.3908 27.4404 61.4862 26.0709 61.4862H25.797C24.1537 61.4862 23.0581 60.117 23.0581 58.7478V0.692383H44.6955ZM28.8098 33.8278H43.326C47.9822 33.8278 51.8167 32.4585 54.5556 29.9939C57.2945 27.5293 58.6639 24.2432 58.6639 19.8616C58.6639 15.4801 57.2945 12.1939 54.5556 9.72931C51.8167 7.26469 48.2561 5.89546 43.326 5.89546H28.8098V33.8278Z" fill="white"/>
</svg>
