<svg width="62" height="55" viewBox="0 0 62 55" fill="none" xmlns="http://www.w3.org/2000/svg">
<path d="M31 1.94141V10.3589" stroke="#1A1A1A" stroke-width="2" stroke-miterlimit="10" stroke-linecap="round" stroke-linejoin="round"/>
<path d="M2.68945 24.1064L11.1069 25.7375" stroke="#1A1A1A" stroke-width="2" stroke-miterlimit="10" stroke-linecap="round" stroke-linejoin="round"/>
<path d="M50.8933 25.7375L59.3108 24.1064" stroke="#1A1A1A" stroke-width="2" stroke-miterlimit="10" stroke-linecap="round" stroke-linejoin="round"/>
<path d="M12.738 8.40723L14.806 10.883" stroke="#1A1A1A" stroke-width="2" stroke-miterlimit="10" stroke-linecap="round" stroke-linejoin="round"/>
<path d="M49.3787 8.49512L47.3398 10.9417" stroke="#1A1A1A" stroke-width="2" stroke-miterlimit="10" stroke-linecap="round" stroke-linejoin="round"/>
<path d="M6.79618 40.4173L3.91269 41.6406H3.82531C2.54375 38.3785 1.84473 34.7959 1.84473 31.0969C1.84473 15.0192 14.8933 1.9707 30.9709 1.9707C47.0486 1.9707 60.0972 15.0192 60.0972 31.0969C60.0972 34.7959 59.3981 38.3202 58.1748 41.5532L58.0583 41.6406L55.1748 40.4173" stroke="#1A1A1A" stroke-width="2" stroke-miterlimit="10" stroke-linecap="round" stroke-linejoin="round"/>
<path d="M48.7088 17.4075L32.0195 30.7764C30.971 31.6211 29.4564 31.3881 28.6991 30.3104C27.9418 29.2036 28.2622 27.7182 29.3981 27.0191L47.7185 15.9803C48.1263 15.7473 48.6214 15.8638 48.8836 16.2424C49.1457 16.6211 49.0874 17.1454 48.7088 17.4075Z" stroke="#1A1A1A" stroke-width="2" stroke-miterlimit="10" stroke-linecap="round" stroke-linejoin="round"/>
<path d="M40.0292 47.291H19.9321V53.4366H40.0292V47.291Z" stroke="#1A1A1A" stroke-width="2" stroke-miterlimit="10" stroke-linecap="round" stroke-linejoin="round"/>
</svg>
