<svg width="61" height="63" viewBox="0 0 61 63" fill="none" xmlns="http://www.w3.org/2000/svg">
<path d="M45.6018 48.2127V58.8729C45.6018 60.6496 43.9708 61.9894 42.2232 61.6399L3.66008 52.6981C2.43677 52.4069 1.56299 51.3292 1.56299 50.0477V17.5137" stroke="#1A1A1A" stroke-width="2" stroke-miterlimit="10" stroke-linecap="round" stroke-linejoin="round"/>
<path d="M34.9125 9.12576C34.9125 7.23255 33.0776 5.86362 31.2717 6.44615L2.72806 15.9995C1.09699 16.4947 1.2135 18.0966 2.87369 18.417L41.262 26.3394C43.796 26.8636 45.6018 29.0772 45.6018 31.6695V40.786" stroke="#1A1A1A" stroke-width="2" stroke-miterlimit="10" stroke-linecap="round" stroke-linejoin="round"/>
<path d="M17.4077 21.4462L45.4271 1.75684L59.7864 22.1743L54.0194 26.252" stroke="#1A1A1A" stroke-width="2" stroke-miterlimit="10" stroke-linecap="round" stroke-linejoin="round"/>
<path d="M26.3494 23.2809L49.2717 14.2227L58.4465 37.4363L47.495 41.7761" stroke="#1A1A1A" stroke-width="2" stroke-miterlimit="10" stroke-linecap="round" stroke-linejoin="round"/>
<path d="M47.4951 48.5917L37.1553 46.4655V39.0674L47.4951 41.1936V48.5917Z" stroke="#1A1A1A" stroke-width="2" stroke-miterlimit="10" stroke-linecap="round" stroke-linejoin="round"/>
</svg>
