<svg width="61" height="62" viewBox="0 0 61 62" fill="none" xmlns="http://www.w3.org/2000/svg">
<path d="M15.262 23.3008C15.262 23.3008 28.7184 16.6892 27.262 5.76685C25.8057 -5.15548 44.4465 6.11637 36.1455 22.1067H55.3689C57.9028 22.1067 59.9417 24.1455 59.9417 26.6795V27.1455C59.9417 29.6795 57.9028 31.7183 55.3689 31.7183H50.796H54.2912C56.8252 31.7183 58.864 33.7571 58.864 36.2911V37.0193C58.864 39.5533 56.8252 41.5921 54.2912 41.5921H48.7572H51.7572C54.2912 41.5921 56.33 43.6309 56.33 46.1649V46.3979C56.33 48.9319 54.2912 50.9707 51.7572 50.9707H46.9514H48.1455C50.6795 50.9707 52.7184 53.0096 52.7184 55.5435C52.7184 58.0775 50.6795 60.1164 48.1455 60.1164H40.3688C34.9805 60.1164 29.6504 59.4756 24.4077 58.2232L15.2329 56.0096V23.3008H15.262Z" stroke="#1A1A1A" stroke-width="2" stroke-miterlimit="10" stroke-linecap="round" stroke-linejoin="round"/>
<path d="M15.262 60.7859H3.9028C2.6795 60.7859 1.68921 59.7956 1.68921 58.5723V23.1257C1.68921 21.9024 2.6795 20.9121 3.9028 20.9121H13.0484C14.2717 20.9121 15.262 21.9024 15.262 23.1257V60.7859Z" stroke="#1A1A1A" stroke-width="2" stroke-miterlimit="10" stroke-linecap="round" stroke-linejoin="round"/>
</svg>
