<svg width="40" height="47" viewBox="0 0 40 47" fill="none" xmlns="http://www.w3.org/2000/svg">
<path d="M20.0001 27L25.0001 23L31.7001 26.2C32.9001 27 33.6001 28.7 34.1001 30C34.6001 31.3 38.8001 40.1 38.8001 40.1C39.3001 41.2 38.8001 42.6 37.8001 43.2L33.8001 46C31.7001 46 27.0001 46 27.0001 46C23.0001 46 23.0001 40 27.0001 40H29.0001V31H11.0001V40H13.0001C17.0001 40 17.0001 46 13.0001 46C13.0001 46 8.30006 46 6.20006 46L2.20006 43.2C1.20006 42.6 0.700059 41.2 1.20006 40.1C1.20006 40.1 5.40006 31.3 5.90006 30C6.40006 28.7 7.10006 27 8.30006 26.2L15.0001 23L20.0001 27Z" stroke="white" stroke-width="2" stroke-miterlimit="10"/>
<path d="M20.1 1C16.2 1 13 3.4 13 10C13 16.6 16.1 19 20 19C23.9 19 27 16.6 27 10C27 3.4 24 1 20.1 1Z" stroke="white" stroke-width="2" stroke-miterlimit="10"/>
</svg>
