<svg width="50" height="45" viewBox="0 0 50 45" fill="none" xmlns="http://www.w3.org/2000/svg">
<path d="M44.3562 34.415C44.3562 35.4561 43.4841 36.3281 42.4431 36.3281H7.53808C6.49446 36.3281 5.625 35.4677 5.625 34.415V11.6025C5.625 10.5499 6.48543 9.68945 7.53808 9.68945H15.0679" stroke="white" stroke-width="2" stroke-miterlimit="22.9256" stroke-linecap="round" stroke-linejoin="round"/>
<path d="M34.9675 9.68945H42.4431C43.4957 9.68945 44.3562 10.5538 44.3562 11.6025V34.415C44.3562 35.4677 43.4867 36.3281 42.4431 36.3281H7.53808C6.49833 36.3281 5.625 35.4548 5.625 34.415" stroke="white" stroke-width="2" stroke-miterlimit="22.9256" stroke-linecap="round" stroke-linejoin="round"/>
<path d="M44.0576 36.4551L48.9403 43.3463" stroke="white" stroke-width="2" stroke-miterlimit="22.9256" stroke-linecap="round" stroke-linejoin="round"/>
<path d="M48.9403 43.3457C49.1608 43.6334 48.6087 43.9997 48.2256 43.9997" stroke="white" stroke-width="2" stroke-miterlimit="22.9256" stroke-linecap="round" stroke-linejoin="round"/>
<path d="M48.2258 44.0003H1.76229C1.38947 44.0003 0.833481 43.6482 1.04762 43.3463L5.93159 36.4551" stroke="white" stroke-width="2" stroke-miterlimit="22.9256" stroke-linecap="round" stroke-linejoin="round"/>
<path d="M30.2629 12.9469C29.4244 15.9746 27.1436 18.1792 24.9751 18.2889C22.8002 18.1792 20.5117 15.9604 19.6797 12.9186L19.2694 12.9856C18.8063 13.0605 18.3677 12.7276 18.2955 12.2452L17.893 9.55294C17.8208 9.07047 18.1407 8.61381 18.6051 8.53899L18.8966 8.49126C18.7663 8.06943 18.6967 7.6205 18.6967 7.15481V6.16538C18.6967 3.74145 20.602 1.75742 22.9305 1.75742H23.4349C23.4297 1.67486 23.4387 1.59488 23.4658 1.52135C23.7264 0.806686 25.4628 0.829906 27.3436 1.57166C27.7435 1.73033 28.1176 1.90706 28.4569 2.0954C29.9868 2.76105 31.0691 4.33744 31.0691 6.16538V7.1561C31.0691 7.62179 30.9995 8.07072 30.8692 8.49255L31.1607 8.54028C31.6238 8.6151 31.945 9.07176 31.8728 9.55423L31.4703 12.2452C31.3981 12.7276 30.9595 13.0605 30.4964 12.9856L30.2629 12.9469Z" stroke="white" stroke-width="2" stroke-miterlimit="22.9256" stroke-linecap="round" stroke-linejoin="round"/>
<path d="M10.0313 35.2792L9.27148 26.5626V25.8079C9.27148 24.1271 10.9059 23.157 12.2695 22.8693C13.5143 22.6061 18.1751 21.5548 19.6844 20.4673L19.776 20.4531" stroke="white" stroke-width="2" stroke-miterlimit="22.9256" stroke-linecap="round" stroke-linejoin="round"/>
<path d="M22.5059 35.3038L24.1442 24.9889L22.7561 21.2646H27.2363L25.8483 24.9889L27.4401 35.3038" stroke="white" stroke-width="2" stroke-miterlimit="22.9256" stroke-linecap="round" stroke-linejoin="round"/>
<path d="M30.2148 20.4531L30.3064 20.4673C31.8157 21.5548 36.4752 22.6061 37.7201 22.8693C39.0836 23.157 40.7181 24.1296 40.7181 25.8079V26.5626L39.9583 35.2792" stroke="white" stroke-width="2" stroke-miterlimit="22.9256" stroke-linecap="round" stroke-linejoin="round"/>
<path d="M31.3022 8.54905C31.1345 7.61895 29.7026 5.17955 27.8449 4.78223C24.7309 8.4781 19.7682 3.52705 18.6885 8.15689" stroke="white" stroke-width="2" stroke-miterlimit="22.9256" stroke-linecap="round" stroke-linejoin="round"/>
</svg>
