<svg width="60" height="50" viewBox="0 0 60 50" fill="none" xmlns="http://www.w3.org/2000/svg">
<g clip-path="url(#clip0)">
<path d="M35.3267 15.2453C35.0794 15.4055 34.8273 15.5464 34.5703 15.6824L38.0081 19.3492C38.1244 19.3104 38.2408 19.2812 38.3475 19.2472C38.6384 19.1695 38.9245 19.1015 39.2736 19.0432C39.2736 19.0432 39.2736 19.0432 39.2784 19.0432L36.4274 14.4536C36.0783 14.745 35.7098 15.0073 35.3267 15.2453Z" fill="white"/>
<path d="M20.6649 18.6012C20.7716 18.6303 20.8831 18.6643 21.0043 18.7032L23.7438 15.6871C23.5256 15.5754 23.3123 15.454 23.1038 15.318C22.8953 15.1918 22.6917 15.0558 22.488 14.9149C22.3135 14.7887 22.1728 14.6332 22.071 14.4487C22.071 14.4438 22.0662 14.4438 22.0662 14.439L19.6709 18.3584C19.6757 18.3584 19.6757 18.3584 19.6757 18.3584C20.0442 18.4312 20.34 18.5041 20.6649 18.6012Z" fill="white"/>
<path d="M24.1654 12.5644C24.3836 12.715 24.6066 12.8607 24.8345 12.9918C25.14 13.1667 25.4551 13.3221 25.7752 13.4532L29.0965 9.84513V9.85436L32.4858 13.4629C32.864 13.3124 33.2276 13.1327 33.5768 12.9238C34.0422 12.6518 34.4835 12.3313 34.8859 11.9719L31.8215 7.03258C31.4966 7.69796 30.9245 8.22249 30.2214 8.4799C30.0081 8.56246 29.785 8.61589 29.5523 8.64017C29.4456 8.65474 29.3341 8.6596 29.2226 8.6596C29.1838 8.6596 29.145 8.6596 29.1111 8.65474C28.7911 8.64503 28.4807 8.58189 28.1995 8.47018C27.5061 8.20792 26.9437 7.68825 26.6237 7.02773C26.6188 7.02287 26.614 7.01801 26.614 7.0083L23.3799 12.3022C23.3799 12.3022 23.3799 12.307 23.3847 12.307C23.6611 12.3119 23.9326 12.4042 24.1654 12.5644Z" fill="white"/>
<path d="M48.1669 27.7612C47.8857 27.7612 47.6093 27.7709 47.3281 27.7855L53.806 35.7166C48.0505 32.3994 41.9654 31.7389 35.9045 33.8661C33.868 34.5607 31.8412 35.5709 29.8387 36.9162L29.829 36.261C29.7175 36.3727 29.606 36.4796 29.4896 36.5913L29.4702 25.2503C30.1927 24.5315 30.9248 23.8806 31.657 23.2881C30.9248 23.6572 30.1975 24.0749 29.4654 24.5557C29.4411 24.5412 29.4217 24.5315 29.3975 24.5169C26.4785 21.7582 23.5839 19.9127 20.7861 19.0385C18.5509 18.3391 16.5968 18.4265 14.5458 18.9656L14.4004 19.0045L4.26169 28.9657C4.26169 28.9657 6.7103 28.4751 10.1771 28.65L3.98047 36.6782C3.99017 36.6733 4.01926 36.6588 4.06775 36.6393C4.84354 36.2557 10.3662 33.6427 16.3835 33.6039C20.6843 33.6039 24.9754 35.5466 29.126 38.4655L29.4072 38.6403L29.4217 38.65L29.4363 38.6646C29.4411 38.6695 29.446 38.6743 29.4557 38.6792L29.509 38.6452L29.5672 38.6112L29.7951 38.4655C30.8327 37.737 31.88 37.0667 32.9322 36.4742C34.2511 35.736 35.5748 35.1143 36.9082 34.6384C37.4415 34.4489 37.9797 34.2838 38.5131 34.143C39.0464 34.0021 39.5847 33.8856 40.1229 33.803C40.9277 33.6719 41.7326 33.6039 42.5375 33.6039C48.1136 33.6427 53.2968 35.8963 54.6448 36.5325C54.8678 36.6393 54.9842 36.6976 54.9842 36.6976L48.1669 27.7612ZM4.92597 35.8817L10.0317 29.4805L10.6669 28.6791C12.4803 28.8005 14.5458 29.1114 16.6696 29.7622C19.0018 30.4907 21.3438 31.8117 23.6566 33.5456C24.1512 33.9147 24.6457 34.3032 25.1355 34.7064C18.3327 31.6272 11.3651 32.1663 4.92597 35.8817ZM29.1163 36.7948C21.174 29.1065 12.8197 26.4499 5.21204 28.4606L14.6913 19.529C19.3849 18.2905 24.4615 20.2769 29.3587 25.0317L29.1163 36.7948Z" fill="white"/>
<path d="M29.2221 8.06606C30.4946 8.06606 31.5262 7.03276 31.5262 5.75813C31.5262 4.48349 30.4946 3.4502 29.2221 3.4502C27.9496 3.4502 26.918 4.48349 26.918 5.75813C26.918 7.03276 27.9496 8.06606 29.2221 8.06606Z" fill="white"/>
<path d="M34.7767 14.6795C35.2866 14.6795 35.6999 14.2655 35.6999 13.7548C35.6999 13.2441 35.2866 12.8301 34.7767 12.8301C34.2668 12.8301 33.8535 13.2441 33.8535 13.7548C33.8535 14.2655 34.2668 14.6795 34.7767 14.6795Z" fill="white"/>
<path d="M23.5752 15.1338C25.8434 16.4465 28.58 16.9657 31.3545 16.4072C32.6287 16.1508 33.807 15.684 34.8645 15.0546C34.8349 15.0565 34.8073 15.0633 34.7772 15.0633C34.5178 15.0633 34.2773 14.9851 34.0737 14.854C33.1946 15.312 32.2476 15.6563 31.2444 15.8579C28.8385 16.3426 26.418 15.9953 24.2904 14.888C24.0872 15.0356 23.8419 15.124 23.5752 15.1338Z" fill="white"/>
<path d="M30.9419 14.3543C28.7454 14.7967 26.5761 14.4062 24.7568 13.4009C24.8039 13.5359 24.8349 13.6787 24.8349 13.8297C24.8349 13.907 24.8247 13.9817 24.8121 14.0556C26.7312 15.0279 28.8991 15.3373 31.0524 14.9036C31.9194 14.7287 32.7393 14.4339 33.5059 14.0473C33.4845 13.9531 33.4705 13.856 33.4705 13.7549C33.4705 13.6355 33.4918 13.5218 33.5219 13.412C32.7335 13.8443 31.8689 14.1678 30.9419 14.3543Z" fill="white"/>
<path d="M37.2623 10.6612C37.3375 10.5442 37.4509 10.465 37.5819 10.4388C37.6609 10.4227 37.7807 10.4198 37.9067 10.4946C38.043 10.5762 38.1225 10.684 38.153 10.8127C38.1821 10.9346 38.1622 11.059 38.0963 11.1615C37.5266 12.0561 36.8381 12.8429 36.0584 13.5141C36.0729 13.5923 36.0826 13.6724 36.0826 13.755C36.0826 13.9594 36.0317 14.1503 35.9478 14.3227C36.9859 13.5257 37.8713 12.5558 38.5676 11.4631C38.8784 10.975 38.7121 10.3227 38.2151 10.0269L38.1918 10.0128C37.7089 9.72579 37.096 9.8851 36.792 10.3581C36.2843 11.1493 35.6496 11.8569 34.917 12.4601C35.1395 12.4844 35.3466 12.5602 35.5211 12.6826C36.182 12.0988 36.7716 11.4257 37.2623 10.6612Z" fill="white"/>
<path d="M23.5287 14.7542C24.0385 14.7542 24.4519 14.3402 24.4519 13.8295C24.4519 13.3188 24.0385 12.9048 23.5287 12.9048C23.0188 12.9048 22.6055 13.3188 22.6055 13.8295C22.6055 14.3402 23.0188 14.7542 23.5287 14.7542Z" fill="white"/>
<path d="M29.174 2.86063H29.1886C29.1934 2.86063 29.1934 2.86063 29.1988 2.86063H29.2133C29.2182 2.86063 29.2182 2.86063 29.223 2.86063H29.2279C29.3733 2.86063 29.5188 2.87034 29.6545 2.89463V0.427394C29.6541 0.189413 29.465 0 29.2274 0H29.2177C28.9801 0 28.7861 0.189413 28.7861 0.427394V2.89463C28.9025 2.8752 29.0237 2.86549 29.1498 2.86549C29.1595 2.86063 29.1643 2.86063 29.174 2.86063Z" fill="white"/>
<path d="M29.6768 28.4698C30.3813 27.8078 30.8492 27.4061 31.6056 26.8092L31.5852 26.3843C31.2114 26.6815 30.9093 26.9341 30.5995 27.208L30.4841 27.3143C30.2373 27.5348 29.9759 27.7777 29.6772 28.0633V28.4698H29.6768Z" fill="white"/>
<path d="M35.2227 21.0629C35.243 21.1896 35.2585 21.2829 35.2784 21.3985C35.8123 21.1124 36.1366 20.9565 36.6763 20.7253C36.6438 20.6058 36.6201 20.517 36.5905 20.4028C36.0678 20.6262 35.7657 20.7719 35.2227 21.0629Z" fill="white"/>
<path d="M38.353 21.0633C38.8655 20.8904 39.1748 20.8011 39.6699 20.686C39.602 20.5519 39.5521 20.4509 39.4822 20.3096C38.9877 20.4232 38.704 20.5038 38.2061 20.6709C38.2584 20.8137 38.2982 20.9181 38.353 21.0633Z" fill="white"/>
<path d="M29.9803 27.1191C29.8566 27.2318 29.7776 27.3051 29.6768 27.4022V27.5499C29.9124 27.327 30.1272 27.1274 30.3333 26.9394C30.3735 26.9044 30.4138 26.869 30.453 26.8384C30.7886 26.5373 31.1236 26.2599 31.6099 25.8801L32.1976 25.4309L32.1705 25.0181C31.672 25.3969 31.1891 25.8019 30.5893 26.343L30.518 26.4061C30.518 26.4061 30.1854 26.7106 30.0356 26.851V27.0176L30.0162 27.0856L29.9803 27.1191Z" fill="white"/>
<path d="M39.8666 22.8455C39.8898 22.9063 39.918 22.967 39.95 23.0345C40.5653 22.8553 40.9861 22.7474 41.3842 22.6658L41.5069 22.6416C41.9462 22.5532 42.3821 22.4954 42.9731 22.4463L42.5179 21.8149C41.3915 21.9033 40.7665 22.0194 39.6396 22.3526L39.8113 22.73C39.8254 22.762 39.8438 22.7989 39.8666 22.8455Z" fill="white"/>
<path d="M33.6615 22.6471C32.2228 23.5787 31.4015 24.2202 30.0273 25.4854C30.0303 25.8303 30.0307 26.0954 30.0307 26.3927C30.1316 26.2999 30.231 26.2091 30.3289 26.1197C30.3643 26.0886 30.3997 26.0575 30.4395 26.0182C31.0708 25.4548 31.6114 25.0124 32.1923 24.5845C32.2325 24.5539 32.2733 24.5238 32.3145 24.4966C32.6888 24.2222 33.1116 23.9342 33.7177 23.5388C33.7148 23.5136 33.6246 23.0347 33.6246 23.0347L33.772 22.9463C34.2942 22.6068 34.621 22.4121 35.1806 22.1071C35.1573 21.9784 35.1403 21.8846 35.12 21.7676C34.5672 22.0697 34.2554 22.2581 33.6615 22.6471Z" fill="white"/>
<path d="M37.1967 22.4498L37.0934 22.1089C36.5658 22.3357 36.2633 22.4814 35.7207 22.7694L35.7929 23.1215C36.3346 22.8355 36.6487 22.6854 37.1967 22.4498Z" fill="white"/>
<path d="M42.9932 20.8637C43.0446 20.8637 43.0984 20.8637 43.1542 20.8647C43.0819 20.7739 43.0179 20.6937 42.9321 20.5845C42.8148 20.582 42.7086 20.5811 42.6092 20.5811C42.2727 20.5811 42.0108 20.5947 41.6084 20.635C41.6734 20.7355 41.7282 20.8186 41.8043 20.9337C42.3052 20.8807 42.6014 20.8637 42.9932 20.8637Z" fill="white"/>
<path d="M34.991 24.596L34.9987 24.6611L34.9042 24.7281C34.5958 24.9126 34.316 25.0846 34.0537 25.2502L34.2981 26.6669C34.8591 26.3328 35.4007 26.0394 35.9108 25.7941L35.8894 25.6922C35.8119 25.342 35.7391 25.002 35.6329 24.4979L35.6145 24.4173L35.7314 24.3522C36.1828 24.1093 36.5877 23.899 36.9717 23.7106L36.8514 23.2832C36.0989 23.6324 35.502 23.9394 34.9401 24.2648L34.991 24.596Z" fill="white"/>
<path d="M37.7588 23.7174C37.8994 24.1943 37.9891 24.5003 38.0381 24.6877C39.1179 24.2293 40.4038 23.8053 41.695 23.4925C41.6043 23.3366 41.5136 23.1783 41.4142 23.0044C41.0074 23.0913 40.5628 23.2093 39.916 23.3997L39.7744 23.4566L39.7022 23.3147L39.5819 23.0505C38.9278 23.2375 38.3542 23.4512 37.7588 23.7174Z" fill="white"/>
<path d="M42.3469 19.6939C42.7009 19.6939 42.9758 19.7089 43.3569 19.7536C43.291 19.6769 43.2284 19.604 43.1479 19.5093C42.6606 19.4452 42.3687 19.4248 41.9658 19.4248C41.9202 19.4248 41.8737 19.4248 41.8242 19.4253C41.8863 19.5137 41.9416 19.5919 42.0172 19.6978C42.1365 19.6953 42.2451 19.6939 42.3469 19.6939Z" fill="white"/>
<path d="M34.4283 23.1943C34.2989 23.2725 34.1762 23.3502 34.0569 23.426L34.0487 23.4309L34.086 23.7096C34.086 23.7096 32.9184 24.4697 32.5005 24.7747C32.5087 24.952 32.5184 25.1191 32.531 25.3269L32.5456 25.5261L32.5553 25.6067L32.292 25.7844C32.2968 25.8733 32.3017 25.9554 32.3061 26.0331C32.9829 25.5217 33.6739 25.0637 34.6286 24.4945C34.5467 23.9947 34.5001 23.6795 34.4283 23.1943Z" fill="white"/>
<path d="M32.3252 27.659C32.0401 27.8766 31.7923 28.0694 31.5625 28.2535L31.5707 28.4997C32.4023 27.882 33.2135 27.3298 33.9849 26.8562L33.7425 25.4497C33.2295 25.7839 32.7776 26.1039 32.3334 26.4473C32.3514 26.7358 32.365 27.0058 32.3839 27.3584L32.3979 27.543L32.3732 27.6221L32.3252 27.659Z" fill="white"/>
<path d="M37.426 23.8699C36.9867 24.0773 36.5266 24.3148 36.0049 24.5945C36.0049 24.5945 36.3404 26.172 36.4136 26.5168C38.4637 25.4226 39.7748 24.8675 42.2151 24.3755C42.0973 24.1715 41.9945 23.9952 41.8922 23.8262C40.5186 24.1501 39.1338 24.6047 37.9972 25.1025L37.8144 25.1744L37.7223 24.8849C37.668 24.6955 37.5371 24.2492 37.426 23.8699Z" fill="white"/>
<path d="M44.2784 27.2674C44.2188 27.1595 44.1703 27.0736 44.1034 26.9546C43.3567 27.0959 42.9484 27.1931 42.209 27.4072C42.2609 27.5262 42.3001 27.6166 42.353 27.739C43.1157 27.5151 43.5375 27.4116 44.2784 27.2674Z" fill="white"/>
<path d="M43.9728 25.521C43.0787 25.6536 42.5968 25.7556 41.7051 26.0023C41.7618 26.1218 41.8045 26.2131 41.8627 26.3374C42.7771 26.082 43.2964 25.9683 44.1716 25.8347L43.9728 25.521Z" fill="white"/>
<path d="M40.3036 26.7441C38.8665 27.2478 38.16 27.5742 36.8887 28.2468C36.9682 28.6315 37.0157 28.8656 37.087 29.2366C38.3792 28.5479 39.1588 28.1856 40.6523 27.6548C40.5228 27.3075 40.4399 27.0924 40.3036 26.7441Z" fill="white"/>
<path d="M29.6768 29.4463C30.5141 28.6605 31.0645 28.1967 32.0463 27.4429L32.0415 27.3836C32.0221 27.0344 32.0075 26.7727 31.9881 26.4837C31.9881 26.4837 31.9741 26.1743 31.9697 26.0835C31.9513 26.0976 31.9329 26.1117 31.9144 26.1248C31.9144 26.1248 31.929 26.4482 31.9309 26.5347C31.9338 26.5629 31.9508 26.9155 31.9508 26.9155L31.9266 26.9883L31.8849 27.0213C31 27.7231 30.5393 28.1224 29.6768 28.9368V29.4463Z" fill="white"/>
<path d="M44.0762 23.9263C43.4493 23.9768 42.9421 24.037 42.4625 24.1186L42.754 24.6106L42.5149 24.664C39.9378 25.1667 38.6655 25.6936 36.3682 26.9282L36.1674 27.0229L36.1267 26.8083C36.0719 26.5557 36.0249 26.3401 35.9822 26.139C35.813 26.2216 35.6414 26.3095 35.4678 26.4008L35.7902 28.0905C37.2279 27.2352 38.5933 26.6383 40.5778 25.9962L40.4814 25.7704L40.5948 25.7325C42.1639 25.2114 43.1288 25.0088 44.7589 24.8685C44.5174 24.5334 44.0762 23.9263 44.0762 23.9263Z" fill="white"/>
<path d="M46.586 24.9062C47.0859 24.9062 47.467 24.9266 48.0251 24.9868L47.7774 24.7221C47.0995 24.642 46.698 24.6162 46.1458 24.6162C46.0687 24.6162 45.9892 24.6167 45.9053 24.6177L46.1375 24.911C46.2995 24.9076 46.4474 24.9062 46.586 24.9062Z" fill="white"/>
<path d="M37.5439 30.8248C38.3357 30.3975 38.7764 30.1818 39.5842 29.8253C39.543 29.6641 39.5129 29.5509 39.4708 29.3955C38.6867 29.7369 38.2581 29.9453 37.4639 30.3703C37.4949 30.5436 37.5162 30.6641 37.5439 30.8248Z" fill="white"/>
<path d="M43.4668 23.3774C44.0782 23.3128 44.4365 23.2919 44.9102 23.2919C44.9878 23.2919 45.0683 23.2924 45.1536 23.2938L44.9097 23.0029C44.7589 22.9995 44.6232 22.998 44.4957 22.998C44.0806 22.998 43.7582 23.015 43.252 23.0665L43.4668 23.3774Z" fill="white"/>
<path d="M32.6311 32.2125C33.5247 31.5257 34.4484 30.9089 35.8133 30.1032C35.776 29.8686 35.7503 29.703 35.7183 29.4922C34.4285 30.2513 33.5393 30.8438 32.5996 31.5714C32.6079 31.7083 32.6311 32.2125 32.6311 32.2125Z" fill="white"/>
<path d="M36.0336 31.2204C35.9919 30.9115 35.9629 30.7066 35.9226 30.4351C33.7843 31.7017 32.7622 32.4793 31.0254 33.979L31.0395 34.846C32.7583 33.3496 33.827 32.5405 36.0336 31.2204Z" fill="white"/>
<path d="M29.6768 30.7683C30.2106 30.2705 30.6019 29.9301 31.2589 29.3914L31.2405 28.9062C30.6514 29.3963 30.2824 29.7256 29.6768 30.2977V30.7683Z" fill="white"/>
<path d="M29.6772 31.5951C31.2841 30.0895 32.3828 29.1925 34.6486 27.7796L34.8668 27.6437L34.908 27.9016C34.908 27.9016 34.9779 28.3931 35.0026 28.5776C35.1631 28.4742 35.3212 28.3746 35.4783 28.278L35.1529 26.5708C34.0401 27.1813 32.8401 27.9695 31.5833 28.9156L31.6017 29.4965L31.575 29.5713L31.5416 29.6048C30.7857 30.2168 30.3958 30.5587 29.6768 31.2406V31.5951H29.6772Z" fill="white"/>
<path d="M29.6772 34.3986C30.0399 34.0553 30.4007 33.7197 30.7794 33.3957C30.8191 33.3651 30.8545 33.334 30.8972 33.2967C31.3117 32.9455 31.7559 32.5885 32.2912 32.1772C32.2825 31.9644 32.2737 31.7833 32.265 31.6191L32.2587 31.5269C31.3893 32.1932 30.6155 32.8935 29.6768 33.7852V34.3986H29.6772Z" fill="white"/>
<path d="M29.6768 33.312C30.5515 32.4868 31.3442 31.7797 32.2839 31.0682L32.4003 30.9851C33.0941 30.4679 33.8457 29.9584 34.7631 29.3853L34.7621 29.38C34.7029 28.9186 34.6661 28.6291 34.6069 28.2114C32.4488 29.5694 31.4131 30.4227 29.6768 32.0653V33.312Z" fill="white"/>
</g>
<path d="M0 49.3553C0 44.3193 0 44.3193 0 44.3193C2.63965 44.3193 2.63965 44.3193 2.63965 44.3193C3.26804 44.3193 3.64527 44.823 3.64527 45.4524C3.64527 46.7113 3.64527 46.7113 3.64527 46.7113C3.64527 47.3407 3.26804 47.8444 2.63965 47.8444C1.25679 47.8444 1.25679 47.8444 1.25679 47.8444C1.25679 49.3553 1.25679 49.3553 1.25679 49.3553H0ZM1.25727 45.3261C1.25727 46.8371 1.25727 46.8371 1.25727 46.8371C2.2629 46.8371 2.2629 46.8371 2.2629 46.8371C2.38848 46.8371 2.51406 46.8371 2.51406 46.5855C2.51406 45.5782 2.51406 45.5782 2.51406 45.5782C2.51406 45.3266 2.38848 45.3266 2.2629 45.3266H1.25727V45.3261Z" fill="white"/>
<path d="M5.53102 49.4811C4.90262 49.4811 4.52539 48.9774 4.52539 48.348C4.52539 45.3261 4.52539 45.3261 4.52539 45.3261C4.52539 44.6967 4.90262 44.3188 5.53102 44.3188C7.16503 44.3188 7.16504 44.3188 7.16504 44.3188C7.91901 44.3188 8.29624 44.8225 8.29624 45.3261C8.29624 48.348 8.29624 48.348 8.29624 48.348C8.29624 48.9774 7.91901 49.4811 7.16504 49.4811H5.53102ZM6.7878 48.4738C7.03897 48.4738 7.03897 48.348 7.03897 48.2222C7.03897 45.4524 7.03897 45.4524 7.03897 45.4524C7.03897 45.3266 7.03897 45.2008 6.7878 45.2008C5.90776 45.2008 5.90776 45.2008 5.90776 45.2008C5.78218 45.2008 5.6566 45.3266 5.6566 45.4524C5.6566 48.2222 5.6566 48.2222 5.6566 48.2222C5.6566 48.348 5.78218 48.4738 5.90776 48.4738H6.7878Z" fill="white"/>
<path d="M12.695 48.4738C12.695 49.3553 12.695 49.3553 12.695 49.3553C10.307 49.3553 10.307 49.3553 10.307 49.3553C9.67859 49.3553 9.17578 48.8517 9.17578 48.348C9.17578 45.4524 9.17578 45.4524 9.17578 45.4524C9.17578 44.823 9.67859 44.3193 10.307 44.3193C12.695 44.3193 12.695 44.3193 12.695 44.3193C12.695 44.9488 12.695 44.9488 12.695 44.9488C12.4438 45.3266 12.4438 45.3266 12.4438 45.3266C10.6842 45.3266 10.6842 45.3266 10.6842 45.3266C10.5586 45.3266 10.4331 45.3266 10.4331 45.5782C10.4331 48.2222 10.4331 48.2222 10.4331 48.2222C10.4331 48.348 10.5586 48.4738 10.6842 48.4738H12.695Z" fill="white"/>
<path d="M14.4554 49.4811C13.7015 49.4811 13.3242 48.9774 13.3242 48.348C13.3242 45.3261 13.3242 45.3261 13.3242 45.3261C13.3242 44.6967 13.7015 44.3188 14.4554 44.3188C16.0894 44.3188 16.0894 44.3188 16.0894 44.3188C16.7178 44.3188 17.2207 44.8225 17.2207 45.3261C17.2207 48.348 17.2207 48.348 17.2207 48.348C17.2207 48.9774 16.7178 49.4811 16.0894 49.4811H14.4554ZM15.7122 48.4738C15.8378 48.4738 15.9634 48.348 15.9634 48.2222C15.9634 45.4524 15.9634 45.4524 15.9634 45.4524C15.9634 45.3266 15.8378 45.2008 15.7122 45.2008C14.8322 45.2008 14.8322 45.2008 14.8322 45.2008C14.7066 45.2008 14.581 45.3266 14.581 45.4524C14.581 48.2222 14.581 48.2222 14.581 48.2222C14.581 48.348 14.7066 48.4738 14.8322 48.4738H15.7122Z" fill="white"/>
<path d="M18.2261 44.3193C21.6197 44.3193 21.6197 44.3193 21.6197 44.3193C21.6197 44.9488 21.6197 44.9488 21.6197 44.9488C21.3685 45.3266 21.3685 45.3266 21.3685 45.3266C19.4829 45.3266 19.4829 45.3266 19.4829 45.3266C19.4829 46.2081 19.4829 46.2081 19.4829 46.2081C20.7397 46.2081 20.7397 46.2081 20.7397 46.2081C21.4936 46.2081 21.8709 46.7118 21.8709 47.3412C21.8709 48.3485 21.8709 48.3485 21.8709 48.3485C21.8709 48.8521 21.4936 49.3558 20.7397 49.3558C18.2256 49.3558 18.2256 49.3558 18.2256 49.3558V44.3193H18.2261ZM20.3629 48.4738C20.6141 48.4738 20.6141 48.348 20.6141 48.2222C20.6141 47.467 20.6141 47.467 20.6141 47.467C20.6141 47.3412 20.6141 47.2154 20.3629 47.2154C19.4829 47.2154 19.4829 47.2154 19.4829 47.2154C19.4829 48.4743 19.4829 48.4743 19.4829 48.4743H20.3629V48.4738Z" fill="white"/>
<path d="M22.877 49.3553C22.877 44.3193 22.877 44.3193 22.877 44.3193C25.5166 44.3193 25.5166 44.3193 25.5166 44.3193C26.145 44.3193 26.6478 44.823 26.6478 45.4524C26.6478 46.7113 26.6478 46.7113 26.6478 46.7113C26.6478 47.3407 26.145 47.8444 25.5166 47.8444C24.1337 47.8444 24.1337 47.8444 24.1337 47.8444C24.1337 49.3553 24.1337 49.3553 24.1337 49.3553H22.877ZM24.1342 45.3261C24.1342 46.8371 24.1342 46.8371 24.1342 46.8371C25.1399 46.8371 25.1399 46.8371 25.1399 46.8371C25.2654 46.8371 25.391 46.8371 25.391 46.5855C25.391 45.5782 25.391 45.5782 25.391 45.5782C25.391 45.3266 25.2654 45.3266 25.1399 45.3266H24.1342V45.3261Z" fill="white"/>
<path d="M30.796 48.4738C30.796 49.3553 30.796 49.3553 30.796 49.3553C28.408 49.3553 28.408 49.3553 28.408 49.3553C27.7796 49.3553 27.4023 48.8517 27.4023 48.348C27.4023 45.4524 27.4023 45.4524 27.4023 45.4524C27.4023 44.823 27.7796 44.3193 28.408 44.3193C30.796 44.3193 30.796 44.3193 30.796 44.3193C30.796 44.9488 30.796 44.9488 30.796 44.9488C30.5448 45.3266 30.5448 45.3266 30.5448 45.3266C28.7852 45.3266 28.7852 45.3266 28.7852 45.3266C28.6596 45.3266 28.534 45.3266 28.534 45.5782C28.534 48.2222 28.534 48.2222 28.534 48.2222C28.534 48.348 28.6596 48.4738 28.7852 48.4738H30.796Z" fill="white"/>
<path d="M32.556 49.4811C31.9276 49.4811 31.4248 48.9774 31.4248 48.348C31.4248 45.3261 31.4248 45.3261 31.4248 45.3261C31.4248 44.6967 31.9276 44.3188 32.556 44.3188C34.19 44.3188 34.19 44.3188 34.19 44.3188C34.944 44.3188 35.3212 44.8225 35.3212 45.3261C35.3212 48.348 35.3212 48.348 35.3212 48.348C35.3212 48.9774 34.8184 49.4811 34.19 49.4811H32.556ZM33.8128 48.4738C33.9384 48.4738 34.064 48.348 34.064 48.2222C34.064 45.4524 34.064 45.4524 34.064 45.4524C34.064 45.3266 33.9384 45.2008 33.8128 45.2008C32.9328 45.2008 32.9328 45.2008 32.9328 45.2008C32.8072 45.2008 32.6816 45.3266 32.6816 45.4524C32.6816 48.2222 32.6816 48.2222 32.6816 48.2222C32.6816 48.348 32.8072 48.4738 32.9328 48.4738H33.8128Z" fill="white"/>
<path d="M36.3262 49.3553C36.3262 44.3193 36.3262 44.3193 36.3262 44.3193C37.583 44.3193 37.583 44.3193 37.583 44.3193C37.583 46.3339 37.583 46.3339 37.583 46.3339C38.2114 46.3339 38.2114 46.3339 38.2114 46.3339C38.2114 45.3266 38.2114 45.3266 38.2114 45.3266C38.2114 44.6972 38.7142 44.3193 39.3426 44.3193C40.9766 44.3193 40.9766 44.3193 40.9766 44.3193C41.605 44.3193 42.1078 44.823 42.1078 45.3266C42.1078 48.3485 42.1078 48.3485 42.1078 48.3485C42.1078 48.9779 41.605 49.4816 40.9766 49.4816C39.3426 49.4816 39.3426 49.4816 39.3426 49.4816C38.7142 49.4816 38.2114 48.9779 38.2114 48.3485C38.2114 47.3412 38.2114 47.3412 38.2114 47.3412C37.583 47.3412 37.583 47.3412 37.583 47.3412C37.583 49.3558 37.583 49.3558 37.583 49.3558H36.3262V49.3553ZM40.5998 48.4738C40.7254 48.4738 40.851 48.348 40.851 48.2222C40.851 45.4524 40.851 45.4524 40.851 45.4524C40.851 45.3266 40.7254 45.2008 40.5998 45.2008C39.7198 45.2008 39.7198 45.2008 39.7198 45.2008C39.5942 45.2008 39.4686 45.3266 39.4686 45.4524C39.4686 48.2222 39.4686 48.2222 39.4686 48.2222C39.4686 48.348 39.5942 48.4738 39.7198 48.4738H40.5998Z" fill="white"/>
<path d="M42.9886 45.3261C42.7374 44.9483 42.7374 44.9483 42.7374 44.9483C42.7374 44.3188 42.7374 44.3188 42.7374 44.3188C45.1254 44.3188 45.1254 44.3188 45.1254 44.3188C45.7538 44.3188 46.2566 44.8225 46.2566 45.4519C46.2566 45.9556 46.2566 45.9556 46.2566 45.9556C46.2566 46.3334 46.0054 46.4592 45.8794 46.585C45.7538 46.7108 45.6282 46.7108 45.5021 46.7108C45.5021 46.8366 45.5021 46.8366 45.5021 46.8366C45.6277 46.8366 45.7533 46.8366 45.8794 46.9624C46.1305 47.0882 46.2566 47.214 46.2566 47.5918C46.2566 48.347 46.2566 48.347 46.2566 48.347C46.2566 48.8507 45.8794 49.3543 45.251 49.3543C42.6113 49.3543 42.6113 49.3543 42.6113 49.3543C42.6113 48.4728 42.6113 48.4728 42.6113 48.4728C44.8737 48.4728 44.8737 48.4728 44.8737 48.4728C44.9993 48.4728 44.9993 48.347 44.9993 48.2213C44.9993 47.5918 44.9993 47.5918 44.9993 47.5918C44.9993 47.466 44.9993 47.3402 44.8737 47.3402C43.4909 47.3402 43.4909 47.3402 43.4909 47.3402C43.4909 46.3329 43.4909 46.3329 43.4909 46.3329C44.7477 46.3329 44.7477 46.3329 44.7477 46.3329C44.8733 46.3329 44.9988 46.3329 44.9988 46.0814C44.9988 45.5777 44.9988 45.5777 44.9988 45.5777C44.9988 45.3261 44.8733 45.3261 44.7477 45.3261H42.9886Z" fill="white"/>
<path d="M47.1367 49.3554V48.3481H48.1423V49.3554H47.1367Z" fill="white"/>
<path d="M49.1475 49.3553C49.1475 44.3193 49.1475 44.3193 49.1475 44.3193C51.6615 44.3193 51.6615 44.3193 51.6615 44.3193C52.4155 44.3193 52.7927 44.823 52.7927 45.4524C52.7927 46.7113 52.7927 46.7113 52.7927 46.7113C52.7927 47.3407 52.4155 47.8444 51.6615 47.8444C50.2787 47.8444 50.2787 47.8444 50.2787 47.8444C50.2787 49.3553 50.2787 49.3553 50.2787 49.3553H49.1475ZM50.2787 45.3261C50.2787 46.8371 50.2787 46.8371 50.2787 46.8371C51.2843 46.8371 51.2843 46.8371 51.2843 46.8371C51.4099 46.8371 51.5355 46.8371 51.5355 46.5855C51.5355 45.5782 51.5355 45.5782 51.5355 45.5782C51.5355 45.3266 51.4099 45.3266 51.2843 45.3266H50.2787V45.3261Z" fill="white"/>
<path d="M55.8093 49.1038C54.6781 49.1038 54.6781 49.1038 54.6781 49.1038C53.9241 49.1038 53.5469 48.6002 53.5469 47.9708C53.5469 45.5788 53.5469 45.5788 53.5469 45.5788C53.5469 45.0752 53.9241 44.5715 54.6781 44.5715C55.8093 44.5715 55.8093 44.5715 55.8093 44.5715C55.8093 44.0679 55.8093 44.0679 55.8093 44.0679C57.0661 44.0679 57.0661 44.0679 57.0661 44.0679C57.0661 44.5715 57.0661 44.5715 57.0661 44.5715C58.1973 44.5715 58.1973 44.5715 58.1973 44.5715C58.8257 44.5715 59.3285 45.0752 59.3285 45.5788C59.3285 47.9708 59.3285 47.9708 59.3285 47.9708C59.3285 48.6002 58.8257 49.1038 58.1973 49.1038C57.0661 49.1038 57.0661 49.1038 57.0661 49.1038C57.0661 49.6075 57.0661 49.6075 57.0661 49.6075C55.8093 49.6075 55.8093 49.6075 55.8093 49.6075V49.1038ZM55.8093 48.0966C55.8093 45.4525 55.8093 45.4525 55.8093 45.4525C55.0553 45.4525 55.0553 45.4525 55.0553 45.4525C54.9297 45.4525 54.8042 45.5783 54.8042 45.7041C54.8042 47.8445 54.8042 47.8445 54.8042 47.8445C54.8042 48.0961 54.9297 48.0961 55.0553 48.0961H55.8093V48.0966ZM57.8206 48.0966C57.9461 48.0966 58.0717 48.0966 58.0717 47.845C58.0717 45.7046 58.0717 45.7046 58.0717 45.7046C58.0717 45.5788 57.9461 45.453 57.8206 45.453C57.0666 45.453 57.0666 45.453 57.0666 45.453C57.0666 48.097 57.0666 48.097 57.0666 48.097H57.8206V48.0966Z" fill="white"/>
<defs>
<clipPath id="clip0">
<rect width="51.6758" height="38.9831" fill="white" transform="translate(3.37988)"/>
</clipPath>
</defs>
</svg>
