<svg width="106" height="97" viewBox="0 0 106 97" fill="none" xmlns="http://www.w3.org/2000/svg">
<circle cx="53" cy="46" r="46" fill="#BC39A7"/>
<path d="M3.2417 82.7956L57.0521 72.0777L3.2417 82.8602V82.7956Z" fill="#F0BC42"/>
<path d="M3.2417 82.8602L57.0521 72.0777C57.0521 72.1423 57.0521 72.1423 57.0521 72.2068C57.0521 72.2714 57.0521 72.2714 57.0521 72.336C57.0521 72.4005 57.0521 72.4005 57.0521 72.4651C57.0521 72.5297 57.0521 72.5297 57.0521 72.5942L3.2417 83.4413C3.2417 83.3767 3.2417 83.3767 3.2417 83.3121C3.2417 83.2476 3.2417 83.2476 3.2417 83.183C3.2417 83.1184 3.2417 83.0539 3.2417 83.0539C3.2417 82.9247 3.2417 82.9247 3.2417 82.8602Z" fill="#F1BD47"/>
<path d="M3.2417 83.4413L57.0521 72.5942V72.6588V72.7234V72.7879V72.8525L3.2417 83.6995V83.635V83.5704V83.5058C3.2417 83.4413 3.2417 83.4413 3.2417 83.4413Z" fill="#F1BE4A"/>
<path d="M3.2417 83.6995L57.0521 72.8525L3.2417 83.6995Z" fill="#F1BF4D"/>
<path d="M3.30664 83.7641L57.117 72.9171L3.30664 83.7641C3.30664 83.8287 3.30664 83.8287 3.30664 83.7641C3.30664 83.8287 3.30664 83.8287 3.30664 83.7641C3.30664 83.8287 3.30664 83.8287 3.30664 83.7641C3.30664 83.8287 3.30664 83.8287 3.30664 83.7641Z" fill="#F1C04F"/>
<path d="M3.30664 83.8287L57.117 72.9816L3.30664 83.8287C3.30664 83.8932 3.30664 83.8932 3.30664 83.8287C3.30664 83.8932 3.30664 83.8932 3.30664 83.8287C3.30664 83.8932 3.30664 83.8932 3.30664 83.8287C3.30664 83.8932 3.30664 83.8932 3.30664 83.8287Z" fill="#F1C152"/>
<path d="M3.30664 83.8932L57.117 73.0462L3.30664 83.8932Z" fill="#F2C357"/>
<path d="M3.30664 83.8933L57.117 73.0462L3.30664 83.9578V83.8933Z" fill="#F1C152"/>
<path d="M3.30664 83.9578L57.117 73.0462L3.30664 83.9578Z" fill="#F1C04F"/>
<path d="M3.30664 83.9578L57.117 73.0462L3.30664 83.9578Z" fill="#F1BF4D"/>
<path d="M3.30664 83.9578L57.117 73.0462L3.30664 83.9578Z" fill="#F1BE4A"/>
<path d="M3.30664 83.9578L57.117 73.0462L3.30664 83.9578Z" fill="#F1BD47"/>
<path d="M3.30664 83.9578L57.117 73.0462L3.30664 83.9578Z" fill="#F0BC42"/>
<path d="M3.30653 81.4397L57.1169 70.7864V70.8509V70.9155V70.9801V71.0446L3.2417 81.8917C3.2417 81.8271 3.2417 81.8271 3.2417 81.7625C3.2417 81.698 3.2417 81.698 3.2417 81.6334C3.2417 81.5689 3.2417 81.5688 3.2417 81.5043C3.30653 81.5043 3.30653 81.5043 3.30653 81.4397Z" fill="#F0BB40"/>
<path d="M3.2417 81.8917L57.0521 71.2383C57.0521 71.3029 57.0521 71.3029 57.0521 71.3675C57.0521 71.432 57.0521 71.432 57.0521 71.4966C57.0521 71.5612 57.0521 71.5612 57.0521 71.6257C57.0521 71.6903 57.0521 71.6903 57.0521 71.7549V71.8194V71.884V71.9486V72.0131L3.2417 82.7956V82.731V82.6665V82.6019V82.5373C3.2417 82.4728 3.2417 82.4082 3.2417 82.4082C3.2417 82.3436 3.2417 82.2791 3.2417 82.2791C3.2417 82.2145 3.2417 82.15 3.2417 82.15C3.2417 81.9563 3.2417 81.8917 3.2417 81.8917Z" fill="#F0BC42"/>
<path d="M3.30653 81.4397L57.1169 70.7864V70.8509V70.9155V70.9801V71.0446L3.2417 81.8917C3.2417 81.8271 3.2417 81.8271 3.2417 81.7625C3.2417 81.698 3.2417 81.698 3.2417 81.6334C3.2417 81.5689 3.2417 81.5688 3.2417 81.5043C3.30653 81.5043 3.30653 81.5043 3.30653 81.4397Z" fill="#F0BB40"/>
<path d="M3.30664 81.1169L57.117 70.5281V70.851L3.30664 81.4397V81.1169Z" fill="#F1BD47"/>
<path d="M3.37147 80.1484L57.1819 69.6242L57.117 70.5281L3.30664 81.1169L3.37147 80.1484Z" fill="#F1BD47"/>
<path d="M3.37109 79.8256L57.2463 69.366L57.1815 69.6242L3.37109 80.1484V79.8256Z" fill="#F1BD47"/>
<path d="M3.50076 78.7926L57.3112 68.462L57.2463 69.366L3.37109 79.8256L3.50076 78.7926Z" fill="#F1BD47"/>
<path d="M3.50098 78.4697L57.3114 68.1392V68.462L3.50098 78.7926V78.4697Z" fill="#F1BD47"/>
<path d="M3.56581 77.5013L57.3762 67.2999L57.3114 68.1392L3.50098 78.4697L3.56581 77.5013Z" fill="#F1BD47"/>
<path d="M3.56592 77.1139L57.4412 66.9771L57.3763 67.2999L3.56592 77.5013V77.1139Z" fill="#F1BD47"/>
<path d="M3.30664 83.9578L57.117 73.0462L3.30664 83.9578Z" fill="#F0BC42"/>
<path d="M3.30664 83.9578L57.117 73.0462L3.30664 83.9578Z" fill="#F0BB40"/>
<path d="M3.30664 83.9578L57.117 73.0462H57.1819L3.37147 83.9578H3.30664Z" fill="#F0BA3D"/>
<path d="M3.37158 83.9578L57.182 73.0462V73.1108L3.37158 83.9578Z" fill="#EFB838"/>
<path d="M3.37158 83.9578L57.182 73.0462L3.37158 83.9578C3.43641 83.9578 3.43641 83.9578 3.37158 83.9578C3.43641 83.9578 3.37158 83.9578 3.37158 83.9578Z" fill="#EFB736"/>
<path d="M3.43652 83.9578L57.2469 73.0462C57.2469 73.0462 57.2469 73.0462 57.3118 73.0462C57.3118 73.0462 57.3118 73.0462 57.3766 73.0462C57.3766 73.0462 57.3766 73.0462 57.4414 73.0462L3.56619 84.0224C3.56619 84.0224 3.56619 84.0224 3.50136 84.0224C3.50136 84.0224 3.50136 84.0224 3.43652 84.0224C3.50136 84.0224 3.50136 84.0224 3.43652 83.9578C3.43652 84.0224 3.43652 83.9578 3.43652 83.9578Z" fill="#EFB633"/>
<path d="M3.56592 84.0224L57.3763 73.1108C57.4412 73.1108 57.4412 73.1108 57.506 73.1753C57.5708 73.1753 57.6356 73.1753 57.7005 73.2399C57.7653 73.2399 57.8301 73.2399 57.895 73.3045C57.9598 73.3045 58.0246 73.3045 58.0895 73.369L4.3439 84.2161C4.27907 84.2161 4.21424 84.1515 4.1494 84.1515C4.08457 84.1515 4.01974 84.0869 3.95491 84.0869C3.89008 84.0869 3.82525 84.087 3.76041 84.0224C3.69558 84.087 3.63075 84.0224 3.56592 84.0224Z" fill="#EFB530"/>
<path d="M4.34375 84.216L58.0893 73.3044C58.1541 73.3044 58.219 73.3044 58.219 73.3044C58.2838 73.3044 58.3486 73.3044 58.3486 73.3044C58.4135 73.3044 58.4783 73.3044 58.4783 73.3044C58.5431 73.3044 58.608 73.3044 58.6728 73.3044H58.7376H58.8025H58.8673H58.9321L5.2514 84.2806H5.18656H5.12173H5.0569H4.99207C4.92724 84.2806 4.8624 84.2806 4.79757 84.216C4.73274 84.216 4.66791 84.216 4.60308 84.1515C4.53825 84.1515 4.47341 84.1515 4.40858 84.0869C4.40858 84.2806 4.40858 84.216 4.34375 84.216Z" fill="#EFB42E"/>
<path d="M2.13965 71.4321L56.1445 61.8763L2.13965 71.4321Z" fill="#EDAE1C"/>
<path d="M2.13965 71.4321L56.1445 61.8763L2.26931 71.4321C2.26931 71.4321 2.26931 71.4321 2.20448 71.4321C2.13965 71.4321 2.20448 71.4321 2.13965 71.4321C2.20448 71.4321 2.20448 71.4321 2.13965 71.4321Z" fill="#EEB021"/>
<path d="M2.26953 71.4321L56.2744 61.8763L2.39919 71.4321C2.33436 71.4321 2.33436 71.4321 2.26953 71.4321C2.33436 71.4321 2.33436 71.4321 2.26953 71.4321Z" fill="#EEB124"/>
<path d="M2.39893 71.4321L56.4038 61.8763L2.46376 71.4321C2.46376 71.4321 2.46376 71.4321 2.39893 71.4321Z" fill="#EEB226"/>
<path d="M2.46387 71.4321L56.4039 61.8763L2.59353 71.4321C2.5287 71.4321 2.5287 71.4321 2.46387 71.4321C2.5287 71.4321 2.5287 71.4321 2.46387 71.4321C2.5287 71.4321 2.5287 71.4321 2.46387 71.4321Z" fill="#EEB329"/>
<path d="M2.59326 71.4321L56.5333 61.8763L2.59326 71.4321C2.65809 71.4321 2.65809 71.4321 2.59326 71.4321Z" fill="#EFB42E"/>
<path d="M3.69558 76.1454L57.5708 66.0731C57.5708 66.1377 57.5708 66.2023 57.5708 66.2668C57.5708 66.3314 57.5708 66.396 57.5708 66.4605C57.5708 66.5251 57.5708 66.5896 57.5708 66.7188C57.5708 66.7833 57.5708 66.8479 57.5708 66.977L3.56592 77.1139C3.56592 77.0493 3.56592 76.9202 3.56592 76.8556C3.56592 76.791 3.56592 76.6619 3.56592 76.5973C3.56592 76.5328 3.56592 76.4036 3.56592 76.3391C3.63075 76.2745 3.63075 76.2099 3.69558 76.1454Z" fill="#F0BB40"/>
<path d="M3.8252 74.8541L57.7004 64.9109L3.8252 74.8541Z" fill="#EEB124"/>
<path d="M3.8252 74.8541L57.7004 64.9109L3.8252 74.8541Z" fill="#EEB226"/>
<path d="M3.8252 74.8541L57.7004 64.9109L3.8252 74.8541Z" fill="#EEB329"/>
<path d="M3.8252 74.8541L57.7004 64.9109L3.8252 74.8541Z" fill="#EFB42E"/>
<path d="M3.8252 74.8541L57.7004 64.9109V64.9755L3.8252 74.9186V74.8541Z" fill="#EFB530"/>
<path d="M3.8252 74.9186L57.7004 64.9755L3.8252 74.9186Z" fill="#EFB633"/>
<path d="M3.8252 74.9186L57.7004 64.9755L3.8252 74.9832C3.8252 74.9832 3.8252 74.9832 3.8252 74.9186C3.8252 74.9832 3.8252 74.9832 3.8252 74.9186Z" fill="#EFB736"/>
<path d="M3.82509 74.9832L57.7003 65.0401C57.7003 65.0401 57.7003 65.0401 57.7003 65.1047C57.7003 65.1692 57.7003 65.1047 57.7003 65.1692C57.7003 65.1692 57.7003 65.1692 57.7003 65.2338V65.2984L3.76025 75.1769V75.1124V75.0478C3.76025 75.0478 3.76025 75.0478 3.82509 74.9832C3.82509 75.0478 3.82509 74.9832 3.82509 74.9832Z" fill="#EFB838"/>
<path d="M3.76014 75.1769L57.6354 65.2338C57.6354 65.2983 57.6354 65.2983 57.6354 65.3629C57.6354 65.4275 57.6354 65.4275 57.6354 65.492C57.6354 65.5566 57.6354 65.6212 57.6354 65.6212C57.6354 65.6857 57.6354 65.7503 57.6354 65.8149L3.69531 75.9517C3.69531 75.8871 3.69531 75.8225 3.69531 75.758C3.69531 75.6934 3.69531 75.6288 3.69531 75.5643C3.69531 75.4997 3.69531 75.4351 3.69531 75.4351C3.76014 75.2415 3.76014 75.2415 3.76014 75.1769Z" fill="#F0BA3D"/>
<path d="M3.69531 75.9517L57.5705 65.8795V65.944V66.0086V66.0731V66.1377L3.69531 76.1454V76.0808V76.0163C3.69531 76.0163 3.69531 76.0163 3.69531 75.9517Z" fill="#F0BB40"/>
<path d="M3.89003 74.7895L57.7653 64.8464L3.8252 74.8541C3.8252 74.8541 3.8252 74.8541 3.89003 74.7895C3.89003 74.8541 3.89003 74.8541 3.89003 74.7895C3.89003 74.8541 3.89003 74.8541 3.89003 74.7895Z" fill="#EDAD1A"/>
<path d="M3.8252 74.8541L57.7004 64.9109L3.8252 74.8541Z" fill="#EDAE1C"/>
<path d="M3.8252 74.8541L57.7004 64.9109L3.8252 74.8541Z" fill="#EEB021"/>
<path d="M3.8252 74.8541L57.7004 64.9109L3.8252 74.8541Z" fill="#EEB124"/>
<path d="M3.8252 74.8541L57.7004 64.9109L3.8252 74.8541Z" fill="#EEB226"/>
<path d="M3.89014 74.7895L57.7654 64.9109V64.8464L3.95497 74.7895H3.89014Z" fill="#837F73"/>
<path d="M3.95508 74.7895L57.8303 64.8464L4.01991 74.7895H3.95508Z" fill="#888477"/>
<path d="M4.02002 74.7895L57.8304 64.8464C57.8304 64.8464 57.8304 64.8464 57.8953 64.8464C57.8953 64.8464 57.8953 64.8464 57.9601 64.8464C57.9601 64.8464 57.9601 64.8464 58.0249 64.8464C58.0249 64.8464 58.0249 64.8464 58.0897 64.8464L4.27935 74.7895C4.27935 74.7895 4.27935 74.7895 4.21452 74.7895C4.14968 74.7895 4.21452 74.7895 4.14968 74.7895C4.08485 74.7895 4.02002 74.7895 4.02002 74.7895Z" fill="#8C897C"/>
<path d="M4.14941 74.7895L57.9598 64.8464H58.0246H58.0895H58.1543C58.2191 64.8464 58.2191 64.8464 58.284 64.8464L4.5384 74.8541C4.47357 74.8541 4.47357 74.8541 4.40874 74.8541C4.34391 74.8541 4.34391 74.8541 4.27908 74.8541C4.21425 74.8541 4.21425 74.8541 4.21425 74.8541C4.21425 74.7895 4.21425 74.7895 4.14941 74.7895Z" fill="#918E80"/>
<path d="M4.53857 74.8541L58.349 64.9109C58.4138 64.9109 58.4786 64.9109 58.5435 64.9109C58.6083 64.9109 58.6731 64.9109 58.738 64.9109C58.8028 64.9109 58.8676 64.9109 58.9325 64.9109C58.9973 64.9109 59.0621 64.9109 59.1269 64.9109L5.44622 74.9186C5.38139 74.9186 5.31656 74.9186 5.18689 74.8541C5.12206 74.8541 5.05723 74.8541 4.92756 74.8541C4.7979 74.8541 4.7979 74.8541 4.73307 74.8541C4.66824 74.8541 4.60341 74.8541 4.53857 74.8541Z" fill="#969284"/>
<path d="M5.44629 74.9186L59.1919 64.9755H59.2567H59.3215H59.3864H59.4512L5.77045 74.9832H5.70562H5.64078H5.57595C5.51112 74.9186 5.51112 74.9186 5.44629 74.9186Z" fill="#9B9788"/>
<path d="M5.25146 84.4098L58.9322 73.4982L102.499 81.4398L52.1249 93.7718L5.25146 84.4098Z" fill="#EFB42E"/>
<path d="M3.2417 82.7956L57.0521 72.0777L102.564 80.3421L52.1897 92.545L3.2417 82.7956Z" fill="#9D9A8B"/>
<path d="M3.2417 82.4728L57.0521 71.7549L102.564 80.0193L52.1897 92.2222L3.2417 82.4728Z" fill="#817464"/>
<path d="M3.30664 81.5043L57.117 70.851L102.694 79.1154L52.2547 91.1891L3.30664 81.5043Z" fill="#9D998A"/>
<path d="M3.30664 81.1169L57.117 70.5281L102.694 78.7926L52.3195 90.8018L3.30664 81.1169Z" fill="#817463"/>
<path d="M3.37109 80.1484L57.1815 69.6242L102.758 77.8886L52.3839 89.7687L3.37109 80.1484Z" fill="#9D998A"/>
<path d="M3.37109 79.8256L57.2463 69.366L102.823 77.5658L52.3839 89.4459L3.37109 79.8256Z" fill="#817363"/>
<path d="M3.50098 78.7926L57.3114 68.462L102.888 76.5973L52.5138 88.4128L3.50098 78.7926Z" fill="#9D998A"/>
<path d="M3.50098 78.4697L57.3114 68.1392L102.953 76.3391L52.5138 88.0255L3.50098 78.4697Z" fill="#817363"/>
<path d="M3.56592 77.5013L57.3763 67.2999L103.018 75.3706L52.5788 86.9924L3.56592 77.5013Z" fill="#9D998A"/>
<path d="M3.56592 77.1139L57.4411 66.9771L103.018 75.1123L52.6436 86.6696L3.56592 77.1139Z" fill="#817363"/>
<path d="M3.69531 76.1454L57.5057 66.0731L103.147 74.1438L52.7082 85.6365L3.69531 76.1454Z" fill="#9C988A"/>
<path d="M3.69531 75.8226L57.5705 65.7503L103.147 73.821L52.773 85.3137L3.69531 75.8226Z" fill="#817363"/>
<path d="M5.77002 74.9832L59.5156 65.04L88.2361 70.0762L36.63 80.9232L5.77002 74.9832Z" fill="#9C9889"/>
<path d="M52.1897 92.2222V92.545L3.2417 82.7956V82.7311V82.6665V82.6019V82.5374L52.1897 92.2222Z" fill="#807363"/>
<path d="M52.1895 92.2223L102.564 80.0193V80.3422L52.1895 92.5451V92.2223Z" fill="#9C8C78"/>
<path d="M52.125 93.7718L102.499 81.4398L103.277 81.5689L52.9678 93.9655L52.125 93.7718Z" fill="#EFB42E"/>
<path d="M52.3192 90.8018L102.694 78.7926V79.1154L52.2544 91.1892L52.3192 90.8018Z" fill="#9B8B77"/>
<path d="M52.3195 90.8017L52.2547 91.1891L3.30664 81.4397V81.1169L52.3195 90.8017Z" fill="#807363"/>
<path d="M52.3839 89.4459V89.7687L3.37109 80.1485V79.8256L52.3839 89.4459Z" fill="#807363"/>
<path d="M52.3843 89.4459L102.823 77.5658L102.759 77.8886L52.3843 89.7687V89.4459Z" fill="#9B8B77"/>
<path d="M52.5138 88.0255V88.4128L3.50098 78.7926V78.4697L52.5138 88.0255Z" fill="#807363"/>
<path d="M52.5137 88.0254L102.953 76.3391L102.888 76.5973L52.5137 88.4128V88.0254Z" fill="#9C8B78"/>
<path d="M52.6436 86.6696L52.5788 86.9924L3.56592 77.5013V77.1139L52.6436 86.6696Z" fill="#807363"/>
<path d="M52.6434 86.6696L103.018 75.1123V75.3706L52.5786 86.9924L52.6434 86.6696Z" fill="#9B8B77"/>
<path d="M103.925 84.2161L53.6808 96.9356C53.8105 96.871 53.9401 96.871 54.0698 96.8064C54.1995 96.7419 54.3291 96.6773 54.394 96.5482C54.4588 96.4836 54.5885 96.3545 54.5885 96.2253C54.6533 96.0962 54.6533 95.9671 54.7181 95.8379C54.7181 95.6442 54.7181 95.4505 54.5885 95.2568C54.5236 95.0631 54.394 94.8695 54.1995 94.6758C54.0698 94.4821 53.8753 94.3529 53.616 94.2238C53.4215 94.0947 53.1622 94.0301 52.9028 93.9655L103.212 81.5689C103.472 81.6335 103.666 81.698 103.861 81.8272C104.055 81.9563 104.25 82.0854 104.379 82.2146C104.509 82.3437 104.639 82.5374 104.703 82.7311C104.768 82.9248 104.833 83.1185 104.768 83.2476C104.768 83.3768 104.703 83.5059 104.703 83.5705C104.639 83.6996 104.574 83.7641 104.509 83.8287C104.444 83.8933 104.314 83.9578 104.185 84.0224C104.185 84.1515 104.055 84.2161 103.925 84.2161Z" fill="#EDAC17"/>
<path d="M52.9678 93.9655L103.277 81.5689L52.9678 93.9655C53.0326 93.9655 53.0326 93.9655 52.9678 93.9655Z" fill="#EDAC17"/>
<path d="M53.0327 93.9655L103.342 81.5689C103.342 81.5689 103.342 81.5689 103.407 81.5689C103.407 81.5689 103.407 81.5689 103.472 81.5689C103.472 81.5689 103.472 81.5689 103.537 81.5689C103.537 81.5689 103.537 81.5689 103.602 81.5689L53.1624 94.0301C53.1624 94.0301 53.1624 94.0301 53.0975 94.0301C53.0975 94.0301 53.0975 94.0301 53.0327 94.0301C53.0975 93.9655 53.0327 93.9655 53.0327 93.9655Z" fill="#EDAC17"/>
<path d="M53.1625 94.0301L103.472 81.6335C103.472 81.6335 103.472 81.6335 103.537 81.6335L53.2273 94.0301C53.2273 94.0301 53.2273 94.0301 53.1625 94.0301C53.1625 94.0301 53.1625 94.0301 53.0977 94.0301C53.2273 94.0301 53.2273 94.0301 53.1625 94.0301Z" fill="#EDAC17"/>
<path d="M53.2918 94.0301L103.601 81.6335L53.2918 94.0301C53.2918 94.0301 53.2918 94.0301 53.2269 94.0301C53.2269 94.0301 53.2269 94.0301 53.1621 94.0301C53.3566 94.0947 53.3566 94.0947 53.2918 94.0301C53.2918 94.0947 53.2918 94.0301 53.2918 94.0301Z" fill="#EDAC17"/>
<path d="M53.4214 94.0947L103.731 81.6981L53.4214 94.0947C53.5511 94.1592 53.4862 94.1592 53.4214 94.0947C53.4862 94.1592 53.4862 94.1592 53.4214 94.0947C53.4862 94.0947 53.4214 94.0947 53.4214 94.0947Z" fill="#EDAC17"/>
<path d="M53.5513 94.1592L103.861 81.7626L53.6161 94.1592C53.6161 94.2238 53.6161 94.2238 53.5513 94.1592C53.6161 94.2238 53.6161 94.1592 53.5513 94.1592Z" fill="#EDAC17"/>
<path d="M53.6812 94.2238L103.926 81.8271L53.8108 94.2883C53.746 94.2883 53.746 94.2883 53.6812 94.2238C53.746 94.2883 53.746 94.2883 53.6812 94.2238Z" fill="#EDAC17"/>
<path d="M53.8105 94.2883L104.055 81.8917L53.9402 94.3529C53.8754 94.3529 53.8754 94.3529 53.8105 94.2883C53.8754 94.3529 53.8754 94.3529 53.8105 94.2883Z" fill="#EDAC17"/>
<path d="M53.9404 94.3529L104.185 81.9563L53.9404 94.4175C54.0053 94.4175 54.0053 94.4175 53.9404 94.3529C53.9404 94.4175 53.9404 94.4175 53.9404 94.3529C53.9404 94.4175 53.9404 94.4175 53.9404 94.3529Z" fill="#EDAC17"/>
<path d="M54.0049 94.4821L104.25 82.0209L54.0049 94.4821C54.0697 94.5466 54.1345 94.5466 54.0049 94.4821C54.0697 94.4821 54.0697 94.4821 54.0049 94.4821C54.0697 94.4821 54.0697 94.4821 54.0049 94.4821Z" fill="#EDAC17"/>
<path d="M54.1348 94.5466L104.379 82.0854L54.1348 94.5466C54.1996 94.6112 54.1996 94.6112 54.1348 94.5466C54.1996 94.6112 54.1996 94.6112 54.1348 94.5466C54.1348 94.6112 54.1348 94.5466 54.1348 94.5466Z" fill="#EDAC17"/>
<path d="M54.2646 94.6758L104.509 82.2146L54.2646 94.6758C54.2646 94.6758 54.2646 94.6758 54.2646 94.6112C54.2646 94.6112 54.2646 94.6112 54.2646 94.5467C54.3295 94.7404 54.2646 94.7404 54.2646 94.6758Z" fill="#EDAC17"/>
<path d="M54.394 94.8049L104.639 82.3438C104.639 82.3438 104.639 82.4083 104.704 82.4083C104.704 82.4083 104.704 82.4729 104.768 82.4729C104.768 82.4729 104.768 82.5374 104.833 82.5374C104.833 82.5374 104.833 82.602 104.898 82.602L54.7182 95.1278C54.7182 95.1278 54.7182 95.0632 54.6534 95.0632C54.6534 95.0632 54.6534 94.9986 54.5885 94.9986C54.4589 94.9341 54.4589 94.8695 54.394 94.8049C54.394 94.8695 54.394 94.8049 54.394 94.8049Z" fill="#EDAC17"/>
<path d="M54.5239 95.0632L104.704 82.5374C104.704 82.5374 104.704 82.5374 104.704 82.602C104.704 82.602 104.704 82.602 104.704 82.6665C104.704 82.6665 104.704 82.6665 104.704 82.7311C104.704 82.7957 104.704 82.7311 104.704 82.7957L54.5239 95.3214C54.5239 95.3214 54.5239 95.3214 54.5239 95.2569C54.5239 95.2569 54.5239 95.2569 54.5239 95.1923C54.5888 95.1277 54.5888 95.1277 54.5239 95.0632Z" fill="#EDAC17"/>
<path d="M54.5884 95.2568L104.768 82.7311C104.768 82.7311 104.768 82.7311 104.768 82.7956C104.768 82.7956 104.768 82.7956 104.768 82.8602C104.768 82.8602 104.768 82.8602 104.768 82.9248C104.768 82.9248 104.768 82.9248 104.768 82.9893L54.5884 95.5151C54.5884 95.5151 54.5884 95.5151 54.5884 95.4505C54.5884 95.4505 54.5884 95.4505 54.5884 95.386C54.6532 95.3214 54.6532 95.3214 54.5884 95.2568C54.6532 95.2568 54.6532 95.2568 54.5884 95.2568Z" fill="#EDAC17"/>
<path d="M54.6533 95.4506L104.833 82.9248L54.6533 95.5151C54.7182 95.5151 54.7182 95.5151 54.6533 95.4506C54.7182 95.4506 54.7182 95.4506 54.6533 95.4506C54.7182 95.4506 54.6533 95.4506 54.6533 95.4506Z" fill="#EDAC17"/>
<path d="M54.7183 95.5151L104.898 82.9248L54.7183 95.6442C54.7183 95.6442 54.7183 95.5797 54.7183 95.5151C54.7183 95.5797 54.7183 95.5797 54.7183 95.5151C54.7183 95.5797 54.7183 95.5797 54.7183 95.5151C54.7183 95.5797 54.7183 95.5151 54.7183 95.5151Z" fill="#EDAC17"/>
<path d="M54.7183 95.6442L104.898 83.0539L54.7183 95.6442C54.7183 95.7088 54.7183 95.7088 54.7183 95.6442Z" fill="#EDAC17"/>
<path d="M54.7183 95.7088L104.898 83.1185L54.7183 95.7088C54.7183 95.7733 54.7183 95.7733 54.7183 95.7088Z" fill="#EDAC17"/>
<path d="M54.7183 95.7734L104.898 83.183L54.7183 95.7734C54.7183 95.8379 54.7183 95.8379 54.7183 95.7734Z" fill="#EDAC17"/>
<path d="M54.7183 95.8379L104.898 83.2476V83.3122L54.7183 95.9025V95.8379Z" fill="#EDAC17"/>
<path d="M54.7183 95.9025L104.898 83.3122L54.7183 95.9025Z" fill="#EDAC17"/>
<path d="M54.7183 95.9025L104.898 83.3122L54.7183 95.9025C54.7183 95.9671 54.7183 95.9671 54.7183 95.9025C54.7183 95.9671 54.7183 95.9671 54.7183 95.9025C54.7183 95.9671 54.7183 95.9671 54.7183 95.9025C54.7183 95.9671 54.7183 95.9671 54.7183 95.9025Z" fill="#EDAC17"/>
<path d="M54.7183 95.967L104.898 83.3767L54.7183 95.967C54.7183 96.0316 54.7183 96.0316 54.7183 95.967C54.7183 96.0316 54.7183 96.0316 54.7183 95.967C54.7183 96.0316 54.7183 96.0316 54.7183 95.967Z" fill="#EDAC17"/>
<path d="M54.6533 96.0316L104.833 83.4413L54.6533 96.0316C54.6533 96.0962 54.6533 96.0962 54.6533 96.0316C54.6533 96.0962 54.6533 96.0962 54.6533 96.0316Z" fill="#EDAC17"/>
<path d="M54.6533 96.0962L104.833 83.5059L54.6533 96.0962C54.6533 96.1607 54.6533 96.1607 54.6533 96.0962C54.6533 96.1607 54.6533 96.0962 54.6533 96.0962Z" fill="#EDAC17"/>
<path d="M54.6533 96.1607L104.833 83.5059L54.6533 96.1607C54.6533 96.2253 54.6533 96.1607 54.6533 96.1607Z" fill="#EDAC17"/>
<path d="M54.6536 96.2253L104.833 83.5704L54.6536 96.2253C54.5888 96.2253 54.5888 96.2253 54.6536 96.2253C54.5888 96.2253 54.5888 96.2253 54.6536 96.2253C54.5888 96.2253 54.5888 96.2253 54.6536 96.2253Z" fill="#EDAC17"/>
<path d="M54.5884 96.2899L104.768 83.635L54.5884 96.2899Z" fill="#EDAC17"/>
<path d="M54.5887 96.2899L104.768 83.635L54.5887 96.2899C54.5238 96.3545 54.5238 96.3545 54.5887 96.2899C54.5238 96.3545 54.5238 96.3545 54.5887 96.2899C54.5238 96.3545 54.5238 96.3545 54.5887 96.2899C54.5887 96.3545 54.5887 96.3545 54.5887 96.2899Z" fill="#EDAC17"/>
<path d="M54.5238 96.419L104.704 83.7642L54.459 96.4836C54.459 96.4836 54.459 96.4836 54.5238 96.419C54.459 96.419 54.5238 96.419 54.5238 96.419Z" fill="#EDAC17"/>
<path d="M54.4588 96.4836L104.639 83.8287L54.4588 96.4836C54.3939 96.5482 54.3939 96.5482 54.4588 96.4836Z" fill="#EDAC17"/>
<path d="M54.3943 96.5482L104.574 83.8933C104.509 83.9579 104.509 83.9579 104.444 84.0224C104.38 84.087 104.315 84.087 104.315 84.1516C104.25 84.1516 104.185 84.2161 104.12 84.2161C104.055 84.2161 103.991 84.2807 103.926 84.2807L53.6812 96.9356C53.746 96.9356 53.8108 96.871 53.8756 96.871C53.9405 96.871 54.0053 96.8064 54.0701 96.8064C54.135 96.7419 54.1998 96.7419 54.2646 96.6773C54.2646 96.6773 54.3295 96.6127 54.3943 96.5482Z" fill="#EDAC17"/>
<path d="M52.7733 85.3137L103.148 73.821V74.1438L52.7085 85.6365L52.7733 85.3137Z" fill="#9B8B77"/>
<path d="M52.773 85.3137V85.6366L3.69531 76.1454V76.0808V76.0163V75.9517V75.8871L52.773 85.3137Z" fill="#807363"/>
<path d="M52.903 84.0224L103.342 72.7234L102.499 81.4398L52.125 93.7718L52.903 84.0224Z" fill="#F2F2E8"/>
<path d="M52.9029 84.0224L52.1249 93.7718L5.25149 84.4098H5.18665H5.12182H5.05699H4.99216C4.79766 84.3452 4.60317 84.3452 4.40867 84.2806C4.21418 84.2161 4.01968 84.2161 3.89002 84.1515C3.76035 84.0869 3.63069 84.0869 3.50103 84.0224C3.43619 84.0224 3.37136 83.9578 3.30653 83.9578C3.30653 83.9578 3.30653 83.8932 3.2417 83.8287C3.2417 83.7641 3.2417 83.6996 3.2417 83.5704C3.2417 83.4413 3.2417 83.3767 3.2417 83.2476C3.2417 83.1185 3.2417 82.9893 3.2417 82.7956L52.1897 92.5451V92.2222L3.2417 82.4728C3.2417 82.4082 3.2417 82.3437 3.2417 82.2145C3.2417 82.15 3.2417 82.0208 3.2417 81.9563C3.2417 81.8917 3.2417 81.7626 3.2417 81.698C3.2417 81.6334 3.2417 81.5043 3.2417 81.4398L52.2545 91.1246V90.8018L3.2417 81.1169L3.30653 80.1484L52.3194 89.7687V89.4459L3.37136 79.8256L3.43619 78.8571L52.5139 88.4128V88.09L3.50103 78.4697L3.56586 77.5012L52.6435 87.057V86.7341L3.56586 77.1138C3.56586 77.0493 3.56586 76.9202 3.56586 76.8556C3.56586 76.791 3.56586 76.6619 3.56586 76.5973C3.56586 76.5328 3.56586 76.4036 3.56586 76.3391C3.56586 76.2745 3.56586 76.2099 3.56586 76.0808L52.6435 85.572V85.2491L3.69552 75.8225C3.69552 75.6934 3.69552 75.5643 3.76035 75.4351C3.76035 75.306 3.76035 75.2414 3.82519 75.1123C3.82519 75.0477 3.82519 74.9832 3.89002 74.9186C3.89002 74.854 3.89002 74.854 3.89002 74.7895C3.89002 74.7895 3.95485 74.7249 4.08451 74.7249C4.21418 74.7249 4.34384 74.7249 4.53834 74.7249C4.73283 74.7249 4.92733 74.7895 5.12182 74.7895C5.31632 74.7895 5.57564 74.854 5.83497 74.9186L36.6949 80.8587L52.9029 84.0224Z" fill="#DCD2B7"/>
<path d="M36.6299 80.9233L88.236 70.0762L103.342 72.7234L52.9027 84.0224L36.6299 80.9233Z" fill="#9C9889"/>
<path d="M2.6582 71.4321L56.5983 61.8763L104.314 70.2053L54.005 81.1815L2.6582 71.4321Z" fill="#EBA400"/>
<path d="M104.898 72.8525L54.5883 84.2161C54.7179 84.1515 54.9124 84.1515 55.0421 84.087C55.1717 84.0224 55.3014 83.9578 55.3662 83.8287C55.4959 83.6996 55.5607 83.635 55.6256 83.5059C55.6904 83.3767 55.6904 83.2476 55.7552 83.1185C55.7552 82.9248 55.7552 82.7311 55.6256 82.5374C55.5607 82.3437 55.4311 82.15 55.2366 81.9563C55.1069 81.7626 54.9124 81.6335 54.6531 81.5043C54.4586 81.3752 54.1993 81.3106 53.9399 81.2461L104.314 70.2699C104.574 70.3345 104.768 70.399 104.963 70.5282C105.157 70.6573 105.352 70.7864 105.481 70.9156C105.611 71.0447 105.741 71.2384 105.805 71.4321C105.87 71.6258 105.935 71.8195 105.87 71.9486C105.87 72.0777 105.805 72.2069 105.741 72.336C105.676 72.4651 105.611 72.5297 105.546 72.6588C105.481 72.7234 105.352 72.8525 105.222 72.8525C105.222 72.788 105.092 72.8525 104.898 72.8525Z" fill="#EDAC17"/>
<path d="M54.0049 81.1815L104.379 70.2053L54.0049 81.1815C54.0697 81.1815 54.0697 81.1815 54.0049 81.1815C54.0697 81.1815 54.0049 81.1815 54.0049 81.1815Z" fill="#EDAC17"/>
<path d="M54.0698 81.1815L104.444 70.2053C104.444 70.2053 104.444 70.2053 104.509 70.2053C104.509 70.2053 104.509 70.2053 104.574 70.2053C104.574 70.2053 104.574 70.2053 104.639 70.2053C104.639 70.2053 104.639 70.2053 104.703 70.2053L54.394 81.2461C54.394 81.2461 54.394 81.2461 54.3292 81.2461C54.3292 81.2461 54.3291 81.2461 54.2643 81.2461C54.1347 81.2461 54.1347 81.2461 54.0698 81.1815Z" fill="#EDAC17"/>
<path d="M54.1992 81.2461L104.509 70.2053C104.509 70.2053 104.509 70.2053 104.574 70.2053C104.574 70.2053 104.574 70.2053 104.638 70.2053L54.3289 81.2461C54.3289 81.2461 54.3289 81.2461 54.264 81.2461C54.264 81.2461 54.2641 81.2461 54.1992 81.2461C54.2641 81.2461 54.2641 81.2461 54.1992 81.2461Z" fill="#EDAC17"/>
<path d="M54.3291 81.3106L104.639 70.2699L54.4588 81.3106C54.4588 81.3106 54.4588 81.3106 54.3939 81.3106C54.3939 81.3106 54.3939 81.3106 54.3291 81.3106C54.3939 81.3106 54.3939 81.3106 54.3291 81.3106C54.3939 81.3106 54.3291 81.3106 54.3291 81.3106Z" fill="#EDAC17"/>
<path d="M54.4585 81.3106L104.768 70.2699L54.4585 81.3106C54.5233 81.3752 54.5233 81.3752 54.4585 81.3106C54.5233 81.3752 54.5233 81.3752 54.4585 81.3106Z" fill="#EDAC17"/>
<path d="M54.5884 81.3752L104.898 70.3345L54.718 81.4398C54.718 81.4398 54.6532 81.4398 54.5884 81.3752C54.6532 81.4398 54.6532 81.4398 54.5884 81.3752C54.6532 81.3752 54.5884 81.3752 54.5884 81.3752Z" fill="#EDAC17"/>
<path d="M54.7183 81.4397L105.028 70.399L54.7183 81.4397C54.7831 81.5043 54.7831 81.5043 54.7183 81.4397C54.7831 81.5043 54.7831 81.5043 54.7183 81.4397C54.7831 81.4397 54.7183 81.4397 54.7183 81.4397Z" fill="#EDAC17"/>
<path d="M54.8477 81.5043L105.157 70.4636L54.9125 81.5043C54.9125 81.5689 54.9125 81.5689 54.8477 81.5043C54.9125 81.5689 54.9125 81.5689 54.8477 81.5043C54.8477 81.5689 54.8477 81.5043 54.8477 81.5043Z" fill="#EDAC17"/>
<path d="M54.9775 81.6335L105.222 70.5927L55.1072 81.698C55.1072 81.698 55.0424 81.6335 54.9775 81.6335C55.0424 81.6335 54.9775 81.6335 54.9775 81.6335Z" fill="#EDAC17"/>
<path d="M55.1069 81.698L105.352 70.6573L55.1069 81.7626C55.1718 81.7626 55.1718 81.7626 55.1069 81.698Z" fill="#EDAC17"/>
<path d="M55.1719 81.7626L105.417 70.6573L55.1719 81.7626C55.2367 81.8271 55.2367 81.8271 55.1719 81.7626C55.2367 81.8271 55.2367 81.8271 55.1719 81.7626C55.2367 81.8271 55.1719 81.8271 55.1719 81.7626Z" fill="#EDAC17"/>
<path d="M55.3018 81.8917L105.546 70.7864L55.3018 81.8917C55.3018 81.8917 55.3018 81.8917 55.3018 81.8271C55.3018 81.7625 55.3018 81.8271 55.3018 81.7625C55.3666 81.9562 55.3666 81.9562 55.3018 81.8917Z" fill="#EDAC17"/>
<path d="M55.4312 82.0208L105.676 70.9155C105.676 70.9155 105.676 70.9801 105.741 70.9801C105.741 70.9801 105.741 71.0447 105.805 71.0447C105.805 71.0447 105.805 71.1092 105.87 71.1092C105.87 71.1092 105.87 71.1738 105.935 71.1738L55.6905 82.2791C55.6905 82.2791 55.6905 82.2145 55.6256 82.2145C55.5608 82.2145 55.6256 82.15 55.5608 82.15C55.496 82.15 55.496 82.0854 55.4312 82.0208C55.4312 82.0854 55.4312 82.0208 55.4312 82.0208Z" fill="#EDAC17"/>
<path d="M55.561 82.2791L105.806 71.1093C105.806 71.1093 105.806 71.1093 105.806 71.1738C105.806 71.1738 105.806 71.1738 105.806 71.2384C105.806 71.2384 105.806 71.2384 105.806 71.303C105.806 71.303 105.806 71.303 105.806 71.3675L55.561 82.5374C55.561 82.5374 55.561 82.5374 55.561 82.4728C55.561 82.4728 55.561 82.4728 55.561 82.4083C55.6259 82.3437 55.6259 82.3437 55.561 82.2791C55.6259 82.2791 55.561 82.2791 55.561 82.2791Z" fill="#EDAC17"/>
<path d="M55.6904 82.4728L105.935 71.303C105.935 71.303 105.935 71.303 105.935 71.3675C105.935 71.3675 105.935 71.3675 105.935 71.4321C105.935 71.4321 105.935 71.4321 105.935 71.4967C105.935 71.4967 105.935 71.4967 105.935 71.5612L55.7553 82.6665C55.7553 82.6665 55.7553 82.6665 55.7553 82.602C55.7553 82.602 55.7553 82.602 55.7553 82.5374C55.6904 82.5374 55.6904 82.5374 55.6904 82.4728Z" fill="#EDAC17"/>
<path d="M55.7554 82.6665L105.935 71.4966L55.7554 82.7311C55.7554 82.7311 55.7554 82.7311 55.7554 82.6665Z" fill="#EDAC17"/>
<path d="M55.7554 82.7311L105.935 71.5612L55.7554 82.8602C55.7554 82.7957 55.7554 82.7957 55.7554 82.7311C55.7554 82.7957 55.7554 82.7957 55.7554 82.7311C55.7554 82.7957 55.7554 82.7311 55.7554 82.7311Z" fill="#EDAC17"/>
<path d="M55.7554 82.8602L105.935 71.6903L55.7554 82.9247C55.7554 82.9247 55.7554 82.9247 55.7554 82.8602Z" fill="#EDAC17"/>
<path d="M55.7554 82.9247L105.935 71.6903L55.7554 82.9893C55.7554 82.9893 55.7554 82.9893 55.7554 82.9247C55.7554 82.9893 55.7554 82.9247 55.7554 82.9247Z" fill="#EDAC17"/>
<path d="M55.7554 82.9893L106 71.7549L55.7554 82.9893C55.7554 83.0539 55.7554 83.0539 55.7554 82.9893Z" fill="#EDAC17"/>
<path d="M55.7554 83.0539L106 71.8195V71.884L55.7554 83.1185V83.0539Z" fill="#EDAC17"/>
<path d="M55.7554 83.1185L105.935 71.884L55.7554 83.1185C55.7554 83.183 55.7554 83.1185 55.7554 83.1185Z" fill="#EDAC17"/>
<path d="M55.7554 83.183L105.935 71.9486L55.7554 83.183Z" fill="#EDAC17"/>
<path d="M55.7554 83.183L105.935 71.9486L55.7554 83.183C55.7554 83.2476 55.7554 83.2476 55.7554 83.183C55.7554 83.2476 55.7554 83.2476 55.7554 83.183C55.7554 83.2476 55.7554 83.2476 55.7554 83.183C55.7554 83.2476 55.7554 83.183 55.7554 83.183Z" fill="#EDAC17"/>
<path d="M55.7552 83.2476L105.935 72.0131L55.7552 83.2476C55.6903 83.3121 55.6903 83.3121 55.7552 83.2476C55.7552 83.3121 55.7552 83.3121 55.7552 83.2476C55.7552 83.3121 55.7552 83.3121 55.7552 83.2476Z" fill="#EDAC17"/>
<path d="M55.6904 83.3121L105.87 72.0777L55.6904 83.3121C55.6904 83.3767 55.6904 83.3767 55.6904 83.3121C55.6904 83.3767 55.6904 83.3767 55.6904 83.3121Z" fill="#EDAC17"/>
<path d="M55.6904 83.3767L105.87 72.1423L55.6904 83.3767C55.6904 83.4413 55.6904 83.4413 55.6904 83.3767Z" fill="#EDAC17"/>
<path d="M55.6907 83.4413L105.871 72.2068L55.6907 83.4413C55.6259 83.5058 55.6259 83.5058 55.6907 83.4413Z" fill="#EDAC17"/>
<path d="M55.6255 83.5058L105.805 72.2068L55.6255 83.5058C55.6255 83.5704 55.6255 83.5058 55.6255 83.5058Z" fill="#EDAC17"/>
<path d="M55.6258 83.5704L105.87 72.2714L55.6258 83.5704C55.5609 83.635 55.5609 83.635 55.6258 83.5704C55.5609 83.5704 55.5609 83.5704 55.6258 83.5704Z" fill="#EDAC17"/>
<path d="M55.5608 83.635L105.805 72.336L55.5608 83.635C55.496 83.6996 55.496 83.6996 55.5608 83.635C55.5608 83.6996 55.5608 83.635 55.5608 83.635Z" fill="#EDAC17"/>
<path d="M55.4961 83.6996L105.741 72.4006L55.4961 83.6996C55.4313 83.7641 55.4961 83.7641 55.4961 83.6996C55.4961 83.7641 55.4961 83.6996 55.4961 83.6996Z" fill="#EDAC17"/>
<path d="M55.4313 83.7641L105.676 72.4651C105.611 72.5297 105.611 72.5297 105.546 72.5943C105.481 72.6588 105.417 72.6588 105.352 72.7234C105.287 72.7234 105.222 72.788 105.157 72.788C105.092 72.788 105.028 72.8525 104.963 72.8525L54.6533 84.2161C54.7182 84.2161 54.783 84.1515 54.8478 84.1515C54.9126 84.1515 54.9775 84.087 55.0423 84.087C55.1071 84.0224 55.172 84.0224 55.2368 83.9578C55.3016 83.8933 55.3665 83.8287 55.4313 83.7641Z" fill="#EDAC17"/>
<path d="M54.0049 81.1815C54.2642 81.2461 54.5235 81.3106 54.718 81.4398C54.9125 81.5689 55.107 81.698 55.3015 81.8917C55.4312 82.0854 55.5609 82.2791 55.6905 82.4728C55.7554 82.6665 55.8202 82.8602 55.8202 83.0539C55.8202 83.2476 55.7554 83.4413 55.6257 83.635C55.496 83.8287 55.3664 83.9578 55.1719 84.0224C54.9774 84.1515 54.7829 84.2161 54.5235 84.2161C54.2642 84.2807 54.0697 84.2161 53.8104 84.2161L52.9676 84.0224L36.6948 80.9232L5.96453 75.0478C5.96453 75.0478 5.96453 75.0478 5.89969 75.0478C5.89969 75.0478 5.89969 75.0478 5.83486 75.0478C5.83486 75.0478 5.83486 75.0478 5.77003 75.0478C5.77003 75.0478 5.77003 75.0478 5.7052 75.0478C5.44587 74.9832 5.25138 74.9832 4.99205 74.9186C4.79755 74.9186 4.53823 74.8541 4.40856 74.8541C4.21407 74.8541 4.0844 74.8541 3.95474 74.8541C3.82508 74.8541 3.76024 74.8541 3.76024 74.9186C3.76024 74.9186 3.76024 74.9832 3.76024 75.0478C3.76024 75.1123 3.76024 75.1769 3.69541 75.2415C3.69541 75.306 3.69541 75.4352 3.63058 75.5643C3.63058 75.6934 3.63058 75.8225 3.56575 75.9517V76.0162V76.0808V76.1454V76.2099C3.56575 76.2745 3.56575 76.3391 3.56575 76.4682C3.56575 76.5328 3.56575 76.6619 3.56575 76.7265C3.56575 76.791 3.56575 76.9202 3.56575 76.9847C3.56575 77.0493 3.56575 77.1784 3.56575 77.243V77.5658L3.50092 78.5343V78.8571L3.43609 79.8256V80.1484L3.37125 81.1169V81.4398C3.37125 81.5043 3.37125 81.6335 3.37125 81.698C3.37125 81.7626 3.37125 81.8917 3.37125 81.9563C3.37125 82.0209 3.37125 82.15 3.37125 82.2145C3.37125 82.2791 3.37125 82.4082 3.37125 82.4728V82.5374V82.6019V82.6665V82.7311C3.37125 82.8602 3.37125 83.0539 3.37125 83.183C3.37125 83.3122 3.37125 83.4413 3.37125 83.5059C3.37125 83.635 3.37125 83.6996 3.37125 83.7641C3.37125 83.8287 3.37125 83.8933 3.43609 83.8933C3.43609 83.8933 3.50092 83.9578 3.63058 83.9578C3.69541 83.9578 3.82508 84.0224 4.01957 84.087C4.14924 84.1515 4.34373 84.1515 4.53823 84.2161C4.73272 84.2807 4.92722 84.2807 5.12171 84.3452H5.18654H5.25138H5.31621H5.38104L52.1896 93.7072L53.0324 93.9009C53.2917 93.9655 53.5511 94.0301 53.7456 94.1592C53.9401 94.2883 54.1346 94.4175 54.3291 94.6112C54.4587 94.8049 54.5884 94.9986 54.718 95.1923C54.7829 95.386 54.8477 95.5797 54.8477 95.7733C54.8477 95.967 54.7829 96.1607 54.6532 96.3544C54.5236 96.4836 54.3939 96.6773 54.1994 96.7418C54.0049 96.871 53.8104 96.9355 53.5511 96.9355C53.2917 96.9355 53.0972 96.9355 52.8379 96.9355L1.6208 86.605C1.36147 86.5405 1.16697 86.4759 0.972477 86.2822C0.777982 86.1531 0.583486 85.9594 0.453823 85.7011C0.324159 85.5074 0.194495 85.2491 0.129664 84.9909C0 84.7326 0 84.4744 0 84.2161L0.777982 73.2399C0.777982 72.9817 0.842813 72.6588 0.972477 72.4651C1.10214 72.2069 1.2318 72.0132 1.36147 71.884C1.55596 71.7549 1.75046 71.6258 1.94495 71.5612C2.13945 71.4966 2.39878 71.4966 2.6581 71.4966L54.0049 81.1815Z" fill="#EDAC17"/>
<path d="M3.2417 66.9125L57.0521 56.1946L3.2417 66.9771V66.9125Z" fill="#426F92"/>
<path d="M3.2417 66.9771L57.0521 56.1946C57.0521 56.2591 57.0521 56.2591 57.0521 56.3237C57.0521 56.3883 57.0521 56.3883 57.0521 56.4528C57.0521 56.5174 57.0521 56.5174 57.0521 56.582C57.0521 56.6465 57.0521 56.6465 57.0521 56.7111L3.2417 67.5581C3.2417 67.4936 3.2417 67.4936 3.2417 67.429C3.2417 67.3644 3.2417 67.3644 3.2417 67.2999C3.2417 67.2353 3.2417 67.1707 3.2417 67.1707C3.2417 67.0416 3.2417 67.0416 3.2417 66.9771Z" fill="#437296"/>
<path d="M3.2417 67.5581L57.0521 56.7111V56.7756V56.8402V56.9048V56.9693L3.2417 67.8164V67.7518V67.6872V67.6227C3.2417 67.5581 3.2417 67.5581 3.2417 67.5581Z" fill="#457499"/>
<path d="M3.2417 67.8164L57.0521 56.9694L3.2417 67.8164Z" fill="#47779D"/>
<path d="M3.30664 67.9455L57.117 57.0985L3.30664 67.9455C3.30664 67.9455 3.30664 67.9455 3.30664 67.9455Z" fill="#487AA1"/>
<path d="M3.30664 68.0101L57.117 57.1631L3.30664 68.0101Z" fill="#4A7DA5"/>
<path d="M3.30664 68.0101L57.117 57.1631L3.30664 68.0101Z" fill="#4C80A8"/>
<path d="M3.30664 68.0101L57.117 57.1631L3.30664 68.0747V68.0101Z" fill="#4A7DA5"/>
<path d="M3.30664 68.0747L57.117 57.1631L3.30664 68.0747Z" fill="#487AA1"/>
<path d="M3.30664 68.0747L57.117 57.1631L3.30664 68.0747Z" fill="#47779D"/>
<path d="M3.30664 68.0747L57.117 57.1631L3.30664 68.0747Z" fill="#457499"/>
<path d="M3.30664 68.0747L57.117 57.1631L3.30664 68.0747Z" fill="#437296"/>
<path d="M3.30664 68.0747L57.117 57.1631L3.30664 68.0747Z" fill="#426F92"/>
<path d="M3.30653 65.6211L57.1169 54.9678V55.0323V55.0969V55.1615V55.226L3.2417 66.0085C3.2417 65.9439 3.2417 65.9439 3.2417 65.8794C3.2417 65.8148 3.2417 65.8148 3.2417 65.7502C3.2417 65.6857 3.2417 65.6857 3.2417 65.6211C3.30653 65.6857 3.30653 65.6211 3.30653 65.6211Z" fill="#406C8E"/>
<path d="M3.2417 66.0086L57.0521 55.3552C57.0521 55.4198 57.0521 55.4198 57.0521 55.4844C57.0521 55.5489 57.0521 55.5489 57.0521 55.6135C57.0521 55.6781 57.0521 55.6781 57.0521 55.7426C57.0521 55.8072 57.0521 55.8072 57.0521 55.8718V55.9363V56.0009V56.0654V56.13L3.2417 66.9125V66.8479V66.7834V66.7188V66.6542C3.2417 66.5897 3.2417 66.5251 3.2417 66.5251C3.2417 66.4605 3.2417 66.396 3.2417 66.396C3.2417 66.3314 3.2417 66.2668 3.2417 66.2668C3.2417 66.0731 3.2417 66.0086 3.2417 66.0086Z" fill="#426F92"/>
<path d="M3.30653 65.6211L57.1169 54.9678V55.0323V55.0969V55.1615V55.226L3.2417 66.0085C3.2417 65.9439 3.2417 65.9439 3.2417 65.8794C3.2417 65.8148 3.2417 65.8148 3.2417 65.7502C3.2417 65.6857 3.2417 65.6857 3.2417 65.6211C3.30653 65.6857 3.30653 65.6211 3.30653 65.6211Z" fill="#406C8E"/>
<path d="M3.30664 65.2338L57.117 54.645V54.9678L3.30664 65.6212V65.2338Z" fill="#447397"/>
<path d="M3.37147 64.2653L57.1819 53.8057L57.117 54.645L3.30664 65.2338L3.37147 64.2653Z" fill="#447397"/>
<path d="M3.37109 63.9424L57.2463 53.4828L57.1815 53.8056L3.37109 64.2653V63.9424Z" fill="#447397"/>
<path d="M3.50076 62.9094L57.3112 52.5789L57.2463 53.4828L3.37109 63.9424L3.50076 62.9094Z" fill="#447397"/>
<path d="M3.50098 62.5866L57.3114 52.2561V52.5789L3.50098 62.9094V62.5866Z" fill="#447397"/>
<path d="M3.56581 61.618L57.3762 51.4166L57.3114 52.256L3.50098 62.5865L3.56581 61.618Z" fill="#447397"/>
<path d="M3.56592 61.2307L57.4412 51.0939L57.3763 51.4167L3.56592 61.6181V61.2307Z" fill="#447397"/>
<path d="M3.30664 68.0746L57.117 57.163L3.30664 68.0746Z" fill="#426F92"/>
<path d="M3.30664 68.0746L57.117 57.163L3.30664 68.0746Z" fill="#406C8E"/>
<path d="M3.30664 68.0746L57.117 57.163H57.1819L3.37147 68.0746H3.30664Z" fill="#3E698A"/>
<path d="M3.37158 68.0746L57.182 57.163V57.2275L3.37158 68.0746Z" fill="#3C6687"/>
<path d="M3.37158 68.0746L57.182 57.163L3.37158 68.0746C3.43641 68.0746 3.43641 68.0746 3.37158 68.0746C3.43641 68.0746 3.37158 68.0746 3.37158 68.0746Z" fill="#3B6383"/>
<path d="M3.43652 68.0746L57.2469 57.163C57.2469 57.163 57.2469 57.163 57.3118 57.163C57.3118 57.163 57.3118 57.163 57.3766 57.163C57.3766 57.163 57.3766 57.163 57.4414 57.163L3.63102 68.0746C3.63102 68.0746 3.63102 68.0746 3.56619 68.0746C3.56619 68.0746 3.56619 68.0746 3.50136 68.0746C3.50136 68.1391 3.50136 68.1391 3.43652 68.0746C3.43652 68.1391 3.43652 68.1391 3.43652 68.0746Z" fill="#39617F"/>
<path d="M3.56592 68.1391L57.3763 57.2275C57.4412 57.2275 57.4412 57.2275 57.506 57.2921C57.5708 57.2921 57.6356 57.2921 57.7005 57.3567C57.7653 57.3567 57.8301 57.3567 57.895 57.4212C57.9598 57.4212 58.0246 57.4212 58.0895 57.4858L4.3439 68.3328C4.27907 68.3328 4.21424 68.2683 4.1494 68.2683C4.08457 68.2683 4.01974 68.2037 3.95491 68.2037C3.89008 68.2037 3.82525 68.2037 3.76041 68.1391C3.69558 68.2037 3.63075 68.2037 3.56592 68.1391Z" fill="#375E7B"/>
<path d="M4.34375 68.3329L58.0893 57.4213C58.1541 57.4213 58.219 57.4213 58.219 57.4213C58.2838 57.4213 58.3486 57.4213 58.3486 57.4213C58.4135 57.4213 58.4783 57.4213 58.4783 57.4213C58.5431 57.4213 58.608 57.4213 58.6728 57.4213H58.7376H58.8025H58.8673H58.9321L5.2514 68.5266H5.18656H5.12173H5.0569H4.99207C4.92724 68.5266 4.8624 68.5266 4.79757 68.462C4.73274 68.462 4.66791 68.462 4.60308 68.3974C4.53825 68.3974 4.47341 68.3974 4.40858 68.3329C4.40858 68.3974 4.40858 68.3329 4.34375 68.3329Z" fill="#365B78"/>
<path d="M2.13965 55.5489L56.1445 45.9932C56.2094 45.9932 56.2094 45.9932 56.2742 45.9932C56.339 45.9932 56.339 45.9932 56.4039 45.9932C56.4687 45.9932 56.4687 45.9932 56.5335 45.9932C56.5984 45.9932 56.5984 45.9932 56.6632 45.9932L2.6583 55.5489C2.59347 55.5489 2.59347 55.5489 2.52864 55.5489C2.46381 55.5489 2.46381 55.5489 2.39898 55.5489C2.33414 55.5489 2.33414 55.5489 2.26931 55.5489C2.20448 55.5489 2.13965 55.5489 2.13965 55.5489Z" fill="#DE3F18"/>
<path d="M2.13965 55.5489L56.1445 45.9932L2.13965 55.5489Z" fill="#DE3F18"/>
<path d="M2.13965 55.5489L56.1445 45.9932L2.26931 55.5489C2.26931 55.5489 2.26931 55.5489 2.20448 55.5489C2.20448 55.5489 2.20448 55.5489 2.13965 55.5489C2.20448 55.5489 2.20448 55.5489 2.13965 55.5489Z" fill="#DE3F18"/>
<path d="M2.26953 55.5489L56.2744 45.9932L2.39919 55.5489C2.33436 55.5489 2.33436 55.5489 2.26953 55.5489C2.33436 55.5489 2.33436 55.5489 2.26953 55.5489Z" fill="#DE3F18"/>
<path d="M2.39893 55.5489L56.4038 45.9932L2.46376 55.5489C2.46376 55.5489 2.46376 55.5489 2.39893 55.5489Z" fill="#DE3F18"/>
<path d="M2.46387 55.5489L56.4039 45.9932L2.59353 55.5489C2.5287 55.5489 2.5287 55.5489 2.46387 55.5489C2.5287 55.5489 2.5287 55.5489 2.46387 55.5489C2.5287 55.5489 2.5287 55.5489 2.46387 55.5489Z" fill="#DE3F18"/>
<path d="M2.59326 55.5489L56.5333 45.9932L2.59326 55.5489C2.65809 55.5489 2.65809 55.5489 2.59326 55.5489Z" fill="#DE3F18"/>
<path d="M3.69558 60.2622L57.5708 50.1899C57.5708 50.2545 57.5708 50.3191 57.5708 50.3836C57.5708 50.4482 57.5708 50.5128 57.5708 50.5773C57.5708 50.6419 57.5708 50.7065 57.5708 50.8356C57.5708 50.9002 57.5708 50.9647 57.5708 51.0939L3.56592 61.2307C3.56592 61.1661 3.56592 61.037 3.56592 60.9724C3.56592 60.9079 3.56592 60.7787 3.56592 60.7142C3.56592 60.6496 3.56592 60.5205 3.56592 60.4559C3.63075 60.4559 3.63075 60.3268 3.69558 60.2622Z" fill="#406C8E"/>
<path d="M3.8252 58.9708L57.7004 49.0277L3.8252 58.9708Z" fill="#31526C"/>
<path d="M3.8252 58.9708L57.7004 49.0277L3.8252 58.9708Z" fill="#325570"/>
<path d="M3.8252 58.9708L57.7004 49.0277L3.8252 58.9708Z" fill="#345874"/>
<path d="M3.8252 58.9708L57.7004 49.0277L3.8252 58.9708Z" fill="#365B78"/>
<path d="M3.8252 58.9708L57.7004 49.0277V49.0923L3.8252 59.0354V58.9708Z" fill="#375E7B"/>
<path d="M3.8252 59.0354L57.7004 49.0923L3.8252 59.0354Z" fill="#39617F"/>
<path d="M3.8252 59.0354L57.7004 49.0923L3.8252 59.1C3.8252 59.1 3.8252 59.1 3.8252 59.0354C3.8252 59.1 3.8252 59.1 3.8252 59.0354Z" fill="#3B6383"/>
<path d="M3.82509 59.1L57.6355 49.1569C57.6355 49.1569 57.6355 49.1569 57.6355 49.2214C57.6355 49.286 57.6355 49.2214 57.6355 49.286C57.6355 49.286 57.6355 49.286 57.6355 49.3506V49.4151L3.76025 59.2937V59.2291V59.1645C3.76025 59.1645 3.76025 59.1645 3.82509 59.1C3.82509 59.1645 3.82509 59.1 3.82509 59.1Z" fill="#3C6687"/>
<path d="M3.76014 59.2937L57.6354 49.3506C57.6354 49.4152 57.6354 49.4152 57.6354 49.4797C57.6354 49.5443 57.6354 49.5443 57.6354 49.6088C57.6354 49.6734 57.6354 49.738 57.6354 49.738C57.6354 49.8025 57.6354 49.8671 57.6354 49.9317L3.69531 60.0685C3.69531 60.0039 3.69531 59.9394 3.69531 59.8748C3.69531 59.8102 3.69531 59.7457 3.69531 59.6811C3.69531 59.6165 3.69531 59.552 3.69531 59.552C3.76014 59.3583 3.76014 59.3583 3.76014 59.2937Z" fill="#3E698A"/>
<path d="M3.69531 60.0685L57.5705 49.9962V50.0608V50.1253V50.1899V50.2545L3.69531 60.2622V60.1976V60.133C3.69531 60.133 3.69531 60.133 3.69531 60.0685Z" fill="#406C8E"/>
<path d="M3.89003 58.9063L57.7653 48.9631L3.8252 58.9708C3.8252 58.9708 3.8252 58.9708 3.89003 58.9063C3.89003 58.9708 3.89003 58.9708 3.89003 58.9063C3.89003 58.9708 3.89003 58.9708 3.89003 58.9063C3.89003 58.9708 3.89003 58.9063 3.89003 58.9063Z" fill="#2C4A61"/>
<path d="M3.8252 58.9708L57.7004 49.0277L3.8252 58.9708Z" fill="#2D4D65"/>
<path d="M3.8252 58.9708L57.7004 49.0277L3.8252 58.9708Z" fill="#2F5069"/>
<path d="M3.8252 58.9708L57.7004 49.0277L3.8252 58.9708Z" fill="#31526C"/>
<path d="M3.8252 58.9708L57.7004 49.0277L3.8252 58.9708Z" fill="#325570"/>
<path d="M3.89014 58.9063L57.7654 49.0277L3.95497 58.9063H3.89014Z" fill="#837F73"/>
<path d="M3.95508 58.9062L57.8303 48.9631L4.01991 58.9062H3.95508Z" fill="#888477"/>
<path d="M4.02002 58.9062L57.8304 48.9631C57.8304 48.9631 57.8304 48.9631 57.8953 48.9631C57.8953 48.9631 57.8953 48.9631 57.9601 48.9631C57.9601 48.9631 57.9601 48.9631 58.0249 48.9631C58.0249 48.9631 58.0249 48.9631 58.0897 48.9631L4.27935 58.9062C4.27935 58.9062 4.27935 58.9062 4.21452 58.9062C4.14968 58.9062 4.21452 58.9062 4.14968 58.9062C4.08485 58.9062 4.02002 58.9062 4.02002 58.9062Z" fill="#8C897C"/>
<path d="M4.14941 58.9063L57.9598 48.9631H58.0246H58.0895H58.1543C58.2191 48.9631 58.2191 48.9631 58.284 48.9631L4.5384 58.9708C4.47357 58.9708 4.47357 58.9708 4.40874 58.9708C4.34391 58.9708 4.34391 58.9708 4.27908 58.9708C4.21425 58.9708 4.21425 58.9708 4.21425 58.9708C4.21425 58.9063 4.21425 58.9063 4.14941 58.9063Z" fill="#918E80"/>
<path d="M4.53857 58.9708L58.349 49.0277C58.4138 49.0277 58.4786 49.0277 58.5435 49.0277C58.6083 49.0277 58.6731 49.0277 58.738 49.0277C58.8028 49.0277 58.8676 49.0277 58.9325 49.0277C58.9973 49.0277 59.0621 49.0277 59.1269 49.0277L5.44622 59.0354C5.38139 59.0354 5.31656 59.0354 5.18689 58.9708C5.12206 58.9708 5.05723 58.9708 4.92756 58.9708C4.86273 58.9708 4.7979 58.9708 4.73307 58.9708C4.66824 58.9708 4.60341 58.9708 4.53857 58.9708Z" fill="#969284"/>
<path d="M5.44629 59.0354L59.1919 49.0923H59.2567H59.3215H59.3864H59.4512L5.77045 59.1H5.70562H5.64078H5.57595C5.51112 59.1 5.51112 59.0354 5.44629 59.0354Z" fill="#9B9788"/>
<path d="M5.25146 68.5266L58.9322 57.615L102.499 65.5566L52.1249 77.8886L5.25146 68.5266Z" fill="#375C7A"/>
<path d="M3.2417 66.9125L57.0521 56.1946L102.564 64.459L52.1897 76.6619L3.2417 66.9125Z" fill="#9D9A8B"/>
<path d="M3.2417 66.5896L57.0521 55.8717L102.564 64.1361L52.1897 76.339L3.2417 66.5896Z" fill="#817464"/>
<path d="M3.30664 65.6211L57.117 54.9678L102.694 63.2322L52.2547 75.306L3.30664 65.6211Z" fill="#9D998A"/>
<path d="M3.30664 65.2338L57.117 54.645L102.694 62.9094L52.3195 74.9187L3.30664 65.2338Z" fill="#817463"/>
<path d="M3.37109 64.2653L57.1815 53.8057L102.758 62.0055L52.3839 73.8856L3.37109 64.2653Z" fill="#9D998A"/>
<path d="M3.37109 63.9424L57.2463 53.4828L102.823 61.6826L52.3839 73.5627L3.37109 63.9424Z" fill="#817363"/>
<path d="M3.50098 62.9094L57.3114 52.5789L102.888 60.7787L52.5138 72.5297L3.50098 62.9094Z" fill="#9D998A"/>
<path d="M3.50098 62.5866L57.3114 52.2561L102.953 60.456L52.5138 72.1423L3.50098 62.5866Z" fill="#817363"/>
<path d="M3.56592 61.618L57.3763 51.4166L103.018 59.4873L52.5788 71.1092L3.56592 61.618Z" fill="#9D998A"/>
<path d="M3.56592 61.2953L57.4411 51.0939L103.018 59.2292L52.6436 70.7864L3.56592 61.2953Z" fill="#817363"/>
<path d="M3.69531 60.2622L57.5057 50.1899L103.147 58.2607L52.7082 69.7534L3.69531 60.2622Z" fill="#9C988A"/>
<path d="M3.69531 59.9393L57.5705 49.8671L103.147 58.0023L52.773 69.4305L3.69531 59.9393Z" fill="#817363"/>
<path d="M5.77002 59.1L59.5156 49.1569L88.2361 54.193L36.63 65.04L5.77002 59.1Z" fill="#9C9889"/>
<path d="M52.1897 76.339V76.6619L3.2417 66.9124V66.8479V66.7833V66.7187V66.6542L52.1897 76.339Z" fill="#807363"/>
<path d="M52.1895 76.339L102.564 64.1361V64.4589L52.1895 76.6619V76.339Z" fill="#9C8C78"/>
<path d="M52.125 77.8886L102.499 65.5566L103.277 65.6857L52.9678 78.0823L52.125 77.8886Z" fill="#FC611F"/>
<path d="M52.3192 74.9186L102.694 62.9094V63.2323L52.2544 75.306L52.3192 74.9186Z" fill="#9B8B77"/>
<path d="M52.3195 74.9186L52.2547 75.306L3.30664 65.6211V65.2337L52.3195 74.9186Z" fill="#807363"/>
<path d="M52.3839 73.5627V73.8856L3.37109 64.2653V63.9424L52.3839 73.5627Z" fill="#807363"/>
<path d="M52.3843 73.5627L102.823 61.6826L102.759 62.0054L52.3843 73.8855V73.5627Z" fill="#9B8B77"/>
<path d="M52.5138 72.1423V72.5297L3.50098 62.9094V62.5865L52.5138 72.1423Z" fill="#807363"/>
<path d="M52.5137 72.1423L102.953 60.4559L102.888 60.7788L52.5137 72.5297V72.1423Z" fill="#9C8B78"/>
<path d="M52.6436 70.7864L52.5788 71.1093L3.56592 61.6181V61.2953L52.6436 70.7864Z" fill="#807363"/>
<path d="M52.6434 70.7864L103.018 59.2291V59.4874L52.5786 71.1092L52.6434 70.7864Z" fill="#9B8B77"/>
<path d="M103.925 68.3975L53.6808 81.1169C53.8105 81.0524 53.9401 81.0524 54.0698 80.9878C54.1995 80.9233 54.3291 80.8587 54.394 80.7296C54.4588 80.665 54.5885 80.5359 54.5885 80.4067C54.6533 80.2776 54.6533 80.1485 54.7181 80.0193C54.7181 79.8256 54.7181 79.6319 54.5885 79.4382C54.5236 79.2445 54.394 79.0508 54.1995 78.8571C54.0698 78.6634 53.8753 78.5343 53.616 78.4052C53.4215 78.2761 53.1622 78.2115 52.9028 78.1469L103.212 65.7503C103.472 65.8149 103.666 65.8794 103.861 66.0086C104.055 66.1377 104.25 66.2668 104.379 66.396C104.509 66.5251 104.639 66.7188 104.703 66.9125C104.768 67.1062 104.833 67.2999 104.768 67.429C104.768 67.5581 104.703 67.6873 104.703 67.7518C104.639 67.881 104.574 67.9455 104.509 68.0101C104.444 68.0747 104.314 68.1392 104.185 68.2038C104.185 68.2684 104.055 68.3329 103.925 68.3975Z" fill="#FC611F"/>
<path d="M52.9678 78.0823L103.277 65.6857L52.9678 78.0823C53.0326 78.0823 53.0326 78.0823 52.9678 78.0823Z" fill="#FC611F"/>
<path d="M53.0327 78.0823L103.342 65.6857C103.342 65.6857 103.342 65.6857 103.407 65.6857C103.407 65.6857 103.407 65.6857 103.472 65.6857C103.472 65.6857 103.472 65.6857 103.537 65.6857C103.537 65.6857 103.537 65.6857 103.602 65.6857L53.1624 78.1469C53.1624 78.1469 53.1624 78.1469 53.0975 78.1469C53.0975 78.1469 53.0975 78.1469 53.0327 78.1469C53.0975 78.0823 53.0327 78.0823 53.0327 78.0823Z" fill="#FC611F"/>
<path d="M53.1621 78.1469L103.472 65.7503C103.472 65.7503 103.472 65.7503 103.536 65.7503L53.2918 78.2115C53.2918 78.2115 53.2918 78.2115 53.2269 78.2115C53.2269 78.2115 53.2269 78.2115 53.1621 78.2115C53.2269 78.1469 53.2269 78.1469 53.1621 78.1469Z" fill="#FC611F"/>
<path d="M53.292 78.2115L103.601 65.8149L53.4217 78.2115C53.4217 78.2115 53.4217 78.2115 53.3568 78.2115C53.3568 78.2115 53.3568 78.2115 53.292 78.2115C53.3568 78.2115 53.3568 78.2115 53.292 78.2115Z" fill="#FC611F"/>
<path d="M53.4214 78.2115L103.731 65.8149L53.4214 78.2115C53.5511 78.276 53.4862 78.276 53.4214 78.2115C53.4862 78.276 53.4862 78.276 53.4214 78.2115C53.4862 78.2115 53.4214 78.2115 53.4214 78.2115Z" fill="#FC611F"/>
<path d="M53.5513 78.276L103.861 65.8794L53.6161 78.276C53.6161 78.276 53.6161 78.3406 53.5513 78.276C53.6161 78.3406 53.6161 78.3406 53.5513 78.276Z" fill="#FC611F"/>
<path d="M53.6812 78.3406L103.926 65.944L53.8108 78.4052C53.746 78.4052 53.746 78.4052 53.6812 78.3406C53.746 78.4052 53.746 78.4052 53.6812 78.3406Z" fill="#FC611F"/>
<path d="M53.8105 78.4052L104.055 66.0085L53.8105 78.4052C53.8754 78.4697 53.8754 78.4697 53.8105 78.4052C53.8754 78.4697 53.8754 78.4697 53.8105 78.4052C53.8105 78.4697 53.8105 78.4052 53.8105 78.4052Z" fill="#FC611F"/>
<path d="M53.9404 78.5343L104.185 66.1377L53.9404 78.5989C54.0053 78.5343 54.0053 78.5343 53.9404 78.5343Z" fill="#FC611F"/>
<path d="M54.0049 78.5989L104.25 66.1377L54.0049 78.5989C54.0697 78.6634 54.1345 78.6634 54.0049 78.5989C54.0697 78.5989 54.0697 78.5989 54.0049 78.5989C54.0697 78.5989 54.0697 78.5989 54.0049 78.5989Z" fill="#FC611F"/>
<path d="M54.1348 78.6634L104.379 66.2668L54.1348 78.728C54.1996 78.728 54.1996 78.728 54.1348 78.6634C54.1996 78.728 54.1996 78.728 54.1348 78.6634C54.1348 78.728 54.1348 78.6634 54.1348 78.6634Z" fill="#FC611F"/>
<path d="M54.2646 78.7925L104.509 66.3314L54.2646 78.7925C54.2646 78.7925 54.2646 78.7925 54.2646 78.728C54.2646 78.728 54.2646 78.728 54.2646 78.6634C54.3295 78.8571 54.2646 78.8571 54.2646 78.7925Z" fill="#FC611F"/>
<path d="M54.394 78.9217L104.639 66.4606C104.639 66.4606 104.639 66.5251 104.704 66.5251C104.704 66.5251 104.704 66.5897 104.768 66.5897C104.768 66.5897 104.768 66.6543 104.833 66.6543C104.833 66.6543 104.833 66.7188 104.898 66.7188L54.7182 79.2446C54.7182 79.2446 54.7182 79.18 54.6534 79.18C54.6534 79.18 54.6534 79.1154 54.5885 79.1154C54.4589 79.0509 54.4589 78.9863 54.394 78.9217C54.394 78.9863 54.394 78.9217 54.394 78.9217Z" fill="#FC611F"/>
<path d="M54.5239 79.18L104.704 66.6542C104.704 66.6542 104.704 66.6542 104.704 66.7188C104.704 66.7188 104.704 66.7188 104.704 66.7834C104.704 66.7834 104.704 66.7834 104.704 66.8479C104.704 66.9125 104.704 66.8479 104.704 66.9125L54.5239 79.4382C54.5239 79.4382 54.5239 79.4382 54.5239 79.3737C54.5239 79.3737 54.5239 79.3737 54.5239 79.3091C54.5888 79.2445 54.5888 79.2445 54.5239 79.18Z" fill="#FC611F"/>
<path d="M54.5884 79.3736L104.768 66.8479C104.768 66.8479 104.768 66.8479 104.768 66.9125C104.768 66.9125 104.768 66.9125 104.768 66.977C104.768 66.977 104.768 66.977 104.768 67.0416C104.768 67.0416 104.768 67.0416 104.768 67.1062L54.5884 79.6319C54.5884 79.6319 54.5884 79.6319 54.5884 79.5673C54.5884 79.5673 54.5884 79.5673 54.5884 79.5028C54.6532 79.4382 54.6532 79.4382 54.5884 79.3736C54.6532 79.3736 54.6532 79.3736 54.5884 79.3736Z" fill="#FC611F"/>
<path d="M54.6533 79.5674L104.833 67.0416L54.6533 79.6319C54.7182 79.6319 54.7182 79.6319 54.6533 79.5674C54.7182 79.5674 54.7182 79.5674 54.6533 79.5674C54.7182 79.5674 54.6533 79.5674 54.6533 79.5674Z" fill="#FC611F"/>
<path d="M54.7183 79.6319L104.898 67.0416L54.7183 79.6319C54.7183 79.7611 54.7183 79.6965 54.7183 79.6319C54.7183 79.6965 54.7183 79.6965 54.7183 79.6319C54.7183 79.6965 54.7183 79.6965 54.7183 79.6319C54.7183 79.6965 54.7183 79.6319 54.7183 79.6319Z" fill="#FC611F"/>
<path d="M54.7183 79.761L104.898 67.1707L54.7183 79.761C54.7183 79.8256 54.7183 79.8256 54.7183 79.761Z" fill="#FC611F"/>
<path d="M54.7183 79.8256L104.898 67.2353L54.7183 79.8256C54.7183 79.8902 54.7183 79.8902 54.7183 79.8256Z" fill="#FC611F"/>
<path d="M54.7183 79.8902L104.898 67.2999L54.7183 79.8902C54.7183 79.9547 54.7183 79.9547 54.7183 79.8902Z" fill="#FC611F"/>
<path d="M54.7183 79.9548L104.898 67.3644V67.429L54.7183 80.0193V79.9548Z" fill="#FC611F"/>
<path d="M54.7183 80.0193L104.898 67.429L54.7183 80.0193Z" fill="#FC611F"/>
<path d="M54.7183 80.0838L104.898 67.4935L54.7183 80.0838Z" fill="#FC611F"/>
<path d="M54.7183 80.0838L104.898 67.4935L54.7183 80.0838C54.7183 80.1484 54.7183 80.1484 54.7183 80.0838C54.7183 80.1484 54.7183 80.1484 54.7183 80.0838C54.7183 80.1484 54.7183 80.1484 54.7183 80.0838C54.7183 80.1484 54.7183 80.0838 54.7183 80.0838Z" fill="#FC611F"/>
<path d="M54.6533 80.1484L104.833 67.5581L54.6533 80.1484C54.6533 80.213 54.6533 80.213 54.6533 80.1484C54.6533 80.213 54.6533 80.213 54.6533 80.1484C54.6533 80.213 54.6533 80.1484 54.6533 80.1484Z" fill="#FC611F"/>
<path d="M54.6533 80.213L104.833 67.6227L54.6533 80.213C54.6533 80.2776 54.6533 80.2776 54.6533 80.213C54.6533 80.2776 54.6533 80.2776 54.6533 80.213Z" fill="#FC611F"/>
<path d="M54.6533 80.2776L104.833 67.6227L54.6533 80.2776C54.6533 80.3421 54.6533 80.3421 54.6533 80.2776Z" fill="#FC611F"/>
<path d="M54.6536 80.3421L104.833 67.6873L54.6536 80.3421C54.5888 80.4067 54.5888 80.3421 54.6536 80.3421C54.5888 80.3421 54.5888 80.3421 54.6536 80.3421C54.5888 80.3421 54.5888 80.3421 54.6536 80.3421Z" fill="#FC611F"/>
<path d="M54.5884 80.4067L104.768 67.7518L54.5884 80.4067Z" fill="#FC611F"/>
<path d="M54.5887 80.4713L104.768 67.8164L54.5887 80.4713C54.5238 80.4713 54.5238 80.5358 54.5887 80.4713C54.5238 80.4713 54.5238 80.4713 54.5887 80.4713C54.5238 80.4713 54.5238 80.4713 54.5887 80.4713Z" fill="#FC611F"/>
<path d="M54.5238 80.5359L104.704 67.881L54.459 80.6004C54.459 80.6004 54.459 80.6004 54.5238 80.5359C54.459 80.5359 54.5238 80.5359 54.5238 80.5359Z" fill="#FC611F"/>
<path d="M54.4588 80.6004L104.639 67.9456L54.4588 80.6004C54.3939 80.665 54.3939 80.665 54.4588 80.6004Z" fill="#FC611F"/>
<path d="M54.3943 80.665L104.574 68.0101C104.509 68.0747 104.509 68.0747 104.444 68.1393C104.38 68.2038 104.315 68.2038 104.315 68.2684C104.315 68.333 104.185 68.333 104.12 68.333C104.055 68.333 103.991 68.3975 103.926 68.3975L53.6812 81.117C53.746 81.117 53.8108 81.0524 53.8756 81.0524C53.9405 81.0524 54.0053 80.9878 54.0701 80.9878C54.135 80.9233 54.1998 80.9233 54.2646 80.8587C54.2646 80.7941 54.3295 80.7296 54.3943 80.665Z" fill="#FC611F"/>
<path d="M52.7733 69.4306L103.148 58.0024V58.2607L52.7085 69.7534L52.7733 69.4306Z" fill="#9B8B77"/>
<path d="M52.773 69.4305V69.7533L3.69531 60.2622V60.1976V60.133V60.0685V60.0039L52.773 69.4305Z" fill="#807363"/>
<path d="M52.903 68.1392L103.342 56.8402L102.499 65.5566L52.125 77.8886L52.903 68.1392Z" fill="#F2F2E8"/>
<path d="M52.9029 68.1391L52.1249 77.8886L5.25149 68.5265H5.18665H5.12182H5.05699H4.99216C4.79766 68.462 4.60317 68.462 4.40867 68.3974C4.21418 68.3328 4.01968 68.3328 3.89002 68.2683C3.76035 68.2037 3.63069 68.2037 3.50103 68.1391C3.43619 68.1391 3.37136 68.0746 3.30653 68.0746C3.30653 68.0746 3.30653 68.01 3.2417 67.9454C3.2417 67.8809 3.2417 67.8163 3.2417 67.6872C3.2417 67.558 3.2417 67.4935 3.2417 67.3643C3.2417 67.2352 3.2417 67.1061 3.2417 66.9124L52.1897 76.6618V76.339L3.2417 66.5896C3.2417 66.525 3.2417 66.4604 3.2417 66.3313C3.2417 66.2667 3.2417 66.1376 3.2417 66.073C3.2417 66.0085 3.2417 65.8793 3.2417 65.8148C3.2417 65.7502 3.2417 65.6211 3.2417 65.5565L52.2545 75.2414V74.9185L3.2417 65.2337L3.30653 64.2652L52.3194 73.8855V73.5627L3.37136 63.9424L3.43619 62.9739L52.5139 72.5296V72.2068L3.50103 62.5865L3.56586 61.618L52.5787 71.1092V70.7863L3.56586 61.2952C3.56586 61.2306 3.56586 61.1015 3.56586 61.0369C3.56586 60.9723 3.56586 60.8432 3.56586 60.7786C3.56586 60.7141 3.56586 60.5849 3.56586 60.5204C3.56586 60.4558 3.56586 60.3913 3.56586 60.2621L52.6435 69.7533V69.4305L3.69552 59.9393C3.69552 59.8102 3.69552 59.681 3.76035 59.5519C3.76035 59.4228 3.76035 59.3582 3.82519 59.2291C3.82519 59.1645 3.82519 59.0999 3.89002 59.0354C3.89002 58.9708 3.89002 58.9708 3.89002 58.9062C3.89002 58.9062 3.95485 58.8417 4.08451 58.8417C4.21418 58.8417 4.34384 58.8417 4.53834 58.8417C4.73283 58.8417 4.92733 58.9062 5.12182 58.9062C5.31632 58.9062 5.57564 58.9708 5.83497 59.0354L36.6949 64.9754L52.9029 68.1391Z" fill="#DCD2B7"/>
<path d="M36.6299 65.04L88.236 54.193L103.342 56.8402L52.9027 68.1392L36.6299 65.04Z" fill="#9C9889"/>
<path d="M2.6582 55.5489L56.5983 45.9932L104.314 54.3221L54.005 65.2983L2.6582 55.5489Z" fill="#DE3F18"/>
<path d="M104.898 56.9693L54.6532 68.3329C54.7829 68.2683 54.9774 68.2683 55.107 68.2038C55.2367 68.1392 55.3663 68.0747 55.4312 67.9455C55.5608 67.8164 55.6257 67.7518 55.6905 67.6227C55.7553 67.4936 55.7553 67.3644 55.8202 67.2353C55.8202 67.0416 55.8202 66.8479 55.6905 66.6542C55.6257 66.4605 55.496 66.2668 55.3015 66.0731C55.1719 65.8794 54.9774 65.7503 54.718 65.6212C54.5235 65.492 54.2642 65.4275 54.0049 65.3629L104.379 54.3867C104.639 54.4513 104.833 54.5159 105.028 54.645C105.222 54.7741 105.417 54.9032 105.546 55.0324C105.676 55.1615 105.806 55.3552 105.87 55.5489C105.935 55.7426 106 55.9363 105.935 56.0654C105.935 56.1946 105.87 56.3237 105.805 56.4528C105.741 56.582 105.676 56.6465 105.611 56.7757C105.546 56.8402 105.417 56.9693 105.287 56.9693C105.222 56.9048 105.092 56.9693 104.898 56.9693Z" fill="#FC611F"/>
<path d="M54.0049 65.2983L104.379 54.3221L54.0049 65.2983C54.0697 65.2983 54.0697 65.2983 54.0049 65.2983C54.0697 65.2983 54.0049 65.2983 54.0049 65.2983Z" fill="#FC611F"/>
<path d="M54.0698 65.2983L104.379 54.3221C104.379 54.3221 104.379 54.3221 104.444 54.3221C104.444 54.3221 104.444 54.3221 104.509 54.3221C104.509 54.3221 104.509 54.3221 104.574 54.3221C104.574 54.3221 104.574 54.3221 104.639 54.3221L54.1995 65.3629C54.1995 65.3629 54.1995 65.3629 54.1347 65.3629C54.1347 65.3629 54.1347 65.3629 54.0698 65.3629C54.1347 65.3629 54.1347 65.3629 54.0698 65.2983C54.0698 65.3629 54.0698 65.2983 54.0698 65.2983Z" fill="#FC611F"/>
<path d="M54.1992 65.3629L104.509 54.3221C104.509 54.3221 104.509 54.3221 104.574 54.3221C104.574 54.3221 104.574 54.3221 104.638 54.3221L54.3289 65.4274C54.3289 65.4274 54.3289 65.4274 54.264 65.4274C54.264 65.4274 54.2641 65.4274 54.1992 65.4274C54.2641 65.3629 54.2641 65.3629 54.1992 65.3629Z" fill="#FC611F"/>
<path d="M54.3291 65.4275L104.639 54.3867L54.4588 65.492C54.4588 65.492 54.4588 65.492 54.3939 65.492C54.3939 65.492 54.3939 65.492 54.3291 65.492C54.3939 65.4275 54.3939 65.4275 54.3291 65.4275C54.3939 65.4275 54.3291 65.4275 54.3291 65.4275Z" fill="#FC611F"/>
<path d="M54.4585 65.492L104.768 54.4513L54.5882 65.492C54.5233 65.492 54.5233 65.492 54.4585 65.492C54.5233 65.492 54.5233 65.492 54.4585 65.492Z" fill="#FC611F"/>
<path d="M54.5884 65.492L104.898 54.4513L54.718 65.5566C54.718 65.5566 54.6532 65.5566 54.5884 65.492C54.6532 65.5566 54.6532 65.5566 54.5884 65.492C54.6532 65.5566 54.5884 65.492 54.5884 65.492Z" fill="#FC611F"/>
<path d="M54.7183 65.5566L105.028 54.5159L54.8479 65.6212C54.7831 65.6212 54.7831 65.6212 54.7183 65.5566C54.7831 65.6212 54.7831 65.6212 54.7183 65.5566C54.7831 65.6212 54.7183 65.5566 54.7183 65.5566Z" fill="#FC611F"/>
<path d="M54.8477 65.6212L105.157 54.5804L54.9773 65.7503C54.9125 65.6857 54.9125 65.6857 54.8477 65.6212C54.9125 65.6857 54.9125 65.6857 54.8477 65.6212C54.8477 65.6857 54.8477 65.6857 54.8477 65.6212Z" fill="#FC611F"/>
<path d="M54.9775 65.7503L105.222 54.7096L55.1072 65.8149C55.0424 65.8149 55.0424 65.7503 54.9775 65.7503C55.0424 65.7503 54.9775 65.7503 54.9775 65.7503Z" fill="#FC611F"/>
<path d="M55.1069 65.8149L105.352 54.7742L55.1718 65.8795C55.1718 65.8795 55.1718 65.8795 55.1069 65.8149C55.1069 65.8795 55.1069 65.8149 55.1069 65.8149Z" fill="#FC611F"/>
<path d="M55.1719 65.8795L105.417 54.7742L55.3015 66.0086C55.2367 66.0086 55.2367 65.944 55.1719 65.8795C55.2367 65.944 55.2367 65.944 55.1719 65.8795C55.2367 65.944 55.1719 65.944 55.1719 65.8795Z" fill="#FC611F"/>
<path d="M55.3018 66.0085L105.546 54.9032L55.4314 66.1376C55.4314 66.1376 55.4314 66.1376 55.4314 66.0731C55.4314 66.0731 55.4314 66.0731 55.4314 66.0085C55.3666 66.0731 55.3666 66.0731 55.3018 66.0085Z" fill="#FC611F"/>
<path d="M55.4312 66.1376L105.676 55.0323C105.676 55.0323 105.676 55.0969 105.741 55.0969C105.741 55.0969 105.741 55.1615 105.805 55.1615C105.805 55.1615 105.805 55.226 105.87 55.226C105.87 55.226 105.87 55.2906 105.935 55.2906L55.5608 66.3959C55.5608 66.3959 55.5608 66.3313 55.496 66.3313C55.496 66.3313 55.496 66.2668 55.4312 66.2668C55.496 66.2668 55.496 66.2022 55.4312 66.1376C55.4312 66.2022 55.4312 66.2022 55.4312 66.1376Z" fill="#FC611F"/>
<path d="M55.561 66.396L105.806 55.2906C105.806 55.2906 105.806 55.2906 105.806 55.3552C105.806 55.3552 105.806 55.3552 105.806 55.4198C105.806 55.4198 105.806 55.4198 105.806 55.4843C105.806 55.4843 105.806 55.4843 105.806 55.5489L55.6907 66.5897C55.6907 66.5897 55.6907 66.5897 55.6907 66.5251C55.6907 66.5251 55.6907 66.5251 55.6907 66.4605C55.6259 66.4605 55.6259 66.4605 55.561 66.396C55.6259 66.396 55.561 66.396 55.561 66.396Z" fill="#FC611F"/>
<path d="M55.6904 66.5897L105.935 55.4198C105.935 55.4198 105.935 55.4198 105.935 55.4844C105.935 55.4844 105.935 55.4844 105.935 55.5489C105.935 55.5489 105.935 55.5489 105.935 55.6135C105.935 55.6135 105.935 55.6135 105.935 55.6781L55.7553 66.7834C55.7553 66.7834 55.7553 66.7834 55.7553 66.7188C55.7553 66.7188 55.7553 66.7188 55.7553 66.6542C55.6904 66.6542 55.6904 66.6542 55.6904 66.5897Z" fill="#FC611F"/>
<path d="M55.7554 66.7833L105.935 55.6134L55.7554 66.8478C55.7554 66.8478 55.7554 66.8478 55.7554 66.7833Z" fill="#FC611F"/>
<path d="M55.7554 66.8478L105.935 55.678L55.7554 66.977C55.7554 66.9124 55.7554 66.9124 55.7554 66.8478C55.7554 66.9124 55.7554 66.9124 55.7554 66.8478C55.7554 66.9124 55.7554 66.9124 55.7554 66.8478Z" fill="#FC611F"/>
<path d="M55.7554 66.977L105.935 55.8071L55.7554 67.0416C55.7554 67.0416 55.7554 67.0416 55.7554 66.977C55.7554 67.0416 55.7554 66.977 55.7554 66.977Z" fill="#FC611F"/>
<path d="M55.7554 67.0416L105.935 55.8071L55.7554 67.1061C55.7554 67.1061 55.7554 67.1061 55.7554 67.0416C55.7554 67.1061 55.7554 67.0416 55.7554 67.0416Z" fill="#FC611F"/>
<path d="M55.7554 67.1061L105.935 55.8717L55.7554 67.1061C55.7554 67.1707 55.7554 67.1707 55.7554 67.1061C55.7554 67.1707 55.7554 67.1061 55.7554 67.1061Z" fill="#FC611F"/>
<path d="M55.7554 67.1707L106 55.9363V56.0008L55.7554 67.2353V67.1707Z" fill="#FC611F"/>
<path d="M55.7554 67.2353L105.935 56.0009L55.7554 67.2353C55.7554 67.2999 55.7554 67.2353 55.7554 67.2353Z" fill="#FC611F"/>
<path d="M55.7554 67.2999L105.935 56.0654L55.7554 67.2999Z" fill="#FC611F"/>
<path d="M55.7554 67.2999L105.935 56.0654L55.7554 67.2999C55.7554 67.3644 55.7554 67.3644 55.7554 67.2999C55.7554 67.3644 55.7554 67.3644 55.7554 67.2999C55.7554 67.3644 55.7554 67.3644 55.7554 67.2999C55.7554 67.3644 55.7554 67.3644 55.7554 67.2999Z" fill="#FC611F"/>
<path d="M55.7552 67.3644L105.935 56.13L55.7552 67.3644C55.6903 67.429 55.6903 67.429 55.7552 67.3644C55.7552 67.429 55.7552 67.429 55.7552 67.3644C55.7552 67.429 55.7552 67.429 55.7552 67.3644Z" fill="#FC611F"/>
<path d="M55.6904 67.429L105.87 56.1946L55.6904 67.429C55.6904 67.4936 55.6904 67.4936 55.6904 67.429C55.6904 67.4936 55.6904 67.4936 55.6904 67.429C55.6904 67.4936 55.6904 67.429 55.6904 67.429Z" fill="#FC611F"/>
<path d="M55.6904 67.4936L105.935 56.2592L55.6904 67.4936C55.6904 67.5582 55.6904 67.5582 55.6904 67.4936C55.6904 67.5582 55.6904 67.4936 55.6904 67.4936Z" fill="#FC611F"/>
<path d="M55.6907 67.5582L105.871 56.2592L55.6907 67.5582C55.6259 67.6227 55.6259 67.6227 55.6907 67.5582Z" fill="#FC611F"/>
<path d="M55.6255 67.6227L105.805 56.3237L55.6255 67.6227C55.6255 67.6873 55.6255 67.6873 55.6255 67.6227Z" fill="#FC611F"/>
<path d="M55.6259 67.6873L105.871 56.3883L55.561 67.7519C55.561 67.7519 55.561 67.7519 55.6259 67.6873C55.561 67.6873 55.561 67.6873 55.6259 67.6873Z" fill="#FC611F"/>
<path d="M55.5609 67.7518L105.806 56.4528L55.4961 67.8163C55.4961 67.8163 55.4961 67.8163 55.5609 67.7518C55.5609 67.8163 55.5609 67.7518 55.5609 67.7518Z" fill="#FC611F"/>
<path d="M55.496 67.8163L105.741 56.5173L55.4312 67.9455C55.4312 67.8809 55.496 67.8809 55.496 67.8163C55.496 67.8809 55.496 67.8809 55.496 67.8163Z" fill="#FC611F"/>
<path d="M55.4313 67.9455L105.676 56.6465C105.611 56.7111 105.611 56.7111 105.546 56.7756C105.481 56.8402 105.417 56.8402 105.352 56.9047C105.287 56.9047 105.222 56.9693 105.157 56.9693C105.092 56.9693 105.028 57.0339 104.963 57.0339L54.6533 68.3329C54.7182 68.3329 54.783 68.2683 54.8478 68.2683C54.9126 68.2683 54.9775 68.2037 55.0423 68.2037C55.1071 68.1392 55.172 68.1392 55.2368 68.0746C55.3016 68.0101 55.3665 67.9455 55.4313 67.9455Z" fill="#FC611F"/>
<path d="M54.0049 65.2983C54.2642 65.3628 54.5235 65.4274 54.718 65.5565C54.9125 65.6856 55.107 65.8148 55.3015 66.0085C55.4312 66.2022 55.5609 66.3959 55.6905 66.5896C55.7554 66.7833 55.8202 66.977 55.8202 67.1707C55.8202 67.3644 55.7554 67.5581 55.6257 67.7517C55.496 67.9454 55.3664 68.0746 55.1719 68.1391C54.9774 68.2683 54.7829 68.3328 54.5235 68.3328C54.2642 68.3974 54.0697 68.3328 53.8104 68.3328L52.9676 68.1391L36.6948 65.04L5.96453 59.1645C5.96453 59.1645 5.96453 59.1645 5.89969 59.1645C5.89969 59.1645 5.89969 59.1645 5.83486 59.1645C5.83486 59.1645 5.83486 59.1645 5.77003 59.1645C5.77003 59.1645 5.77003 59.1645 5.7052 59.1645C5.44587 59.0999 5.25138 59.0999 4.99205 59.0354C4.79755 59.0354 4.53823 58.9708 4.40856 58.9708C4.21407 58.9708 4.0844 58.9708 3.95474 58.9708C3.82508 58.9708 3.76024 58.9708 3.76024 59.0354C3.76024 59.0354 3.76024 59.0999 3.76024 59.1645C3.76024 59.2291 3.76024 59.2936 3.69541 59.3582C3.69541 59.4228 3.69541 59.5519 3.63058 59.681C3.63058 59.8102 3.63058 59.9393 3.56575 60.0684V60.133V60.1976V60.2621V60.3267C3.56575 60.3913 3.56575 60.4558 3.56575 60.585C3.56575 60.6495 3.56575 60.7786 3.56575 60.8432C3.56575 60.9078 3.56575 61.0369 3.56575 61.1015C3.56575 61.166 3.56575 61.2952 3.56575 61.3597V61.6826L3.50092 62.6511V62.9739L3.43609 63.9424V64.2652L3.37125 65.2337V65.5565C3.37125 65.6211 3.37125 65.7502 3.37125 65.8148C3.37125 65.8793 3.37125 66.0085 3.37125 66.073C3.37125 66.1376 3.37125 66.2667 3.37125 66.3313C3.37125 66.3959 3.37125 66.525 3.37125 66.5896V66.6541V66.7187V66.7833V66.8478C3.37125 66.977 3.37125 67.1707 3.37125 67.2998C3.37125 67.4289 3.37125 67.5581 3.37125 67.6226C3.37125 67.7517 3.37125 67.8163 3.37125 67.8809C3.37125 67.9454 3.37125 68.01 3.43609 68.01C3.43609 68.01 3.50092 68.0746 3.63058 68.0746C3.69541 68.0746 3.82508 68.1391 4.01957 68.2037C4.14924 68.2683 4.34373 68.2683 4.53823 68.3328C4.73272 68.3974 4.92722 68.3974 5.12171 68.462H5.18654H5.25138C5.18654 68.5265 5.18654 68.5265 5.18654 68.5265H5.25138L52.0599 77.8886L52.9028 78.0823C53.1621 78.1468 53.4214 78.2114 53.6159 78.3405C53.8104 78.4697 54.0049 78.5988 54.1994 78.7925C54.3291 78.9862 54.4587 79.1799 54.5884 79.3736C54.6532 79.5673 54.718 79.761 54.718 79.9547C54.718 80.1484 54.6532 80.3421 54.5235 80.5358C54.3939 80.6649 54.2642 80.8586 54.0697 80.9232C53.8752 81.0523 53.6807 81.1169 53.4214 81.1169C53.1621 81.1169 52.9676 81.1169 52.7083 81.1169L1.6208 70.7863C1.36147 70.7218 1.16697 70.6572 0.972477 70.4635C0.777982 70.3344 0.583486 70.1407 0.453823 69.8824C0.324159 69.6887 0.194495 69.4305 0.129664 69.1722C0.0648318 68.9139 0 68.5911 0 68.3328L0.777982 57.3567C0.777982 57.0984 0.842813 56.7756 0.972477 56.5819C1.10214 56.3236 1.2318 56.1299 1.36147 56.0008C1.55596 55.8071 1.75046 55.678 1.94495 55.6134C2.13945 55.5488 2.39878 55.5488 2.6581 55.5488L54.0049 65.2983Z" fill="#FC611F"/>
<path d="M94.5246 31.0785L54.9772 13.4521C53.6157 12.871 51.4114 12.871 50.05 13.4521L10.5674 31.0785C9.20593 31.6596 8.16862 32.7572 9.46526 33.4674L12.9013 35.9209L13.42 42.3129L18.3472 41.9901V38.0516L50.05 55.678C51.2818 56.3883 53.486 56.3883 54.7178 55.678L94.6542 33.4674C95.886 32.7572 95.886 31.6596 94.5246 31.0785Z" fill="#103754"/>
<path d="M20.7462 71.8194L18.2826 45.9286L13.485 46.5097L11.2808 72.8525V72.2068V71.7549V72.4005C11.2808 74.7249 13.4202 76.8556 16.0135 76.8556C16.597 76.8556 17.1156 76.9201 17.6343 76.7264L17.1156 57.3567L18.5419 76.4036C19.8386 75.6934 20.7462 73.821 20.7462 72.336C20.7462 72.4651 20.6814 71.8194 20.7462 71.8194Z" fill="#103754"/>
<path d="M76.8902 39.2784C76.7606 36.2438 66.8413 33.6612 54.4584 33.2738C53.6805 33.2092 52.9673 33.2092 52.1893 33.2092C52.0597 33.2092 51.9948 33.2092 51.8652 33.2092C51.6058 33.2092 51.3465 33.2092 51.0872 33.2092C37.1483 33.2092 25.2193 35.921 25.0896 39.2784H24.96V39.343V39.5367V39.6658V55.9364V56.0655V56.2592V56.3238H25.0896C25.2193 59.6812 37.1483 62.3929 51.0872 62.3929C51.3465 62.3929 51.6058 62.3929 51.8652 62.3929C51.9948 62.3929 52.1245 62.3929 52.2542 62.3929C53.0321 62.3929 53.8101 62.3929 54.5233 62.3284C66.9061 61.941 76.8254 59.4229 76.8902 56.3238H76.8254V56.2592V56.0655V55.9364V39.6658V39.5367V39.343V39.2784C76.7606 39.2784 76.8902 39.2784 76.8902 39.2784Z" fill="#144F79"/>
<path d="M19.7089 46.0578C19.7089 46.9617 17.4398 47.6074 15.4948 47.6074C13.5499 47.6074 11.2808 46.8971 11.2808 46.0578V42.8941C11.2808 41.9901 13.5499 41.3445 15.4948 41.3445C17.4398 41.3445 19.7089 42.0547 19.7089 42.8941V46.0578Z" fill="#103754"/>
</svg>
