<svg width="42" height="33" viewBox="0 0 42 33" fill="none" xmlns="http://www.w3.org/2000/svg">
<path d="M1.28418 27.42L22.6053 23.2094L1.28418 27.4453V27.42Z" fill="#F0BC42"/>
<path d="M1.28418 27.4453L22.6053 23.2094C22.6053 23.2347 22.6053 23.2347 22.6053 23.2601C22.6053 23.2854 22.6053 23.2854 22.6053 23.3108C22.6053 23.3362 22.6053 23.3362 22.6053 23.3615C22.6053 23.3869 22.6053 23.3869 22.6053 23.4123L1.28418 27.6736C1.28418 27.6482 1.28418 27.6482 1.28418 27.6229C1.28418 27.5975 1.28418 27.5975 1.28418 27.5721C1.28418 27.5468 1.28418 27.5214 1.28418 27.5214C1.28418 27.4707 1.28418 27.4707 1.28418 27.4453Z" fill="#F1BD47"/>
<path d="M1.28418 27.6738L22.6053 23.4125V23.4378V23.4632V23.4886V23.5139L1.28418 27.7753V27.7499V27.7245V27.6992C1.28418 27.6738 1.28418 27.6738 1.28418 27.6738Z" fill="#F1BE4A"/>
<path d="M1.28418 27.775L22.6053 23.5137L1.28418 27.775Z" fill="#F1BF4D"/>
<path d="M1.31006 27.8005L22.6312 23.5392L1.31006 27.8005C1.31006 27.8259 1.31006 27.8259 1.31006 27.8005C1.31006 27.8259 1.31006 27.8259 1.31006 27.8005C1.31006 27.8259 1.31006 27.8259 1.31006 27.8005C1.31006 27.8259 1.31006 27.8259 1.31006 27.8005Z" fill="#F1C04F"/>
<path d="M1.31006 27.8258L22.6312 23.5645L1.31006 27.8258C1.31006 27.8512 1.31006 27.8512 1.31006 27.8258C1.31006 27.8512 1.31006 27.8512 1.31006 27.8258C1.31006 27.8512 1.31006 27.8512 1.31006 27.8258C1.31006 27.8512 1.31006 27.8512 1.31006 27.8258Z" fill="#F1C152"/>
<path d="M1.31006 27.8512L22.6312 23.5898L1.31006 27.8512Z" fill="#F2C357"/>
<path d="M1.31006 27.8512L22.6312 23.5898L1.31006 27.8765V27.8512Z" fill="#F1C152"/>
<path d="M1.31006 27.8765L22.6312 23.5898L1.31006 27.8765Z" fill="#F1C04F"/>
<path d="M1.31006 27.8765L22.6312 23.5898L1.31006 27.8765Z" fill="#F1BF4D"/>
<path d="M1.31006 27.8765L22.6312 23.5898L1.31006 27.8765Z" fill="#F1BE4A"/>
<path d="M1.31006 27.8765L22.6312 23.5898L1.31006 27.8765Z" fill="#F1BD47"/>
<path d="M1.31006 27.8765L22.6312 23.5898L1.31006 27.8765Z" fill="#F0BC42"/>
<path d="M1.30987 26.8873L22.631 22.702V22.7274V22.7528V22.7781V22.8035L1.28418 27.0648C1.28418 27.0395 1.28418 27.0395 1.28418 27.0141C1.28418 26.9887 1.28418 26.9887 1.28418 26.9634C1.28418 26.938 1.28418 26.938 1.28418 26.9126C1.30987 26.9126 1.30987 26.9126 1.30987 26.8873Z" fill="#F0BB40"/>
<path d="M1.28418 27.0646L22.6053 22.8794C22.6053 22.9048 22.6053 22.9048 22.6053 22.9301C22.6053 22.9555 22.6053 22.9555 22.6053 22.9809C22.6053 23.0062 22.6053 23.0062 22.6053 23.0316C22.6053 23.057 22.6053 23.057 22.6053 23.0823V23.1077V23.133V23.1584V23.1838L1.28418 27.4197V27.3944V27.369V27.3437V27.3183C1.28418 27.2929 1.28418 27.2676 1.28418 27.2676C1.28418 27.2422 1.28418 27.2168 1.28418 27.2168C1.28418 27.1915 1.28418 27.1661 1.28418 27.1661C1.28418 27.09 1.28418 27.0646 1.28418 27.0646Z" fill="#F0BC42"/>
<path d="M1.30987 26.8873L22.631 22.702V22.7274V22.7528V22.7781V22.8035L1.28418 27.0648C1.28418 27.0395 1.28418 27.0395 1.28418 27.0141C1.28418 26.9887 1.28418 26.9887 1.28418 26.9634C1.28418 26.938 1.28418 26.938 1.28418 26.9126C1.30987 26.9126 1.30987 26.9126 1.30987 26.8873Z" fill="#F0BB40"/>
<path d="M1.31006 26.7605L22.6312 22.6006V22.7274L1.31006 26.8873V26.7605Z" fill="#F1BD47"/>
<path d="M1.33575 26.3799L22.6568 22.2454L22.6312 22.6005L1.31006 26.7604L1.33575 26.3799Z" fill="#F1BD47"/>
<path d="M1.33594 26.2531L22.6827 22.1439L22.657 22.2454L1.33594 26.3799V26.2531Z" fill="#F1BD47"/>
<path d="M1.38731 25.8471L22.7084 21.7887L22.6827 22.1438L1.33594 26.253L1.38731 25.8471Z" fill="#F1BD47"/>
<path d="M1.38721 25.7203L22.7083 21.6619V21.7887L1.38721 25.8471V25.7203Z" fill="#F1BD47"/>
<path d="M1.4129 25.34L22.734 21.3323L22.7083 21.662L1.38721 25.7204L1.4129 25.34Z" fill="#F1BD47"/>
<path d="M1.41309 25.1878L22.7599 21.2054L22.7342 21.3323L1.41309 25.34V25.1878Z" fill="#F1BD47"/>
<path d="M1.31006 27.8765L22.6312 23.5898L1.31006 27.8765Z" fill="#F0BC42"/>
<path d="M1.31006 27.8765L22.6312 23.5898L1.31006 27.8765Z" fill="#F0BB40"/>
<path d="M1.31006 27.8765L22.6312 23.5898H22.6568L1.33575 27.8765H1.31006Z" fill="#F0BA3D"/>
<path d="M1.33643 27.8765L22.6575 23.5898V23.6152L1.33643 27.8765Z" fill="#EFB838"/>
<path d="M1.33643 27.8765L22.6575 23.5898L1.33643 27.8765C1.36211 27.8765 1.36211 27.8765 1.33643 27.8765C1.36211 27.8765 1.33643 27.8765 1.33643 27.8765Z" fill="#EFB736"/>
<path d="M1.36133 27.8765L22.6824 23.5898C22.6824 23.5898 22.6824 23.5898 22.7081 23.5898C22.7081 23.5898 22.7081 23.5898 22.7338 23.5898C22.7338 23.5898 22.7338 23.5898 22.7595 23.5898L1.4127 27.9019C1.4127 27.9019 1.4127 27.9019 1.38702 27.9019C1.38702 27.9019 1.38702 27.9019 1.36133 27.9019C1.38702 27.9019 1.38702 27.9019 1.36133 27.8765C1.36133 27.9019 1.36133 27.8765 1.36133 27.8765Z" fill="#EFB633"/>
<path d="M1.4126 27.9019L22.7337 23.6152C22.7594 23.6152 22.7594 23.6152 22.7851 23.6406C22.8108 23.6406 22.8365 23.6406 22.8621 23.666C22.8878 23.666 22.9135 23.666 22.9392 23.6913C22.9649 23.6913 22.9906 23.6913 23.0163 23.7167L1.72085 27.978C1.69517 27.978 1.66948 27.9527 1.64379 27.9527C1.6181 27.9527 1.59241 27.9273 1.56673 27.9273C1.54104 27.9273 1.51535 27.9273 1.48966 27.9019C1.46397 27.9273 1.43829 27.9019 1.4126 27.9019Z" fill="#EFB530"/>
<path d="M1.72119 27.9781L23.0166 23.6914C23.0423 23.6914 23.068 23.6914 23.068 23.6914C23.0937 23.6914 23.1194 23.6914 23.1194 23.6914C23.145 23.6914 23.1707 23.6914 23.1707 23.6914C23.1964 23.6914 23.2221 23.6914 23.2478 23.6914H23.2735H23.2992H23.3249H23.3505L2.08082 28.0035H2.05514H2.02945H2.00376H1.97807C1.95238 28.0035 1.9267 28.0035 1.90101 27.9781C1.87532 27.9781 1.84963 27.9781 1.82394 27.9527C1.79826 27.9527 1.77257 27.9527 1.74688 27.9274C1.74688 28.0035 1.74688 27.9781 1.72119 27.9781Z" fill="#EFB42E"/>
<path d="M0.847656 22.9556L22.2458 19.2015L0.847656 22.9556Z" fill="#EDAE1C"/>
<path d="M0.847656 22.9556L22.2458 19.2015L0.899032 22.9556C0.899032 22.9556 0.899032 22.9556 0.873344 22.9556C0.847656 22.9556 0.873344 22.9556 0.847656 22.9556C0.873344 22.9556 0.873344 22.9556 0.847656 22.9556Z" fill="#EEB021"/>
<path d="M0.898926 22.9556L22.2971 19.2015L0.950302 22.9556C0.924614 22.9556 0.924614 22.9556 0.898926 22.9556C0.924614 22.9556 0.924614 22.9556 0.898926 22.9556Z" fill="#EEB124"/>
<path d="M0.950195 22.9556L22.3484 19.2015L0.975883 22.9556C0.975883 22.9556 0.975883 22.9556 0.950195 22.9556Z" fill="#EEB226"/>
<path d="M0.976074 22.9556L22.3485 19.2015L1.02745 22.9556C1.00176 22.9556 1.00176 22.9556 0.976074 22.9556C1.00176 22.9556 1.00176 22.9556 0.976074 22.9556C1.00176 22.9556 1.00176 22.9556 0.976074 22.9556Z" fill="#EEB329"/>
<path d="M1.02734 22.9556L22.3998 19.2015L1.02734 22.9556C1.05303 22.9556 1.05303 22.9556 1.02734 22.9556Z" fill="#EFB42E"/>
<path d="M1.46446 24.8073L22.8112 20.8503C22.8112 20.8757 22.8112 20.9011 22.8112 20.9264C22.8112 20.9518 22.8112 20.9772 22.8112 21.0025C22.8112 21.0279 22.8112 21.0533 22.8112 21.104C22.8112 21.1294 22.8112 21.1547 22.8112 21.2055L1.41309 25.1878C1.41309 25.1624 1.41309 25.1117 1.41309 25.0863C1.41309 25.0609 1.41309 25.0102 1.41309 24.9849C1.41309 24.9595 1.41309 24.9088 1.41309 24.8834C1.43877 24.858 1.43877 24.8327 1.46446 24.8073Z" fill="#F0BB40"/>
<path d="M1.51562 24.2999L22.8624 20.3937L1.51562 24.2999Z" fill="#EEB124"/>
<path d="M1.51562 24.2999L22.8624 20.3937L1.51562 24.2999Z" fill="#EEB226"/>
<path d="M1.51562 24.2999L22.8624 20.3937L1.51562 24.2999Z" fill="#EEB329"/>
<path d="M1.51562 24.2999L22.8624 20.3937L1.51562 24.2999Z" fill="#EFB42E"/>
<path d="M1.51562 24.2999L22.8624 20.3937V20.419L1.51562 24.3253V24.2999Z" fill="#EFB530"/>
<path d="M1.51562 24.3253L22.8624 20.4191L1.51562 24.3253Z" fill="#EFB633"/>
<path d="M1.51562 24.3253L22.8624 20.4191L1.51562 24.3507C1.51562 24.3507 1.51562 24.3507 1.51562 24.3253C1.51562 24.3507 1.51562 24.3507 1.51562 24.3253Z" fill="#EFB736"/>
<path d="M1.51592 24.3506L22.8627 20.4443C22.8627 20.4443 22.8627 20.4443 22.8627 20.4697C22.8627 20.4951 22.8627 20.4697 22.8627 20.4951C22.8627 20.4951 22.8627 20.4951 22.8627 20.5204V20.5458L1.49023 24.4267V24.4013V24.3759C1.49023 24.3759 1.49023 24.3759 1.51592 24.3506C1.51592 24.3759 1.51592 24.3506 1.51592 24.3506Z" fill="#EFB838"/>
<path d="M1.49004 24.4267L22.8368 20.5205C22.8368 20.5459 22.8368 20.5459 22.8368 20.5712C22.8368 20.5966 22.8368 20.5966 22.8368 20.622C22.8368 20.6473 22.8368 20.6727 22.8368 20.6727C22.8368 20.6981 22.8368 20.7234 22.8368 20.7488L1.46436 24.7311C1.46436 24.7058 1.46436 24.6804 1.46436 24.655C1.46436 24.6297 1.46436 24.6043 1.46436 24.5789C1.46436 24.5536 1.46436 24.5282 1.46436 24.5282C1.49004 24.4521 1.49004 24.4521 1.49004 24.4267Z" fill="#F0BA3D"/>
<path d="M1.46436 24.7311L22.8111 20.7742V20.7995V20.8249V20.8503V20.8756L1.46436 24.8072V24.7819V24.7565C1.46436 24.7565 1.46436 24.7565 1.46436 24.7311Z" fill="#F0BB40"/>
<path d="M1.54131 24.2745L22.8881 20.3683L1.51563 24.2999C1.51563 24.2999 1.51562 24.2999 1.54131 24.2745C1.54131 24.2999 1.54131 24.2999 1.54131 24.2745C1.54131 24.2999 1.54131 24.2999 1.54131 24.2745Z" fill="#EDAD1A"/>
<path d="M1.51562 24.3006L22.8624 20.3944L1.51562 24.3006Z" fill="#EDAE1C"/>
<path d="M1.51562 24.3006L22.8624 20.3944L1.51562 24.3006Z" fill="#EEB021"/>
<path d="M1.51562 24.3006L22.8624 20.3944L1.51562 24.3006Z" fill="#EEB124"/>
<path d="M1.51562 24.3006L22.8624 20.3944L1.51562 24.3006Z" fill="#EEB226"/>
<path d="M1.5415 24.2745L22.8883 20.3937V20.3683L1.56719 24.2745H1.5415Z" fill="#837F73"/>
<path d="M1.56787 24.2745L22.9147 20.3683L1.59356 24.2745H1.56787Z" fill="#888477"/>
<path d="M1.59277 24.2745L22.9139 20.3683C22.9139 20.3683 22.9139 20.3683 22.9396 20.3683C22.9396 20.3683 22.9396 20.3683 22.9653 20.3683C22.9653 20.3683 22.9653 20.3683 22.9909 20.3683C22.9909 20.3683 22.9909 20.3683 23.0166 20.3683L1.69553 24.2745C1.69553 24.2745 1.69553 24.2745 1.66984 24.2745C1.64415 24.2745 1.66984 24.2745 1.64415 24.2745C1.61846 24.2745 1.59277 24.2745 1.59277 24.2745Z" fill="#8C897C"/>
<path d="M1.64404 24.2745L22.9651 20.3683H22.9908H23.0165H23.0422C23.0679 20.3683 23.0679 20.3683 23.0936 20.3683L1.79817 24.2999C1.77248 24.2999 1.77248 24.2999 1.7468 24.2999C1.72111 24.2999 1.72111 24.2999 1.69542 24.2999C1.66973 24.2999 1.66973 24.2999 1.66973 24.2999C1.66973 24.2745 1.66973 24.2745 1.64404 24.2745Z" fill="#918E80"/>
<path d="M1.79834 24.2999L23.1194 20.3937C23.1451 20.3937 23.1708 20.3937 23.1965 20.3937C23.2222 20.3937 23.2479 20.3937 23.2736 20.3937C23.2993 20.3937 23.3249 20.3937 23.3506 20.3937C23.3763 20.3937 23.402 20.3937 23.4277 20.3937L2.15797 24.3253C2.13228 24.3253 2.1066 24.3253 2.05522 24.2999C2.02953 24.2999 2.00384 24.2999 1.95247 24.2999C1.90109 24.2999 1.90109 24.2999 1.8754 24.2999C1.84972 24.2999 1.82403 24.2999 1.79834 24.2999Z" fill="#969284"/>
<path d="M2.1582 24.3252L23.4536 20.4189H23.4793H23.505H23.5307H23.5564L2.28664 24.3505H2.26096H2.23527H2.20958C2.18389 24.3252 2.18389 24.3252 2.1582 24.3252Z" fill="#9B9788"/>
<path d="M2.08057 28.054L23.3503 23.7673L40.6127 26.8872L20.653 31.732L2.08057 28.054Z" fill="#EFB42E"/>
<path d="M1.28418 27.42L22.6053 23.2094L40.6383 26.4561L20.6787 31.2501L1.28418 27.42Z" fill="#9D9A8B"/>
<path d="M1.28418 27.293L22.6053 23.0824L40.6383 26.3291L20.6787 31.1231L1.28418 27.293Z" fill="#817464"/>
<path d="M1.31006 26.9125L22.6312 22.7273L40.6899 25.974L20.7046 30.7173L1.31006 26.9125Z" fill="#9D998A"/>
<path d="M1.31006 26.7605L22.6312 22.6006L40.6899 25.8473L20.7302 30.5652L1.31006 26.7605Z" fill="#817463"/>
<path d="M1.33594 26.3799L22.657 22.2454L40.7158 25.4921L20.7561 30.1593L1.33594 26.3799Z" fill="#9D998A"/>
<path d="M1.33594 26.2531L22.6827 22.1439L40.7414 25.3653L20.7561 30.0325L1.33594 26.2531Z" fill="#817363"/>
<path d="M1.38721 25.8471L22.7083 21.7887L40.767 24.9847L20.8074 29.6265L1.38721 25.8471Z" fill="#9D998A"/>
<path d="M1.38721 25.7203L22.7083 21.6619L40.7927 24.8832L20.8074 29.4743L1.38721 25.7203Z" fill="#817363"/>
<path d="M1.41309 25.34L22.7342 21.3323L40.8186 24.5029L20.8333 29.0686L1.41309 25.34Z" fill="#9D998A"/>
<path d="M1.41309 25.1878L22.7599 21.2054L40.8186 24.4014L20.859 28.9418L1.41309 25.1878Z" fill="#817363"/>
<path d="M1.46436 24.8073L22.7855 20.8503L40.8699 24.021L20.8845 28.536L1.46436 24.8073Z" fill="#9C988A"/>
<path d="M1.46436 24.6803L22.8111 20.7234L40.8699 23.894L20.9102 28.409L1.46436 24.6803Z" fill="#817363"/>
<path d="M2.28613 24.3507L23.5815 20.4445L34.9614 22.4229L14.5137 26.6843L2.28613 24.3507Z" fill="#9C9889"/>
<path d="M20.6787 31.1231V31.25L1.28418 27.4198V27.3945V27.3691V27.3437V27.3184L20.6787 31.1231Z" fill="#807363"/>
<path d="M20.6787 31.1231L40.6383 26.3291V26.4559L20.6787 31.2499V31.1231Z" fill="#9C8C78"/>
<path d="M20.6533 31.7321L40.613 26.8873L40.9212 26.9381L20.9873 31.8082L20.6533 31.7321Z" fill="#EFB42E"/>
<path d="M20.7303 30.565L40.6899 25.847V25.9739L20.7046 30.7171L20.7303 30.565Z" fill="#9B8B77"/>
<path d="M20.7302 30.5651L20.7046 30.7173L1.31006 26.8872V26.7604L20.7302 30.5651Z" fill="#807363"/>
<path d="M20.7561 30.0325V30.1593L1.33594 26.3799V26.2531L20.7561 30.0325Z" fill="#807363"/>
<path d="M20.7559 30.0325L40.7412 25.3654L40.7155 25.4922L20.7559 30.1594V30.0325Z" fill="#9B8B77"/>
<path d="M20.8074 29.4742V29.6264L1.38721 25.847V25.7202L20.8074 29.4742Z" fill="#807363"/>
<path d="M20.8071 29.4745L40.7924 24.8834L40.7668 24.9849L20.8071 29.6267V29.4745Z" fill="#9C8B78"/>
<path d="M20.859 28.9417L20.8333 29.0685L1.41309 25.3398V25.1876L20.859 28.9417Z" fill="#807363"/>
<path d="M20.8587 28.9417L40.8183 24.4014V24.5028L20.833 29.0685L20.8587 28.9417Z" fill="#9B8B77"/>
<path d="M41.1779 27.978L21.2697 32.9749C21.3211 32.9495 21.3724 32.9495 21.4238 32.9242C21.4752 32.8988 21.5266 32.8734 21.5523 32.8227C21.5779 32.7973 21.6293 32.7466 21.6293 32.6959C21.655 32.6451 21.655 32.5944 21.6807 32.5437C21.6807 32.4676 21.6807 32.3915 21.6293 32.3154C21.6036 32.2393 21.5523 32.1632 21.4752 32.0871C21.4238 32.011 21.3467 31.9603 21.244 31.9096C21.1669 31.8588 21.0642 31.8335 20.9614 31.8081L40.8954 26.938C40.9981 26.9634 41.0752 26.9887 41.1522 27.0394C41.2293 27.0902 41.3064 27.1409 41.3578 27.1916C41.4091 27.2424 41.4605 27.3185 41.4862 27.3946C41.5119 27.4707 41.5376 27.5468 41.5119 27.5975C41.5119 27.6482 41.4862 27.6989 41.4862 27.7243C41.4605 27.775 41.4348 27.8004 41.4091 27.8258C41.3834 27.8511 41.3321 27.8765 41.2807 27.9019C41.2807 27.9526 41.2293 27.978 41.1779 27.978Z" fill="#EDAC17"/>
<path d="M20.9878 31.8081L40.9217 26.938L20.9878 31.8081C21.0135 31.8081 21.0135 31.8081 20.9878 31.8081Z" fill="#EDAC17"/>
<path d="M21.0127 31.8081L40.9466 26.938C40.9466 26.938 40.9466 26.938 40.9723 26.938C40.9723 26.938 40.9723 26.938 40.998 26.938C40.998 26.938 40.998 26.938 41.0237 26.938C41.0237 26.938 41.0237 26.938 41.0494 26.938L21.0641 31.8335C21.0641 31.8335 21.0641 31.8335 21.0384 31.8335C21.0384 31.8335 21.0384 31.8335 21.0127 31.8335C21.0384 31.8081 21.0127 31.8081 21.0127 31.8081Z" fill="#EDAC17"/>
<path d="M21.0643 31.8335L40.9982 26.9634C40.9982 26.9634 40.9982 26.9634 41.0239 26.9634L21.0899 31.8335C21.0899 31.8335 21.0899 31.8335 21.0643 31.8335C21.0643 31.8335 21.0643 31.8335 21.0386 31.8335C21.09 31.8335 21.0899 31.8335 21.0643 31.8335Z" fill="#EDAC17"/>
<path d="M21.1158 31.8335L41.0498 26.9634L21.1158 31.8335C21.1158 31.8335 21.1158 31.8335 21.0901 31.8335C21.0901 31.8335 21.0901 31.8335 21.0645 31.8335C21.1415 31.8588 21.1415 31.8588 21.1158 31.8335C21.1158 31.8588 21.1158 31.8335 21.1158 31.8335Z" fill="#EDAC17"/>
<path d="M21.167 31.8587L41.1009 26.9886L21.167 31.8587C21.2184 31.8841 21.1927 31.8841 21.167 31.8587C21.1927 31.8841 21.1927 31.8841 21.167 31.8587C21.1927 31.8587 21.167 31.8587 21.167 31.8587Z" fill="#EDAC17"/>
<path d="M21.2183 31.8843L41.1522 27.0142L21.2439 31.8843C21.2439 31.9096 21.2439 31.9096 21.2183 31.8843C21.2439 31.9096 21.2439 31.8843 21.2183 31.8843Z" fill="#EDAC17"/>
<path d="M21.2695 31.9096L41.1778 27.0396L21.3209 31.935C21.2952 31.935 21.2952 31.935 21.2695 31.9096C21.2952 31.935 21.2952 31.935 21.2695 31.9096Z" fill="#EDAC17"/>
<path d="M21.3213 31.9349L41.2295 27.0648L21.3727 31.9603C21.347 31.9603 21.347 31.9603 21.3213 31.9349C21.347 31.9603 21.347 31.9603 21.3213 31.9349Z" fill="#EDAC17"/>
<path d="M21.3726 31.9603L41.2808 27.0902L21.3726 31.9857C21.3982 31.9857 21.3982 31.9857 21.3726 31.9603C21.3726 31.9857 21.3726 31.9857 21.3726 31.9603C21.3726 31.9857 21.3726 31.9857 21.3726 31.9603Z" fill="#EDAC17"/>
<path d="M21.3984 32.0108L41.3067 27.1154L21.3984 32.0108C21.4241 32.0362 21.4498 32.0362 21.3984 32.0108C21.4241 32.0108 21.4241 32.0108 21.3984 32.0108C21.4241 32.0108 21.4241 32.0108 21.3984 32.0108Z" fill="#EDAC17"/>
<path d="M21.4497 32.0366L41.358 27.1411L21.4497 32.0366C21.4754 32.0619 21.4754 32.0619 21.4497 32.0366C21.4754 32.0619 21.4754 32.0619 21.4497 32.0366C21.4497 32.0619 21.4497 32.0366 21.4497 32.0366Z" fill="#EDAC17"/>
<path d="M21.501 32.0871L41.4092 27.1917L21.501 32.0871C21.501 32.0871 21.501 32.0871 21.501 32.0618C21.501 32.0618 21.501 32.0618 21.501 32.0364C21.5267 32.1125 21.501 32.1125 21.501 32.0871Z" fill="#EDAC17"/>
<path d="M21.5522 32.1378L41.4605 27.2423C41.4605 27.2423 41.4605 27.2677 41.4862 27.2677C41.4862 27.2677 41.4862 27.293 41.5119 27.293C41.5119 27.293 41.5119 27.3184 41.5376 27.3184C41.5376 27.3184 41.5376 27.3438 41.5633 27.3438L21.6807 32.2646C21.6807 32.2646 21.6807 32.2392 21.655 32.2392C21.655 32.2392 21.655 32.2139 21.6293 32.2139C21.5779 32.1885 21.5779 32.1631 21.5522 32.1378C21.5522 32.1631 21.5522 32.1378 21.5522 32.1378Z" fill="#EDAC17"/>
<path d="M21.6035 32.2393L41.4861 27.3185C41.4861 27.3185 41.4861 27.3185 41.4861 27.3438C41.4861 27.3438 41.4861 27.3438 41.4861 27.3692C41.4861 27.3692 41.4861 27.3692 41.4861 27.3946C41.4861 27.4199 41.4861 27.3946 41.4861 27.4199L21.6035 32.3408C21.6035 32.3408 21.6035 32.3408 21.6035 32.3154C21.6035 32.3154 21.6035 32.3154 21.6035 32.29C21.6292 32.2647 21.6292 32.2647 21.6035 32.2393Z" fill="#EDAC17"/>
<path d="M21.6294 32.3155L41.512 27.3947C41.512 27.3947 41.512 27.3947 41.512 27.42C41.512 27.42 41.512 27.42 41.512 27.4454C41.512 27.4454 41.512 27.4454 41.512 27.4707C41.512 27.4707 41.512 27.4707 41.512 27.4961L21.6294 32.4169C21.6294 32.4169 21.6294 32.4169 21.6294 32.3916C21.6294 32.3916 21.6294 32.3916 21.6294 32.3662C21.6551 32.3408 21.6551 32.3408 21.6294 32.3155C21.6551 32.3155 21.6551 32.3155 21.6294 32.3155Z" fill="#EDAC17"/>
<path d="M21.6553 32.3915L41.5378 27.4707L21.6553 32.4169C21.681 32.4169 21.681 32.4169 21.6553 32.3915C21.681 32.3915 21.681 32.3915 21.6553 32.3915C21.681 32.3915 21.6553 32.3915 21.6553 32.3915Z" fill="#EDAC17"/>
<path d="M21.6807 32.4169L41.5632 27.4707L21.6807 32.4676C21.6807 32.4676 21.6807 32.4423 21.6807 32.4169C21.6807 32.4423 21.6807 32.4423 21.6807 32.4169C21.6807 32.4423 21.6807 32.4423 21.6807 32.4169C21.6807 32.4423 21.6807 32.4169 21.6807 32.4169Z" fill="#EDAC17"/>
<path d="M21.6807 32.4677L41.5632 27.5215L21.6807 32.4677C21.6807 32.493 21.6807 32.493 21.6807 32.4677Z" fill="#EDAC17"/>
<path d="M21.6807 32.4931L41.5632 27.5469L21.6807 32.4931C21.6807 32.5184 21.6807 32.5184 21.6807 32.4931Z" fill="#EDAC17"/>
<path d="M21.6807 32.5182L41.5632 27.572L21.6807 32.5182C21.6807 32.5436 21.6807 32.5436 21.6807 32.5182Z" fill="#EDAC17"/>
<path d="M21.6807 32.5436L41.5632 27.5974V27.6228L21.6807 32.569V32.5436Z" fill="#EDAC17"/>
<path d="M21.6807 32.5689L41.5632 27.6227L21.6807 32.5689Z" fill="#EDAC17"/>
<path d="M21.6807 32.5689L41.5632 27.6227L21.6807 32.5689C21.6807 32.5942 21.6807 32.5942 21.6807 32.5689C21.6807 32.5942 21.6807 32.5942 21.6807 32.5689C21.6807 32.5942 21.6807 32.5942 21.6807 32.5689C21.6807 32.5942 21.6807 32.5942 21.6807 32.5689Z" fill="#EDAC17"/>
<path d="M21.6807 32.5945L41.5632 27.6483L21.6807 32.5945C21.6807 32.6199 21.6807 32.6199 21.6807 32.5945C21.6807 32.6199 21.6807 32.6199 21.6807 32.5945C21.6807 32.6199 21.6807 32.6199 21.6807 32.5945Z" fill="#EDAC17"/>
<path d="M21.6553 32.6198L41.5378 27.6736L21.6553 32.6198C21.6553 32.6451 21.6553 32.6451 21.6553 32.6198C21.6553 32.6451 21.6553 32.6451 21.6553 32.6198Z" fill="#EDAC17"/>
<path d="M21.6553 32.6452L41.5378 27.699L21.6553 32.6452C21.6553 32.6705 21.6553 32.6705 21.6553 32.6452C21.6553 32.6705 21.6553 32.6452 21.6553 32.6452Z" fill="#EDAC17"/>
<path d="M21.6553 32.6705L41.5378 27.699L21.6553 32.6705C21.6553 32.6959 21.6553 32.6705 21.6553 32.6705Z" fill="#EDAC17"/>
<path d="M21.655 32.6958L41.5376 27.7242L21.655 32.6958C21.6293 32.6958 21.6293 32.6958 21.655 32.6958C21.6293 32.6958 21.6293 32.6958 21.655 32.6958C21.6293 32.6958 21.6293 32.6958 21.655 32.6958Z" fill="#EDAC17"/>
<path d="M21.6294 32.7212L41.512 27.7496L21.6294 32.7212Z" fill="#EDAC17"/>
<path d="M21.6296 32.7212L41.5122 27.7496L21.6296 32.7212C21.6039 32.7466 21.6039 32.7466 21.6296 32.7212C21.6039 32.7466 21.6039 32.7466 21.6296 32.7212C21.6039 32.7466 21.6039 32.7466 21.6296 32.7212C21.6296 32.7466 21.6296 32.7466 21.6296 32.7212Z" fill="#EDAC17"/>
<path d="M21.6038 32.772L41.4864 27.8004L21.5781 32.7973C21.5781 32.7973 21.5781 32.7973 21.6038 32.772C21.5781 32.772 21.6038 32.772 21.6038 32.772Z" fill="#EDAC17"/>
<path d="M21.5779 32.7974L41.4604 27.8258L21.5779 32.7974C21.5522 32.8227 21.5522 32.8227 21.5779 32.7974Z" fill="#EDAC17"/>
<path d="M21.5521 32.8226L41.4347 27.8511C41.409 27.8764 41.409 27.8764 41.3833 27.9018C41.3576 27.9272 41.3319 27.9272 41.3319 27.9525C41.3062 27.9525 41.2805 27.9779 41.2548 27.9779C41.2292 27.9779 41.2035 28.0033 41.1778 28.0033L21.2695 32.9748C21.2952 32.9748 21.3209 32.9495 21.3466 32.9495C21.3723 32.9495 21.398 32.9241 21.4237 32.9241C21.4493 32.8987 21.475 32.8987 21.5007 32.8734C21.5007 32.8734 21.5264 32.848 21.5521 32.8226Z" fill="#EDAC17"/>
<path d="M20.91 28.409L40.8696 23.894V24.0209L20.8843 28.5359L20.91 28.409Z" fill="#9B8B77"/>
<path d="M20.9102 28.409V28.5358L1.46436 24.8071V24.7818V24.7564V24.7311V24.7057L20.9102 28.409Z" fill="#807363"/>
<path d="M20.9616 27.9018L40.9469 23.4629L40.6129 26.8872L20.6533 31.7319L20.9616 27.9018Z" fill="#F2F2E8"/>
<path d="M20.9612 27.9017L20.653 31.7318L2.08051 28.0539H2.05482H2.02913H2.00345H1.97776C1.90069 28.0285 1.82363 28.0285 1.74657 28.0032C1.6695 27.9778 1.59244 27.9778 1.54106 27.9524C1.48968 27.9271 1.43831 27.9271 1.38693 27.9017C1.36124 27.9017 1.33556 27.8764 1.30987 27.8764C1.30987 27.8764 1.30987 27.851 1.28418 27.8256C1.28418 27.8003 1.28418 27.7749 1.28418 27.7242C1.28418 27.6734 1.28418 27.6481 1.28418 27.5973C1.28418 27.5466 1.28418 27.4959 1.28418 27.4198L20.6787 31.2499V31.1231L1.28418 27.293C1.28418 27.2676 1.28418 27.2422 1.28418 27.1915C1.28418 27.1661 1.28418 27.1154 1.28418 27.09C1.28418 27.0647 1.28418 27.0139 1.28418 26.9886C1.28418 26.9632 1.28418 26.9125 1.28418 26.8871L20.7044 30.6919V30.5651L1.28418 26.7603L1.30987 26.3798L20.7301 30.1592V30.0324L1.33556 26.253L1.36124 25.8725L20.8071 29.6265V29.4997L1.38693 25.7203L1.41262 25.3398L20.8585 29.0939V28.9671L1.41262 25.1877C1.41262 25.1623 1.41262 25.1116 1.41262 25.0862C1.41262 25.0608 1.41262 25.0101 1.41262 24.9847C1.41262 24.9594 1.41262 24.9086 1.41262 24.8833C1.41262 24.8579 1.41262 24.8325 1.41262 24.7818L20.8585 28.5105V28.3837L1.464 24.6804C1.464 24.6296 1.464 24.5789 1.48968 24.5282C1.48968 24.4774 1.48968 24.4521 1.51537 24.4013C1.51537 24.376 1.51537 24.3506 1.54106 24.3252C1.54106 24.2999 1.54106 24.2999 1.54106 24.2745C1.54106 24.2745 1.56675 24.2491 1.61812 24.2491C1.6695 24.2491 1.72088 24.2491 1.79794 24.2491C1.87501 24.2491 1.95207 24.2745 2.02913 24.2745C2.1062 24.2745 2.20895 24.2999 2.3117 24.3252L14.5392 26.6588L20.9612 27.9017Z" fill="#DCD2B7"/>
<path d="M14.5137 26.6842L34.9614 22.4229L40.9467 23.4628L20.9614 27.9017L14.5137 26.6842Z" fill="#9C9889"/>
<path d="M1.05322 22.9556L22.4257 19.2015L41.3321 22.4736L21.3982 26.7857L1.05322 22.9556Z" fill="#EBA400"/>
<path d="M41.5634 23.5145L21.6294 27.9787C21.6808 27.9534 21.7579 27.9534 21.8093 27.928C21.8606 27.9026 21.912 27.8773 21.9377 27.8266C21.9891 27.7758 22.0148 27.7505 22.0404 27.6997C22.0661 27.649 22.0661 27.5983 22.0918 27.5475C22.0918 27.4714 22.0918 27.3953 22.0404 27.3192C22.0148 27.2432 21.9634 27.1671 21.8863 27.091C21.8349 27.0149 21.7579 26.9641 21.6551 26.9134C21.5781 26.8627 21.4753 26.8373 21.3726 26.8119L41.3322 22.4999C41.4349 22.5252 41.512 22.5506 41.5891 22.6013C41.6661 22.6521 41.7432 22.7028 41.7946 22.7535C41.8459 22.8043 41.8973 22.8804 41.923 22.9565C41.9487 23.0325 41.9744 23.1086 41.9487 23.1594C41.9487 23.2101 41.923 23.2608 41.8973 23.3116C41.8716 23.3623 41.8459 23.3877 41.8203 23.4384C41.7946 23.4638 41.7432 23.5145 41.6918 23.5145C41.6918 23.4891 41.6404 23.5145 41.5634 23.5145Z" fill="#EDAC17"/>
<path d="M21.3989 26.7858L41.3586 22.4738L21.3989 26.7858C21.4246 26.7858 21.4246 26.7858 21.3989 26.7858C21.4246 26.7858 21.3989 26.7858 21.3989 26.7858Z" fill="#EDAC17"/>
<path d="M21.4238 26.7858L41.3835 22.4738C41.3835 22.4738 41.3835 22.4738 41.4092 22.4738C41.4092 22.4738 41.4092 22.4738 41.4348 22.4738C41.4348 22.4738 41.4348 22.4738 41.4605 22.4738C41.4605 22.4738 41.4605 22.4738 41.4862 22.4738L21.5523 26.8112C21.5523 26.8112 21.5523 26.8112 21.5266 26.8112C21.5266 26.8112 21.5266 26.8112 21.5009 26.8112C21.4495 26.8112 21.4495 26.8112 21.4238 26.7858Z" fill="#EDAC17"/>
<path d="M21.4756 26.8112L41.4095 22.4738C41.4095 22.4738 41.4095 22.4738 41.4352 22.4738C41.4352 22.4738 41.4352 22.4738 41.4609 22.4738L21.527 26.8112C21.527 26.8112 21.527 26.8112 21.5013 26.8112C21.5013 26.8112 21.5013 26.8112 21.4756 26.8112C21.5013 26.8112 21.5013 26.8112 21.4756 26.8112Z" fill="#EDAC17"/>
<path d="M21.5269 26.8366L41.4608 22.4991L21.5782 26.8366C21.5782 26.8366 21.5782 26.8366 21.5525 26.8366C21.5525 26.8366 21.5525 26.8366 21.5269 26.8366C21.5525 26.8366 21.5525 26.8366 21.5269 26.8366C21.5525 26.8366 21.5269 26.8366 21.5269 26.8366Z" fill="#EDAC17"/>
<path d="M21.5781 26.8366L41.5121 22.4991L21.5781 26.8366C21.6038 26.8619 21.6038 26.8619 21.5781 26.8366C21.6038 26.8619 21.6038 26.8619 21.5781 26.8366Z" fill="#EDAC17"/>
<path d="M21.6294 26.8618L41.5633 22.5244L21.6808 26.8872C21.6808 26.8872 21.6551 26.8872 21.6294 26.8618C21.6551 26.8872 21.6551 26.8872 21.6294 26.8618C21.6551 26.8618 21.6294 26.8618 21.6294 26.8618Z" fill="#EDAC17"/>
<path d="M21.6807 26.8874L41.6146 22.5499L21.6807 26.8874C21.7064 26.9127 21.7064 26.9127 21.6807 26.8874C21.7064 26.9127 21.7064 26.9127 21.6807 26.8874C21.7064 26.8874 21.6807 26.8874 21.6807 26.8874Z" fill="#EDAC17"/>
<path d="M21.7324 26.9127L41.6664 22.5753L21.7581 26.9127C21.7581 26.9381 21.7581 26.9381 21.7324 26.9127C21.7581 26.9381 21.7581 26.9381 21.7324 26.9127C21.7324 26.9381 21.7324 26.9127 21.7324 26.9127Z" fill="#EDAC17"/>
<path d="M21.7837 26.9634L41.6919 22.626L21.8351 26.9888C21.8351 26.9888 21.8094 26.9634 21.7837 26.9634C21.8094 26.9634 21.7837 26.9634 21.7837 26.9634Z" fill="#EDAC17"/>
<path d="M21.835 26.9886L41.7432 22.6511L21.835 27.0139C21.8606 27.0139 21.8606 27.0139 21.835 26.9886Z" fill="#EDAC17"/>
<path d="M21.8608 27.0139L41.7691 22.6511L21.8608 27.0139C21.8865 27.0393 21.8865 27.0393 21.8608 27.0139C21.8865 27.0393 21.8865 27.0393 21.8608 27.0139C21.8865 27.0393 21.8608 27.0393 21.8608 27.0139Z" fill="#EDAC17"/>
<path d="M21.9121 27.0648L41.8204 22.702L21.9121 27.0648C21.9121 27.0648 21.9121 27.0648 21.9121 27.0395C21.9121 27.0141 21.9121 27.0395 21.9121 27.0141C21.9378 27.0902 21.9378 27.0902 21.9121 27.0648Z" fill="#EDAC17"/>
<path d="M21.9634 27.1155L41.8716 22.7527C41.8716 22.7527 41.8716 22.7781 41.8973 22.7781C41.8973 22.7781 41.8973 22.8034 41.923 22.8034C41.923 22.8034 41.923 22.8288 41.9487 22.8288C41.9487 22.8288 41.9487 22.8541 41.9744 22.8541L22.0661 27.2169C22.0661 27.2169 22.0661 27.1916 22.0404 27.1916C22.0148 27.1916 22.0404 27.1662 22.0148 27.1662C21.9891 27.1662 21.9891 27.1409 21.9634 27.1155C21.9634 27.1409 21.9634 27.1155 21.9634 27.1155Z" fill="#EDAC17"/>
<path d="M22.0146 27.217L41.9229 22.8289C41.9229 22.8289 41.9229 22.8289 41.9229 22.8542C41.9229 22.8542 41.9229 22.8542 41.9229 22.8796C41.9229 22.8796 41.9229 22.8796 41.9229 22.905C41.9229 22.905 41.9229 22.905 41.9229 22.9303L22.0146 27.3185C22.0146 27.3185 22.0146 27.3185 22.0146 27.2931C22.0146 27.2931 22.0146 27.2931 22.0146 27.2678C22.0403 27.2424 22.0403 27.2424 22.0146 27.217C22.0403 27.217 22.0146 27.217 22.0146 27.217Z" fill="#EDAC17"/>
<path d="M22.0664 27.2931L41.9747 22.9049C41.9747 22.9049 41.9747 22.9049 41.9747 22.9303C41.9747 22.9303 41.9747 22.9303 41.9747 22.9556C41.9747 22.9556 41.9747 22.9556 41.9747 22.981C41.9747 22.981 41.9747 22.981 41.9747 23.0064L22.0921 27.3692C22.0921 27.3692 22.0921 27.3692 22.0921 27.3438C22.0921 27.3438 22.0921 27.3438 22.0921 27.3184C22.0664 27.3184 22.0664 27.3184 22.0664 27.2931Z" fill="#EDAC17"/>
<path d="M22.0918 27.3692L41.9744 22.9811L22.0918 27.3946C22.0918 27.3946 22.0918 27.3946 22.0918 27.3692Z" fill="#EDAC17"/>
<path d="M22.0918 27.3946L41.9744 23.0065L22.0918 27.4454C22.0918 27.42 22.0918 27.42 22.0918 27.3946C22.0918 27.42 22.0918 27.42 22.0918 27.3946C22.0918 27.42 22.0918 27.3946 22.0918 27.3946Z" fill="#EDAC17"/>
<path d="M22.0918 27.4454L41.9744 23.0573L22.0918 27.4708C22.0918 27.4708 22.0918 27.4708 22.0918 27.4454Z" fill="#EDAC17"/>
<path d="M22.0918 27.4708L41.9744 23.0573L22.0918 27.4961C22.0918 27.4961 22.0918 27.4961 22.0918 27.4708C22.0918 27.4961 22.0918 27.4708 22.0918 27.4708Z" fill="#EDAC17"/>
<path d="M22.0918 27.4962L42.0001 23.0826L22.0918 27.4962C22.0918 27.5215 22.0918 27.5215 22.0918 27.4962Z" fill="#EDAC17"/>
<path d="M22.0918 27.5213L42.0001 23.1078V23.1332L22.0918 27.5467V27.5213Z" fill="#EDAC17"/>
<path d="M22.0918 27.5467L41.9744 23.1332L22.0918 27.5467C22.0918 27.5721 22.0918 27.5467 22.0918 27.5467Z" fill="#EDAC17"/>
<path d="M22.0918 27.572L41.9744 23.1584L22.0918 27.572Z" fill="#EDAC17"/>
<path d="M22.0918 27.572L41.9744 23.1584L22.0918 27.572C22.0918 27.5973 22.0918 27.5973 22.0918 27.572C22.0918 27.5973 22.0918 27.5973 22.0918 27.572C22.0918 27.5973 22.0918 27.5973 22.0918 27.572C22.0918 27.5973 22.0918 27.572 22.0918 27.572Z" fill="#EDAC17"/>
<path d="M22.092 27.5976L41.9746 23.1841L22.092 27.5976C22.0663 27.623 22.0663 27.623 22.092 27.5976C22.092 27.623 22.092 27.623 22.092 27.5976C22.092 27.623 22.092 27.623 22.092 27.5976Z" fill="#EDAC17"/>
<path d="M22.0664 27.6229L41.949 23.2094L22.0664 27.6229C22.0664 27.6482 22.0664 27.6482 22.0664 27.6229C22.0664 27.6482 22.0664 27.6482 22.0664 27.6229Z" fill="#EDAC17"/>
<path d="M22.0664 27.6483L41.949 23.2347L22.0664 27.6483C22.0664 27.6736 22.0664 27.6736 22.0664 27.6483Z" fill="#EDAC17"/>
<path d="M22.0661 27.6735L41.9487 23.26L22.0661 27.6735C22.0405 27.6989 22.0405 27.6989 22.0661 27.6735Z" fill="#EDAC17"/>
<path d="M22.0405 27.6989L41.9231 23.26L22.0405 27.6989C22.0405 27.7243 22.0405 27.6989 22.0405 27.6989Z" fill="#EDAC17"/>
<path d="M22.0408 27.7243L41.949 23.2854L22.0408 27.7243C22.0151 27.7497 22.0151 27.7497 22.0408 27.7243C22.0151 27.7243 22.0151 27.7243 22.0408 27.7243Z" fill="#EDAC17"/>
<path d="M22.0149 27.7498L41.9231 23.3109L22.0149 27.7498C21.9892 27.7752 21.9892 27.7752 22.0149 27.7498C22.0149 27.7752 22.0149 27.7498 22.0149 27.7498Z" fill="#EDAC17"/>
<path d="M21.989 27.7751L41.8972 23.3362L21.989 27.7751C21.9633 27.8004 21.989 27.8004 21.989 27.7751C21.989 27.8004 21.989 27.7751 21.989 27.7751Z" fill="#EDAC17"/>
<path d="M21.9635 27.8005L41.8718 23.3616C41.8461 23.3869 41.8461 23.3869 41.8204 23.4123C41.7947 23.4377 41.769 23.4377 41.7433 23.463C41.7177 23.463 41.692 23.4884 41.6663 23.4884C41.6406 23.4884 41.6149 23.5138 41.5892 23.5138L21.6553 27.978C21.681 27.978 21.7066 27.9527 21.7323 27.9527C21.758 27.9527 21.7837 27.9273 21.8094 27.9273C21.8351 27.9019 21.8608 27.9019 21.8865 27.8766C21.9122 27.8512 21.9378 27.8258 21.9635 27.8005Z" fill="#EDAC17"/>
<path d="M21.3982 26.7858C21.5009 26.8112 21.6037 26.8366 21.6807 26.8873C21.7578 26.938 21.8349 26.9888 21.9119 27.0649C21.9633 27.141 22.0147 27.2171 22.0661 27.2931C22.0917 27.3692 22.1174 27.4453 22.1174 27.5214C22.1174 27.5975 22.0917 27.6736 22.0404 27.7497C21.989 27.8258 21.9376 27.8765 21.8605 27.9019C21.7835 27.9526 21.7064 27.978 21.6037 27.978C21.5009 28.0034 21.4239 27.978 21.3211 27.978L20.9872 27.9019L14.5394 26.6844L2.3633 24.3762C2.3633 24.3762 2.3633 24.3762 2.33761 24.3762C2.33761 24.3762 2.33761 24.3762 2.31193 24.3762C2.31193 24.3762 2.31193 24.3762 2.28624 24.3762C2.28624 24.3762 2.28624 24.3762 2.26055 24.3762C2.1578 24.3508 2.08073 24.3508 1.97798 24.3254C1.90092 24.3254 1.79817 24.3001 1.74679 24.3001C1.66972 24.3001 1.61835 24.3001 1.56697 24.3001C1.5156 24.3001 1.48991 24.3001 1.48991 24.3254C1.48991 24.3254 1.48991 24.3508 1.48991 24.3762C1.48991 24.4015 1.48991 24.4269 1.46422 24.4523C1.46422 24.4776 1.46422 24.5284 1.43853 24.5791C1.43853 24.6298 1.43853 24.6805 1.41284 24.7313V24.7566V24.782V24.8074V24.8327C1.41284 24.8581 1.41284 24.8835 1.41284 24.9342C1.41284 24.9596 1.41284 25.0103 1.41284 25.0357C1.41284 25.061 1.41284 25.1117 1.41284 25.1371C1.41284 25.1625 1.41284 25.2132 1.41284 25.2386V25.3654L1.38716 25.7459V25.8727L1.36147 26.2532V26.38L1.33578 26.7605V26.8873C1.33578 26.9127 1.33578 26.9634 1.33578 26.9888C1.33578 27.0141 1.33578 27.0649 1.33578 27.0902C1.33578 27.1156 1.33578 27.1663 1.33578 27.1917C1.33578 27.2171 1.33578 27.2678 1.33578 27.2931V27.3185V27.3439V27.3692V27.3946C1.33578 27.4453 1.33578 27.5214 1.33578 27.5722C1.33578 27.6229 1.33578 27.6736 1.33578 27.699C1.33578 27.7497 1.33578 27.7751 1.33578 27.8004C1.33578 27.8258 1.33578 27.8512 1.36147 27.8512C1.36147 27.8512 1.38716 27.8765 1.43853 27.8765C1.46422 27.8765 1.5156 27.9019 1.59266 27.9273C1.64404 27.9526 1.7211 27.9526 1.79817 27.978C1.87523 28.0034 1.95229 28.0034 2.02936 28.0287H2.05505H2.08073H2.10642H2.13211L20.6789 31.7067L21.0128 31.7828C21.1156 31.8081 21.2183 31.8335 21.2954 31.8842C21.3725 31.935 21.4495 31.9857 21.5266 32.0618C21.578 32.1379 21.6294 32.214 21.6807 32.2901C21.7064 32.3662 21.7321 32.4423 21.7321 32.5184C21.7321 32.5945 21.7064 32.6706 21.655 32.7466C21.6037 32.7974 21.5523 32.8735 21.4752 32.8988C21.3982 32.9496 21.3211 32.9749 21.2183 32.9749C21.1156 32.9749 21.0385 32.9749 20.9358 32.9749L0.642202 28.9165C0.53945 28.8911 0.462385 28.8658 0.385321 28.7897C0.308257 28.739 0.231193 28.6629 0.179817 28.5614C0.12844 28.4853 0.0770642 28.3838 0.0513761 28.2824C0 28.1809 0 28.0795 0 27.978L0.308257 23.6659C0.308257 23.5645 0.333945 23.4377 0.385321 23.3616C0.436697 23.2601 0.488073 23.184 0.53945 23.1333C0.616514 23.0825 0.693578 23.0318 0.770642 23.0064C0.847706 22.9811 0.950459 22.9811 1.05321 22.9811L21.3982 26.7858Z" fill="#EDAC17"/>
<path d="M1.28418 21.1801L22.6053 16.9695L1.28418 21.2055V21.1801Z" fill="#426F92"/>
<path d="M1.28418 21.2055L22.6053 16.9695C22.6053 16.9948 22.6053 16.9948 22.6053 17.0202C22.6053 17.0456 22.6053 17.0456 22.6053 17.0709C22.6053 17.0963 22.6053 17.0963 22.6053 17.1217C22.6053 17.147 22.6053 17.147 22.6053 17.1724L1.28418 21.4337C1.28418 21.4084 1.28418 21.4084 1.28418 21.383C1.28418 21.3576 1.28418 21.3576 1.28418 21.3323C1.28418 21.3069 1.28418 21.2816 1.28418 21.2816C1.28418 21.2308 1.28418 21.2308 1.28418 21.2055Z" fill="#437296"/>
<path d="M1.28418 21.4338L22.6053 17.1725V17.1979V17.2232V17.2486V17.2739L1.28418 21.5353V21.5099V21.4846V21.4592C1.28418 21.4338 1.28418 21.4338 1.28418 21.4338Z" fill="#457499"/>
<path d="M1.28418 21.5351L22.6053 17.2738L1.28418 21.5351Z" fill="#47779D"/>
<path d="M1.31006 21.5859L22.6312 17.3246L1.31006 21.5859C1.31006 21.5859 1.31006 21.5859 1.31006 21.5859Z" fill="#487AA1"/>
<path d="M1.31006 21.6113L22.6312 17.35L1.31006 21.6113Z" fill="#4A7DA5"/>
<path d="M1.31006 21.6113L22.6312 17.35L1.31006 21.6113Z" fill="#4C80A8"/>
<path d="M1.31006 21.6113L22.6312 17.35L1.31006 21.6367V21.6113Z" fill="#4A7DA5"/>
<path d="M1.31006 21.6367L22.6312 17.35L1.31006 21.6367Z" fill="#487AA1"/>
<path d="M1.31006 21.6367L22.6312 17.35L1.31006 21.6367Z" fill="#47779D"/>
<path d="M1.31006 21.6367L22.6312 17.35L1.31006 21.6367Z" fill="#457499"/>
<path d="M1.31006 21.6367L22.6312 17.35L1.31006 21.6367Z" fill="#437296"/>
<path d="M1.31006 21.6367L22.6312 17.35L1.31006 21.6367Z" fill="#426F92"/>
<path d="M1.30987 20.6727L22.631 16.4874V16.5128V16.5382V16.5635V16.5889L1.28418 20.8249C1.28418 20.7995 1.28418 20.7995 1.28418 20.7741C1.28418 20.7488 1.28418 20.7488 1.28418 20.7234C1.28418 20.698 1.28418 20.698 1.28418 20.6727C1.30987 20.698 1.30987 20.6727 1.30987 20.6727Z" fill="#406C8E"/>
<path d="M1.28418 20.8249L22.6053 16.6396C22.6053 16.665 22.6053 16.665 22.6053 16.6904C22.6053 16.7157 22.6053 16.7157 22.6053 16.7411C22.6053 16.7665 22.6053 16.7665 22.6053 16.7918C22.6053 16.8172 22.6053 16.8172 22.6053 16.8426V16.8679V16.8933V16.9187V16.944L1.28418 21.18V21.1546V21.1293V21.1039V21.0785C1.28418 21.0532 1.28418 21.0278 1.28418 21.0278C1.28418 21.0024 1.28418 20.9771 1.28418 20.9771C1.28418 20.9517 1.28418 20.9264 1.28418 20.9264C1.28418 20.8503 1.28418 20.8249 1.28418 20.8249Z" fill="#426F92"/>
<path d="M1.30987 20.6727L22.631 16.4874V16.5128V16.5382V16.5635V16.5889L1.28418 20.8249C1.28418 20.7995 1.28418 20.7995 1.28418 20.7741C1.28418 20.7488 1.28418 20.7488 1.28418 20.7234C1.28418 20.698 1.28418 20.698 1.28418 20.6727C1.30987 20.698 1.30987 20.6727 1.30987 20.6727Z" fill="#406C8E"/>
<path d="M1.31006 20.5206L22.6312 16.3607V16.4875L1.31006 20.6728V20.5206Z" fill="#447397"/>
<path d="M1.33575 20.1399L22.6568 16.0308L22.6312 16.3605L1.31006 20.5204L1.33575 20.1399Z" fill="#447397"/>
<path d="M1.33594 20.0132L22.6827 15.9041L22.657 16.0309L1.33594 20.14V20.0132Z" fill="#447397"/>
<path d="M1.38731 19.6072L22.7084 15.5488L22.6827 15.9039L1.33594 20.0131L1.38731 19.6072Z" fill="#447397"/>
<path d="M1.38721 19.4804L22.7083 15.422V15.5488L1.38721 19.6072V19.4804Z" fill="#447397"/>
<path d="M1.4129 19.1001L22.734 15.0924L22.7083 15.4222L1.38721 19.4806L1.4129 19.1001Z" fill="#447397"/>
<path d="M1.41309 18.9479L22.7599 14.9656L22.7342 15.0924L1.41309 19.1001V18.9479Z" fill="#447397"/>
<path d="M1.31006 21.6367L22.6312 17.35L1.31006 21.6367Z" fill="#426F92"/>
<path d="M1.31006 21.6367L22.6312 17.35L1.31006 21.6367Z" fill="#406C8E"/>
<path d="M1.31006 21.6367L22.6312 17.35H22.6568L1.33575 21.6367H1.31006Z" fill="#3E698A"/>
<path d="M1.33643 21.6367L22.6575 17.35V17.3753L1.33643 21.6367Z" fill="#3C6687"/>
<path d="M1.33643 21.6367L22.6575 17.35L1.33643 21.6367C1.36211 21.6367 1.36211 21.6367 1.33643 21.6367C1.36211 21.6367 1.33643 21.6367 1.33643 21.6367Z" fill="#3B6383"/>
<path d="M1.36133 21.6367L22.6824 17.35C22.6824 17.35 22.6824 17.35 22.7081 17.35C22.7081 17.35 22.7081 17.35 22.7338 17.35C22.7338 17.35 22.7338 17.35 22.7595 17.35L1.43839 21.6367C1.43839 21.6367 1.43839 21.6367 1.4127 21.6367C1.4127 21.6367 1.4127 21.6367 1.38702 21.6367C1.38702 21.662 1.38702 21.662 1.36133 21.6367C1.36133 21.662 1.36133 21.662 1.36133 21.6367Z" fill="#39617F"/>
<path d="M1.4126 21.6619L22.7337 17.3752C22.7594 17.3752 22.7594 17.3752 22.7851 17.4006C22.8108 17.4006 22.8365 17.4006 22.8621 17.426C22.8878 17.426 22.9135 17.426 22.9392 17.4513C22.9649 17.4513 22.9906 17.4513 23.0163 17.4767L1.72085 21.738C1.69517 21.738 1.66948 21.7127 1.64379 21.7127C1.6181 21.7127 1.59241 21.6873 1.56673 21.6873C1.54104 21.6873 1.51535 21.6873 1.48966 21.6619C1.46397 21.6873 1.43829 21.6873 1.4126 21.6619Z" fill="#375E7B"/>
<path d="M1.72119 21.7382L23.0166 17.4515C23.0423 17.4515 23.068 17.4515 23.068 17.4515C23.0937 17.4515 23.1194 17.4515 23.1194 17.4515C23.145 17.4515 23.1707 17.4515 23.1707 17.4515C23.1964 17.4515 23.2221 17.4515 23.2478 17.4515H23.2735H23.2992H23.3249H23.3505L2.08082 21.8143H2.05514H2.02945H2.00376H1.97807C1.95238 21.8143 1.9267 21.8143 1.90101 21.789C1.87532 21.789 1.84963 21.789 1.82394 21.7636C1.79826 21.7636 1.77257 21.7636 1.74688 21.7382C1.74688 21.7636 1.74688 21.7382 1.72119 21.7382Z" fill="#365B78"/>
<path d="M0.847656 16.7157L22.2458 12.9617C22.2715 12.9617 22.2715 12.9617 22.2972 12.9617C22.3229 12.9617 22.3229 12.9617 22.3486 12.9617C22.3743 12.9617 22.3743 12.9617 22.3999 12.9617C22.4256 12.9617 22.4256 12.9617 22.4513 12.9617L1.05316 16.7157C1.02747 16.7157 1.02747 16.7157 1.00178 16.7157C0.976097 16.7157 0.976097 16.7157 0.950409 16.7157C0.92472 16.7157 0.92472 16.7157 0.899032 16.7157C0.873344 16.7157 0.847656 16.7157 0.847656 16.7157Z" fill="#DE3F18"/>
<path d="M0.847656 16.7157L22.2458 12.9617L0.847656 16.7157Z" fill="#DE3F18"/>
<path d="M0.847656 16.7157L22.2458 12.9617L0.899032 16.7157C0.899032 16.7157 0.899032 16.7157 0.873344 16.7157C0.873344 16.7157 0.873344 16.7157 0.847656 16.7157C0.873344 16.7157 0.873344 16.7157 0.847656 16.7157Z" fill="#DE3F18"/>
<path d="M0.898926 16.7157L22.2971 12.9617L0.950302 16.7157C0.924614 16.7157 0.924614 16.7157 0.898926 16.7157C0.924614 16.7157 0.924614 16.7157 0.898926 16.7157Z" fill="#DE3F18"/>
<path d="M0.950195 16.7157L22.3484 12.9617L0.975883 16.7157C0.975883 16.7157 0.975883 16.7157 0.950195 16.7157Z" fill="#DE3F18"/>
<path d="M0.976074 16.7157L22.3485 12.9617L1.02745 16.7157C1.00176 16.7157 1.00176 16.7157 0.976074 16.7157C1.00176 16.7157 1.00176 16.7157 0.976074 16.7157C1.00176 16.7157 1.00176 16.7157 0.976074 16.7157Z" fill="#DE3F18"/>
<path d="M1.02734 16.7157L22.3998 12.9617L1.02734 16.7157C1.05303 16.7157 1.05303 16.7157 1.02734 16.7157Z" fill="#DE3F18"/>
<path d="M1.46446 18.5674L22.8112 14.6105C22.8112 14.6358 22.8112 14.6612 22.8112 14.6866C22.8112 14.7119 22.8112 14.7373 22.8112 14.7627C22.8112 14.788 22.8112 14.8134 22.8112 14.8641C22.8112 14.8895 22.8112 14.9149 22.8112 14.9656L1.41309 18.9479C1.41309 18.9225 1.41309 18.8718 1.41309 18.8464C1.41309 18.8211 1.41309 18.7704 1.41309 18.745C1.41309 18.7196 1.41309 18.6689 1.41309 18.6435C1.43877 18.6435 1.43877 18.5928 1.46446 18.5674Z" fill="#406C8E"/>
<path d="M1.51562 18.06L22.8624 14.1538L1.51562 18.06Z" fill="#31526C"/>
<path d="M1.51562 18.06L22.8624 14.1538L1.51562 18.06Z" fill="#325570"/>
<path d="M1.51562 18.06L22.8624 14.1538L1.51562 18.06Z" fill="#345874"/>
<path d="M1.51562 18.06L22.8624 14.1538L1.51562 18.06Z" fill="#365B78"/>
<path d="M1.51562 18.06L22.8624 14.1538V14.1792L1.51562 18.0854V18.06Z" fill="#375E7B"/>
<path d="M1.51562 18.0854L22.8624 14.1792L1.51562 18.0854Z" fill="#39617F"/>
<path d="M1.51562 18.0854L22.8624 14.1792L1.51562 18.1108C1.51562 18.1108 1.51562 18.1108 1.51562 18.0854C1.51562 18.1108 1.51562 18.1108 1.51562 18.0854Z" fill="#3B6383"/>
<path d="M1.51592 18.1107L22.837 14.2045C22.837 14.2045 22.837 14.2045 22.837 14.2298C22.837 14.2552 22.837 14.2298 22.837 14.2552C22.837 14.2552 22.837 14.2552 22.837 14.2806V14.3059L1.49023 18.1868V18.1614V18.1361C1.49023 18.1361 1.49023 18.1361 1.51592 18.1107C1.51592 18.1361 1.51592 18.1107 1.51592 18.1107Z" fill="#3C6687"/>
<path d="M1.49004 18.1869L22.8368 14.2806C22.8368 14.306 22.8368 14.306 22.8368 14.3314C22.8368 14.3567 22.8368 14.3567 22.8368 14.3821C22.8368 14.4075 22.8368 14.4328 22.8368 14.4328C22.8368 14.4582 22.8368 14.4836 22.8368 14.5089L1.46436 18.4912C1.46436 18.4659 1.46436 18.4405 1.46436 18.4151C1.46436 18.3898 1.46436 18.3644 1.46436 18.3391C1.46436 18.3137 1.46436 18.2883 1.46436 18.2883C1.49004 18.2122 1.49004 18.2122 1.49004 18.1869Z" fill="#3E698A"/>
<path d="M1.46436 18.4913L22.8111 14.5343V14.5597V14.585V14.6104V14.6358L1.46436 18.5673V18.542V18.5166C1.46436 18.5166 1.46436 18.5166 1.46436 18.4913Z" fill="#406C8E"/>
<path d="M1.54131 18.0346L22.8881 14.1284L1.51563 18.06C1.51563 18.06 1.51562 18.06 1.54131 18.0346C1.54131 18.06 1.54131 18.06 1.54131 18.0346C1.54131 18.06 1.54131 18.06 1.54131 18.0346C1.54131 18.06 1.54131 18.0346 1.54131 18.0346Z" fill="#2C4A61"/>
<path d="M1.51562 18.0608L22.8624 14.1545L1.51562 18.0608Z" fill="#2D4D65"/>
<path d="M1.51562 18.0608L22.8624 14.1545L1.51562 18.0608Z" fill="#2F5069"/>
<path d="M1.51562 18.0608L22.8624 14.1545L1.51562 18.0608Z" fill="#31526C"/>
<path d="M1.51562 18.0608L22.8624 14.1545L1.51562 18.0608Z" fill="#325570"/>
<path d="M1.5415 18.0354L22.8883 14.1545L1.56719 18.0354H1.5415Z" fill="#837F73"/>
<path d="M1.56787 18.0346L22.9147 14.1284L1.59356 18.0346H1.56787Z" fill="#888477"/>
<path d="M1.59277 18.0346L22.9139 14.1284C22.9139 14.1284 22.9139 14.1284 22.9396 14.1284C22.9396 14.1284 22.9396 14.1284 22.9653 14.1284C22.9653 14.1284 22.9653 14.1284 22.9909 14.1284C22.9909 14.1284 22.9909 14.1284 23.0166 14.1284L1.69553 18.0346C1.69553 18.0346 1.69553 18.0346 1.66984 18.0346C1.64415 18.0346 1.66984 18.0346 1.64415 18.0346C1.61846 18.0346 1.59277 18.0346 1.59277 18.0346Z" fill="#8C897C"/>
<path d="M1.64404 18.0346L22.9651 14.1284H22.9908H23.0165H23.0422C23.0679 14.1284 23.0679 14.1284 23.0936 14.1284L1.79817 18.06C1.77248 18.06 1.77248 18.06 1.7468 18.06C1.72111 18.06 1.72111 18.06 1.69542 18.06C1.66973 18.06 1.66973 18.06 1.66973 18.06C1.66973 18.0346 1.66973 18.0346 1.64404 18.0346Z" fill="#918E80"/>
<path d="M1.79834 18.06L23.1194 14.1538C23.1451 14.1538 23.1708 14.1538 23.1965 14.1538C23.2222 14.1538 23.2479 14.1538 23.2736 14.1538C23.2993 14.1538 23.3249 14.1538 23.3506 14.1538C23.3763 14.1538 23.402 14.1538 23.4277 14.1538L2.15797 18.0854C2.13228 18.0854 2.1066 18.0854 2.05522 18.06C2.02953 18.06 2.00384 18.06 1.95247 18.06C1.92678 18.06 1.90109 18.06 1.8754 18.06C1.84972 18.06 1.82403 18.06 1.79834 18.06Z" fill="#969284"/>
<path d="M2.1582 18.0853L23.4536 14.1791H23.4793H23.505H23.5307H23.5564L2.28664 18.1107H2.26096H2.23527H2.20958C2.18389 18.1107 2.18389 18.0853 2.1582 18.0853Z" fill="#9B9788"/>
<path d="M2.08057 21.8142L23.3503 17.5275L40.6127 20.6474L20.653 25.4921L2.08057 21.8142Z" fill="#375C7A"/>
<path d="M1.28418 21.1801L22.6053 16.9695L40.6383 20.2162L20.6787 25.0102L1.28418 21.1801Z" fill="#9D9A8B"/>
<path d="M1.28418 21.0531L22.6053 16.8425L40.6383 20.0893L20.6787 24.8833L1.28418 21.0531Z" fill="#817464"/>
<path d="M1.31006 20.6727L22.6312 16.4874L40.6899 19.7342L20.7046 24.4774L1.31006 20.6727Z" fill="#9D998A"/>
<path d="M1.31006 20.5206L22.6312 16.3607L40.6899 19.6075L20.7302 24.3254L1.31006 20.5206Z" fill="#817463"/>
<path d="M1.33594 20.1399L22.657 16.0308L40.7158 19.2521L20.7561 23.9193L1.33594 20.1399Z" fill="#9D998A"/>
<path d="M1.33594 20.0132L22.6827 15.9041L40.7414 19.1254L20.7561 23.7926L1.33594 20.0132Z" fill="#817363"/>
<path d="M1.38721 19.6072L22.7083 15.5488L40.767 18.7702L20.8074 23.3866L1.38721 19.6072Z" fill="#9D998A"/>
<path d="M1.38721 19.4804L22.7083 15.422L40.7927 18.6434L20.8074 23.2345L1.38721 19.4804Z" fill="#817363"/>
<path d="M1.41309 19.1001L22.7342 15.0924L40.8186 18.263L20.8333 22.8288L1.41309 19.1001Z" fill="#9D998A"/>
<path d="M1.41309 18.9733L22.7599 14.9656L40.8186 18.1616L20.859 22.7019L1.41309 18.9733Z" fill="#817363"/>
<path d="M1.46436 18.5674L22.7855 14.6105L40.8699 17.7811L20.8845 22.2961L1.46436 18.5674Z" fill="#9C988A"/>
<path d="M1.46436 18.4405L22.8111 14.4835L40.8699 17.6795L20.9102 22.1691L1.46436 18.4405Z" fill="#817363"/>
<path d="M2.28613 18.1108L23.5815 14.2046L34.9614 16.1831L14.5137 20.4444L2.28613 18.1108Z" fill="#9C9889"/>
<path d="M20.6787 24.8834V25.0102L1.28418 21.1801V21.1547V21.1293V21.104V21.0786L20.6787 24.8834Z" fill="#807363"/>
<path d="M20.6787 24.8832L40.6383 20.0892V20.2161L20.6787 25.0101V24.8832Z" fill="#9C8C78"/>
<path d="M20.6533 25.4922L40.613 20.6475L40.9212 20.6982L20.9873 25.5683L20.6533 25.4922Z" fill="#FC611F"/>
<path d="M20.7303 24.3251L40.6899 19.6072V19.734L20.7046 24.4773L20.7303 24.3251Z" fill="#9B8B77"/>
<path d="M20.7302 24.3253L20.7046 24.4775L1.31006 20.6727V20.5205L20.7302 24.3253Z" fill="#807363"/>
<path d="M20.7561 23.7926V23.9194L1.33594 20.14V20.0132L20.7561 23.7926Z" fill="#807363"/>
<path d="M20.7559 23.7927L40.7412 19.1255L40.7155 19.2523L20.7559 23.9195V23.7927Z" fill="#9B8B77"/>
<path d="M20.8074 23.2344V23.3866L1.38721 19.6072V19.4803L20.8074 23.2344Z" fill="#807363"/>
<path d="M20.8071 23.2346L40.7924 18.6436L40.7668 18.7704L20.8071 23.3868V23.2346Z" fill="#9C8B78"/>
<path d="M20.859 22.7018L20.8333 22.8286L1.41309 19.1V18.9731L20.859 22.7018Z" fill="#807363"/>
<path d="M20.8587 22.7019L40.8183 18.1615V18.263L20.833 22.8287L20.8587 22.7019Z" fill="#9B8B77"/>
<path d="M41.1779 21.7642L21.2697 26.7611C21.3211 26.7358 21.3724 26.7358 21.4238 26.7104C21.4752 26.6851 21.5266 26.6597 21.5523 26.609C21.5779 26.5836 21.6293 26.5329 21.6293 26.4821C21.655 26.4314 21.655 26.3807 21.6807 26.3299C21.6807 26.2538 21.6807 26.1777 21.6293 26.1017C21.6036 26.0256 21.5523 25.9495 21.4752 25.8734C21.4238 25.7973 21.3467 25.7465 21.244 25.6958C21.1669 25.6451 21.0642 25.6197 20.9614 25.5943L40.8954 20.7242C40.9981 20.7496 41.0752 20.775 41.1522 20.8257C41.2293 20.8764 41.3064 20.9272 41.3578 20.9779C41.4091 21.0286 41.4605 21.1047 41.4862 21.1808C41.5119 21.2569 41.5376 21.333 41.5119 21.3837C41.5119 21.4345 41.4862 21.4852 41.4862 21.5106C41.4605 21.5613 41.4348 21.5867 41.4091 21.612C41.3834 21.6374 41.3321 21.6628 41.2807 21.6881C41.2807 21.7135 41.2293 21.7388 41.1779 21.7642Z" fill="#FC611F"/>
<path d="M20.9878 25.5682L40.9217 20.6981L20.9878 25.5682C21.0135 25.5682 21.0135 25.5682 20.9878 25.5682Z" fill="#FC611F"/>
<path d="M21.0127 25.5682L40.9466 20.6981C40.9466 20.6981 40.9466 20.6981 40.9723 20.6981C40.9723 20.6981 40.9723 20.6981 40.998 20.6981C40.998 20.6981 40.998 20.6981 41.0237 20.6981C41.0237 20.6981 41.0237 20.6981 41.0494 20.6981L21.0641 25.5936C21.0641 25.5936 21.0641 25.5936 21.0384 25.5936C21.0384 25.5936 21.0384 25.5936 21.0127 25.5936C21.0384 25.5682 21.0127 25.5682 21.0127 25.5682Z" fill="#FC611F"/>
<path d="M21.0645 25.5935L40.9984 20.7234C40.9984 20.7234 40.9984 20.7234 41.0241 20.7234L21.1158 25.6189C21.1158 25.6189 21.1158 25.6189 21.0901 25.6189C21.0901 25.6189 21.0901 25.6189 21.0645 25.6189C21.0901 25.5935 21.0901 25.5935 21.0645 25.5935Z" fill="#FC611F"/>
<path d="M21.1157 25.6189L41.0497 20.7488L21.1671 25.6189C21.1671 25.6189 21.1671 25.6189 21.1414 25.6189C21.1414 25.6189 21.1414 25.6189 21.1157 25.6189C21.1414 25.6189 21.1414 25.6189 21.1157 25.6189Z" fill="#FC611F"/>
<path d="M21.167 25.6189L41.1009 20.7488L21.167 25.6189C21.2184 25.6442 21.1927 25.6442 21.167 25.6189C21.1927 25.6442 21.1927 25.6442 21.167 25.6189C21.1927 25.6189 21.167 25.6189 21.167 25.6189Z" fill="#FC611F"/>
<path d="M21.2183 25.6444L41.1522 20.7743L21.2439 25.6444C21.2439 25.6444 21.2439 25.6698 21.2183 25.6444C21.2439 25.6698 21.2439 25.6698 21.2183 25.6444Z" fill="#FC611F"/>
<path d="M21.2695 25.6698L41.1778 20.7997L21.3209 25.6952C21.2952 25.6952 21.2952 25.6951 21.2695 25.6698C21.2952 25.6951 21.2952 25.6951 21.2695 25.6698Z" fill="#FC611F"/>
<path d="M21.3213 25.695L41.2295 20.825L21.3213 25.695C21.347 25.7204 21.347 25.7204 21.3213 25.695C21.347 25.7204 21.347 25.7204 21.3213 25.695C21.3213 25.7204 21.3213 25.695 21.3213 25.695Z" fill="#FC611F"/>
<path d="M21.3726 25.7456L41.2808 20.8755L21.3726 25.771C21.3982 25.7456 21.3982 25.7456 21.3726 25.7456Z" fill="#FC611F"/>
<path d="M21.3984 25.771L41.3067 20.8755L21.3984 25.771C21.4241 25.7963 21.4498 25.7963 21.3984 25.771C21.4241 25.771 21.4241 25.771 21.3984 25.771C21.4241 25.771 21.4241 25.771 21.3984 25.771Z" fill="#FC611F"/>
<path d="M21.4497 25.7965L41.358 20.9264L21.4497 25.8219C21.4754 25.8219 21.4754 25.8219 21.4497 25.7965C21.4754 25.8219 21.4754 25.8219 21.4497 25.7965C21.4497 25.8219 21.4497 25.7965 21.4497 25.7965Z" fill="#FC611F"/>
<path d="M21.501 25.8472L41.4092 20.9518L21.501 25.8472C21.501 25.8472 21.501 25.8472 21.501 25.8219C21.501 25.8219 21.501 25.8219 21.501 25.7965C21.5267 25.8726 21.501 25.8726 21.501 25.8472Z" fill="#FC611F"/>
<path d="M21.5522 25.8979L41.4605 21.0024C41.4605 21.0024 41.4605 21.0278 41.4862 21.0278C41.4862 21.0278 41.4862 21.0532 41.5119 21.0532C41.5119 21.0532 41.5119 21.0785 41.5376 21.0785C41.5376 21.0785 41.5376 21.1039 41.5633 21.1039L21.6807 26.0247C21.6807 26.0247 21.6807 25.9994 21.655 25.9994C21.655 25.9994 21.655 25.974 21.6293 25.974C21.5779 25.9486 21.5779 25.9233 21.5522 25.8979C21.5522 25.9233 21.5522 25.8979 21.5522 25.8979Z" fill="#FC611F"/>
<path d="M21.6035 25.9994L41.4861 21.0786C41.4861 21.0786 41.4861 21.0786 41.4861 21.104C41.4861 21.104 41.4861 21.104 41.4861 21.1293C41.4861 21.1293 41.4861 21.1293 41.4861 21.1547C41.4861 21.1801 41.4861 21.1547 41.4861 21.1801L21.6035 26.1009C21.6035 26.1009 21.6035 26.1009 21.6035 26.0755C21.6035 26.0755 21.6035 26.0755 21.6035 26.0502C21.6292 26.0248 21.6292 26.0248 21.6035 25.9994Z" fill="#FC611F"/>
<path d="M21.6294 26.0756L41.512 21.1548C41.512 21.1548 41.512 21.1548 41.512 21.1801C41.512 21.1801 41.512 21.1801 41.512 21.2055C41.512 21.2055 41.512 21.2055 41.512 21.2309C41.512 21.2309 41.512 21.2309 41.512 21.2562L21.6294 26.1771C21.6294 26.1771 21.6294 26.1771 21.6294 26.1517C21.6294 26.1517 21.6294 26.1517 21.6294 26.1263C21.6551 26.101 21.6551 26.101 21.6294 26.0756C21.6551 26.0756 21.6551 26.0756 21.6294 26.0756Z" fill="#FC611F"/>
<path d="M21.6553 26.1517L41.5378 21.2308L21.6553 26.177C21.681 26.177 21.681 26.177 21.6553 26.1517C21.681 26.1517 21.681 26.1517 21.6553 26.1517C21.681 26.1517 21.6553 26.1517 21.6553 26.1517Z" fill="#FC611F"/>
<path d="M21.6807 26.177L41.5632 21.2308L21.6807 26.177C21.6807 26.2278 21.6807 26.2024 21.6807 26.177C21.6807 26.2024 21.6807 26.2024 21.6807 26.177C21.6807 26.2024 21.6807 26.2024 21.6807 26.177C21.6807 26.2024 21.6807 26.177 21.6807 26.177Z" fill="#FC611F"/>
<path d="M21.6807 26.2278L41.5632 21.2816L21.6807 26.2278C21.6807 26.2532 21.6807 26.2532 21.6807 26.2278Z" fill="#FC611F"/>
<path d="M21.6807 26.2532L41.5632 21.307L21.6807 26.2532C21.6807 26.2786 21.6807 26.2786 21.6807 26.2532Z" fill="#FC611F"/>
<path d="M21.6807 26.2783L41.5632 21.3322L21.6807 26.2783C21.6807 26.3037 21.6807 26.3037 21.6807 26.2783Z" fill="#FC611F"/>
<path d="M21.6807 26.3037L41.5632 21.3575V21.3829L21.6807 26.3291V26.3037Z" fill="#FC611F"/>
<path d="M21.6807 26.329L41.5632 21.3828L21.6807 26.329Z" fill="#FC611F"/>
<path d="M21.6807 26.3546L41.5632 21.4084L21.6807 26.3546Z" fill="#FC611F"/>
<path d="M21.6807 26.3547L41.5632 21.4084L21.6807 26.3547C21.6807 26.38 21.6807 26.38 21.6807 26.3547C21.6807 26.38 21.6807 26.38 21.6807 26.3547C21.6807 26.38 21.6807 26.38 21.6807 26.3547C21.6807 26.38 21.6807 26.3547 21.6807 26.3547Z" fill="#FC611F"/>
<path d="M21.6553 26.3799L41.5378 21.4337L21.6553 26.3799C21.6553 26.4053 21.6553 26.4053 21.6553 26.3799C21.6553 26.4053 21.6553 26.4053 21.6553 26.3799C21.6553 26.4053 21.6553 26.3799 21.6553 26.3799Z" fill="#FC611F"/>
<path d="M21.6553 26.4053L41.5378 21.4591L21.6553 26.4053C21.6553 26.4307 21.6553 26.4307 21.6553 26.4053C21.6553 26.4307 21.6553 26.4307 21.6553 26.4053Z" fill="#FC611F"/>
<path d="M21.6553 26.4307L41.5378 21.4591L21.6553 26.4307C21.6553 26.456 21.6553 26.456 21.6553 26.4307Z" fill="#FC611F"/>
<path d="M21.655 26.4559L41.5376 21.4844L21.655 26.4559C21.6293 26.4813 21.6293 26.4559 21.655 26.4559C21.6293 26.4559 21.6293 26.4559 21.655 26.4559C21.6293 26.4559 21.6293 26.4559 21.655 26.4559Z" fill="#FC611F"/>
<path d="M21.6294 26.4813L41.512 21.5098L21.6294 26.4813Z" fill="#FC611F"/>
<path d="M21.6296 26.5068L41.5122 21.5353L21.6296 26.5068C21.6039 26.5068 21.6039 26.5322 21.6296 26.5068C21.6039 26.5068 21.6039 26.5068 21.6296 26.5068C21.6039 26.5068 21.6039 26.5068 21.6296 26.5068Z" fill="#FC611F"/>
<path d="M21.6038 26.5321L41.4864 21.5605L21.5781 26.5575C21.5781 26.5575 21.5781 26.5575 21.6038 26.5321C21.5781 26.5321 21.6038 26.5321 21.6038 26.5321Z" fill="#FC611F"/>
<path d="M21.5779 26.5575L41.4604 21.5859L21.5779 26.5575C21.5522 26.5829 21.5522 26.5829 21.5779 26.5575Z" fill="#FC611F"/>
<path d="M21.5521 26.5828L41.4347 21.6112C41.409 21.6366 41.409 21.6366 41.3833 21.6619C41.3576 21.6873 41.3319 21.6873 41.3319 21.7127C41.3319 21.738 41.2805 21.738 41.2548 21.738C41.2292 21.738 41.2035 21.7634 41.1778 21.7634L21.2695 26.7603C21.2952 26.7603 21.3209 26.735 21.3466 26.735C21.3723 26.735 21.398 26.7096 21.4237 26.7096C21.4493 26.6842 21.475 26.6842 21.5007 26.6589C21.5007 26.6335 21.5264 26.6081 21.5521 26.5828Z" fill="#FC611F"/>
<path d="M20.91 22.1692L40.8696 17.6796V17.781L20.8843 22.296L20.91 22.1692Z" fill="#9B8B77"/>
<path d="M20.9102 22.1691V22.2959L1.46436 18.5673V18.5419V18.5165V18.4912V18.4658L20.9102 22.1691Z" fill="#807363"/>
<path d="M20.9616 21.6619L40.9469 17.223L40.6129 20.6473L20.6533 25.492L20.9616 21.6619Z" fill="#F2F2E8"/>
<path d="M20.9612 21.6619L20.653 25.492L2.08051 21.814H2.05482H2.02913H2.00345H1.97776C1.90069 21.7887 1.82363 21.7887 1.74657 21.7633C1.6695 21.7379 1.59244 21.7379 1.54106 21.7126C1.48968 21.6872 1.43831 21.6872 1.38693 21.6619C1.36124 21.6619 1.33556 21.6365 1.30987 21.6365C1.30987 21.6365 1.30987 21.6111 1.28418 21.5858C1.28418 21.5604 1.28418 21.535 1.28418 21.4843C1.28418 21.4336 1.28418 21.4082 1.28418 21.3575C1.28418 21.3067 1.28418 21.256 1.28418 21.1799L20.6787 25.01V24.8832L1.28418 21.0531C1.28418 21.0277 1.28418 21.0024 1.28418 20.9516C1.28418 20.9263 1.28418 20.8755 1.28418 20.8502C1.28418 20.8248 1.28418 20.7741 1.28418 20.7487C1.28418 20.7233 1.28418 20.6726 1.28418 20.6472L20.7044 24.452V24.3252L1.28418 20.5204L1.30987 20.1399L20.7301 23.9193V23.7925L1.33556 20.0131L1.36124 19.6326L20.8071 23.3867V23.2599L1.38693 19.4805L1.41262 19.1L20.8328 22.8286V22.7018L1.41262 18.9732C1.41262 18.9478 1.41262 18.8971 1.41262 18.8717C1.41262 18.8463 1.41262 18.7956 1.41262 18.7702C1.41262 18.7449 1.41262 18.6941 1.41262 18.6688C1.41262 18.6434 1.41262 18.618 1.41262 18.5673L20.8585 22.296V22.1692L1.464 18.4405C1.464 18.3898 1.464 18.339 1.48968 18.2883C1.48968 18.2376 1.48968 18.2122 1.51537 18.1615C1.51537 18.1361 1.51537 18.1107 1.54106 18.0854C1.54106 18.06 1.54106 18.06 1.54106 18.0346C1.54106 18.0346 1.56675 18.0093 1.61812 18.0093C1.6695 18.0093 1.72088 18.0093 1.79794 18.0093C1.87501 18.0093 1.95207 18.0346 2.02913 18.0346C2.1062 18.0346 2.20895 18.06 2.3117 18.0854L14.5392 20.419L20.9612 21.6619Z" fill="#DCD2B7"/>
<path d="M14.5137 20.4443L34.9614 16.183L40.9467 17.223L20.9614 21.6618L14.5137 20.4443Z" fill="#9C9889"/>
<path d="M1.05322 16.7157L22.4257 12.9617L41.3321 16.2338L21.3982 20.5458L1.05322 16.7157Z" fill="#DE3F18"/>
<path d="M41.5631 17.2746L21.6548 21.7389C21.7062 21.7135 21.7833 21.7135 21.8346 21.6881C21.886 21.6628 21.9374 21.6374 21.9631 21.5867C22.0145 21.536 22.0402 21.5106 22.0658 21.4599C22.0915 21.4091 22.0915 21.3584 22.1172 21.3077C22.1172 21.2316 22.1172 21.1555 22.0658 21.0794C22.0402 21.0033 21.9888 20.9272 21.9117 20.8511C21.8603 20.775 21.7833 20.7243 21.6805 20.6735C21.6035 20.6228 21.5007 20.5974 21.3979 20.5721L41.3576 16.26C41.4603 16.2854 41.5374 16.3107 41.6145 16.3615C41.6915 16.4122 41.7686 16.4629 41.82 16.5137C41.8713 16.5644 41.9227 16.6405 41.9484 16.7166C41.9741 16.7927 41.9998 16.8688 41.9741 16.9195C41.9741 16.9702 41.9484 17.021 41.9227 17.0717C41.897 17.1224 41.8713 17.1478 41.8456 17.1985C41.82 17.2239 41.7686 17.2746 41.7172 17.2746C41.6915 17.2492 41.6401 17.2746 41.5631 17.2746Z" fill="#FC611F"/>
<path d="M21.3979 20.546L41.3576 16.2339L21.3979 20.546C21.4236 20.546 21.4236 20.546 21.3979 20.546C21.4236 20.546 21.3979 20.546 21.3979 20.546Z" fill="#FC611F"/>
<path d="M21.4243 20.546L41.3583 16.2339C41.3583 16.2339 41.3583 16.2339 41.384 16.2339C41.384 16.2339 41.384 16.2339 41.4096 16.2339C41.4096 16.2339 41.4096 16.2339 41.4353 16.2339C41.4353 16.2339 41.4353 16.2339 41.461 16.2339L21.4757 20.5713C21.4757 20.5713 21.4757 20.5713 21.45 20.5713C21.45 20.5713 21.45 20.5713 21.4243 20.5713C21.45 20.5713 21.45 20.5713 21.4243 20.546C21.4243 20.5713 21.4243 20.546 21.4243 20.546Z" fill="#FC611F"/>
<path d="M21.4751 20.5713L41.409 16.2339C41.409 16.2339 41.409 16.2339 41.4347 16.2339C41.4347 16.2339 41.4347 16.2339 41.4604 16.2339L21.5265 20.5967C21.5265 20.5967 21.5265 20.5967 21.5008 20.5967C21.5008 20.5967 21.5008 20.5967 21.4751 20.5967C21.5008 20.5713 21.5008 20.5713 21.4751 20.5713Z" fill="#FC611F"/>
<path d="M21.5264 20.5966L41.4603 16.2592L21.5777 20.622C21.5777 20.622 21.5777 20.622 21.5521 20.622C21.5521 20.622 21.5521 20.622 21.5264 20.622C21.5521 20.5966 21.5521 20.5966 21.5264 20.5966C21.5521 20.5966 21.5264 20.5966 21.5264 20.5966Z" fill="#FC611F"/>
<path d="M21.5776 20.622L41.5116 16.2845L21.629 20.622C21.6033 20.622 21.6033 20.622 21.5776 20.622C21.6033 20.622 21.6033 20.622 21.5776 20.622Z" fill="#FC611F"/>
<path d="M21.6289 20.622L41.5629 16.2845L21.6803 20.6473C21.6803 20.6473 21.6546 20.6473 21.6289 20.622C21.6546 20.6473 21.6546 20.6473 21.6289 20.622C21.6546 20.6473 21.6289 20.622 21.6289 20.622Z" fill="#FC611F"/>
<path d="M21.6807 20.6475L41.6146 16.3101L21.732 20.6729C21.7064 20.6729 21.7064 20.6729 21.6807 20.6475C21.7064 20.6729 21.7064 20.6729 21.6807 20.6475C21.7064 20.6729 21.6807 20.6475 21.6807 20.6475Z" fill="#FC611F"/>
<path d="M21.7319 20.6729L41.6659 16.3354L21.7833 20.7236C21.7576 20.6982 21.7576 20.6982 21.7319 20.6729C21.7576 20.6982 21.7576 20.6982 21.7319 20.6729C21.7319 20.6982 21.7319 20.6982 21.7319 20.6729Z" fill="#FC611F"/>
<path d="M21.7832 20.7235L41.6915 16.3861L21.8346 20.7489C21.8089 20.7489 21.8089 20.7235 21.7832 20.7235C21.8089 20.7235 21.7832 20.7235 21.7832 20.7235Z" fill="#FC611F"/>
<path d="M21.8345 20.7487L41.7427 16.4113L21.8602 20.7741C21.8602 20.7741 21.8602 20.7741 21.8345 20.7487C21.8345 20.7741 21.8345 20.7487 21.8345 20.7487Z" fill="#FC611F"/>
<path d="M21.8604 20.7741L41.7686 16.4113L21.9117 20.8248C21.886 20.8248 21.886 20.7994 21.8604 20.7741C21.886 20.7994 21.886 20.7994 21.8604 20.7741C21.886 20.7994 21.8604 20.7994 21.8604 20.7741Z" fill="#FC611F"/>
<path d="M21.9116 20.825L41.8199 16.4622L21.963 20.8757C21.963 20.8757 21.963 20.8757 21.963 20.8503C21.963 20.8503 21.963 20.8503 21.963 20.825C21.9373 20.8503 21.9373 20.8503 21.9116 20.825Z" fill="#FC611F"/>
<path d="M21.9629 20.8756L41.8712 16.5128C41.8712 16.5128 41.8712 16.5382 41.8968 16.5382C41.8968 16.5382 41.8968 16.5635 41.9225 16.5635C41.9225 16.5635 41.9225 16.5889 41.9482 16.5889C41.9482 16.5889 41.9482 16.6143 41.9739 16.6143L22.0143 20.9771C22.0143 20.9771 22.0143 20.9517 21.9886 20.9517C21.9886 20.9517 21.9886 20.9263 21.9629 20.9263C21.9886 20.9263 21.9886 20.901 21.9629 20.8756C21.9629 20.901 21.9629 20.901 21.9629 20.8756Z" fill="#FC611F"/>
<path d="M22.0146 20.9772L41.9229 16.6144C41.9229 16.6144 41.9229 16.6144 41.9229 16.6397C41.9229 16.6397 41.9229 16.6397 41.9229 16.6651C41.9229 16.6651 41.9229 16.6651 41.9229 16.6905C41.9229 16.6905 41.9229 16.6905 41.9229 16.7158L22.066 21.0533C22.066 21.0533 22.066 21.0533 22.066 21.0279C22.066 21.0279 22.066 21.0279 22.066 21.0025C22.0403 21.0025 22.0403 21.0025 22.0146 20.9772C22.0403 20.9772 22.0146 20.9772 22.0146 20.9772Z" fill="#FC611F"/>
<path d="M22.0659 21.0532L41.9742 16.665C41.9742 16.665 41.9742 16.665 41.9742 16.6904C41.9742 16.6904 41.9742 16.6904 41.9742 16.7158C41.9742 16.7158 41.9742 16.7158 41.9742 16.7411C41.9742 16.7411 41.9742 16.7411 41.9742 16.7665L22.0916 21.1293C22.0916 21.1293 22.0916 21.1293 22.0916 21.1039C22.0916 21.1039 22.0916 21.1039 22.0916 21.0786C22.0659 21.0786 22.0659 21.0786 22.0659 21.0532Z" fill="#FC611F"/>
<path d="M22.0913 21.1294L41.9739 16.7412L22.0913 21.1547C22.0913 21.1547 22.0913 21.1547 22.0913 21.1294Z" fill="#FC611F"/>
<path d="M22.0913 21.1548L41.9739 16.7666L22.0913 21.2055C22.0913 21.1801 22.0913 21.1801 22.0913 21.1548C22.0913 21.1801 22.0913 21.1801 22.0913 21.1548C22.0913 21.1801 22.0913 21.1801 22.0913 21.1548Z" fill="#FC611F"/>
<path d="M22.0913 21.2055L41.9739 16.8174L22.0913 21.2309C22.0913 21.2309 22.0913 21.2309 22.0913 21.2055C22.0913 21.2309 22.0913 21.2055 22.0913 21.2055Z" fill="#FC611F"/>
<path d="M22.0913 21.2309L41.9739 16.8174L22.0913 21.2563C22.0913 21.2563 22.0913 21.2563 22.0913 21.2309C22.0913 21.2563 22.0913 21.2309 22.0913 21.2309Z" fill="#FC611F"/>
<path d="M22.0913 21.2563L41.9739 16.8428L22.0913 21.2563C22.0913 21.2817 22.0913 21.2817 22.0913 21.2563C22.0913 21.2817 22.0913 21.2563 22.0913 21.2563Z" fill="#FC611F"/>
<path d="M22.0913 21.2814L41.9996 16.8679V16.8933L22.0913 21.3068V21.2814Z" fill="#FC611F"/>
<path d="M22.0913 21.3068L41.9739 16.8933L22.0913 21.3068C22.0913 21.3322 22.0913 21.3068 22.0913 21.3068Z" fill="#FC611F"/>
<path d="M22.0913 21.3321L41.9739 16.9186L22.0913 21.3321Z" fill="#FC611F"/>
<path d="M22.0913 21.3321L41.9739 16.9186L22.0913 21.3321C22.0913 21.3575 22.0913 21.3575 22.0913 21.3321C22.0913 21.3575 22.0913 21.3575 22.0913 21.3321C22.0913 21.3575 22.0913 21.3575 22.0913 21.3321C22.0913 21.3575 22.0913 21.3575 22.0913 21.3321Z" fill="#FC611F"/>
<path d="M22.0915 21.3577L41.9741 16.9442L22.0915 21.3577C22.0658 21.3831 22.0658 21.3831 22.0915 21.3577C22.0915 21.3831 22.0915 21.3831 22.0915 21.3577C22.0915 21.3831 22.0915 21.3831 22.0915 21.3577Z" fill="#FC611F"/>
<path d="M22.0659 21.383L41.9485 16.9695L22.0659 21.383C22.0659 21.4084 22.0659 21.4084 22.0659 21.383C22.0659 21.4084 22.0659 21.4084 22.0659 21.383C22.0659 21.4084 22.0659 21.383 22.0659 21.383Z" fill="#FC611F"/>
<path d="M22.0659 21.4084L41.9742 16.9949L22.0659 21.4084C22.0659 21.4338 22.0659 21.4338 22.0659 21.4084C22.0659 21.4338 22.0659 21.4084 22.0659 21.4084Z" fill="#FC611F"/>
<path d="M22.0657 21.4338L41.9482 16.9949L22.0657 21.4338C22.04 21.4591 22.04 21.4591 22.0657 21.4338Z" fill="#FC611F"/>
<path d="M22.04 21.459L41.9226 17.0201L22.04 21.459C22.04 21.4844 22.04 21.4844 22.04 21.459Z" fill="#FC611F"/>
<path d="M22.0403 21.4844L41.9486 17.0455L22.0146 21.5098C22.0146 21.5098 22.0147 21.5098 22.0403 21.4844C22.0147 21.4844 22.0147 21.4844 22.0403 21.4844Z" fill="#FC611F"/>
<path d="M22.0145 21.5099L41.9227 17.071L21.9888 21.5353C21.9888 21.5353 21.9888 21.5353 22.0145 21.5099C22.0145 21.5353 22.0145 21.5099 22.0145 21.5099Z" fill="#FC611F"/>
<path d="M21.9886 21.5352L41.8968 17.0963L21.9629 21.5859C21.9629 21.5606 21.9886 21.5606 21.9886 21.5352C21.9886 21.5606 21.9886 21.5606 21.9886 21.5352Z" fill="#FC611F"/>
<path d="M21.963 21.5859L41.8713 17.147C41.8456 17.1723 41.8456 17.1723 41.8199 17.1977C41.7942 17.2231 41.7685 17.2231 41.7429 17.2484C41.7172 17.2484 41.6915 17.2738 41.6658 17.2738C41.6401 17.2738 41.6144 17.2992 41.5887 17.2992L21.6548 21.7381C21.6805 21.7381 21.7062 21.7127 21.7318 21.7127C21.7575 21.7127 21.7832 21.6873 21.8089 21.6873C21.8346 21.662 21.8603 21.662 21.886 21.6366C21.9117 21.6112 21.9374 21.5859 21.963 21.5859Z" fill="#FC611F"/>
<path d="M21.3982 20.546C21.5009 20.5713 21.6037 20.5967 21.6807 20.6474C21.7578 20.6981 21.8349 20.7489 21.9119 20.825C21.9633 20.9011 22.0147 20.9772 22.0661 21.0533C22.0917 21.1293 22.1174 21.2054 22.1174 21.2815C22.1174 21.3576 22.0917 21.4337 22.0404 21.5098C21.989 21.5859 21.9376 21.6367 21.8605 21.662C21.7835 21.7127 21.7064 21.7381 21.6037 21.7381C21.5009 21.7635 21.4239 21.7381 21.3211 21.7381L20.9872 21.662L14.5394 20.4445L2.3633 18.1363C2.3633 18.1363 2.3633 18.1363 2.33761 18.1363C2.33761 18.1363 2.33761 18.1363 2.31193 18.1363C2.31193 18.1363 2.31193 18.1363 2.28624 18.1363C2.28624 18.1363 2.28624 18.1363 2.26055 18.1363C2.1578 18.1109 2.08073 18.1109 1.97798 18.0855C1.90092 18.0855 1.79817 18.0602 1.74679 18.0602C1.66972 18.0602 1.61835 18.0602 1.56697 18.0602C1.5156 18.0602 1.48991 18.0602 1.48991 18.0855C1.48991 18.0855 1.48991 18.1109 1.48991 18.1363C1.48991 18.1616 1.48991 18.187 1.46422 18.2124C1.46422 18.2377 1.46422 18.2885 1.43853 18.3392C1.43853 18.3899 1.43853 18.4406 1.41284 18.4914V18.5167V18.5421V18.5675V18.5928C1.41284 18.6182 1.41284 18.6436 1.41284 18.6943C1.41284 18.7197 1.41284 18.7704 1.41284 18.7958C1.41284 18.8211 1.41284 18.8719 1.41284 18.8972C1.41284 18.9226 1.41284 18.9733 1.41284 18.9987V19.1255L1.38716 19.506V19.6328L1.36147 20.0133V20.1401L1.33578 20.5206V20.6474C1.33578 20.6728 1.33578 20.7235 1.33578 20.7489C1.33578 20.7742 1.33578 20.825 1.33578 20.8503C1.33578 20.8757 1.33578 20.9264 1.33578 20.9518C1.33578 20.9772 1.33578 21.0279 1.33578 21.0533V21.0786V21.104V21.1293V21.1547C1.33578 21.2054 1.33578 21.2815 1.33578 21.3323C1.33578 21.383 1.33578 21.4337 1.33578 21.4591C1.33578 21.5098 1.33578 21.5352 1.33578 21.5606C1.33578 21.5859 1.33578 21.6113 1.36147 21.6113C1.36147 21.6113 1.38716 21.6367 1.43853 21.6367C1.46422 21.6367 1.5156 21.662 1.59266 21.6874C1.64404 21.7127 1.7211 21.7127 1.79817 21.7381C1.87523 21.7635 1.95229 21.7635 2.02936 21.7888H2.05505H2.08073C2.05505 21.8142 2.05505 21.8142 2.05505 21.8142H2.08073L20.6275 25.4921L20.9615 25.5682C21.0642 25.5936 21.167 25.619 21.244 25.6697C21.3211 25.7204 21.3982 25.7712 21.4752 25.8473C21.5266 25.9234 21.578 25.9994 21.6294 26.0755C21.655 26.1516 21.6807 26.2277 21.6807 26.3038C21.6807 26.3799 21.655 26.456 21.6037 26.5321C21.5523 26.5828 21.5009 26.6589 21.4239 26.6843C21.3468 26.735 21.2697 26.7604 21.167 26.7604C21.0642 26.7604 20.9872 26.7604 20.8844 26.7604L0.642202 22.702C0.53945 22.6766 0.462385 22.6513 0.385321 22.5752C0.308257 22.5244 0.231193 22.4483 0.179817 22.3469C0.12844 22.2708 0.0770642 22.1693 0.0513761 22.0679C0.0256881 21.9664 0 21.8396 0 21.7381L0.308257 17.426C0.308257 17.3246 0.333945 17.1978 0.385321 17.1217C0.436697 17.0202 0.488073 16.9441 0.53945 16.8934C0.616514 16.8173 0.693578 16.7666 0.770642 16.7412C0.847706 16.7158 0.950459 16.7158 1.05321 16.7158L21.3982 20.546Z" fill="#FC611F"/>
<path d="M37.4531 7.10236L21.7834 0.177684C21.2439 -0.0506018 20.3706 -0.0506018 19.8311 0.177684L4.18706 7.10236C3.64761 7.33064 3.2366 7.76185 3.75037 8.04087L5.11183 9.00474L5.31734 11.5159L7.26963 11.3891V9.84179L19.8311 16.7665C20.3192 17.0455 21.1926 17.0455 21.6806 16.7665L37.5045 8.04087C37.9926 7.76185 37.9926 7.33064 37.4531 7.10236Z" fill="#103754"/>
<path d="M8.22018 23.1077L7.24404 12.9363L5.34312 13.1646L4.46973 23.5135V23.2599V23.0823V23.336C4.46973 24.2491 5.31743 25.0862 6.34496 25.0862C6.57615 25.0862 6.78165 25.1115 6.98716 25.0354L6.78165 17.4259L7.34679 24.9086C7.86055 24.6296 8.22018 23.894 8.22018 23.3106C8.22018 23.3613 8.1945 23.1077 8.22018 23.1077Z" fill="#103754"/>
<path d="M30.4658 10.3238C30.4144 9.13161 26.4841 8.11701 21.5777 7.96482C21.2695 7.93945 20.9869 7.93945 20.6786 7.93945C20.6273 7.93945 20.6016 7.93945 20.5502 7.93945C20.4474 7.93945 20.3447 7.93945 20.2419 7.93945C14.719 7.93945 9.9924 9.00479 9.94102 10.3238H9.88965V10.3491V10.4252V10.476V16.868V16.9187V16.9948V17.0202H9.94102C9.9924 18.3391 14.719 19.4045 20.2419 19.4045C20.3447 19.4045 20.4474 19.4045 20.5502 19.4045C20.6016 19.4045 20.653 19.4045 20.7043 19.4045C21.0126 19.4045 21.3208 19.4045 21.6034 19.3791C26.5098 19.2269 30.4401 18.2377 30.4658 17.0202H30.4401V16.9948V16.9187V16.868V10.476V10.4252V10.3491V10.3238C30.4144 10.3238 30.4658 10.3238 30.4658 10.3238Z" fill="#144F79"/>
<path d="M7.80918 12.9872C7.80918 13.3423 6.91009 13.5959 6.13945 13.5959C5.36881 13.5959 4.46973 13.3169 4.46973 12.9872V11.7443C4.46973 11.3891 5.36881 11.1355 6.13945 11.1355C6.91009 11.1355 7.80918 11.4145 7.80918 11.7443V12.9872Z" fill="#103754"/>
</svg>
