<svg width="26" height="19" viewBox="0 0 26 19" fill="none" xmlns="http://www.w3.org/2000/svg">
<path fill-rule="evenodd" clip-rule="evenodd" d="M13.1917 0.280273C16.2531 0.280273 19.1805 1.88602 21.9086 4.52426C22.8393 5.42431 23.6813 6.38522 24.4226 7.34652C24.8698 7.9266 25.1874 8.38292 25.3613 8.65477L25.7481 9.25952L25.3613 9.86427C25.1874 10.1361 24.8698 10.5924 24.4226 11.1725C23.6813 12.1338 22.8393 13.0947 21.9086 13.9948C19.1805 16.633 16.2531 18.2388 13.1917 18.2388C10.1302 18.2388 7.20285 16.633 4.47472 13.9948C3.544 13.0947 2.70199 12.1338 1.96075 11.1725C1.51347 10.5924 1.19591 10.1361 1.02203 9.86427L0.635254 9.25952L1.02203 8.65477C1.19591 8.38292 1.51347 7.9266 1.96075 7.34652C2.70199 6.38522 3.544 5.42431 4.47472 4.52426C7.20285 1.88602 10.1302 0.280273 13.1917 0.280273ZM22.6449 8.71732C21.9662 7.83718 21.1946 6.95663 20.3481 6.138C17.9984 3.86572 15.5544 2.52514 13.1917 2.52514C10.8289 2.52514 8.38494 3.86572 6.03524 6.138C5.18872 6.95663 4.41712 7.83718 3.73847 8.71732C3.5919 8.90741 3.45645 9.08878 3.33263 9.25958C3.45645 9.43039 3.5919 9.61175 3.73847 9.80184C4.41712 10.682 5.18872 11.5625 6.03524 12.3812C8.38494 14.6534 10.8289 15.994 13.1917 15.994C15.5544 15.994 17.9984 14.6534 20.3481 12.3812C21.1946 11.5625 21.9662 10.682 22.6449 9.80184C22.7914 9.61175 22.9269 9.43039 23.0507 9.25958C22.9269 9.08878 22.7914 8.90741 22.6449 8.71732ZM8.7019 9.25946C8.7019 11.739 10.712 13.7491 13.1915 13.7491C15.6711 13.7491 17.6812 11.739 17.6812 9.25946C17.6812 6.77991 15.6711 4.76983 13.1915 4.76983C10.712 4.76983 8.7019 6.77991 8.7019 9.25946ZM15.4363 9.25953C15.4363 10.4993 14.4313 11.5043 13.1915 11.5043C11.9517 11.5043 10.9467 10.4993 10.9467 9.25953C10.9467 8.01975 11.9517 7.01472 13.1915 7.01472C14.4313 7.01472 15.4363 8.01975 15.4363 9.25953Z" fill="white"/>
</svg>
