<svg width="32" height="36" viewBox="0 0 32 36" fill="none" xmlns="http://www.w3.org/2000/svg">
<path d="M3.40252 31.4989C3.40252 31.206 3.64265 30.9655 3.93499 30.9655H30.2347C30.5271 30.9655 30.7672 31.206 30.7672 31.4989C30.7672 31.7917 30.5271 32.0322 30.2347 32.0322H3.94543C3.64265 32.0322 3.40252 31.7917 3.40252 31.4989ZM3.94543 29.5746H27.9378C29.577 29.5746 30.5688 28.6334 30.6106 28.5916C30.8194 28.3824 30.8298 28.0478 30.621 27.8386C30.4122 27.6295 30.0781 27.619 29.8693 27.8282C29.8589 27.8386 29.128 28.5079 27.9378 28.5079H3.94543C3.65309 28.5079 3.41296 28.7485 3.41296 29.0413C3.40252 29.3341 3.64265 29.5746 3.94543 29.5746ZM31.2892 2.80269C31.2892 1.25493 30.0364 0 28.4912 0H5.19829C2.32714 0 -0.00109959 2.33209 -0.00109959 5.20798V23.9902C-0.00109959 24.5444 0.416522 25.036 0.980312 25.0778C1.58586 25.1196 2.08701 24.6281 2.08701 24.032V5.20798C2.08701 3.48244 3.4756 2.09156 5.19829 2.09156H28.4912C28.8879 2.09156 29.2011 2.40529 29.2011 2.80269V17.088C29.2011 21.5012 25.6304 25.0673 21.235 25.0673H5.28182C2.44199 25.0673 0.0511031 27.3262 -0.00109959 30.1707C-0.0533023 33.078 2.29582 35.4624 5.18785 35.4624H30.2034C30.7568 35.4624 31.2475 35.0441 31.2892 34.4793C31.331 33.8728 30.8403 33.3708 30.2452 33.3708H5.26094C3.56957 33.3708 2.13921 32.0427 2.08701 30.3485C2.03481 28.5916 3.44428 27.1484 5.18785 27.1484C5.18785 27.1484 26.4448 27.2007 26.6223 27.2007C27.4367 27.2007 29.2951 26.9916 30.6523 25.2765C30.8298 25.0464 30.7881 24.7222 30.5688 24.5444C30.3391 24.3667 30.0155 24.4085 29.838 24.6281C28.4703 26.3641 26.4344 26.1549 26.3508 26.1445C26.33 26.1445 26.3091 26.1445 26.2882 26.1445H26.0376C29.1593 24.5758 31.2892 21.3444 31.2892 17.6109V2.80269Z" fill="url(#paint0_linear)"/>
<defs>
<linearGradient id="paint0_linear" x1="-1.89039" y1="7.08557" x2="34.9578" y2="28.3248" gradientUnits="userSpaceOnUse">
<stop offset="0.0206186" stop-color="#027AB3"/>
<stop offset="1" stop-color="#C7549F"/>
</linearGradient>
</defs>
</svg>
