<svg width="616" height="525" viewBox="0 0 616 525" fill="none" xmlns="http://www.w3.org/2000/svg">
<path d="M327.258 459.49C327.676 458.365 327.684 457.195 327.212 456.167L402.891 402.874C403.29 403.235 403.818 403.538 404.287 403.712C406.818 404.651 409.552 403.32 410.457 400.882C410.771 400.039 410.803 399.091 410.671 398.295L483.246 379.797L483.104 379.318L410.529 397.816C410.068 396.471 409.034 395.234 407.628 394.712C405.753 394.016 403.742 394.549 402.494 395.899L289.88 319.105L364.674 338.018C364.663 338.334 364.746 338.685 364.829 339.036C365.47 341.62 368.202 343.168 370.728 342.399C373.312 341.758 374.86 339.026 374.091 336.501C373.807 335.542 373.359 334.736 372.62 334.141L413.428 254.676C414.424 255.152 415.56 255.254 416.647 254.911C417.349 254.745 418.026 254.356 418.517 253.898L523.568 341.005C522.706 342.178 522.371 343.654 522.763 345.186C523.403 347.771 526.135 349.318 528.661 348.549C531.245 347.909 532.793 345.177 532.024 342.651C531.716 341.47 530.987 340.559 530.06 339.895L560.847 252.656C561.351 252.736 561.924 252.629 562.497 252.522C565.081 251.881 566.629 249.149 565.86 246.624C565.67 245.7 565.094 244.952 564.448 244.393L613.147 187.057L612.713 186.789L564.306 243.913C563.133 243.051 561.657 242.717 560.125 243.108C558.242 243.582 556.89 245.214 556.638 247.04L420.021 248.697C419.217 246.265 416.638 244.88 414.147 245.556C413.188 245.84 412.347 246.381 411.787 247.027L370.193 187.531C370.906 187.049 371.407 186.275 371.72 185.431C372.659 182.9 371.328 180.165 368.89 179.26C368.328 179.052 367.824 178.971 367.286 178.985L344.658 89.0895C345.593 88.5831 346.444 87.7259 346.862 86.6009C347.801 84.0697 346.47 81.3353 344.032 80.4304C341.595 79.5255 338.767 80.8223 337.862 83.2598C337.34 84.666 337.509 86.2221 338.321 87.4835L226.041 164.949C225.558 164.237 224.784 163.736 223.847 163.388C222.722 162.971 221.645 162.997 220.651 163.375L187.349 80.3972C188.096 79.8212 188.69 79.0819 189.038 78.1444C189.978 75.6132 188.646 72.8788 186.209 71.9739C183.678 71.0342 180.943 72.3658 180.038 74.8033C179.899 75.1783 179.795 75.4595 179.784 75.7756L103.571 87.6961C103.005 86.6328 102.183 85.6875 100.87 85.2003C98.3392 84.2606 95.6049 85.5922 94.7 88.0296C93.7951 90.4671 95.0919 93.2952 97.5293 94.2001C98.0918 94.4089 98.6891 94.524 99.2275 94.5105L107.244 126.074C105.805 126.5 104.568 127.534 104.011 129.034C103.072 131.565 104.403 134.299 106.841 135.204C109.278 136.109 112.071 134.906 113.011 132.375L217.478 166.464C216.865 168.69 217.926 171.004 219.919 171.957L177.298 265.789L177.204 265.755C174.673 264.815 171.938 266.147 171.033 268.584C170.476 270.084 170.739 271.675 171.551 272.936L144.88 291.622C144.481 291.261 143.953 290.958 143.391 290.749C140.86 289.81 138.125 291.141 137.22 293.579C137.046 294.047 137.001 294.457 136.921 294.961L85.7479 294.31C85.7181 292.379 84.5769 290.569 82.6082 289.838C80.0769 288.898 77.3426 290.23 76.4377 292.667C75.498 295.198 76.8296 297.933 79.267 298.838C81.7983 299.777 84.5326 298.446 85.4375 296.008C85.5767 295.633 85.6222 295.224 85.6677 294.814L136.84 295.464C136.87 297.395 138.046 299.112 140.015 299.843C141.234 300.295 142.533 300.244 143.69 299.714L193.661 358.479C193.463 358.726 193.324 359.101 193.22 359.382C192.28 361.913 193.612 364.648 196.049 365.552C198.486 366.457 201.315 365.161 202.219 362.723C202.568 361.786 202.6 360.837 202.409 359.914L281.535 318.887C282.041 319.822 282.933 320.579 283.964 320.962C284.808 321.275 285.756 321.307 286.645 321.211L321.269 453.213C319.924 453.674 318.722 454.615 318.165 456.115C317.225 458.646 318.557 461.38 320.994 462.285C323.525 463.225 326.354 461.928 327.258 459.49ZM297.644 281.24C298.429 281.425 299.248 281.515 300.114 281.197C302.604 280.521 304.013 278.164 303.653 275.684L410.819 251.36C410.843 251.583 410.961 251.84 411.113 252.003L289.981 314.236C289.416 313.173 288.559 312.321 287.34 311.869C287.153 311.799 286.965 311.729 286.649 311.719L297.644 281.24ZM372.315 333.815C371.235 332.987 369.759 332.653 368.321 333.079C366.31 333.612 364.888 335.431 364.789 337.421L290.183 318.577C290.218 318.484 290.287 318.296 290.322 318.202C290.74 317.077 290.654 315.872 290.311 314.785L411.314 252.611C411.796 253.323 412.313 253.942 413.029 254.314L372.315 333.815ZM556.762 249.006C557.236 250.889 558.809 252.113 560.507 252.423L529.79 339.475C528.734 338.87 527.505 338.733 526.23 339.007C525.271 339.291 524.559 339.773 523.905 340.384L418.948 253.312C419.997 252.208 420.495 250.579 420.104 249.047L556.593 247.45C556.572 248.082 556.62 248.527 556.762 249.006ZM411.52 247.461C410.821 248.481 410.462 249.735 410.735 251.009L303.57 275.333C302.801 272.808 300.257 271.33 297.672 271.97C296.713 272.254 296.001 272.736 295.347 273.347L225.021 171.718C225.734 171.235 226.234 170.461 226.582 169.524C226.687 169.243 226.791 168.961 226.802 168.645L362.375 183.882C362.439 185.719 363.615 187.436 365.49 188.132C366.99 188.689 368.453 188.485 369.714 187.673L411.52 247.461ZM338.498 87.8691C338.98 88.5815 339.754 89.0822 340.691 89.4303C341.91 89.8827 343.209 89.8316 344.237 89.36L366.782 178.905C365.004 179.098 363.416 180.215 362.755 181.996C362.581 182.465 362.5 182.968 362.455 183.378L226.882 168.142C226.949 167.1 226.665 166.141 226.217 165.335L338.498 87.8691ZM186.834 80.633L220.078 163.483C219.307 163.836 218.688 164.353 218.188 165.127L103.362 91.9922C103.432 91.8047 103.595 91.652 103.665 91.4645C104.083 90.3395 104.056 89.2628 103.713 88.1755L179.575 76.3381C179.476 78.3281 180.677 80.267 182.739 81.0327C184.052 81.52 185.608 81.351 186.834 80.633ZM99.6373 94.556C101.065 94.4459 102.326 93.6342 103.095 92.4261L217.861 165.433C217.791 165.62 217.593 165.867 217.524 166.054L113.057 131.965C113.739 129.552 112.432 127.04 110.088 126.17C109.244 125.856 108.39 125.859 107.594 125.991L99.6373 94.556ZM220.318 172.318L220.412 172.353C221.818 172.875 223.374 172.706 224.636 171.894L294.986 273.746C294.124 274.92 293.789 276.395 294.215 277.834C294.607 279.366 295.769 280.544 297.175 281.066L286.239 311.673C284.19 311.446 282.286 312.552 281.403 314.358L179.998 272.019C180.834 269.769 179.748 267.233 177.603 266.116L220.318 172.318ZM171.787 273.45C172.304 274.069 172.949 274.629 173.793 274.942C176.137 275.812 178.767 274.762 179.824 272.488L281.194 314.92C281.124 315.108 281.02 315.389 281.044 315.611L146.44 296.041C146.646 294.624 146.126 293.151 145.21 292.171L171.787 273.45ZM193.801 358.104L143.982 299.502C144.916 298.996 145.674 298.104 146.092 296.979C146.161 296.791 146.231 296.604 146.207 296.381L280.905 315.986C280.814 316.806 280.91 317.695 281.264 318.466L202.01 359.552C201.549 358.208 200.574 357.099 199.168 356.577C197.199 355.846 195.024 356.532 193.801 358.104ZM287.125 321.069C288.083 320.785 288.831 320.209 289.46 319.376L402.132 396.298C401.865 396.732 401.632 397.073 401.458 397.541C400.796 399.322 401.271 401.205 402.492 402.512L326.977 455.652C326.411 454.589 325.554 453.738 324.335 453.285C323.492 452.972 322.543 452.94 321.654 453.037L287.125 321.069Z" fill="#F3F3F3"/>
</svg>
