<svg width="620" height="633" viewBox="0 0 620 633" fill="none" xmlns="http://www.w3.org/2000/svg">
<path opacity="0.3" d="M234.505 499.571C235.401 498.774 235.957 497.743 236.022 496.614L327.854 485.021C328.037 485.528 328.361 486.042 328.694 486.416C330.489 488.433 333.529 488.538 335.471 486.81C336.143 486.211 336.616 485.389 336.873 484.625L409.65 502.311L409.749 501.821L336.972 484.135C337.195 482.731 336.862 481.153 335.864 480.033C334.535 478.539 332.508 478.067 330.773 478.675L267.306 358.047L324.503 409.818C324.346 410.092 324.255 410.441 324.163 410.79C323.518 413.373 325.205 416.021 327.797 416.526C330.38 417.171 333.028 415.484 333.533 412.892C333.731 411.912 333.714 410.99 333.34 410.119L406.64 359.06C407.297 359.948 408.253 360.57 409.374 360.777C410.072 360.959 410.852 360.933 411.5 360.759L463.452 486.951C462.14 487.583 461.153 488.729 460.78 490.266C460.135 492.849 461.822 495.497 464.414 496.002C466.997 496.648 469.645 494.96 470.149 492.369C470.431 491.181 470.214 490.035 469.707 489.014L537.801 426.39C538.208 426.697 538.765 426.871 539.321 427.045C541.904 427.691 544.552 426.004 545.057 423.412C545.322 422.507 545.164 421.577 544.856 420.78L614.752 392.968L614.494 392.528L544.955 420.29C544.323 418.978 543.176 417.991 541.64 417.618C539.754 417.154 537.795 417.961 536.716 419.457L415.267 356.869C415.697 354.344 414.068 351.912 411.551 351.341C410.571 351.143 409.575 351.226 408.778 351.534L399.931 279.482C400.787 279.39 401.592 278.941 402.264 278.343C404.281 276.547 404.387 273.508 402.658 271.566C402.259 271.118 401.852 270.811 401.37 270.57L423.529 180.558C424.592 180.549 425.746 180.191 426.642 179.393C428.659 177.598 428.764 174.558 427.036 172.616C425.307 170.674 422.201 170.494 420.259 172.222C419.139 173.22 418.558 174.674 418.684 176.168L283.19 191.953C283.098 191.097 282.649 190.292 281.984 189.545C281.186 188.649 280.222 188.168 279.168 188.036L288.654 99.1287C289.584 98.9703 290.456 98.5959 291.203 97.931C293.22 96.1358 293.325 93.0963 291.597 91.1543C289.801 89.1375 286.762 89.0317 284.82 90.7605C284.521 91.0264 284.297 91.2259 284.139 91.5001L211.232 66.2982C211.231 65.094 210.948 63.8734 210.017 62.8277C208.222 60.811 205.183 60.7052 203.241 62.434C201.299 64.1627 201.118 67.2687 202.847 69.2107C203.246 69.6589 203.719 70.0406 204.201 70.2811L196.484 101.919C195.014 101.621 193.436 101.954 192.241 103.018C190.224 104.813 190.119 107.853 191.847 109.795C193.576 111.737 196.607 111.984 198.624 110.188L274.917 189.276C273.332 190.955 273.184 193.496 274.497 195.272L192.859 258.171L192.792 258.097C190.997 256.08 187.958 255.974 186.016 257.703C184.82 258.767 184.307 260.295 184.432 261.79L152.114 265.791C151.931 265.284 151.607 264.77 151.208 264.322C149.412 262.305 146.373 262.199 144.431 263.928C144.057 264.26 143.825 264.601 143.518 265.008L98.6228 240.442C99.5018 238.723 99.3425 236.588 97.9462 235.02C96.151 233.003 93.1114 232.897 91.1694 234.626C89.1527 236.421 89.0469 239.461 90.7756 241.403C92.5709 243.42 95.6104 243.525 97.5524 241.797C97.8512 241.531 98.0835 241.19 98.3158 240.849L143.211 265.415C142.332 267.135 142.566 269.203 143.962 270.771C144.827 271.742 145.998 272.306 147.269 272.38L163.857 347.715C163.567 347.84 163.268 348.106 163.044 348.305C161.027 350.101 160.921 353.14 162.65 355.082C164.379 357.024 167.485 357.205 169.427 355.476C170.174 354.811 170.646 353.989 170.912 353.083L260.037 353.941C260.046 355.004 260.478 356.092 261.21 356.913C261.808 357.586 262.631 358.058 263.461 358.39L232.157 491.219C230.753 490.995 229.25 491.262 228.055 492.326C226.038 494.121 225.933 497.161 227.661 499.103C229.457 501.12 232.563 501.3 234.505 499.571ZM291.916 328.241C292.523 328.772 293.204 329.236 294.117 329.36C296.634 329.931 298.983 328.51 299.829 326.151L405.89 354.908C405.807 355.116 405.791 355.398 405.849 355.614L269.678 353.793C269.677 352.589 269.319 351.435 268.455 350.464C268.322 350.314 268.189 350.165 267.915 350.007L291.916 328.241ZM333.223 409.687C332.657 408.45 331.511 407.463 330.041 407.165C328.014 406.693 325.905 407.633 324.885 409.344L267.821 357.722C267.895 357.656 268.045 357.523 268.119 357.456C269.016 356.659 269.505 355.554 269.712 354.432L405.742 356.245C405.833 357.1 406 357.889 406.457 358.553L333.223 409.687ZM535.904 421.251C535.44 423.137 536.255 424.955 537.61 426.025L469.665 488.516C469.017 487.486 467.995 486.79 466.74 486.433C465.76 486.235 464.905 486.327 464.041 486.56L412.156 360.443C413.6 359.96 414.804 358.755 415.176 357.218L536.484 419.797C536.169 420.346 536.003 420.761 535.904 421.251ZM408.338 351.792C407.242 352.366 406.337 353.305 405.981 354.559L299.92 325.802C300.424 323.21 298.87 320.712 296.287 320.066C295.306 319.867 294.451 319.959 293.588 320.192L279.116 197.453C279.972 197.361 280.777 196.912 281.524 196.247C281.748 196.048 281.972 195.848 282.129 195.574L394.736 272.593C393.932 274.246 394.166 276.314 395.496 277.808C396.56 279.003 397.947 279.508 399.441 279.383L408.338 351.792ZM418.659 176.592C418.751 177.447 419.2 178.252 419.865 178.999C420.73 179.97 421.901 180.534 423.03 180.6L400.963 270.263C399.302 269.6 397.375 269.842 395.956 271.106C395.582 271.438 395.275 271.845 395.043 272.186L282.436 195.167C282.984 194.278 283.183 193.298 283.165 192.376L418.659 176.592ZM288.089 99.0959L278.611 187.862C277.764 187.812 276.975 187.979 276.17 188.428L209.034 69.9953C209.184 69.8623 209.399 69.804 209.549 69.671C210.445 68.8731 210.926 67.9095 211.133 66.7882L283.691 91.899C282.671 93.6105 282.822 95.8858 284.285 97.5291C285.216 98.5748 286.669 99.1551 288.089 99.0959ZM204.542 70.5134C205.854 71.0854 207.349 70.9598 208.594 70.253L275.738 188.545C275.589 188.678 275.298 188.803 275.149 188.935L198.856 109.848C200.591 108.036 200.614 105.204 198.951 103.337C198.353 102.665 197.597 102.267 196.833 102.01L204.542 70.5134ZM274.68 195.779L274.747 195.853C275.744 196.974 277.198 197.554 278.693 197.429L293.081 320.375C291.77 321.007 290.782 322.154 290.484 323.624C290.112 325.161 290.586 326.747 291.583 327.867L267.574 349.775C265.871 348.614 263.67 348.698 262.043 349.879L192.324 264.94C194.117 263.344 194.347 260.595 192.975 258.603L274.68 195.779ZM184.4 262.355C184.566 263.143 184.874 263.94 185.472 264.613C187.135 266.48 189.95 266.785 191.95 265.272L261.595 350.278C261.446 350.411 261.222 350.61 261.139 350.818L151.42 270.425C152.266 269.27 152.497 267.726 152.148 266.43L184.4 262.355ZM164.156 347.449L147.626 272.33C148.689 272.321 149.776 271.888 150.673 271.09C150.822 270.957 150.971 270.824 151.054 270.617L260.84 351.084C260.375 351.765 260.044 352.596 259.995 353.443L170.728 352.577C170.952 351.173 170.61 349.737 169.613 348.616C168.217 347.048 165.974 346.634 164.156 347.449ZM263.951 358.489C264.931 358.688 265.861 358.529 266.808 358.089L330.266 478.858C329.826 479.115 329.461 479.307 329.088 479.639C327.668 480.902 327.205 482.788 327.671 484.515L236.055 496.049C236.054 494.845 235.696 493.691 234.832 492.72C234.234 492.048 233.411 491.575 232.58 491.243L263.951 358.489Z" fill="#F3F3F3"/>
</svg>
