<svg width="477" height="595" viewBox="0 0 477 595" fill="none" xmlns="http://www.w3.org/2000/svg">
<path d="M327.516 128.476C326.425 128.975 325.591 129.797 325.197 130.857L234.009 114.978C233.983 114.44 233.824 113.853 233.616 113.399C232.491 110.944 229.617 109.95 227.253 111.033C226.435 111.407 225.741 112.055 225.271 112.71L160.894 74.4362L160.655 74.8755L225.033 113.149C224.407 114.425 224.262 116.031 224.887 117.395C225.72 119.214 227.518 120.26 229.355 120.188L254.61 254.134L215.133 187.852C215.364 187.636 215.554 187.329 215.743 187.022C217.119 184.743 216.283 181.716 213.954 180.472C211.674 179.097 208.648 179.933 207.404 182.262C206.927 183.14 206.673 184.026 206.774 184.97L121.713 212.258C121.346 211.216 120.616 210.341 119.605 209.814C118.991 209.435 118.237 209.23 117.567 209.207L104.953 73.3239C106.392 73.1048 107.673 72.2985 108.48 70.939C109.856 68.6593 109.02 65.6325 106.691 64.3892C104.411 63.0134 101.384 63.8493 100.141 66.1783C99.5234 67.2311 99.3942 68.3901 99.5793 69.5151L16.1005 109.387C15.8015 108.974 15.3205 108.645 14.8396 108.315C12.5599 106.939 9.53315 107.775 8.28987 110.104C7.77064 110.892 7.64908 111.827 7.70936 112.679L-67.2719 118.745L-67.1547 119.241L7.47056 113.119C7.6897 114.558 8.496 115.839 9.85551 116.646C11.5217 117.643 13.6316 117.447 15.1017 116.334L112.824 211.819C111.671 214.107 112.515 216.91 114.753 218.195C115.632 218.672 116.609 218.885 117.461 218.825L104.763 290.299C103.919 290.135 103.017 290.328 102.199 290.703C99.7441 291.827 98.7506 294.702 99.833 297.066C100.083 297.611 100.382 298.024 100.772 298.395L53.1631 377.935C52.1443 377.632 50.9361 377.635 49.845 378.135C47.3901 379.259 46.3966 382.134 47.479 384.498C48.5614 386.861 51.4775 387.946 53.8415 386.864C55.2054 386.239 56.1869 385.02 56.5056 383.554L190.663 408.245C190.5 409.09 190.692 409.991 191.109 410.9C191.608 411.991 192.388 412.734 193.358 413.17L158.187 495.374C157.252 495.252 156.308 495.354 155.399 495.771C152.944 496.895 151.951 499.769 153.033 502.133C154.157 504.588 157.032 505.582 159.396 504.499C159.759 504.333 160.032 504.208 160.263 503.992L222.558 549.488C222.206 550.639 222.118 551.889 222.701 553.162C223.825 555.617 226.7 556.611 229.063 555.528C231.427 554.446 232.512 551.53 231.429 549.166C231.18 548.62 230.839 548.116 230.449 547.745L247.115 519.767C248.432 520.484 250.038 520.628 251.493 519.962C253.948 518.838 254.942 515.963 253.859 513.599C252.777 511.236 249.952 510.109 247.497 511.233L197.786 413.232C199.794 412.093 200.681 409.707 199.947 407.624L296.454 371.465L296.496 371.555C297.62 374.01 300.494 375.004 302.858 373.922C304.313 373.255 305.253 371.945 305.572 370.479L337.641 376.143C337.667 376.681 337.826 377.268 338.075 377.814C339.2 380.269 342.074 381.262 344.438 380.18C344.893 379.972 345.215 379.714 345.628 379.415L381.332 416.079C379.987 417.465 379.513 419.552 380.387 421.461C381.511 423.916 384.386 424.91 386.75 423.827C389.205 422.703 390.198 419.829 389.116 417.465C387.992 415.01 385.117 414.016 382.753 415.099C382.389 415.265 382.067 415.523 381.745 415.78L346.041 379.116C347.386 377.73 347.769 375.685 346.895 373.776C346.354 372.594 345.4 371.711 344.207 371.267L350.467 294.381C350.781 294.347 351.145 294.181 351.418 294.056C353.873 292.932 354.866 290.058 353.784 287.694C352.701 285.33 349.785 284.245 347.421 285.328C346.512 285.744 345.819 286.391 345.299 287.179L260.354 260.193C260.657 259.174 260.563 258.007 260.105 257.007C259.73 256.189 259.083 255.495 258.386 254.934L327.308 137.15C328.584 137.775 330.1 137.961 331.554 137.295C334.009 136.171 335.003 133.297 333.92 130.933C332.796 128.478 329.88 127.393 327.516 128.476ZM222.334 275.401C221.91 274.715 221.395 274.071 220.558 273.684C218.32 272.4 215.657 273.069 214.156 275.076L121.212 216.447C121.352 216.273 121.451 216.008 121.458 215.784L251.094 257.503C250.741 258.655 250.744 259.863 251.286 261.045C251.369 261.227 251.452 261.409 251.668 261.64L222.334 275.401ZM206.759 185.417C206.937 186.765 207.743 188.046 209.061 188.762C210.86 189.808 213.151 189.529 214.629 188.192L254.023 254.293C253.932 254.334 253.75 254.417 253.659 254.459C252.568 254.959 251.776 255.871 251.249 256.882L121.746 215.213C121.91 214.368 121.982 213.565 121.74 212.796L206.759 185.417ZM16.4052 114.857C17.4021 113.191 17.1566 111.213 16.1761 109.793L99.4731 70.0037C99.7908 71.1781 100.563 72.1442 101.658 72.853C102.536 73.3306 103.381 73.4938 104.275 73.5244L116.847 209.317C115.325 209.354 113.82 210.153 113.013 211.512L15.4237 116.076C15.886 115.645 16.1664 115.296 16.4052 114.857ZM117.957 218.707C119.173 218.481 120.314 217.848 121.022 216.754L213.967 275.383C212.724 277.712 213.476 280.557 215.756 281.932C216.635 282.41 217.479 282.573 218.373 282.604L196.172 404.183C195.327 404.02 194.426 404.212 193.516 404.629C193.244 404.754 192.971 404.878 192.74 405.094L107.707 298.409C108.961 297.065 109.345 295.02 108.512 293.202C107.846 291.747 106.668 290.856 105.203 290.537L117.957 218.707ZM56.6535 383.156C56.8167 382.312 56.6238 381.41 56.2075 380.501C55.6663 379.319 54.7121 378.436 53.6517 378.042L101.071 298.808C102.464 299.93 104.377 300.264 106.105 299.473C106.559 299.265 106.972 298.966 107.294 298.709L192.327 405.393C191.542 406.082 191.065 406.961 190.811 407.847L56.6535 383.156ZM158.717 495.571L193.839 413.5C194.634 413.796 195.437 413.868 196.339 413.675L225.745 546.599C225.563 546.682 225.34 546.675 225.158 546.758C224.067 547.258 223.324 548.038 222.797 549.049L160.809 503.742C162.287 502.406 162.81 500.186 161.894 498.186C161.311 496.913 160.092 495.931 158.717 495.571ZM230.192 547.423C229.105 546.491 227.639 546.172 226.241 546.482L196.785 413.69C196.967 413.607 197.282 413.573 197.464 413.49L247.175 511.491C244.985 512.714 244.131 515.414 245.172 517.687C245.547 518.505 246.153 519.108 246.808 519.578L230.192 547.423ZM199.92 407.086L199.879 406.995C199.254 405.631 198.035 404.649 196.569 404.331L218.911 282.578C220.35 282.358 221.631 281.552 222.347 280.234C223.155 278.875 223.167 277.219 222.542 275.856L251.925 261.962C253.213 263.572 255.341 264.137 257.243 263.487L298.953 365.151C296.771 366.15 295.743 368.711 296.469 371.018L199.92 407.086ZM305.769 369.949C305.841 369.146 305.781 368.294 305.406 367.476C304.365 365.203 301.764 364.084 299.407 364.943L257.788 263.237C257.97 263.154 258.243 263.029 258.383 262.855L339.665 371.917C338.517 372.772 337.842 374.181 337.796 375.522L305.769 369.949ZM350.103 294.548L343.851 371.21C342.832 370.907 341.665 371.001 340.574 371.5C340.392 371.584 340.21 371.667 340.07 371.841L258.747 262.688C259.391 262.173 259.952 261.476 260.248 260.681L345.326 287.717C344.7 288.993 344.605 290.466 345.229 291.83C346.104 293.74 348.126 294.793 350.103 294.548ZM257.947 254.696C257.068 254.218 256.133 254.096 255.099 254.24L229.893 120.162C230.39 120.045 230.795 119.969 231.249 119.761C232.977 118.97 233.974 117.304 234.035 115.516L325 131.388C324.647 132.539 324.651 133.747 325.192 134.929C325.566 135.748 326.214 136.441 326.911 137.002L257.947 254.696Z" fill="#F3F3F3"/>
</svg>
