<svg width="87" height="87" viewBox="0 0 87 87" fill="none" xmlns="http://www.w3.org/2000/svg">
<path d="M61.6078 29.3222L60.6769 26.2584C59.4944 22.778 55.7144 20.9153 52.2341 22.0978C50.2762 22.763 48.7387 24.3005 48.0735 26.2584L47.1426 29.3222C46.3592 31.9061 46.1948 34.6381 46.6626 37.2972C47.0893 39.536 48.5107 41.4595 50.5254 42.5245L49.4829 65.8303C49.3433 67.1312 49.7653 68.4298 50.6429 69.4002C52.5302 71.4647 55.734 71.6082 57.7985 69.7209C57.9101 69.6188 58.017 69.5119 58.1191 69.4002C58.9771 68.4574 59.3984 67.1968 59.2791 65.9275L58.2307 42.5216C60.2428 41.456 61.6618 39.5339 62.0877 37.2972C62.5555 34.6381 62.3912 31.9061 61.6078 29.3222ZM59.2312 36.7926C58.9173 38.4011 57.7711 39.7207 56.2225 40.2567C55.6347 40.4776 55.2561 41.0518 55.2843 41.6791L56.3863 66.1566C56.4371 66.6367 56.2787 67.1154 55.9513 67.4703C55.0783 68.3347 53.6721 68.3347 52.799 67.4703C52.4554 67.0868 52.2993 66.5706 52.3727 66.0609L53.466 41.6791C53.4943 41.0518 53.1157 40.4776 52.5279 40.2567C50.9793 39.7207 49.8331 38.4011 49.5191 36.7926C49.1313 34.585 49.2679 32.317 49.9179 30.1719L50.8488 27.1066C51.5691 25.1591 53.7318 24.1642 55.6795 24.8845C56.7092 25.2653 57.5208 26.0771 57.9016 27.1066L58.8325 30.1719C59.4817 32.3172 59.6184 34.585 59.2312 36.7926Z" fill="white"/>
<path d="M39.1504 21.75C38.3496 21.75 37.7004 22.3992 37.7004 23.2V35.6497L33.7752 39.5749C33.4849 39.8641 33.3305 40.2631 33.3504 40.6725L34.6191 66.0475C34.6494 66.5947 34.4508 67.1299 34.071 67.5251C33.2773 68.3258 31.9847 68.3316 31.1837 67.5377C31.1794 67.5336 31.1752 67.5292 31.171 67.5251C30.7911 67.1299 30.5927 66.5947 30.6229 66.0475L31.9004 40.6725C31.9207 40.2632 31.7668 39.8645 31.477 39.5749L27.5504 35.6497V23.2C27.5504 22.3992 26.9012 21.75 26.1004 21.75C25.2996 21.75 24.6504 22.3992 24.6504 23.2V36.25C24.6504 36.6346 24.8034 37.0033 25.0752 37.2752L28.9699 41.1713L27.7331 65.9069C27.6015 68.6088 29.6852 70.9059 32.387 71.0375C35.0889 71.1691 37.3861 69.0854 37.5177 66.3835C37.5255 66.2248 37.5255 66.0658 37.5177 65.907L36.2808 41.1715L40.1755 37.2753C40.4474 37.0035 40.6004 36.6348 40.6004 36.2502V23.2002C40.6004 22.3992 39.9512 21.75 39.1504 21.75Z" fill="white"/>
<path d="M30.45 21.75C29.6492 21.75 29 22.3992 29 23.2V34.8C29 35.6008 29.6492 36.25 30.45 36.25C31.2508 36.25 31.9 35.6008 31.9 34.8V23.2C31.9 22.3992 31.2508 21.75 30.45 21.75Z" fill="white"/>
<path d="M34.7996 21.75C33.9988 21.75 33.3496 22.3992 33.3496 23.2V34.8C33.3496 35.6008 33.9988 36.25 34.7996 36.25C35.6004 36.25 36.2496 35.6008 36.2496 34.8V23.2C36.2496 22.3992 35.6004 21.75 34.7996 21.75Z" fill="white"/>
<path d="M43.5 0C19.4757 0 0 19.4757 0 43.5C0 67.5243 19.4757 87 43.5 87C67.5243 87 87 67.5243 87 43.5C86.9728 19.4869 67.5131 0.0271875 43.5 0ZM43.5 84.1C21.0772 84.1 2.9 65.9228 2.9 43.5C2.9 21.0772 21.0772 2.9 43.5 2.9C65.9228 2.9 84.1 21.0772 84.1 43.5C84.0744 65.9121 65.9121 84.0744 43.5 84.1Z" fill="white"/>
<g opacity="0.8">
<path d="M48.2066 70.7184C48.1288 69.9215 47.4196 69.3384 46.6224 69.4161C46.6038 69.4179 46.5851 69.4201 46.5664 69.4227L46.5722 69.4212C44.5308 69.6583 42.4686 69.6583 40.4271 69.4212C39.6315 69.3279 38.911 69.8972 38.8176 70.6929C38.7243 71.4885 39.2936 72.209 40.0893 72.3024C42.3533 72.5668 44.6403 72.5668 46.9043 72.3024C47.7012 72.2248 48.2843 71.5156 48.2066 70.7184Z" fill="white"/>
</g>
<g opacity="0.8">
<path d="M65.6849 24.8151C65.1704 24.2016 64.2558 24.1213 63.6422 24.636C63.6402 24.6377 63.6382 24.6395 63.6361 24.6411C63.024 25.1573 62.9461 26.0719 63.4621 26.6841C72.2047 37.0625 71.5359 52.4088 61.9236 61.9873C61.3563 62.5526 61.3547 63.471 61.92 64.0383C62.4853 64.6056 63.4037 64.6073 63.971 64.042C74.6533 53.4002 75.3983 36.3479 65.6849 24.8151Z" fill="white"/>
</g>
<g opacity="0.8">
<path d="M50.34 15.3106C44.6732 13.9525 38.73 14.3175 33.272 16.3589C32.5224 16.6408 32.1434 17.477 32.4252 18.2265C32.6376 18.7915 33.1778 19.1654 33.7811 19.1659C33.9546 19.165 34.1264 19.1333 34.2885 19.0719C39.2036 17.2338 44.5556 16.9056 49.6585 18.1294C50.4369 18.3175 51.2205 17.8392 51.4086 17.0607C51.5968 16.2822 51.1184 15.4987 50.34 15.3106Z" fill="white"/>
</g>
<g opacity="0.8">
<path d="M25.0111 61.9152C20.123 57.0354 17.3834 50.4073 17.4001 43.5002C17.3858 37.9818 19.1338 32.6031 22.3895 28.1476C22.8708 27.5074 22.7419 26.5984 22.1017 26.1172C21.4615 25.636 20.5526 25.7649 20.0714 26.405C20.0628 26.4165 20.0545 26.4279 20.0463 26.4395C11.663 37.9648 12.8966 53.8733 22.9565 63.9684C23.5234 64.5357 24.4431 64.5361 25.0104 63.9691C25.5777 63.4022 25.5781 62.4825 25.0111 61.9152Z" fill="white"/>
</g>
</svg>
