<svg width="53" height="60" viewBox="0 0 53 60" fill="none" xmlns="http://www.w3.org/2000/svg">
<path d="M42.5112 49.1387C42.7263 48.9645 42.8642 48.6977 42.8642 48.3983C42.8642 48.39 42.8642 5.16196 42.8642 5.16196C42.8642 4.63666 42.4407 4.21101 41.9179 4.21101H14.5392C13.8641 2.01078 11.8219 0.407227 9.41377 0.407227C7.0444 0.407227 4.97117 1.99391 4.28918 4.21101H1.25688C0.734126 4.21101 0.310547 4.63666 0.310547 5.16196V59.0489C0.310547 59.5742 0.734126 59.9999 1.25688 59.9999H31.3108C31.6168 59.9999 31.882 59.8614 32.0555 59.6456L42.5112 49.1387ZM32.2653 56.7449V49.3493H39.6249L32.2653 56.7449ZM9.41377 2.30912C10.7592 2.30912 11.9275 3.08319 12.5028 4.21101H6.32443C6.90535 3.07647 8.08776 2.30912 9.41377 2.30912ZM2.20321 6.11291H12.8837V12.7695C12.8837 13.6435 12.1762 14.3544 11.3064 14.3544C10.4367 14.3544 9.72921 13.6435 9.72921 12.7695V8.96575C9.72921 8.44044 9.30563 8.0148 8.78288 8.0148C8.26012 8.0148 7.83654 8.44044 7.83654 8.96575V12.7695C7.83654 14.6921 9.3932 16.2563 11.3064 16.2563C13.2197 16.2563 14.7763 14.6921 14.7763 12.7695V6.11291H40.9716V47.4474H31.319C30.7962 47.4474 30.3726 47.873 30.3726 48.3983V58.098H2.20321V6.11291Z" fill="white" fill-opacity="0.5"/>
<path d="M34.3469 44.2144C34.8696 44.2144 35.2932 43.7887 35.2932 43.2634C35.2932 42.7381 34.8696 42.3125 34.3469 42.3125H8.82719C8.30444 42.3125 7.88086 42.7381 7.88086 43.2634C7.88086 43.7887 8.30444 44.2144 8.82719 44.2144H34.3469Z" fill="white" fill-opacity="0.5"/>
<path d="M8.82719 38.5083H34.3469C34.8696 38.5083 35.2932 38.0827 35.2932 37.5574C35.2932 37.0321 34.8696 36.6064 34.3469 36.6064H8.82719C8.30444 36.6064 7.88086 37.0321 7.88086 37.5574C7.88086 38.0827 8.30444 38.5083 8.82719 38.5083Z" fill="white" fill-opacity="0.5"/>
<path d="M8.82719 32.8033H34.3469C34.8696 32.8033 35.2932 32.3776 35.2932 31.8523C35.2932 31.327 34.8696 30.9014 34.3469 30.9014H8.82719C8.30444 30.9014 7.88086 31.327 7.88086 31.8523C7.88086 32.3776 8.30444 32.8033 8.82719 32.8033Z" fill="white" fill-opacity="0.5"/>
<path d="M8.82719 27.0972H34.3469C34.8696 27.0972 35.2932 26.6716 35.2932 26.1463C35.2932 25.621 34.8696 25.1953 34.3469 25.1953H8.82719C8.30444 25.1953 7.88086 25.621 7.88086 26.1463C7.88086 26.6716 8.30444 27.0972 8.82719 27.0972Z" fill="white" fill-opacity="0.5"/>
<path d="M8.82719 21.3912H34.3469C34.8696 21.3912 35.2932 20.9655 35.2932 20.4402C35.2932 19.9149 34.8696 19.4893 34.3469 19.4893H8.82719C8.30444 19.4893 7.88086 19.9149 7.88086 20.4402C7.88086 20.9655 8.30444 21.3912 8.82719 21.3912Z" fill="white" fill-opacity="0.5"/>
<path d="M46.9647 4.21094H45.7029C45.1802 4.21094 44.7566 4.63658 44.7566 5.16188C44.7566 5.68719 45.1802 6.11283 45.7029 6.11283H46.0184V58.0979H35.9151C35.3923 58.0979 34.9688 58.5236 34.9688 59.0489C34.9688 59.5742 35.3923 59.9998 35.9151 59.9998H46.9647C47.4875 59.9998 47.9111 59.5742 47.9111 59.0489V5.16188C47.9111 4.63658 47.4875 4.21094 46.9647 4.21094Z" fill="white" fill-opacity="0.5"/>
<path d="M52.0118 4.21094H50.75C50.2273 4.21094 49.8037 4.63658 49.8037 5.16188C49.8037 5.68719 50.2273 6.11283 50.75 6.11283H51.0655V58.0979H50.75C50.2273 58.0979 49.8037 58.5236 49.8037 59.0489C49.8037 59.5742 50.2273 59.9998 50.75 59.9998H52.0118C52.5346 59.9998 52.9581 59.5742 52.9581 59.0489V5.16188C52.9581 4.63658 52.5346 4.21094 52.0118 4.21094Z" fill="white" fill-opacity="0.5"/>
</svg>
