<svg width="90" height="88" viewBox="0 0 90 88" fill="none" xmlns="http://www.w3.org/2000/svg">
<path d="M83.6083 23.057C76.6232 15.7909 65.4548 14.1378 56.9345 18.0976C50.3716 21.1347 47.3013 26.6708 46.4569 28.247C42.1584 36.5895 44.5763 44.586 45.0753 46.1623C46.0731 45.1627 47.5699 43.894 49.5657 42.7022C49.3738 42.5485 49.1435 42.3562 48.9516 42.1256C47.2629 40.1649 47.4932 37.6275 47.4932 37.4353C47.6851 35.5131 48.7981 33.9753 51.523 31.5917C56.5507 27.209 60.1584 24.0566 65.9537 23.403C67.7192 23.2108 70.7512 22.9032 74.1286 24.4026C75.3183 24.9408 78.8876 26.5939 80.7298 30.669C81.0753 31.3995 82.1883 34.0906 81.6126 37.5122C81.4207 38.6656 81.0753 40.8185 79.3866 42.5485C78.5038 43.4711 77.4676 44.0094 76.2011 44.3938C77.4676 45.4318 78.7341 46.6621 79.8855 48.1998C81.9196 50.9294 82.9175 53.5821 83.4164 55.3506C84.8365 53.8512 89.1733 48.9303 89.9026 41.2798C90.0177 40.088 90.7469 30.4768 83.6083 23.057Z" fill="#C75443"/>
<path d="M53.3272 39.6266C54.6321 39.4728 55.8602 39.2806 57.1268 38.973C57.5873 38.8577 57.856 38.7808 58.0863 38.5886C58.7387 38.0119 58.6236 36.9739 58.5852 36.6279C58.4317 34.9363 56.9732 33.9752 56.8581 33.8983C56.4743 33.6676 56.1289 33.437 55.63 33.3985C54.2099 33.2832 53.1353 34.6288 52.4828 35.7437C52.0607 36.5126 50.8709 39.0884 52.2142 39.6266C52.4828 39.7419 52.8283 39.7419 53.1353 39.7035C53.2121 39.6266 53.2888 39.6266 53.3272 39.6266Z" fill="#C75443"/>
<path d="M70.4831 31.284C71.1739 30.2845 72.2869 29.6309 73.3616 29.0542C74.014 28.7082 74.7432 28.4776 75.3957 28.8236C76.0098 29.1696 76.5087 29.7078 76.9309 30.2845C77.5449 31.0534 78.0822 31.976 78.3509 32.9372C78.5428 33.6292 79.0034 35.1285 78.466 36.9354C77.8136 39.1652 76.1633 40.357 75.6643 40.6645C73.8221 41.8948 71.9031 41.8948 70.8669 41.8948C68.2187 41.8563 66.3381 40.7799 64.2272 39.5881C62.3083 38.4732 61.1185 37.7812 60.3509 36.2818C59.4682 34.5518 59.7368 32.8987 59.8136 32.5912C60.159 30.5536 61.5023 29.3618 61.9628 28.9774C63.7283 27.4396 66.2997 26.7091 68.0268 27.478C68.2955 27.5933 68.9479 27.8625 69.1014 28.4391C69.2166 28.8236 69.0247 29.2849 68.6793 30.2076C68.449 30.7843 68.1036 31.3225 68.1036 31.9376C68.1036 32.0914 68.142 32.2452 68.2187 32.3989C68.3338 32.5912 68.6025 32.7065 68.8712 32.7065C69.8306 32.668 70.0609 31.8991 70.4831 31.284Z" fill="#C75443"/>
<path d="M37.2079 46.0086C35.4808 45.7011 29.4936 44.5477 24.4275 39.3193C23.3145 38.1659 18.0565 32.5145 17.9414 23.9414C17.903 20.5582 18.6322 17.7902 19.2847 16.0986C17.2506 16.4831 10.8412 17.9055 5.77507 23.6722C5.00748 24.5565 -1.21 31.861 0.210039 42.0488C0.824112 41.0108 1.89874 40.2419 3.12688 40.2419H9.30599C8.7303 40.2419 8.30812 39.7806 8.30812 39.2424C8.30812 38.7041 8.76867 38.2428 9.30599 38.2428H11.839C12.4147 38.2428 12.8369 38.7041 12.8369 39.2424C12.8369 39.7806 12.3764 40.2419 11.839 40.2419H18.0181C19.7452 40.2419 21.1653 41.7797 21.4339 43.4328H0.440317C0.555455 43.9326 0.632214 44.394 0.785732 44.8937H21.5107V45.2013H25.0032V46.6622H21.5107V55.3892C21.5107 57.3114 19.9371 58.8876 18.0181 58.8876H11.3017C13.6429 60.3101 16.1759 61.3481 18.8241 61.8863C25.9243 63.3088 31.6429 60.6561 33.2548 59.8487C41.6216 55.6198 44.3465 47.7387 44.8838 46.1624C43.08 46.3546 40.3934 46.5469 37.2079 46.0086ZM7.15673 35.2057C7.00322 35.3594 6.81132 35.4363 6.61942 35.4748C6.42752 35.5132 6.27401 35.4748 6.12049 35.3979C6.23563 35.2826 6.35076 35.2057 6.42752 35.0903C6.50428 34.975 6.54266 34.8981 6.54266 34.8212C6.54266 34.7443 6.50428 34.7059 6.4659 34.629C6.42752 34.5521 6.38914 34.4752 6.31239 34.3983C6.19725 34.2446 6.00535 34.0523 5.85183 33.8985L5.58317 33.6294C5.46804 33.5141 5.3529 33.3603 5.27614 33.245C5.08424 32.9759 4.89234 32.6299 4.81558 32.2839C4.70044 31.9379 4.70044 31.515 4.7772 31.169C4.9691 30.4385 5.54479 29.9003 6.15887 29.7465C5.92859 30.3232 5.81345 30.8614 5.89021 31.2843C5.96697 31.6688 6.15887 32.0148 6.42752 32.3992C6.50428 32.4761 6.58104 32.5914 6.6578 32.6683C6.73456 32.7837 6.8497 32.899 6.92646 33.0528C7.11836 33.3219 7.27187 33.6294 7.38701 33.9754C7.42539 34.1677 7.46377 34.3599 7.46377 34.5906C7.38701 34.7828 7.31025 35.0519 7.15673 35.2057ZM10.9179 35.2057C10.7644 35.3594 10.5725 35.4363 10.3806 35.4748C10.1887 35.5132 10.0352 35.4748 9.88168 35.3979C9.99682 35.2826 10.112 35.2057 10.1887 35.0903C10.2655 34.975 10.3039 34.8981 10.3039 34.8212C10.3039 34.7443 10.2655 34.7059 10.2271 34.629C10.1887 34.5521 10.1503 34.4752 10.0736 34.3983C9.92006 34.2446 9.76654 34.0523 9.61302 33.8985L9.34437 33.6294C9.22923 33.5141 9.11409 33.3603 9.03733 33.245C8.84543 32.9759 8.65354 32.6299 8.57678 32.2839C8.46164 31.9379 8.46164 31.515 8.5384 31.169C8.7303 30.4385 9.26761 29.9003 9.92006 29.7465C9.68978 30.3232 9.61302 30.8614 9.6514 31.2459C9.72816 31.6303 9.92006 31.9763 10.1887 32.3608C10.2655 32.4376 10.3422 32.553 10.419 32.6299C10.4958 32.7452 10.6109 32.8605 10.6877 33.0143C10.8795 33.2834 11.0331 33.591 11.1482 33.937C11.1866 34.1292 11.225 34.3214 11.225 34.5521C11.1482 34.7828 11.0714 35.0519 10.9179 35.2057ZM14.3337 35.2057C14.1802 35.3594 13.9883 35.4363 13.7964 35.4748C13.6045 35.5132 13.451 35.4748 13.2975 35.3979C13.4126 35.2826 13.5277 35.2057 13.6045 35.0903C13.6813 34.975 13.7196 34.8981 13.7196 34.8212C13.7196 34.7443 13.6813 34.7059 13.6429 34.629C13.6045 34.5521 13.5661 34.4752 13.4894 34.3983C13.3742 34.2446 13.1823 34.0523 13.0288 33.8985L12.7601 33.6294C12.645 33.5141 12.5299 33.3603 12.4531 33.245C12.2612 32.9759 12.0693 32.6299 11.9926 32.2839C11.8774 31.9379 11.8774 31.515 11.9542 31.169C12.1461 30.4385 12.7218 29.9003 13.3358 29.7465C13.1056 30.3232 13.0288 30.8614 13.0672 31.2843C13.1439 31.6688 13.3358 32.0148 13.6045 32.3992C13.6813 32.4761 13.758 32.5914 13.8348 32.6683C13.9115 32.7837 14.0267 32.899 14.1034 33.0528C14.2953 33.3219 14.4488 33.6294 14.564 33.9754C14.6024 34.1677 14.6407 34.3599 14.6407 34.5906C14.6024 34.7828 14.4872 35.0519 14.3337 35.2057Z" fill="#D67796"/>
<path d="M75.3186 48.8533C70.406 43.5095 64.2269 42.3177 62.4614 42.0101C53.2503 40.5108 46.3804 45.2779 45.0371 46.239C46.6491 47.0848 48.9518 48.5073 51.1778 50.814C51.907 51.5444 53.5957 53.3898 55.1309 56.2347C56.1672 56.0424 57.165 55.8118 58.2013 55.6195C58.2781 55.3889 58.5851 54.5431 58.2397 53.5435C57.8559 52.3902 56.9348 51.852 56.7429 51.7366C57.3569 51.5444 58.9305 51.1984 60.7727 51.7366C63.1139 52.4286 64.3036 54.1586 64.6491 54.6584C65.5318 54.62 66.7983 54.6969 68.2951 55.1198C71.1736 55.9271 73.0158 57.6187 74.2056 58.772C75.2034 59.6947 76.5851 61.2325 77.7749 63.4623C77.0457 64.5772 76.2781 65.6536 75.5488 66.7685C76.4316 66.9223 77.3527 67.0761 78.2354 67.2299C76.6235 69.7288 74.858 71.305 73.6683 72.2277C68.6405 76.0337 61.8857 77.0717 56.3207 75.3801C55.745 76.9179 54.939 78.4942 53.8644 80.0319C51.907 82.8 49.681 84.5684 48.1842 85.6064C50.0264 86.4907 56.052 89.1049 63.5744 87.4133C64.7258 87.1442 74.052 84.876 78.8879 75.803C83.5702 66.8839 81.6896 55.7349 75.3186 48.8533Z" fill="#209CD0"/>
<path d="M68.9856 63.3856C69.9182 63.3856 70.6743 62.6282 70.6743 61.694C70.6743 60.7598 69.9182 60.0024 68.9856 60.0024C68.0529 60.0024 67.2969 60.7598 67.2969 61.694C67.2969 62.6282 68.0529 63.3856 68.9856 63.3856Z" fill="#209CD0"/>
<path d="M65.0711 58.3107C65.3013 58.5029 62.3461 61.0787 62.3461 64.8078C62.3461 67.7681 64.2267 70.1901 65.6468 71.651C62.7683 70.959 60.5806 68.7292 60.1585 66.0381C59.3909 61.2325 64.8024 58.1184 65.0711 58.3107Z" fill="#209CD0"/>
<path d="M54.2104 1.83559C53.1358 1.37425 44.2317 -2.278 34.9823 2.22003C25.9247 6.64118 20.9354 16.7521 22.0484 26.0942C22.9311 33.3218 27.1912 37.9352 28.4577 39.2039C35.0206 45.8548 43.3874 46.047 45.0377 46.047C44.2317 44.4324 43.1955 41.895 42.7733 38.7041C42.6582 37.9352 42.4663 36.3205 42.543 34.2061H35.6347V33.7063C35.6347 33.2065 35.4428 32.6683 35.1742 32.1685H42.6966C42.7349 31.8225 42.7733 31.5149 42.8501 31.1689H34.4066C33.5238 30.1694 32.2573 29.2082 31.0676 28.324C29.8394 27.3629 28.6496 26.4787 27.9972 25.5944C27.1912 25.5944 26.5004 24.9024 26.5004 24.0951C26.5004 23.2493 27.1912 22.5573 28.0356 22.5573H46.2275C46.5729 22.0191 47.0334 21.4424 47.5324 20.7888C47.2637 20.3275 46.8032 20.0199 46.2275 20.0199H43.7328C43.4641 20.0199 43.2339 19.7893 43.2339 19.5202C43.2339 19.2511 43.4641 19.0204 43.7328 19.0204H46.2659C47.0718 19.0204 47.801 19.4048 48.2616 20.0199C48.3767 19.9046 48.4919 19.7508 48.607 19.6355C48.0313 18.9819 47.2253 18.5206 46.3042 18.5206H43.2722C43.0036 18.5206 42.7733 18.2899 42.7733 18.0208C42.7733 17.7517 43.0036 17.521 43.2722 17.521H46.3042C47.494 17.521 48.607 18.0593 49.3362 18.9051C49.4514 18.7897 49.5665 18.6744 49.6816 18.559C48.8373 17.6364 47.6475 17.0213 46.3042 17.0213H42.7733C42.5047 17.0213 42.2744 16.7906 42.2744 16.5215C42.2744 16.2524 42.5047 16.0217 42.7733 16.0217H46.3042C47.9546 16.0217 49.413 16.7521 50.4492 17.867C52.3298 16.2139 54.7477 14.6377 57.7797 13.5997C61.0036 12.4848 63.8437 12.3694 65.6475 12.4463C64.6113 10.5625 61.2723 4.87272 54.2104 1.83559ZM43.7328 20.5197H46.2659C46.5345 20.5197 46.7648 20.7504 46.7648 21.0195C46.7648 21.2886 46.5345 21.5193 46.2659 21.5193H43.7328C43.4641 21.5193 43.2339 21.2886 43.2339 21.0195C43.2339 20.712 43.4258 20.5197 43.7328 20.5197ZM44.7307 7.33318C45.8437 7.33318 46.7648 8.25586 46.7648 9.37075C46.7648 10.4857 45.8437 11.4083 44.7307 11.4083C43.6177 11.4083 42.6966 10.4857 42.6966 9.37075C42.6966 8.25586 43.6177 7.33318 44.7307 7.33318ZM39.4343 8.33275C40.7008 8.33275 41.6987 9.37075 41.6987 10.601C41.6987 11.8312 40.6624 12.8692 39.4343 12.8692C38.1678 12.8692 37.1699 11.8312 37.1699 10.601C37.1699 9.37075 38.1678 8.33275 39.4343 8.33275ZM31.6049 22.0191C31.3362 22.0191 31.1059 21.7884 31.1059 21.5193C31.1059 18.4437 33.6006 15.9448 36.671 15.9448H37.6688C37.9375 15.9448 38.1678 16.1755 38.1678 16.4446C38.1678 16.7137 37.9375 16.9444 37.6688 16.9444H36.671C34.1763 16.9444 32.1038 18.9819 32.1038 21.5193C32.1038 21.7884 31.8735 22.0191 31.6049 22.0191ZM33.1017 22.0191C32.833 22.0191 32.6027 21.7884 32.6027 21.5193C32.6027 19.2895 34.4066 17.4826 36.6326 17.4826H38.6667C38.9354 17.4826 39.1656 17.7133 39.1656 17.9824C39.1656 18.2515 38.9354 18.4822 38.6667 18.4822H36.6326C34.9439 18.4822 33.6006 19.8277 33.6006 21.5193C33.6006 21.7884 33.3703 22.0191 33.1017 22.0191ZM39.1656 21.5193H36.6326C36.3639 21.5193 36.1337 21.2886 36.1337 21.0195C36.1337 20.7504 36.3639 20.5197 36.6326 20.5197H39.1656C39.4343 20.5197 39.6646 20.7504 39.6646 21.0195C39.6646 21.2886 39.4343 21.5193 39.1656 21.5193ZM39.1656 19.9815H36.6326C35.7882 19.9815 35.0974 20.6735 35.0974 21.5193C35.0974 21.7884 34.8671 22.0191 34.5985 22.0191C34.3298 22.0191 34.0995 21.7884 34.0995 21.5193C34.0995 20.1353 35.2509 18.9819 36.6326 18.9819H39.1656C39.4343 18.9819 39.6646 19.2126 39.6646 19.4817C39.6646 19.7893 39.4343 19.9815 39.1656 19.9815ZM40.7008 22.0191C40.4322 22.0191 40.2019 21.7884 40.2019 21.5193C40.2019 17.0981 38.897 14.9452 36.172 14.9452C35.9034 14.9452 35.6731 15.1759 35.6731 15.445C35.6731 15.7141 35.4428 15.9448 35.1742 15.9448C34.9055 15.9448 34.6752 15.7141 34.6752 15.445C34.6752 14.5992 35.3661 13.9072 36.2104 13.9072C38.5132 13.9072 41.2765 15.2144 41.2765 21.5193C41.1998 21.7884 40.9695 22.0191 40.7008 22.0191ZM42.6966 21.5193C42.6966 21.7884 42.4663 22.0191 42.1976 22.0191C41.929 22.0191 41.6987 21.7884 41.6987 21.5193C41.6987 19.0973 41.1614 13.4075 36.1337 13.4075C34.752 13.4075 33.6006 14.5608 33.6006 15.9448V16.4446C33.6006 16.7137 33.3703 16.9444 33.1017 16.9444C32.833 16.9444 32.6027 16.7137 32.6027 16.4446V15.9448C32.6027 13.9841 34.1763 12.4079 36.1337 12.4079C40.2403 12.4079 42.6966 15.791 42.6966 21.5193ZM43.2339 15.445C42.1209 15.445 41.1998 14.5223 41.1998 13.4075C41.1998 12.2926 42.1209 11.3699 43.2339 11.3699C44.3469 11.3699 45.268 12.2926 45.268 13.4075C45.2296 14.5223 44.3469 15.445 43.2339 15.445ZM47.7627 15.9448C46.6496 15.9448 45.7285 15.0221 45.7285 13.9072C45.7285 12.7923 46.6496 11.8697 47.7627 11.8697C48.8757 11.8697 49.7968 12.7923 49.7968 13.9072C49.7968 15.0221 48.8757 15.9448 47.7627 15.9448Z" fill="#DE9A25"/>
<path d="M54.2867 61.5017C52.8666 52.2365 46.227 47.2002 44.8837 46.2007C44.5766 48.0076 43.9242 50.6218 42.4274 53.4667C42.082 54.1203 41.3144 55.5043 40.0479 57.119C40.969 57.3112 41.8901 57.6188 42.7728 58.2339C45.3442 59.9639 46.1502 62.9241 46.534 64.2313C47.0713 66.1535 46.9946 67.7682 46.9178 68.614C46.841 69.652 46.7259 71.728 45.5361 74.0347C45.3059 74.5345 43.8091 77.4178 41.3911 78.5711C40.0862 79.1863 38.6662 79.3785 38.6662 79.3785C38.3208 79.4169 38.0138 79.4169 37.8219 79.4169C38.0905 79.4938 38.4743 79.6476 38.7813 79.9936C39.4338 80.7241 39.2803 81.8774 38.9349 82.5694C38.3208 83.8381 36.7856 84.2225 34.9818 84.6454C33.485 84.9914 32.1801 85.0683 31.2973 85.0299C29.9157 85.8756 28.534 86.683 27.1523 87.5288C27.1907 87.5288 27.2675 87.5672 27.3059 87.5672C37.2462 89.3357 47.2248 84.1072 51.792 75.88C55.3229 69.5366 54.5553 63.2701 54.2867 61.5017Z" fill="#79AE41"/>
<path d="M21.0886 85.4526C22.3168 84.7991 23.8903 84.4915 25.0417 83.4535C25.1952 83.2997 25.4255 83.0691 25.6174 82.7999C26.0396 82.0695 26.0779 81.3391 26.0779 80.9546C26.0779 80.4548 25.9628 79.5321 24.6195 77.0717C24.0054 75.9952 23.5449 75.2263 23.1227 73.9192C22.8924 73.2657 22.7389 72.6121 23.0843 72.0739C23.3146 71.6894 23.6984 71.5356 24.0438 71.4203C24.773 71.1128 25.1952 71.305 26.385 71.0743C26.7304 70.9974 26.9991 70.959 27.1526 70.9205C26.8839 69.9979 26.6153 68.5754 26.8072 66.8838C26.8839 66.384 26.9607 65.9227 27.1142 65.4229C24.0822 66.1149 20.014 66.4609 15.6003 65.0769C12.3765 64.0774 9.99692 62.5011 8.5385 61.3862C8.26984 63.4238 7.61739 69.9594 11.5705 76.6103C11.9927 77.3408 15.063 82.3386 21.0886 85.4526C21.0502 85.4526 21.0886 85.4526 21.0886 85.4526Z" fill="#79AE41"/>
<path d="M40.4315 73.8042C39.5488 73.4967 39.0115 73.8811 37.8217 73.9196C37.3612 73.958 36.7087 73.9196 35.8644 73.6505C36.0946 73.3045 36.4401 72.8047 36.8239 72.1896C37.5531 71.0362 37.9369 70.3442 38.2439 69.3446C38.3974 68.8449 38.4358 68.2297 38.5509 67.0764C38.5893 66.692 38.5893 66.2691 38.3974 66.1537C38.2055 66.0384 37.9752 66.1537 37.8217 66.2691C37.3996 66.6151 37.3996 67.3071 37.3996 67.6915C37.3612 68.6911 36.7855 69.6522 35.6725 71.6129C35.3654 72.1127 34.9816 72.7662 34.4059 73.4967C34.2141 73.1507 33.9454 72.574 33.7919 71.8051C33.6384 71.2284 33.6767 71.0362 33.4848 70.152C33.1778 68.5757 32.8708 68.2682 32.6405 68.1529C32.4102 67.9991 32.0648 67.9222 31.8729 68.076C31.6426 68.2682 31.8729 68.768 31.8729 68.9986C31.9113 70.6133 32.1032 71.536 32.1416 72.3433C32.2951 76.034 31.988 76.9183 31.5275 77.5334C31.0286 78.2254 30.3761 78.6098 29.9155 78.802C29.8004 78.4945 29.6469 78.11 29.4934 77.5718C29.1096 76.4185 29.0328 75.8418 28.5723 75.1114C28.342 74.7269 28.035 74.304 27.7279 74.3425C27.3441 74.3809 27.1522 75.0345 27.1522 75.1114C27.8047 76.4954 27.8047 76.5338 27.8047 76.5338C27.9198 76.7645 28.5339 78.1869 28.4571 79.6478C28.3804 81.4932 27.1906 82.8003 26.5381 83.5308C25.7706 84.3765 25.003 84.8379 23.6981 85.7221C23.3143 85.9528 23.0072 86.145 22.7002 86.3372C23.5445 86.6832 24.3889 86.9908 25.2332 87.2214C25.2716 87.183 25.3484 87.1446 25.3868 87.1061C27.3057 85.6452 27.7663 85.6452 29.0712 84.5303C30.9518 82.9156 30.6448 82.339 31.7578 81.993C32.3718 81.8007 33.3697 81.8007 35.3654 81.7239C36.0179 81.7239 36.6703 81.7238 36.7471 81.4547C36.7855 81.2241 36.3249 80.955 36.0946 80.8012C35.7876 80.6089 35.0584 80.1861 33.7919 80.0707C33.3313 80.0323 32.6021 80.0323 31.7961 80.1861C31.9113 79.9169 32.0648 79.5325 32.2951 79.148C32.5254 78.7636 33.7151 76.6876 35.9411 75.9187C37.1693 75.4958 38.0136 75.7265 40.3932 75.0729C40.7002 74.996 41.2759 74.8422 41.3143 74.5347C41.3526 74.2271 40.777 73.9196 40.4315 73.8042Z" fill="#79AE41"/>
</svg>
